solid patch0
 facet normal 0.5 -0.866025 -3.59813e-15
  outer loop
   vertex -0.168353 0.19725 0.201967
   vertex -0.192173 0.183498 0.237689
   vertex -0.195213 0.181743 0.234579
  endloop
 endfacet
 facet normal 0.5 -0.866025 1.02893e-15
  outer loop
   vertex -0.168353 0.19725 0.201967
   vertex -0.195213 0.181743 0.234579
   vertex -0.198012 0.180126 0.231183
  endloop
 endfacet
 facet normal 0.5 -0.866025 1.02771e-15
  outer loop
   vertex -0.168353 0.19725 0.201967
   vertex -0.198012 0.180126 0.231183
   vertex -0.200551 0.178661 0.227523
  endloop
 endfacet
 facet normal 0.5 -0.866025 2.57121e-16
  outer loop
   vertex -0.167031 0.198013 0.203253
   vertex -0.185462 0.187372 0.242956
   vertex -0.188915 0.185379 0.240487
  endloop
 endfacet
 facet normal 0.5 -0.866025 -7.71571e-16
  outer loop
   vertex -0.167031 0.198013 0.203253
   vertex -0.188915 0.185379 0.240487
   vertex -0.192173 0.183498 0.237689
  endloop
 endfacet
 facet normal 0.5 -0.866025 -1.50715e-16
  outer loop
   vertex -0.167031 0.198013 0.203253
   vertex -0.192173 0.183498 0.237689
   vertex -0.168353 0.19725 0.201967
  endloop
 endfacet
 facet normal 0.5 -0.866025 -5.14304e-16
  outer loop
   vertex -0.169428 0.196629 0.200403
   vertex -0.200551 0.178661 0.227523
   vertex -0.20281 0.177356 0.223626
  endloop
 endfacet
 facet normal 0.5 -0.866025 -1.54252e-15
  outer loop
   vertex -0.169428 0.196629 0.200403
   vertex -0.20281 0.177356 0.223626
   vertex -0.204774 0.176222 0.219522
  endloop
 endfacet
 facet normal 0.5 -0.866025 2.26209e-15
  outer loop
   vertex -0.169428 0.196629 0.200403
   vertex -0.168353 0.19725 0.201967
   vertex -0.200551 0.178661 0.227523
  endloop
 endfacet
 facet normal 0.5 -0.866025 1.09311e-15
  outer loop
   vertex -0.165513 0.19889 0.204211
   vertex -0.178075 0.191637 0.246831
   vertex -0.18184 0.189463 0.245075
  endloop
 endfacet
 facet normal 0.5 -0.866025 -3.85639e-16
  outer loop
   vertex -0.165513 0.19889 0.204211
   vertex -0.18184 0.189463 0.245075
   vertex -0.185462 0.187372 0.242956
  endloop
 endfacet
 facet normal 0.5 -0.866025 -1.69489e-15
  outer loop
   vertex -0.165513 0.19889 0.204211
   vertex -0.185462 0.187372 0.242956
   vertex -0.167031 0.198013 0.203253
  endloop
 endfacet
 facet normal 0.5 -0.866025 -1.02842e-15
  outer loop
   vertex -0.170213 0.196176 0.198623
   vertex -0.204774 0.176222 0.219522
   vertex -0.206429 0.175267 0.215239
  endloop
 endfacet
 facet normal 0.5 -0.866025 1.54284e-15
  outer loop
   vertex -0.170213 0.196176 0.198623
   vertex -0.206429 0.175267 0.215239
   vertex -0.207761 0.174498 0.210809
  endloop
 endfacet
 facet normal 0.5 -0.866025 -1.92063e-15
  outer loop
   vertex -0.170213 0.196176 0.198623
   vertex -0.169428 0.196629 0.200403
   vertex -0.204774 0.176222 0.219522
  endloop
 endfacet
 facet normal 0.5 -0.866025 -1.92803e-16
  outer loop
   vertex -0.163861 0.199843 0.204801
   vertex -0.166198 0.198494 0.2498
   vertex -0.170225 0.196169 0.249202
  endloop
 endfacet
 facet normal 0.5 -0.866025 -9.64561e-17
  outer loop
   vertex -0.163861 0.199843 0.204801
   vertex -0.170225 0.196169 0.249202
   vertex -0.174194 0.193878 0.24821
  endloop
 endfacet
 facet normal 0.5 -0.866025 -1.92703e-16
  outer loop
   vertex -0.163861 0.199843 0.204801
   vertex -0.174194 0.193878 0.24821
   vertex -0.178075 0.191637 0.246831
  endloop
 endfacet
 facet normal 0.5 -0.866025 1.60268e-15
  outer loop
   vertex -0.163861 0.199843 0.204801
   vertex -0.178075 0.191637 0.246831
   vertex -0.165513 0.19889 0.204211
  endloop
 endfacet
 facet normal 0.5 -0.866025 -5.14115e-16
  outer loop
   vertex -0.170653 0.195922 0.196843
   vertex -0.207761 0.174498 0.210809
   vertex -0.208762 0.17392 0.206264
  endloop
 endfacet
 facet normal 0.5 -0.866025 1.54292e-15
  outer loop
   vertex -0.170653 0.195922 0.196843
   vertex -0.208762 0.17392 0.206264
   vertex -0.209424 0.173538 0.201637
  endloop
 endfacet
 facet normal 0.5 -0.866025 6.09586e-16
  outer loop
   vertex -0.170653 0.195922 0.196843
   vertex -0.170213 0.196176 0.198623
   vertex -0.207761 0.174498 0.210809
  endloop
 endfacet
 facet normal 0.5 -0.866025 0
  outer loop
   vertex -0.162141 0.200836 0.205
   vertex -0.162141 0.200836 0.25
   vertex -0.166198 0.198494 0.2498
  endloop
 endfacet
 facet normal 0.5 -0.866025 -4.7093e-16
  outer loop
   vertex -0.162141 0.200836 0.205
   vertex -0.166198 0.198494 0.2498
   vertex -0.163861 0.199843 0.204801
  endloop
 endfacet
 facet normal 0.5 -0.866025 7.23338e-16
  outer loop
   vertex -0.170801 0.195836 0.194999
   vertex -0.209424 0.173538 0.201637
   vertex -0.209685 0.173387 0.198321
  endloop
 endfacet
 facet normal 0.5 -0.866025 1.44749e-15
  outer loop
   vertex -0.170801 0.195836 0.194999
   vertex -0.209685 0.173387 0.198321
   vertex -0.209772 0.173336 0.194992
  endloop
 endfacet
 facet normal 0.5 -0.866025 3.32716e-15
  outer loop
   vertex -0.170801 0.195836 0.194999
   vertex -0.170653 0.195922 0.196843
   vertex -0.209424 0.173538 0.201637
  endloop
 endfacet
 facet normal 0.5 -0.866025 0
  outer loop
   vertex -0.092859 0.240836 0.205
   vertex -0.092859 0.240836 0.25
   vertex -0.162141 0.200836 0.25
  endloop
 endfacet
 facet normal 0.5 -0.866025 0
  outer loop
   vertex -0.092859 0.240836 0.205
   vertex -0.0888022 0.243179 0.2498
   vertex -0.092859 0.240836 0.25
  endloop
 endfacet
 facet normal 0.5 -0.866025 0
  outer loop
   vertex -0.092859 0.240836 0.205
   vertex -0.162141 0.200836 0.25
   vertex -0.162141 0.200836 0.205
  endloop
 endfacet
 facet normal 0.5 -0.866025 4.01672e-17
  outer loop
   vertex -0.0911385 0.24183 0.204801
   vertex -0.0847748 0.245504 0.249202
   vertex -0.0888022 0.243179 0.2498
  endloop
 endfacet
 facet normal 0.5 -0.866025 -6.43041e-17
  outer loop
   vertex -0.0911385 0.24183 0.204801
   vertex -0.0808062 0.247795 0.24821
   vertex -0.0847748 0.245504 0.249202
  endloop
 endfacet
 facet normal 0.5 -0.866025 -3.21172e-16
  outer loop
   vertex -0.0911385 0.24183 0.204801
   vertex -0.0769252 0.250036 0.246831
   vertex -0.0808062 0.247795 0.24821
  endloop
 endfacet
 facet normal 0.5 -0.866025 1.08314e-16
  outer loop
   vertex -0.0911385 0.24183 0.204801
   vertex -0.0888022 0.243179 0.2498
   vertex -0.092859 0.240836 0.205
  endloop
 endfacet
 facet normal 0.5 -0.866025 0
  outer loop
   vertex -0.0894868 0.242783 0.204211
   vertex -0.07316 0.25221 0.245075
   vertex -0.0769252 0.250036 0.246831
  endloop
 endfacet
 facet normal 0.5 -0.866025 -3.85639e-16
  outer loop
   vertex -0.0894868 0.242783 0.204211
   vertex -0.069538 0.254301 0.242956
   vertex -0.07316 0.25221 0.245075
  endloop
 endfacet
 facet normal 0.5 -0.866025 -3.58245e-16
  outer loop
   vertex -0.0894868 0.242783 0.204211
   vertex -0.0769252 0.250036 0.246831
   vertex -0.0911385 0.24183 0.204801
  endloop
 endfacet
 facet normal 0.5 -0.866025 3.85681e-16
  outer loop
   vertex -0.0879693 0.24366 0.203253
   vertex -0.0660853 0.256294 0.240487
   vertex -0.069538 0.254301 0.242956
  endloop
 endfacet
 facet normal 0.5 -0.866025 -2.5719e-16
  outer loop
   vertex -0.0879693 0.24366 0.203253
   vertex -0.0628273 0.258175 0.237689
   vertex -0.0660853 0.256294 0.240487
  endloop
 endfacet
 facet normal 0.5 -0.866025 1.65722e-15
  outer loop
   vertex -0.0879693 0.24366 0.203253
   vertex -0.069538 0.254301 0.242956
   vertex -0.0894868 0.242783 0.204211
  endloop
 endfacet
 facet normal 0.5 -0.866025 1.50715e-16
  outer loop
   vertex -0.0866468 0.244423 0.201967
   vertex -0.0628273 0.258175 0.237689
   vertex -0.0879693 0.24366 0.203253
  endloop
 endfacet
 facet normal 0.5 -0.866025 5.14019e-16
  outer loop
   vertex -0.0866468 0.244423 0.201967
   vertex -0.0597875 0.25993 0.234579
   vertex -0.0628273 0.258175 0.237689
  endloop
 endfacet
 facet normal 0.5 -0.866025 4.50158e-16
  outer loop
   vertex -0.056988 0.261547 0.231183
   vertex -0.0597875 0.25993 0.234579
   vertex -0.0866468 0.244423 0.201967
  endloop
 endfacet
 facet normal 0.5 -0.866025 -7.38666e-16
  outer loop
   vertex -0.0544492 0.263012 0.227523
   vertex -0.056988 0.261547 0.231183
   vertex -0.0866468 0.244423 0.201967
  endloop
 endfacet
 facet normal 0.5 -0.866025 -2.41289e-15
  outer loop
   vertex -0.0544492 0.263012 0.227523
   vertex -0.0866468 0.244423 0.201967
   vertex -0.0855719 0.245044 0.200403
  endloop
 endfacet
 facet normal 0.5 -0.866025 8.35745e-16
  outer loop
   vertex -0.0521896 0.264317 0.223626
   vertex -0.0544492 0.263012 0.227523
   vertex -0.0855719 0.245044 0.200403
  endloop
 endfacet
 facet normal 0.5 -0.866025 -1.15689e-15
  outer loop
   vertex -0.0502255 0.265451 0.219522
   vertex -0.0521896 0.264317 0.223626
   vertex -0.0855719 0.245044 0.200403
  endloop
 endfacet
 facet normal 0.5 -0.866025 2.4102e-15
  outer loop
   vertex -0.0502255 0.265451 0.219522
   vertex -0.0855719 0.245044 0.200403
   vertex -0.0847875 0.245497 0.198623
  endloop
 endfacet
 facet normal 0.5 -0.866025 1.22125e-15
  outer loop
   vertex -0.0485713 0.266406 0.215239
   vertex -0.0502255 0.265451 0.219522
   vertex -0.0847875 0.245497 0.198623
  endloop
 endfacet
 facet normal 0.5 -0.866025 -8.03564e-17
  outer loop
   vertex -0.047239 0.267175 0.210809
   vertex -0.0485713 0.266406 0.215239
   vertex -0.0847875 0.245497 0.198623
  endloop
 endfacet
 facet normal 0.5 -0.866025 -1.30045e-15
  outer loop
   vertex -0.047239 0.267175 0.210809
   vertex -0.0847875 0.245497 0.198623
   vertex -0.0843472 0.245751 0.196843
  endloop
 endfacet
 facet normal 0.5 -0.866025 -1.07643e-15
  outer loop
   vertex -0.0462382 0.267753 0.206264
   vertex -0.047239 0.267175 0.210809
   vertex -0.0843472 0.245751 0.196843
  endloop
 endfacet
 facet normal 0.5 -0.866025 1.44648e-16
  outer loop
   vertex -0.0455763 0.268135 0.201637
   vertex -0.0462382 0.267753 0.206264
   vertex -0.0843472 0.245751 0.196843
  endloop
 endfacet
 facet normal 0.5 -0.866025 -2.60077e-15
  outer loop
   vertex -0.0455763 0.268135 0.201637
   vertex -0.0843472 0.245751 0.196843
   vertex -0.0841987 0.245836 0.194999
  endloop
 endfacet
 facet normal 0.5 -0.866025 -3.22112e-16
  outer loop
   vertex -0.0453149 0.268286 0.198321
   vertex -0.0455763 0.268135 0.201637
   vertex -0.0841987 0.245836 0.194999
  endloop
 endfacet
 facet normal 0.5 -0.866025 1.20436e-15
  outer loop
   vertex -0.0452276 0.268336 0.194992
   vertex -0.0453149 0.268286 0.198321
   vertex -0.0841987 0.245836 0.194999
  endloop
 endfacet
 facet normal 0.5 -0.866025 0
  outer loop
   vertex -0.170801 0.195836 -0.134999
   vertex -0.209772 0.173336 0.194992
   vertex -0.209772 0.173336 -0.134992
  endloop
 endfacet
 facet normal 0.5 -0.866025 -7.23338e-16
  outer loop
   vertex -0.170801 0.195836 -0.134999
   vertex -0.209685 0.173387 -0.138321
   vertex -0.209424 0.173538 -0.141637
  endloop
 endfacet
 facet normal 0.5 -0.866025 -1.44749e-15
  outer loop
   vertex -0.170801 0.195836 -0.134999
   vertex -0.209772 0.173336 -0.134992
   vertex -0.209685 0.173387 -0.138321
  endloop
 endfacet
 facet normal 0.5 -0.866025 0
  outer loop
   vertex -0.170801 0.195836 -0.134999
   vertex -0.170801 0.195836 0.194999
   vertex -0.209772 0.173336 0.194992
  endloop
 endfacet
 facet normal 0.5 -0.866025 -3.32719e-15
  outer loop
   vertex -0.170653 0.195922 -0.136843
   vertex -0.170801 0.195836 -0.134999
   vertex -0.209424 0.173538 -0.141637
  endloop
 endfacet
 facet normal 0.5 -0.866025 5.14115e-16
  outer loop
   vertex -0.170653 0.195922 -0.136843
   vertex -0.208762 0.17392 -0.146264
   vertex -0.207761 0.174498 -0.150809
  endloop
 endfacet
 facet normal 0.5 -0.866025 -1.54292e-15
  outer loop
   vertex -0.170653 0.195922 -0.136843
   vertex -0.209424 0.173538 -0.141637
   vertex -0.208762 0.17392 -0.146264
  endloop
 endfacet
 facet normal 0.5 -0.866025 1.02842e-15
  outer loop
   vertex -0.170213 0.196176 -0.138623
   vertex -0.206429 0.175267 -0.155239
   vertex -0.204774 0.176222 -0.159522
  endloop
 endfacet
 facet normal 0.5 -0.866025 -1.54284e-15
  outer loop
   vertex -0.170213 0.196176 -0.138623
   vertex -0.207761 0.174498 -0.150809
   vertex -0.206429 0.175267 -0.155239
  endloop
 endfacet
 facet normal 0.5 -0.866025 -5.89266e-16
  outer loop
   vertex -0.170213 0.196176 -0.138623
   vertex -0.170653 0.195922 -0.136843
   vertex -0.207761 0.174498 -0.150809
  endloop
 endfacet
 facet normal 0.5 -0.866025 1.92063e-15
  outer loop
   vertex -0.169428 0.196629 -0.140403
   vertex -0.170213 0.196176 -0.138623
   vertex -0.204774 0.176222 -0.159522
  endloop
 endfacet
 facet normal 0.5 -0.866025 5.14304e-16
  outer loop
   vertex -0.169428 0.196629 -0.140403
   vertex -0.20281 0.177356 -0.163626
   vertex -0.200551 0.178661 -0.167523
  endloop
 endfacet
 facet normal 0.5 -0.866025 1.54252e-15
  outer loop
   vertex -0.169428 0.196629 -0.140403
   vertex -0.204774 0.176222 -0.159522
   vertex -0.20281 0.177356 -0.163626
  endloop
 endfacet
 facet normal 0.5 -0.866025 -2.22439e-15
  outer loop
   vertex -0.168353 0.19725 -0.141967
   vertex -0.169428 0.196629 -0.140403
   vertex -0.200551 0.178661 -0.167523
  endloop
 endfacet
 facet normal 0.5 -0.866025 -1.02771e-15
  outer loop
   vertex -0.168353 0.19725 -0.141967
   vertex -0.200551 0.178661 -0.167523
   vertex -0.198012 0.180126 -0.171183
  endloop
 endfacet
 facet normal 0.5 -0.866025 -9.3247e-16
  outer loop
   vertex -0.195213 0.181743 -0.174579
   vertex -0.168353 0.19725 -0.141967
   vertex -0.198012 0.180126 -0.171183
  endloop
 endfacet
 facet normal 0.5 -0.866025 0
  outer loop
   vertex -0.192173 0.183498 -0.177689
   vertex -0.167031 0.198013 -0.143253
   vertex -0.168353 0.19725 -0.141967
  endloop
 endfacet
 facet normal 0.5 -0.866025 3.56601e-15
  outer loop
   vertex -0.192173 0.183498 -0.177689
   vertex -0.168353 0.19725 -0.141967
   vertex -0.195213 0.181743 -0.174579
  endloop
 endfacet
 facet normal 0.5 -0.866025 7.07272e-16
  outer loop
   vertex -0.188915 0.185379 -0.180487
   vertex -0.167031 0.198013 -0.143253
   vertex -0.192173 0.183498 -0.177689
  endloop
 endfacet
 facet normal 0.5 -0.866025 1.80788e-15
  outer loop
   vertex -0.185462 0.187372 -0.182956
   vertex -0.165513 0.19889 -0.144211
   vertex -0.167031 0.198013 -0.143253
  endloop
 endfacet
 facet normal 0.5 -0.866025 -3.21401e-16
  outer loop
   vertex -0.185462 0.187372 -0.182956
   vertex -0.167031 0.198013 -0.143253
   vertex -0.188915 0.185379 -0.180487
  endloop
 endfacet
 facet normal 0.5 -0.866025 3.85639e-16
  outer loop
   vertex -0.18184 0.189463 -0.185075
   vertex -0.165513 0.19889 -0.144211
   vertex -0.185462 0.187372 -0.182956
  endloop
 endfacet
 facet normal 0.5 -0.866025 -1.65924e-15
  outer loop
   vertex -0.178075 0.191637 -0.186831
   vertex -0.163861 0.199843 -0.144801
   vertex -0.165513 0.19889 -0.144211
  endloop
 endfacet
 facet normal 0.5 -0.866025 -1.09311e-15
  outer loop
   vertex -0.178075 0.191637 -0.186831
   vertex -0.165513 0.19889 -0.144211
   vertex -0.18184 0.189463 -0.185075
  endloop
 endfacet
 facet normal 0.5 -0.866025 1.60586e-16
  outer loop
   vertex -0.174194 0.193878 -0.18821
   vertex -0.163861 0.199843 -0.144801
   vertex -0.178075 0.191637 -0.186831
  endloop
 endfacet
 facet normal 0.5 -0.866025 9.64561e-17
  outer loop
   vertex -0.170225 0.196169 -0.189202
   vertex -0.163861 0.199843 -0.144801
   vertex -0.174194 0.193878 -0.18821
  endloop
 endfacet
 facet normal 0.5 -0.866025 1.88786e-16
  outer loop
   vertex -0.166198 0.198494 -0.1898
   vertex -0.163861 0.199843 -0.144801
   vertex -0.170225 0.196169 -0.189202
  endloop
 endfacet
 facet normal 0.5 -0.866025 4.7093e-16
  outer loop
   vertex -0.166198 0.198494 -0.1898
   vertex -0.162141 0.200836 -0.145
   vertex -0.163861 0.199843 -0.144801
  endloop
 endfacet
 facet normal 0.5 -0.866025 0
  outer loop
   vertex -0.162141 0.200836 -0.19
   vertex -0.162141 0.200836 -0.145
   vertex -0.166198 0.198494 -0.1898
  endloop
 endfacet
 facet normal 0.5 -0.866025 0
  outer loop
   vertex -0.092859 0.240836 -0.145
   vertex -0.162141 0.200836 -0.145
   vertex -0.162141 0.200836 -0.19
  endloop
 endfacet
 facet normal 0.5 -0.866025 0
  outer loop
   vertex -0.0452276 0.268336 -0.134992
   vertex -0.0452276 0.268336 0.194992
   vertex -0.0841987 0.245836 0.194999
  endloop
 endfacet
 facet normal 0.5 -0.866025 0
  outer loop
   vertex -0.0452276 0.268336 -0.134992
   vertex -0.0841987 0.245836 0.194999
   vertex -0.0841987 0.245836 -0.134999
  endloop
 endfacet
 facet normal 0.5 -0.866025 0
  outer loop
   vertex -0.092859 0.240836 -0.19
   vertex -0.092859 0.240836 -0.145
   vertex -0.162141 0.200836 -0.19
  endloop
 endfacet
 facet normal 0.5 -0.866025 0
  outer loop
   vertex -0.0899773 0.2425 -0.189899
   vertex -0.092859 0.240836 -0.145
   vertex -0.092859 0.240836 -0.19
  endloop
 endfacet
 facet normal 0.5 -0.866025 1.20534e-15
  outer loop
   vertex -0.0454007 0.268237 -0.139678
   vertex -0.0841987 0.245836 -0.134999
   vertex -0.0843713 0.245737 -0.136986
  endloop
 endfacet
 facet normal 0.5 -0.866025 3.01266e-16
  outer loop
   vertex -0.0454007 0.268237 -0.139678
   vertex -0.0452276 0.268336 -0.134992
   vertex -0.0841987 0.245836 -0.134999
  endloop
 endfacet
 facet normal 0.5 -0.866025 2.26089e-17
  outer loop
   vertex -0.0871061 0.244158 -0.189597
   vertex -0.092859 0.240836 -0.145
   vertex -0.0899773 0.2425 -0.189899
  endloop
 endfacet
 facet normal 0.5 -0.866025 -4.06492e-17
  outer loop
   vertex -0.0871061 0.244158 -0.189597
   vertex -0.0912625 0.241758 -0.144829
   vertex -0.092859 0.240836 -0.145
  endloop
 endfacet
 facet normal 0.5 -0.866025 -1.06832e-15
  outer loop
   vertex -0.0459188 0.267937 -0.144329
   vertex -0.0454007 0.268237 -0.139678
   vertex -0.0843713 0.245737 -0.136986
  endloop
 endfacet
 facet normal 0.5 -0.866025 2.08982e-16
  outer loop
   vertex -0.0830999 0.246471 -0.188833
   vertex -0.0912625 0.241758 -0.144829
   vertex -0.0871061 0.244158 -0.189597
  endloop
 endfacet
 facet normal 0.5 -0.866025 7.23204e-16
  outer loop
   vertex -0.0467779 0.267441 -0.148913
   vertex -0.0459188 0.267937 -0.144329
   vertex -0.0843713 0.245737 -0.136986
  endloop
 endfacet
 facet normal 0.5 -0.866025 1.62514e-16
  outer loop
   vertex -0.0791645 0.248743 -0.187677
   vertex -0.0897207 0.242648 -0.14432
   vertex -0.0912625 0.241758 -0.144829
  endloop
 endfacet
 facet normal 0.5 -0.866025 -4.17775e-16
  outer loop
   vertex -0.0791645 0.248743 -0.187677
   vertex -0.0912625 0.241758 -0.144829
   vertex -0.0830999 0.246471 -0.188833
  endloop
 endfacet
 facet normal 0.5 -0.866025 1.20689e-15
  outer loop
   vertex -0.0479721 0.266752 -0.153395
   vertex -0.0843713 0.245737 -0.136986
   vertex -0.0848824 0.245442 -0.138893
  endloop
 endfacet
 facet normal 0.5 -0.866025 5.29883e-16
  outer loop
   vertex -0.0479721 0.266752 -0.153395
   vertex -0.0467779 0.267441 -0.148913
   vertex -0.0843713 0.245737 -0.136986
  endloop
 endfacet
 facet normal 0.5 -0.866025 5.14367e-16
  outer loop
   vertex -0.0753287 0.250958 -0.186139
   vertex -0.0897207 0.242648 -0.14432
   vertex -0.0791645 0.248743 -0.187677
  endloop
 endfacet
 facet normal 0.5 -0.866025 -6.7514e-16
  outer loop
   vertex -0.0494925 0.265874 -0.157743
   vertex -0.0479721 0.266752 -0.153395
   vertex -0.0848824 0.245442 -0.138893
  endloop
 endfacet
 facet normal 0.5 -0.866025 -6.02698e-16
  outer loop
   vertex -0.0716203 0.253099 -0.184229
   vertex -0.0881798 0.243538 -0.143414
   vertex -0.0897207 0.242648 -0.14432
  endloop
 endfacet
 facet normal 0.5 -0.866025 -4.50006e-16
  outer loop
   vertex -0.0716203 0.253099 -0.184229
   vertex -0.0897207 0.242648 -0.14432
   vertex -0.0753287 0.250958 -0.186139
  endloop
 endfacet
 facet normal 0.5 -0.866025 -2.4102e-15
  outer loop
   vertex -0.051328 0.264814 -0.161926
   vertex -0.0848824 0.245442 -0.138893
   vertex -0.0857113 0.244963 -0.140646
  endloop
 endfacet
 facet normal 0.5 -0.866025 -3.5345e-16
  outer loop
   vertex -0.051328 0.264814 -0.161926
   vertex -0.0494925 0.265874 -0.157743
   vertex -0.0848824 0.245442 -0.138893
  endloop
 endfacet
 facet normal 0.5 -0.866025 2.89217e-16
  outer loop
   vertex -0.0680662 0.255151 -0.181961
   vertex -0.0881798 0.243538 -0.143414
   vertex -0.0716203 0.253099 -0.184229
  endloop
 endfacet
 facet normal 0.5 -0.866025 2.89235e-16
  outer loop
   vertex -0.0534655 0.26358 -0.165914
   vertex -0.051328 0.264814 -0.161926
   vertex -0.0857113 0.244963 -0.140646
  endloop
 endfacet
 facet normal 0.5 -0.866025 6.03246e-16
  outer loop
   vertex -0.0646924 0.257098 -0.179352
   vertex -0.0868253 0.24432 -0.142173
   vertex -0.0881798 0.243538 -0.143414
  endloop
 endfacet
 facet normal 0.5 -0.866025 -1.92904e-16
  outer loop
   vertex -0.0646924 0.257098 -0.179352
   vertex -0.0881798 0.243538 -0.143414
   vertex -0.0680662 0.255151 -0.181961
  endloop
 endfacet
 facet normal 0.5 -0.866025 1.20568e-15
  outer loop
   vertex -0.0558892 0.262181 -0.169676
   vertex -0.0857113 0.244963 -0.140646
   vertex -0.0868253 0.24432 -0.142173
  endloop
 endfacet
 facet normal 0.5 -0.866025 3.21465e-17
  outer loop
   vertex -0.0558892 0.262181 -0.169676
   vertex -0.0534655 0.26358 -0.165914
   vertex -0.0857113 0.244963 -0.140646
  endloop
 endfacet
 facet normal 0.5 -0.866025 -1.28464e-16
  outer loop
   vertex -0.0615231 0.258928 -0.17642
   vertex -0.0868253 0.24432 -0.142173
   vertex -0.0646924 0.257098 -0.179352
  endloop
 endfacet
 facet normal 0.5 -0.866025 -2.8914e-16
  outer loop
   vertex -0.0585816 0.260627 -0.173187
   vertex -0.0558892 0.262181 -0.169676
   vertex -0.0868253 0.24432 -0.142173
  endloop
 endfacet
 facet normal 0.5 -0.866025 6.75129e-16
  outer loop
   vertex -0.0585816 0.260627 -0.173187
   vertex -0.0868253 0.24432 -0.142173
   vertex -0.0615231 0.258928 -0.17642
  endloop
 endfacet
 facet normal 0.00833207 -0.0144316 0.999861
  outer loop
   vertex -0.192141 0.252798 0.251
   vertex -0.162141 0.200836 0.25
   vertex -0.092859 0.240836 0.25
  endloop
 endfacet
 facet normal 0.00833207 -0.0144316 0.999861
  outer loop
   vertex -0.122859 0.292798 0.251
   vertex -0.192141 0.252798 0.251
   vertex -0.092859 0.240836 0.25
  endloop
 endfacet
 facet normal -0.028612 -0.0357443 0.998951
  outer loop
   vertex -0.166198 0.198494 0.2498
   vertex -0.162141 0.200836 0.25
   vertex -0.196198 0.250456 0.2508
  endloop
 endfacet
 facet normal -0.0286067 -0.0357407 0.998952
  outer loop
   vertex -0.162141 0.200836 0.25
   vertex -0.192141 0.252798 0.251
   vertex -0.196198 0.250456 0.2508
  endloop
 endfacet
 facet normal -0.102174 -0.0780755 0.991698
  outer loop
   vertex -0.170225 0.196169 0.249202
   vertex -0.166198 0.198494 0.2498
   vertex -0.200225 0.248131 0.250202
  endloop
 endfacet
 facet normal -0.102177 -0.0780773 0.991697
  outer loop
   vertex -0.166198 0.198494 0.2498
   vertex -0.196198 0.250456 0.2508
   vertex -0.200225 0.248131 0.250202
  endloop
 endfacet
 facet normal -0.175062 -0.119879 0.977232
  outer loop
   vertex -0.174194 0.193878 0.24821
   vertex -0.170225 0.196169 0.249202
   vertex -0.204194 0.245839 0.24921
  endloop
 endfacet
 facet normal -0.175062 -0.119879 0.977232
  outer loop
   vertex -0.170225 0.196169 0.249202
   vertex -0.200225 0.248131 0.250202
   vertex -0.204194 0.245839 0.24921
  endloop
 endfacet
 facet normal -0.246708 -0.160828 0.955651
  outer loop
   vertex -0.178075 0.191637 0.246831
   vertex -0.174194 0.193878 0.24821
   vertex -0.208075 0.243599 0.247831
  endloop
 endfacet
 facet normal -0.246708 -0.160828 0.955651
  outer loop
   vertex -0.174194 0.193878 0.24821
   vertex -0.204194 0.245839 0.24921
   vertex -0.208075 0.243599 0.247831
  endloop
 endfacet
 facet normal -0.316561 -0.200609 0.927117
  outer loop
   vertex -0.18184 0.189463 0.245075
   vertex -0.178075 0.191637 0.246831
   vertex -0.21184 0.241425 0.246075
  endloop
 endfacet
 facet normal -0.316561 -0.200609 0.927117
  outer loop
   vertex -0.178075 0.191637 0.246831
   vertex -0.208075 0.243599 0.247831
   vertex -0.21184 0.241425 0.246075
  endloop
 endfacet
 facet normal -0.383926 -0.238825 0.891944
  outer loop
   vertex -0.185462 0.187372 0.242956
   vertex -0.18184 0.189463 0.245075
   vertex -0.215462 0.239334 0.243956
  endloop
 endfacet
 facet normal -0.383926 -0.238825 0.891944
  outer loop
   vertex -0.18184 0.189463 0.245075
   vertex -0.21184 0.241425 0.246075
   vertex -0.215462 0.239334 0.243956
  endloop
 endfacet
 facet normal -0.448838 -0.275496 0.850086
  outer loop
   vertex -0.188915 0.185379 0.240487
   vertex -0.185462 0.187372 0.242956
   vertex -0.218915 0.23734 0.241487
  endloop
 endfacet
 facet normal -0.448838 -0.275496 0.850086
  outer loop
   vertex -0.185462 0.187372 0.242956
   vertex -0.215462 0.239334 0.243956
   vertex -0.218915 0.23734 0.241487
  endloop
 endfacet
 facet normal -0.5101 -0.309947 0.802329
  outer loop
   vertex -0.192173 0.183498 0.237689
   vertex -0.188915 0.185379 0.240487
   vertex -0.222173 0.235459 0.238689
  endloop
 endfacet
 facet normal -0.5101 -0.309947 0.802329
  outer loop
   vertex -0.188915 0.185379 0.240487
   vertex -0.218915 0.23734 0.241487
   vertex -0.222173 0.235459 0.238689
  endloop
 endfacet
 facet normal -0.568034 -0.342358 0.748417
  outer loop
   vertex -0.195213 0.181743 0.234579
   vertex -0.192173 0.183498 0.237689
   vertex -0.225213 0.233704 0.235579
  endloop
 endfacet
 facet normal -0.568034 -0.342358 0.748417
  outer loop
   vertex -0.192173 0.183498 0.237689
   vertex -0.222173 0.235459 0.238689
   vertex -0.225213 0.233704 0.235579
  endloop
 endfacet
 facet normal -0.621499 -0.37209 0.689411
  outer loop
   vertex -0.198012 0.180126 0.231183
   vertex -0.195213 0.181743 0.234579
   vertex -0.228012 0.232088 0.232183
  endloop
 endfacet
 facet normal -0.6215 -0.372091 0.68941
  outer loop
   vertex -0.195213 0.181743 0.234579
   vertex -0.225213 0.233704 0.235579
   vertex -0.228012 0.232088 0.232183
  endloop
 endfacet
 facet normal -0.670682 -0.399249 0.625129
  outer loop
   vertex -0.200551 0.178661 0.227523
   vertex -0.198012 0.180126 0.231183
   vertex -0.230551 0.230622 0.228523
  endloop
 endfacet
 facet normal -0.670681 -0.399248 0.62513
  outer loop
   vertex -0.198012 0.180126 0.231183
   vertex -0.228012 0.232088 0.232183
   vertex -0.230551 0.230622 0.228523
  endloop
 endfacet
 facet normal -0.714953 -0.423485 0.556329
  outer loop
   vertex -0.20281 0.177356 0.223626
   vertex -0.200551 0.178661 0.227523
   vertex -0.23281 0.229317 0.224626
  endloop
 endfacet
 facet normal -0.714953 -0.423485 0.556329
  outer loop
   vertex -0.200551 0.178661 0.227523
   vertex -0.230551 0.230622 0.228523
   vertex -0.23281 0.229317 0.224626
  endloop
 endfacet
 facet normal -0.753935 -0.444592 0.483653
  outer loop
   vertex -0.204774 0.176222 0.219522
   vertex -0.20281 0.177356 0.223626
   vertex -0.234774 0.228184 0.220522
  endloop
 endfacet
 facet normal -0.753935 -0.444592 0.483653
  outer loop
   vertex -0.20281 0.177356 0.223626
   vertex -0.23281 0.229317 0.224626
   vertex -0.234774 0.228184 0.220522
  endloop
 endfacet
 facet normal -0.787522 -0.462514 0.407295
  outer loop
   vertex -0.206429 0.175267 0.215239
   vertex -0.204774 0.176222 0.219522
   vertex -0.236429 0.227228 0.216239
  endloop
 endfacet
 facet normal -0.787522 -0.462514 0.407295
  outer loop
   vertex -0.204774 0.176222 0.219522
   vertex -0.234774 0.228184 0.220522
   vertex -0.236429 0.227228 0.216239
  endloop
 endfacet
 facet normal -0.815354 -0.477058 0.328044
  outer loop
   vertex -0.206429 0.175267 0.215239
   vertex -0.236429 0.227228 0.216239
   vertex -0.237761 0.226459 0.211809
  endloop
 endfacet
 facet normal -0.815354 -0.477058 0.328045
  outer loop
   vertex -0.207761 0.174498 0.210809
   vertex -0.206429 0.175267 0.215239
   vertex -0.237761 0.226459 0.211809
  endloop
 endfacet
 facet normal -0.83726 -0.488134 0.246416
  outer loop
   vertex -0.207761 0.174498 0.210809
   vertex -0.237761 0.226459 0.211809
   vertex -0.238762 0.225882 0.207264
  endloop
 endfacet
 facet normal -0.83726 -0.488135 0.246415
  outer loop
   vertex -0.208762 0.17392 0.206264
   vertex -0.207761 0.174498 0.210809
   vertex -0.238762 0.225882 0.207264
  endloop
 endfacet
 facet normal -0.853086 -0.495666 0.162974
  outer loop
   vertex -0.208762 0.17392 0.206264
   vertex -0.238762 0.225882 0.207264
   vertex -0.239424 0.225499 0.202637
  endloop
 endfacet
 facet normal -0.853086 -0.495666 0.162974
  outer loop
   vertex -0.209424 0.173538 0.201637
   vertex -0.208762 0.17392 0.206264
   vertex -0.239424 0.225499 0.202637
  endloop
 endfacet
 facet normal -0.861702 -0.499249 0.0906676
  outer loop
   vertex -0.209424 0.173538 0.201637
   vertex -0.239424 0.225499 0.202637
   vertex -0.239685 0.225348 0.199321
  endloop
 endfacet
 facet normal -0.861702 -0.499249 0.0906676
  outer loop
   vertex -0.209685 0.173387 0.198321
   vertex -0.209424 0.173538 0.201637
   vertex -0.239685 0.225348 0.199321
  endloop
 endfacet
 facet normal -0.865376 -0.500208 0.0302651
  outer loop
   vertex -0.209685 0.173387 0.198321
   vertex -0.239685 0.225348 0.199321
   vertex -0.239772 0.225298 0.195992
  endloop
 endfacet
 facet normal -0.865376 -0.500208 0.0302652
  outer loop
   vertex -0.209772 0.173336 0.194992
   vertex -0.209685 0.173387 0.198321
   vertex -0.239772 0.225298 0.195992
  endloop
 endfacet
 facet normal 0.0452615 0.00690656 0.998951
  outer loop
   vertex -0.118802 0.29514 0.2508
   vertex -0.092859 0.240836 0.25
   vertex -0.0888022 0.243179 0.2498
  endloop
 endfacet
 facet normal 0.0452557 0.00690382 0.998952
  outer loop
   vertex -0.118802 0.29514 0.2508
   vertex -0.122859 0.292798 0.251
   vertex -0.092859 0.240836 0.25
  endloop
 endfacet
 facet normal 0.118702 0.0494476 0.991698
  outer loop
   vertex -0.114775 0.297465 0.250202
   vertex -0.0888022 0.243179 0.2498
   vertex -0.0847748 0.245504 0.249202
  endloop
 endfacet
 facet normal 0.118705 0.049449 0.991697
  outer loop
   vertex -0.114775 0.297465 0.250202
   vertex -0.118802 0.29514 0.2508
   vertex -0.0888022 0.243179 0.2498
  endloop
 endfacet
 facet normal 0.191349 0.0916684 0.977232
  outer loop
   vertex -0.110806 0.299757 0.24921
   vertex -0.0847748 0.245504 0.249202
   vertex -0.0808062 0.247795 0.24821
  endloop
 endfacet
 facet normal 0.191349 0.0916684 0.977232
  outer loop
   vertex -0.110806 0.299757 0.24921
   vertex -0.114775 0.297465 0.250202
   vertex -0.0847748 0.245504 0.249202
  endloop
 endfacet
 facet normal 0.262635 0.133241 0.955651
  outer loop
   vertex -0.106925 0.301997 0.247831
   vertex -0.0808062 0.247795 0.24821
   vertex -0.0769252 0.250036 0.246831
  endloop
 endfacet
 facet normal 0.262635 0.133241 0.955651
  outer loop
   vertex -0.106925 0.301997 0.247831
   vertex -0.110806 0.299757 0.24921
   vertex -0.0808062 0.247795 0.24821
  endloop
 endfacet
 facet normal 0.332013 0.173845 0.927117
  outer loop
   vertex -0.10316 0.304171 0.246075
   vertex -0.0769252 0.250036 0.246831
   vertex -0.07316 0.25221 0.245075
  endloop
 endfacet
 facet normal 0.332013 0.173845 0.927117
  outer loop
   vertex -0.10316 0.304171 0.246075
   vertex -0.106925 0.301997 0.247831
   vertex -0.0769252 0.250036 0.246831
  endloop
 endfacet
 facet normal 0.398791 0.213077 0.891944
  outer loop
   vertex -0.099538 0.306262 0.243956
   vertex -0.07316 0.25221 0.245075
   vertex -0.069538 0.254301 0.242956
  endloop
 endfacet
 facet normal 0.398791 0.213077 0.891944
  outer loop
   vertex -0.099538 0.306262 0.243956
   vertex -0.10316 0.304171 0.246075
   vertex -0.07316 0.25221 0.245075
  endloop
 endfacet
 facet normal 0.463006 0.250957 0.850086
  outer loop
   vertex -0.0960853 0.308256 0.241487
   vertex -0.069538 0.254301 0.242956
   vertex -0.0660853 0.256294 0.240487
  endloop
 endfacet
 facet normal 0.463006 0.250957 0.850086
  outer loop
   vertex -0.0960853 0.308256 0.241487
   vertex -0.099538 0.306262 0.243956
   vertex -0.069538 0.254301 0.242956
  endloop
 endfacet
 facet normal 0.523472 0.286786 0.802329
  outer loop
   vertex -0.0928273 0.310137 0.238689
   vertex -0.0660853 0.256294 0.240487
   vertex -0.0628273 0.258175 0.237689
  endloop
 endfacet
 facet normal 0.523472 0.286786 0.802329
  outer loop
   vertex -0.0928273 0.310137 0.238689
   vertex -0.0960853 0.308256 0.241487
   vertex -0.0660853 0.256294 0.240487
  endloop
 endfacet
 facet normal 0.580508 0.320753 0.748417
  outer loop
   vertex -0.0897875 0.311892 0.235579
   vertex -0.0628273 0.258175 0.237689
   vertex -0.0597875 0.25993 0.234579
  endloop
 endfacet
 facet normal 0.580508 0.320753 0.748417
  outer loop
   vertex -0.0897875 0.311892 0.235579
   vertex -0.0928273 0.310137 0.238689
   vertex -0.0628273 0.258175 0.237689
  endloop
 endfacet
 facet normal 0.632989 0.352189 0.689411
  outer loop
   vertex -0.086988 0.313508 0.232183
   vertex -0.0597875 0.25993 0.234579
   vertex -0.056988 0.261547 0.231183
  endloop
 endfacet
 facet normal 0.63299 0.35219 0.68941
  outer loop
   vertex -0.086988 0.313508 0.232183
   vertex -0.0897875 0.311892 0.235579
   vertex -0.0597875 0.25993 0.234579
  endloop
 endfacet
 facet normal 0.681101 0.381203 0.625129
  outer loop
   vertex -0.0844492 0.314974 0.228523
   vertex -0.056988 0.261547 0.231183
   vertex -0.0544492 0.263012 0.227523
  endloop
 endfacet
 facet normal 0.6811 0.381203 0.62513
  outer loop
   vertex -0.0844492 0.314974 0.228523
   vertex -0.086988 0.313508 0.232183
   vertex -0.056988 0.261547 0.231183
  endloop
 endfacet
 facet normal 0.724226 0.407425 0.556329
  outer loop
   vertex -0.0821896 0.316279 0.224626
   vertex -0.0544492 0.263012 0.227523
   vertex -0.0521896 0.264317 0.223626
  endloop
 endfacet
 facet normal 0.724226 0.407425 0.556329
  outer loop
   vertex -0.0821896 0.316279 0.224626
   vertex -0.0844492 0.314974 0.228523
   vertex -0.0544492 0.263012 0.227523
  endloop
 endfacet
 facet normal 0.761995 0.43063 0.483653
  outer loop
   vertex -0.0802255 0.317412 0.220522
   vertex -0.0521896 0.264317 0.223626
   vertex -0.0502255 0.265451 0.219522
  endloop
 endfacet
 facet normal 0.761995 0.43063 0.483653
  outer loop
   vertex -0.0802255 0.317412 0.220522
   vertex -0.0821896 0.316279 0.224626
   vertex -0.0521896 0.264317 0.223626
  endloop
 endfacet
 facet normal 0.79431 0.450757 0.407295
  outer loop
   vertex -0.0785713 0.318368 0.216239
   vertex -0.0502255 0.265451 0.219522
   vertex -0.0485713 0.266406 0.215239
  endloop
 endfacet
 facet normal 0.79431 0.450757 0.407295
  outer loop
   vertex -0.0785713 0.318368 0.216239
   vertex -0.0802255 0.317412 0.220522
   vertex -0.0502255 0.265451 0.219522
  endloop
 endfacet
 facet normal 0.820822 0.467588 0.328044
  outer loop
   vertex -0.077239 0.319137 0.211809
   vertex -0.0785713 0.318368 0.216239
   vertex -0.0485713 0.266406 0.215239
  endloop
 endfacet
 facet normal 0.820821 0.467588 0.328045
  outer loop
   vertex -0.077239 0.319137 0.211809
   vertex -0.0485713 0.266406 0.215239
   vertex -0.047239 0.267175 0.210809
  endloop
 endfacet
 facet normal 0.841367 0.481021 0.246416
  outer loop
   vertex -0.0762382 0.319714 0.207264
   vertex -0.077239 0.319137 0.211809
   vertex -0.047239 0.267175 0.210809
  endloop
 endfacet
 facet normal 0.841367 0.481021 0.246415
  outer loop
   vertex -0.0762382 0.319714 0.207264
   vertex -0.047239 0.267175 0.210809
   vertex -0.0462382 0.267753 0.206264
  endloop
 endfacet
 facet normal 0.855802 0.490961 0.162974
  outer loop
   vertex -0.0755763 0.320097 0.202637
   vertex -0.0762382 0.319714 0.207264
   vertex -0.0462382 0.267753 0.206264
  endloop
 endfacet
 facet normal 0.855802 0.490961 0.162974
  outer loop
   vertex -0.0755763 0.320097 0.202637
   vertex -0.0462382 0.267753 0.206264
   vertex -0.0455763 0.268135 0.201637
  endloop
 endfacet
 facet normal 0.863213 0.496631 0.0906676
  outer loop
   vertex -0.0753149 0.320248 0.199321
   vertex -0.0755763 0.320097 0.202637
   vertex -0.0455763 0.268135 0.201637
  endloop
 endfacet
 facet normal 0.863213 0.496631 0.0906676
  outer loop
   vertex -0.0753149 0.320248 0.199321
   vertex -0.0455763 0.268135 0.201637
   vertex -0.0453149 0.268286 0.198321
  endloop
 endfacet
 facet normal 0.865881 0.499334 0.0302651
  outer loop
   vertex -0.0752276 0.320298 0.195992
   vertex -0.0753149 0.320248 0.199321
   vertex -0.0453149 0.268286 0.198321
  endloop
 endfacet
 facet normal 0.865881 0.499334 0.0302652
  outer loop
   vertex -0.0752276 0.320298 0.195992
   vertex -0.0453149 0.268286 0.198321
   vertex -0.0452276 0.268336 0.194992
  endloop
 endfacet
 facet normal -0.866025 -0.5 0
  outer loop
   vertex -0.239772 0.225298 -0.133992
   vertex -0.209772 0.173336 -0.134992
   vertex -0.209772 0.173336 0.194992
  endloop
 endfacet
 facet normal -0.866025 -0.5 -0
  outer loop
   vertex -0.239772 0.225298 0.195992
   vertex -0.239772 0.225298 -0.133992
   vertex -0.209772 0.173336 0.194992
  endloop
 endfacet
 facet normal 0.866025 0.5 0
  outer loop
   vertex -0.0752276 0.320298 0.195992
   vertex -0.0452276 0.268336 0.194992
   vertex -0.0752276 0.320298 -0.133992
  endloop
 endfacet
 facet normal 0.866025 0.5 0
  outer loop
   vertex -0.0752276 0.320298 -0.133992
   vertex -0.0452276 0.268336 0.194992
   vertex -0.0452276 0.268336 -0.134992
  endloop
 endfacet
 facet normal -0.0452613 -0.00690678 -0.998951
  outer loop
   vertex -0.192141 0.252798 -0.189
   vertex -0.162141 0.200836 -0.19
   vertex -0.166198 0.198494 -0.1898
  endloop
 endfacet
 facet normal -0.118702 -0.0494478 -0.991698
  outer loop
   vertex -0.196198 0.250456 -0.1888
   vertex -0.166198 0.198494 -0.1898
   vertex -0.170225 0.196169 -0.189202
  endloop
 endfacet
 facet normal -0.0452585 -0.0069054 -0.998951
  outer loop
   vertex -0.196198 0.250456 -0.1888
   vertex -0.192141 0.252798 -0.189
   vertex -0.166198 0.198494 -0.1898
  endloop
 endfacet
 facet normal -0.191349 -0.0916684 -0.977232
  outer loop
   vertex -0.200225 0.248131 -0.188202
   vertex -0.170225 0.196169 -0.189202
   vertex -0.174194 0.193878 -0.18821
  endloop
 endfacet
 facet normal -0.118705 -0.0494492 -0.991697
  outer loop
   vertex -0.200225 0.248131 -0.188202
   vertex -0.196198 0.250456 -0.1888
   vertex -0.170225 0.196169 -0.189202
  endloop
 endfacet
 facet normal -0.262635 -0.133241 -0.955651
  outer loop
   vertex -0.204194 0.245839 -0.18721
   vertex -0.174194 0.193878 -0.18821
   vertex -0.178075 0.191637 -0.186831
  endloop
 endfacet
 facet normal -0.191349 -0.0916684 -0.977232
  outer loop
   vertex -0.204194 0.245839 -0.18721
   vertex -0.200225 0.248131 -0.188202
   vertex -0.174194 0.193878 -0.18821
  endloop
 endfacet
 facet normal -0.332013 -0.173845 -0.927117
  outer loop
   vertex -0.208075 0.243599 -0.185831
   vertex -0.178075 0.191637 -0.186831
   vertex -0.18184 0.189463 -0.185075
  endloop
 endfacet
 facet normal -0.262635 -0.133241 -0.955651
  outer loop
   vertex -0.208075 0.243599 -0.185831
   vertex -0.204194 0.245839 -0.18721
   vertex -0.178075 0.191637 -0.186831
  endloop
 endfacet
 facet normal -0.398791 -0.213077 -0.891944
  outer loop
   vertex -0.21184 0.241425 -0.184075
   vertex -0.18184 0.189463 -0.185075
   vertex -0.185462 0.187372 -0.182956
  endloop
 endfacet
 facet normal -0.332013 -0.173845 -0.927117
  outer loop
   vertex -0.21184 0.241425 -0.184075
   vertex -0.208075 0.243599 -0.185831
   vertex -0.18184 0.189463 -0.185075
  endloop
 endfacet
 facet normal -0.463004 -0.250955 -0.850088
  outer loop
   vertex -0.215462 0.239334 -0.181956
   vertex -0.185462 0.187372 -0.182956
   vertex -0.188915 0.185379 -0.180487
  endloop
 endfacet
 facet normal -0.398791 -0.213077 -0.891944
  outer loop
   vertex -0.215462 0.239334 -0.181956
   vertex -0.21184 0.241425 -0.184075
   vertex -0.185462 0.187372 -0.182956
  endloop
 endfacet
 facet normal -0.523474 -0.286787 -0.802327
  outer loop
   vertex -0.218915 0.23734 -0.179487
   vertex -0.188915 0.185379 -0.180487
   vertex -0.192173 0.183498 -0.177689
  endloop
 endfacet
 facet normal -0.463004 -0.250955 -0.850088
  outer loop
   vertex -0.218915 0.23734 -0.179487
   vertex -0.215462 0.239334 -0.181956
   vertex -0.188915 0.185379 -0.180487
  endloop
 endfacet
 facet normal -0.580508 -0.320753 -0.748417
  outer loop
   vertex -0.222173 0.235459 -0.176689
   vertex -0.192173 0.183498 -0.177689
   vertex -0.195213 0.181743 -0.174579
  endloop
 endfacet
 facet normal -0.523474 -0.286787 -0.802327
  outer loop
   vertex -0.222173 0.235459 -0.176689
   vertex -0.218915 0.23734 -0.179487
   vertex -0.192173 0.183498 -0.177689
  endloop
 endfacet
 facet normal -0.632989 -0.352189 -0.689411
  outer loop
   vertex -0.225213 0.233704 -0.173579
   vertex -0.195213 0.181743 -0.174579
   vertex -0.198012 0.180126 -0.171183
  endloop
 endfacet
 facet normal -0.580506 -0.320752 -0.748419
  outer loop
   vertex -0.225213 0.233704 -0.173579
   vertex -0.222173 0.235459 -0.176689
   vertex -0.195213 0.181743 -0.174579
  endloop
 endfacet
 facet normal -0.681101 -0.381203 -0.625129
  outer loop
   vertex -0.228012 0.232088 -0.170183
   vertex -0.198012 0.180126 -0.171183
   vertex -0.200551 0.178661 -0.167523
  endloop
 endfacet
 facet normal -0.63299 -0.35219 -0.68941
  outer loop
   vertex -0.228012 0.232088 -0.170183
   vertex -0.225213 0.233704 -0.173579
   vertex -0.198012 0.180126 -0.171183
  endloop
 endfacet
 facet normal -0.724226 -0.407425 -0.556329
  outer loop
   vertex -0.230551 0.230622 -0.166523
   vertex -0.200551 0.178661 -0.167523
   vertex -0.20281 0.177356 -0.163626
  endloop
 endfacet
 facet normal -0.681101 -0.381203 -0.625129
  outer loop
   vertex -0.230551 0.230622 -0.166523
   vertex -0.228012 0.232088 -0.170183
   vertex -0.200551 0.178661 -0.167523
  endloop
 endfacet
 facet normal -0.761995 -0.43063 -0.483653
  outer loop
   vertex -0.23281 0.229317 -0.162626
   vertex -0.20281 0.177356 -0.163626
   vertex -0.204774 0.176222 -0.159522
  endloop
 endfacet
 facet normal -0.724226 -0.407425 -0.556329
  outer loop
   vertex -0.23281 0.229317 -0.162626
   vertex -0.230551 0.230622 -0.166523
   vertex -0.20281 0.177356 -0.163626
  endloop
 endfacet
 facet normal -0.79431 -0.450757 -0.407295
  outer loop
   vertex -0.234774 0.228184 -0.158522
   vertex -0.204774 0.176222 -0.159522
   vertex -0.206429 0.175267 -0.155239
  endloop
 endfacet
 facet normal -0.761995 -0.43063 -0.483653
  outer loop
   vertex -0.234774 0.228184 -0.158522
   vertex -0.23281 0.229317 -0.162626
   vertex -0.204774 0.176222 -0.159522
  endloop
 endfacet
 facet normal -0.820821 -0.467588 -0.328045
  outer loop
   vertex -0.236429 0.227228 -0.154239
   vertex -0.206429 0.175267 -0.155239
   vertex -0.207761 0.174498 -0.150809
  endloop
 endfacet
 facet normal -0.79431 -0.450757 -0.407295
  outer loop
   vertex -0.236429 0.227228 -0.154239
   vertex -0.234774 0.228184 -0.158522
   vertex -0.206429 0.175267 -0.155239
  endloop
 endfacet
 facet normal -0.820821 -0.467588 -0.328045
  outer loop
   vertex -0.237761 0.226459 -0.149809
   vertex -0.236429 0.227228 -0.154239
   vertex -0.207761 0.174498 -0.150809
  endloop
 endfacet
 facet normal -0.841367 -0.481021 -0.246415
  outer loop
   vertex -0.237761 0.226459 -0.149809
   vertex -0.207761 0.174498 -0.150809
   vertex -0.208762 0.17392 -0.146264
  endloop
 endfacet
 facet normal -0.841367 -0.481021 -0.246415
  outer loop
   vertex -0.238762 0.225882 -0.145264
   vertex -0.237761 0.226459 -0.149809
   vertex -0.208762 0.17392 -0.146264
  endloop
 endfacet
 facet normal -0.855802 -0.490961 -0.162974
  outer loop
   vertex -0.238762 0.225882 -0.145264
   vertex -0.208762 0.17392 -0.146264
   vertex -0.209424 0.173538 -0.141637
  endloop
 endfacet
 facet normal -0.855802 -0.490961 -0.162974
  outer loop
   vertex -0.239424 0.225499 -0.140637
   vertex -0.238762 0.225882 -0.145264
   vertex -0.209424 0.173538 -0.141637
  endloop
 endfacet
 facet normal -0.863213 -0.496631 -0.0906676
  outer loop
   vertex -0.239424 0.225499 -0.140637
   vertex -0.209424 0.173538 -0.141637
   vertex -0.209685 0.173387 -0.138321
  endloop
 endfacet
 facet normal -0.863213 -0.496631 -0.0906676
  outer loop
   vertex -0.239685 0.225348 -0.137321
   vertex -0.239424 0.225499 -0.140637
   vertex -0.209685 0.173387 -0.138321
  endloop
 endfacet
 facet normal -0.865881 -0.499334 -0.0302652
  outer loop
   vertex -0.239685 0.225348 -0.137321
   vertex -0.209685 0.173387 -0.138321
   vertex -0.209772 0.173336 -0.134992
  endloop
 endfacet
 facet normal -0.865881 -0.499334 -0.0302652
  outer loop
   vertex -0.239772 0.225298 -0.133992
   vertex -0.239685 0.225348 -0.137321
   vertex -0.209772 0.173336 -0.134992
  endloop
 endfacet
 facet normal 0.864883 0.500161 -0.04262
  outer loop
   vertex -0.0754007 0.320198 -0.138678
   vertex -0.0452276 0.268336 -0.134992
   vertex -0.0454007 0.268237 -0.139678
  endloop
 endfacet
 facet normal 0.864883 0.500161 -0.04262
  outer loop
   vertex -0.0754007 0.320198 -0.138678
   vertex -0.0752276 0.320298 -0.133992
   vertex -0.0452276 0.268336 -0.134992
  endloop
 endfacet
 facet normal 0.857885 0.497755 -0.127566
  outer loop
   vertex -0.0759188 0.319899 -0.143329
   vertex -0.0454007 0.268237 -0.139678
   vertex -0.0459188 0.267937 -0.144329
  endloop
 endfacet
 facet normal 0.857885 0.497755 -0.127566
  outer loop
   vertex -0.0759188 0.319899 -0.143329
   vertex -0.0754007 0.320198 -0.138678
   vertex -0.0454007 0.268237 -0.139678
  endloop
 endfacet
 facet normal 0.844661 0.491736 -0.211527
  outer loop
   vertex -0.0767779 0.319403 -0.147913
   vertex -0.0459188 0.267937 -0.144329
   vertex -0.0467779 0.267441 -0.148913
  endloop
 endfacet
 facet normal 0.844661 0.491736 -0.211527
  outer loop
   vertex -0.0767779 0.319403 -0.147913
   vertex -0.0759188 0.319899 -0.143329
   vertex -0.0459188 0.267937 -0.144329
  endloop
 endfacet
 facet normal 0.825278 0.482133 -0.294048
  outer loop
   vertex -0.0779721 0.318713 -0.152395
   vertex -0.0467779 0.267441 -0.148913
   vertex -0.0479721 0.266752 -0.153395
  endloop
 endfacet
 facet normal 0.825278 0.482133 -0.294048
  outer loop
   vertex -0.0779721 0.318713 -0.152395
   vertex -0.0767779 0.319403 -0.147913
   vertex -0.0467779 0.267441 -0.148913
  endloop
 endfacet
 facet normal 0.7999 0.469028 -0.374396
  outer loop
   vertex -0.0794925 0.317836 -0.156743
   vertex -0.0479721 0.266752 -0.153395
   vertex -0.0494925 0.265874 -0.157743
  endloop
 endfacet
 facet normal 0.7999 0.469028 -0.374396
  outer loop
   vertex -0.0794925 0.317836 -0.156743
   vertex -0.0779721 0.318713 -0.152395
   vertex -0.0479721 0.266752 -0.153395
  endloop
 endfacet
 facet normal 0.768729 0.452524 -0.451971
  outer loop
   vertex -0.081328 0.316776 -0.160926
   vertex -0.0494925 0.265874 -0.157743
   vertex -0.051328 0.264814 -0.161926
  endloop
 endfacet
 facet normal 0.768729 0.452524 -0.451971
  outer loop
   vertex -0.081328 0.316776 -0.160926
   vertex -0.0794925 0.317836 -0.156743
   vertex -0.0494925 0.265874 -0.157743
  endloop
 endfacet
 facet normal 0.731992 0.432743 -0.526233
  outer loop
   vertex -0.0834655 0.315542 -0.164914
   vertex -0.051328 0.264814 -0.161926
   vertex -0.0534655 0.26358 -0.165914
  endloop
 endfacet
 facet normal 0.731992 0.432743 -0.526233
  outer loop
   vertex -0.0834655 0.315542 -0.164914
   vertex -0.081328 0.316776 -0.160926
   vertex -0.051328 0.264814 -0.161926
  endloop
 endfacet
 facet normal 0.689829 0.409759 -0.596853
  outer loop
   vertex -0.0858892 0.314143 -0.168676
   vertex -0.0534655 0.26358 -0.165914
   vertex -0.0558892 0.262181 -0.169676
  endloop
 endfacet
 facet normal 0.689829 0.409759 -0.596853
  outer loop
   vertex -0.0858892 0.314143 -0.168676
   vertex -0.0834655 0.315542 -0.164914
   vertex -0.0534655 0.26358 -0.165914
  endloop
 endfacet
 facet normal 0.642809 0.383884 -0.662895
  outer loop
   vertex -0.0885816 0.312588 -0.172187
   vertex -0.0558892 0.262181 -0.169676
   vertex -0.0585816 0.260627 -0.173187
  endloop
 endfacet
 facet normal 0.642809 0.383884 -0.662895
  outer loop
   vertex -0.0885816 0.312588 -0.172187
   vertex -0.0858892 0.314143 -0.168676
   vertex -0.0558892 0.262181 -0.169676
  endloop
 endfacet
 facet normal 0.59101 0.355158 -0.724272
  outer loop
   vertex -0.0915231 0.31089 -0.17542
   vertex -0.0585816 0.260627 -0.173187
   vertex -0.0615231 0.258928 -0.17642
  endloop
 endfacet
 facet normal 0.59101 0.355158 -0.724272
  outer loop
   vertex -0.0915231 0.31089 -0.17542
   vertex -0.0885816 0.312588 -0.172187
   vertex -0.0585816 0.260627 -0.173187
  endloop
 endfacet
 facet normal 0.534939 0.323865 -0.780353
  outer loop
   vertex -0.0946924 0.30906 -0.178352
   vertex -0.0615231 0.258928 -0.17642
   vertex -0.0646924 0.257098 -0.179352
  endloop
 endfacet
 facet normal 0.534939 0.323865 -0.780353
  outer loop
   vertex -0.0946924 0.30906 -0.178352
   vertex -0.0915231 0.31089 -0.17542
   vertex -0.0615231 0.258928 -0.17642
  endloop
 endfacet
 facet normal 0.474922 0.290185 -0.830808
  outer loop
   vertex -0.0980662 0.307112 -0.180961
   vertex -0.0646924 0.257098 -0.179352
   vertex -0.0680662 0.255151 -0.181961
  endloop
 endfacet
 facet normal 0.474922 0.290185 -0.830808
  outer loop
   vertex -0.0980662 0.307112 -0.180961
   vertex -0.0946924 0.30906 -0.178352
   vertex -0.0646924 0.257098 -0.179352
  endloop
 endfacet
 facet normal 0.411555 0.254454 -0.875143
  outer loop
   vertex -0.10162 0.30506 -0.183229
   vertex -0.0680662 0.255151 -0.181961
   vertex -0.0716203 0.253099 -0.184229
  endloop
 endfacet
 facet normal 0.411555 0.254454 -0.875143
  outer loop
   vertex -0.10162 0.30506 -0.183229
   vertex -0.0980662 0.307112 -0.180961
   vertex -0.0680662 0.255151 -0.181961
  endloop
 endfacet
 facet normal 0.345131 0.216835 -0.913163
  outer loop
   vertex -0.105329 0.302919 -0.185139
   vertex -0.0716203 0.253099 -0.184229
   vertex -0.0753287 0.250958 -0.186139
  endloop
 endfacet
 facet normal 0.345131 0.216835 -0.913163
  outer loop
   vertex -0.105329 0.302919 -0.185139
   vertex -0.10162 0.30506 -0.183229
   vertex -0.0716203 0.253099 -0.184229
  endloop
 endfacet
 facet normal 0.276173 0.177626 -0.944551
  outer loop
   vertex -0.109165 0.300704 -0.186677
   vertex -0.105329 0.302919 -0.185139
   vertex -0.0753287 0.250958 -0.186139
  endloop
 endfacet
 facet normal 0.276173 0.177626 -0.944551
  outer loop
   vertex -0.109165 0.300704 -0.186677
   vertex -0.0753287 0.250958 -0.186139
   vertex -0.0791645 0.248743 -0.187677
  endloop
 endfacet
 facet normal 0.205406 0.13724 -0.969007
  outer loop
   vertex -0.1131 0.298432 -0.187833
   vertex -0.109165 0.300704 -0.186677
   vertex -0.0791645 0.248743 -0.187677
  endloop
 endfacet
 facet normal 0.205406 0.13724 -0.969007
  outer loop
   vertex -0.1131 0.298432 -0.187833
   vertex -0.0791645 0.248743 -0.187677
   vertex -0.0830999 0.246471 -0.188833
  endloop
 endfacet
 facet normal 0.132875 0.0957007 -0.986502
  outer loop
   vertex -0.117106 0.296119 -0.188597
   vertex -0.1131 0.298432 -0.187833
   vertex -0.0830999 0.246471 -0.188833
  endloop
 endfacet
 facet normal 0.132875 0.0957007 -0.986502
  outer loop
   vertex -0.117106 0.296119 -0.188597
   vertex -0.0830999 0.246471 -0.188833
   vertex -0.0871061 0.244158 -0.189597
  endloop
 endfacet
 facet normal 0.0702552 0.0597249 -0.995739
  outer loop
   vertex -0.119977 0.294462 -0.188899
   vertex -0.117106 0.296119 -0.188597
   vertex -0.0871061 0.244158 -0.189597
  endloop
 endfacet
 facet normal 0.0702552 0.0597249 -0.995739
  outer loop
   vertex -0.119977 0.294462 -0.188899
   vertex -0.0871061 0.244158 -0.189597
   vertex -0.0899773 0.2425 -0.189899
  endloop
 endfacet
 facet normal 0.0179425 0.0295926 -0.999401
  outer loop
   vertex -0.122859 0.292798 -0.189
   vertex -0.119977 0.294462 -0.188899
   vertex -0.0899773 0.2425 -0.189899
  endloop
 endfacet
 facet normal 0.0179425 0.0295926 -0.999401
  outer loop
   vertex -0.122859 0.292798 -0.189
   vertex -0.0899773 0.2425 -0.189899
   vertex -0.092859 0.240836 -0.19
  endloop
 endfacet
 facet normal -0.00833219 0.0144318 -0.999861
  outer loop
   vertex -0.122859 0.292798 -0.189
   vertex -0.092859 0.240836 -0.19
   vertex -0.162141 0.200836 -0.19
  endloop
 endfacet
 facet normal -0.00833219 0.0144318 -0.999861
  outer loop
   vertex -0.192141 0.252798 -0.189
   vertex -0.122859 0.292798 -0.189
   vertex -0.162141 0.200836 -0.19
  endloop
 endfacet
 facet normal -0.00833219 0.0144318 -0.999861
  outer loop
   vertex -0.122859 0.292798 0.206
   vertex -0.162141 0.200836 0.205
   vertex -0.192141 0.252798 0.206
  endloop
 endfacet
 facet normal -0.00833219 0.0144318 -0.999861
  outer loop
   vertex -0.092859 0.240836 0.205
   vertex -0.162141 0.200836 0.205
   vertex -0.122859 0.292798 0.206
  endloop
 endfacet
 facet normal 0.0780183 0.0641905 -0.994883
  outer loop
   vertex -0.193861 0.251805 0.205801
   vertex -0.162141 0.200836 0.205
   vertex -0.163861 0.199843 0.204801
  endloop
 endfacet
 facet normal 0.0780183 0.0641905 -0.994883
  outer loop
   vertex -0.193861 0.251805 0.205801
   vertex -0.192141 0.252798 0.206
   vertex -0.162141 0.200836 0.205
  endloop
 endfacet
 facet normal 0.247935 0.161529 -0.955215
  outer loop
   vertex -0.195513 0.250851 0.205211
   vertex -0.163861 0.199843 0.204801
   vertex -0.165513 0.19889 0.204211
  endloop
 endfacet
 facet normal 0.247935 0.161529 -0.955215
  outer loop
   vertex -0.195513 0.250851 0.205211
   vertex -0.193861 0.251805 0.205801
   vertex -0.163861 0.199843 0.204801
  endloop
 endfacet
 facet normal 0.408094 0.252498 -0.877328
  outer loop
   vertex -0.197031 0.249975 0.204253
   vertex -0.165513 0.19889 0.204211
   vertex -0.167031 0.198013 0.203253
  endloop
 endfacet
 facet normal 0.408094 0.252498 -0.877328
  outer loop
   vertex -0.197031 0.249975 0.204253
   vertex -0.195513 0.250851 0.205211
   vertex -0.165513 0.19889 0.204211
  endloop
 endfacet
 facet normal 0.551425 0.333085 -0.764843
  outer loop
   vertex -0.198353 0.249211 0.202967
   vertex -0.167031 0.198013 0.203253
   vertex -0.168353 0.19725 0.201967
  endloop
 endfacet
 facet normal 0.551425 0.333085 -0.764843
  outer loop
   vertex -0.198353 0.249211 0.202967
   vertex -0.197031 0.249975 0.204253
   vertex -0.167031 0.198013 0.203253
  endloop
 endfacet
 facet normal 0.673145 0.400603 -0.621605
  outer loop
   vertex -0.199428 0.248591 0.201403
   vertex -0.168353 0.19725 0.201967
   vertex -0.169428 0.196629 0.200403
  endloop
 endfacet
 facet normal 0.673145 0.400603 -0.621605
  outer loop
   vertex -0.199428 0.248591 0.201403
   vertex -0.198353 0.249211 0.202967
   vertex -0.168353 0.19725 0.201967
  endloop
 endfacet
 facet normal 0.768036 0.452154 -0.453516
  outer loop
   vertex -0.200213 0.248138 0.199623
   vertex -0.169428 0.196629 0.200403
   vertex -0.170213 0.196176 0.198623
  endloop
 endfacet
 facet normal 0.768036 0.452154 -0.453516
  outer loop
   vertex -0.200213 0.248138 0.199623
   vertex -0.199428 0.248591 0.201403
   vertex -0.169428 0.196629 0.200403
  endloop
 endfacet
 facet normal 0.830428 0.484733 -0.274633
  outer loop
   vertex -0.200653 0.247884 0.197843
   vertex -0.170213 0.196176 0.198623
   vertex -0.170653 0.195922 0.196843
  endloop
 endfacet
 facet normal 0.830428 0.484733 -0.274633
  outer loop
   vertex -0.200653 0.247884 0.197843
   vertex -0.200213 0.248138 0.199623
   vertex -0.170213 0.196176 0.198623
  endloop
 endfacet
 facet normal 0.861536 0.499189 -0.0925512
  outer loop
   vertex -0.200801 0.247798 0.195999
   vertex -0.170653 0.195922 0.196843
   vertex -0.170801 0.195836 0.194999
  endloop
 endfacet
 facet normal 0.861536 0.499189 -0.0925512
  outer loop
   vertex -0.200801 0.247798 0.195999
   vertex -0.200653 0.247884 0.197843
   vertex -0.170653 0.195922 0.196843
  endloop
 endfacet
 facet normal -0.0945997 -0.0354706 -0.994883
  outer loop
   vertex -0.0911385 0.24183 0.204801
   vertex -0.092859 0.240836 0.205
   vertex -0.121139 0.293791 0.205801
  endloop
 endfacet
 facet normal -0.0945997 -0.0354706 -0.994883
  outer loop
   vertex -0.092859 0.240836 0.205
   vertex -0.122859 0.292798 0.206
   vertex -0.121139 0.293791 0.205801
  endloop
 endfacet
 facet normal -0.263856 -0.133954 -0.955215
  outer loop
   vertex -0.0894868 0.242783 0.204211
   vertex -0.0911385 0.24183 0.204801
   vertex -0.119487 0.294745 0.205211
  endloop
 endfacet
 facet normal -0.263856 -0.133954 -0.955215
  outer loop
   vertex -0.0911385 0.24183 0.204801
   vertex -0.121139 0.293791 0.205801
   vertex -0.119487 0.294745 0.205211
  endloop
 endfacet
 facet normal -0.422716 -0.227171 -0.877328
  outer loop
   vertex -0.0879693 0.24366 0.203253
   vertex -0.0894868 0.242783 0.204211
   vertex -0.117969 0.295621 0.204253
  endloop
 endfacet
 facet normal -0.422716 -0.227171 -0.877328
  outer loop
   vertex -0.0894868 0.242783 0.204211
   vertex -0.119487 0.294745 0.205211
   vertex -0.117969 0.295621 0.204253
  endloop
 endfacet
 facet normal -0.564172 -0.311006 -0.764843
  outer loop
   vertex -0.0866468 0.244423 0.201967
   vertex -0.0879693 0.24366 0.203253
   vertex -0.116647 0.296385 0.202967
  endloop
 endfacet
 facet normal -0.564172 -0.311006 -0.764843
  outer loop
   vertex -0.0879693 0.24366 0.203253
   vertex -0.117969 0.295621 0.204253
   vertex -0.116647 0.296385 0.202967
  endloop
 endfacet
 facet normal -0.683505 -0.382659 -0.621605
  outer loop
   vertex -0.0855719 0.245044 0.200403
   vertex -0.0866468 0.244423 0.201967
   vertex -0.115572 0.297005 0.201403
  endloop
 endfacet
 facet normal -0.683505 -0.382659 -0.621605
  outer loop
   vertex -0.0866468 0.244423 0.201967
   vertex -0.116647 0.296385 0.202967
   vertex -0.115572 0.297005 0.201403
  endloop
 endfacet
 facet normal -0.775595 -0.439062 -0.453516
  outer loop
   vertex -0.0847875 0.245497 0.198623
   vertex -0.0855719 0.245044 0.200403
   vertex -0.114787 0.297458 0.199623
  endloop
 endfacet
 facet normal -0.775595 -0.439062 -0.453516
  outer loop
   vertex -0.0855719 0.245044 0.200403
   vertex -0.115572 0.297005 0.201403
   vertex -0.114787 0.297458 0.199623
  endloop
 endfacet
 facet normal -0.835005 -0.476805 -0.274633
  outer loop
   vertex -0.0843472 0.245751 0.196843
   vertex -0.0847875 0.245497 0.198623
   vertex -0.114347 0.297712 0.197843
  endloop
 endfacet
 facet normal -0.835005 -0.476805 -0.274633
  outer loop
   vertex -0.0847875 0.245497 0.198623
   vertex -0.114787 0.297458 0.199623
   vertex -0.114347 0.297712 0.197843
  endloop
 endfacet
 facet normal -0.863079 -0.496518 -0.0925512
  outer loop
   vertex -0.0841987 0.245836 0.194999
   vertex -0.0843472 0.245751 0.196843
   vertex -0.114199 0.297798 0.195999
  endloop
 endfacet
 facet normal -0.863079 -0.496518 -0.0925512
  outer loop
   vertex -0.0843472 0.245751 0.196843
   vertex -0.114347 0.297712 0.197843
   vertex -0.114199 0.297798 0.195999
  endloop
 endfacet
 facet normal 0.866025 0.5 0
  outer loop
   vertex -0.170801 0.195836 0.194999
   vertex -0.170801 0.195836 -0.134999
   vertex -0.200801 0.247798 -0.133999
  endloop
 endfacet
 facet normal 0.866025 0.5 0
  outer loop
   vertex -0.170801 0.195836 0.194999
   vertex -0.200801 0.247798 -0.133999
   vertex -0.200801 0.247798 0.195999
  endloop
 endfacet
 facet normal -0.866025 -0.5 0
  outer loop
   vertex -0.114199 0.297798 -0.133999
   vertex -0.0841987 0.245836 0.194999
   vertex -0.114199 0.297798 0.195999
  endloop
 endfacet
 facet normal -0.866025 -0.5 0
  outer loop
   vertex -0.0841987 0.245836 -0.134999
   vertex -0.0841987 0.245836 0.194999
   vertex -0.114199 0.297798 -0.133999
  endloop
 endfacet
 facet normal 0.0945933 0.0354669 0.994884
  outer loop
   vertex -0.163861 0.199843 -0.144801
   vertex -0.162141 0.200836 -0.145
   vertex -0.192141 0.252798 -0.144
  endloop
 endfacet
 facet normal 0.263861 0.133957 0.955213
  outer loop
   vertex -0.165513 0.19889 -0.144211
   vertex -0.163861 0.199843 -0.144801
   vertex -0.193861 0.251805 -0.143801
  endloop
 endfacet
 facet normal 0.0945933 0.0354669 0.994884
  outer loop
   vertex -0.163861 0.199843 -0.144801
   vertex -0.192141 0.252798 -0.144
   vertex -0.193861 0.251805 -0.143801
  endloop
 endfacet
 facet normal 0.422716 0.227171 0.877328
  outer loop
   vertex -0.167031 0.198013 -0.143253
   vertex -0.165513 0.19889 -0.144211
   vertex -0.195513 0.250851 -0.143211
  endloop
 endfacet
 facet normal 0.263855 0.133954 0.955215
  outer loop
   vertex -0.165513 0.19889 -0.144211
   vertex -0.193861 0.251805 -0.143801
   vertex -0.195513 0.250851 -0.143211
  endloop
 endfacet
 facet normal 0.564172 0.311006 0.764843
  outer loop
   vertex -0.168353 0.19725 -0.141967
   vertex -0.167031 0.198013 -0.143253
   vertex -0.197031 0.249975 -0.142253
  endloop
 endfacet
 facet normal 0.422721 0.227174 0.877325
  outer loop
   vertex -0.167031 0.198013 -0.143253
   vertex -0.195513 0.250851 -0.143211
   vertex -0.197031 0.249975 -0.142253
  endloop
 endfacet
 facet normal 0.683505 0.382659 0.621605
  outer loop
   vertex -0.169428 0.196629 -0.140403
   vertex -0.168353 0.19725 -0.141967
   vertex -0.198353 0.249211 -0.140967
  endloop
 endfacet
 facet normal 0.564172 0.311006 0.764843
  outer loop
   vertex -0.168353 0.19725 -0.141967
   vertex -0.197031 0.249975 -0.142253
   vertex -0.198353 0.249211 -0.140967
  endloop
 endfacet
 facet normal 0.775595 0.439062 0.453516
  outer loop
   vertex -0.170213 0.196176 -0.138623
   vertex -0.169428 0.196629 -0.140403
   vertex -0.199428 0.248591 -0.139403
  endloop
 endfacet
 facet normal 0.683505 0.382659 0.621605
  outer loop
   vertex -0.169428 0.196629 -0.140403
   vertex -0.198353 0.249211 -0.140967
   vertex -0.199428 0.248591 -0.139403
  endloop
 endfacet
 facet normal 0.835005 0.476805 0.274633
  outer loop
   vertex -0.170653 0.195922 -0.136843
   vertex -0.170213 0.196176 -0.138623
   vertex -0.200213 0.248138 -0.137623
  endloop
 endfacet
 facet normal 0.775595 0.439062 0.453516
  outer loop
   vertex -0.170213 0.196176 -0.138623
   vertex -0.199428 0.248591 -0.139403
   vertex -0.200213 0.248138 -0.137623
  endloop
 endfacet
 facet normal 0.863079 0.496517 0.0925519
  outer loop
   vertex -0.170801 0.195836 -0.134999
   vertex -0.170653 0.195922 -0.136843
   vertex -0.200653 0.247884 -0.135843
  endloop
 endfacet
 facet normal 0.835005 0.476805 0.274633
  outer loop
   vertex -0.170653 0.195922 -0.136843
   vertex -0.200213 0.248138 -0.137623
   vertex -0.200653 0.247884 -0.135843
  endloop
 endfacet
 facet normal 0.863079 0.496517 0.0925519
  outer loop
   vertex -0.170801 0.195836 -0.134999
   vertex -0.200653 0.247884 -0.135843
   vertex -0.200801 0.247798 -0.133999
  endloop
 endfacet
 facet normal -0.860869 -0.498944 0.0998009
  outer loop
   vertex -0.0843713 0.245737 -0.136986
   vertex -0.0841987 0.245836 -0.134999
   vertex -0.114371 0.297698 -0.135986
  endloop
 endfacet
 facet normal -0.860869 -0.498944 0.0998009
  outer loop
   vertex -0.0841987 0.245836 -0.134999
   vertex -0.114199 0.297798 -0.133999
   vertex -0.114371 0.297698 -0.135986
  endloop
 endfacet
 facet normal -0.824848 -0.481915 0.295608
  outer loop
   vertex -0.0848824 0.245442 -0.138893
   vertex -0.0843713 0.245737 -0.136986
   vertex -0.114882 0.297403 -0.137893
  endloop
 endfacet
 facet normal -0.824848 -0.481915 0.295606
  outer loop
   vertex -0.0843713 0.245737 -0.136986
   vertex -0.114371 0.297698 -0.135986
   vertex -0.114882 0.297403 -0.137893
  endloop
 endfacet
 facet normal -0.756076 -0.445744 0.47923
  outer loop
   vertex -0.0857113 0.244963 -0.140646
   vertex -0.0848824 0.245442 -0.138893
   vertex -0.115711 0.296925 -0.139646
  endloop
 endfacet
 facet normal -0.756075 -0.445743 0.479233
  outer loop
   vertex -0.0848824 0.245442 -0.138893
   vertex -0.114882 0.297403 -0.137893
   vertex -0.115711 0.296925 -0.139646
  endloop
 endfacet
 facet normal -0.656942 -0.391683 0.644214
  outer loop
   vertex -0.0868253 0.24432 -0.142173
   vertex -0.0857113 0.244963 -0.140646
   vertex -0.116825 0.296282 -0.141173
  endloop
 endfacet
 facet normal -0.656942 -0.391683 0.644214
  outer loop
   vertex -0.0857113 0.244963 -0.140646
   vertex -0.115711 0.296925 -0.139646
   vertex -0.116825 0.296282 -0.141173
  endloop
 endfacet
 facet normal -0.531726 -0.322067 0.783288
  outer loop
   vertex -0.0881798 0.243538 -0.143414
   vertex -0.0868253 0.24432 -0.142173
   vertex -0.11818 0.2955 -0.142414
  endloop
 endfacet
 facet normal -0.531726 -0.322067 0.783288
  outer loop
   vertex -0.0868253 0.24432 -0.142173
   vertex -0.116825 0.296282 -0.141173
   vertex -0.11818 0.2955 -0.142414
  endloop
 endfacet
 facet normal -0.385489 -0.23971 0.891031
  outer loop
   vertex -0.0897207 0.242648 -0.14432
   vertex -0.0881798 0.243538 -0.143414
   vertex -0.119721 0.29461 -0.14332
  endloop
 endfacet
 facet normal -0.385489 -0.23971 0.891031
  outer loop
   vertex -0.0881798 0.243538 -0.143414
   vertex -0.11818 0.2955 -0.142414
   vertex -0.119721 0.29461 -0.14332
  endloop
 endfacet
 facet normal -0.230026 -0.151307 0.96135
  outer loop
   vertex -0.0912625 0.241758 -0.144829
   vertex -0.0897207 0.242648 -0.14432
   vertex -0.121262 0.29372 -0.143829
  endloop
 endfacet
 facet normal -0.230026 -0.151307 0.96135
  outer loop
   vertex -0.0897207 0.242648 -0.14432
   vertex -0.119721 0.29461 -0.14332
   vertex -0.121262 0.29372 -0.143829
  endloop
 endfacet
 facet normal -0.0716758 -0.0605422 0.995589
  outer loop
   vertex -0.092859 0.240836 -0.145
   vertex -0.0912625 0.241758 -0.144829
   vertex -0.122859 0.292798 -0.144
  endloop
 endfacet
 facet normal -0.0716758 -0.0605422 0.995589
  outer loop
   vertex -0.0912625 0.241758 -0.144829
   vertex -0.121262 0.29372 -0.143829
   vertex -0.122859 0.292798 -0.144
  endloop
 endfacet
 facet normal 0.00833219 -0.0144318 0.999861
  outer loop
   vertex -0.162141 0.200836 -0.145
   vertex -0.092859 0.240836 -0.145
   vertex -0.122859 0.292798 -0.144
  endloop
 endfacet
 facet normal 0.00833219 -0.0144318 0.999861
  outer loop
   vertex -0.162141 0.200836 -0.145
   vertex -0.122859 0.292798 -0.144
   vertex -0.192141 0.252798 -0.144
  endloop
 endfacet
 facet normal -0.5 0.866025 3.56601e-15
  outer loop
   vertex -0.225213 0.233704 0.235579
   vertex -0.222173 0.235459 0.238689
   vertex -0.198353 0.249211 0.202967
  endloop
 endfacet
 facet normal -0.5 0.866025 1.12539e-15
  outer loop
   vertex -0.228012 0.232088 0.232183
   vertex -0.225213 0.233704 0.235579
   vertex -0.198353 0.249211 0.202967
  endloop
 endfacet
 facet normal -0.5 0.866025 -1.15618e-15
  outer loop
   vertex -0.230551 0.230622 0.228523
   vertex -0.228012 0.232088 0.232183
   vertex -0.198353 0.249211 0.202967
  endloop
 endfacet
 facet normal -0.5 0.866025 1.06062e-15
  outer loop
   vertex -0.218915 0.23734 0.241487
   vertex -0.215462 0.239334 0.243956
   vertex -0.197031 0.249975 0.204253
  endloop
 endfacet
 facet normal -0.5 0.866025 -1.18951e-15
  outer loop
   vertex -0.222173 0.235459 0.238689
   vertex -0.218915 0.23734 0.241487
   vertex -0.197031 0.249975 0.204253
  endloop
 endfacet
 facet normal -0.5 0.866025 1.50715e-16
  outer loop
   vertex -0.198353 0.249211 0.202967
   vertex -0.222173 0.235459 0.238689
   vertex -0.197031 0.249975 0.204253
  endloop
 endfacet
 facet normal -0.5 0.866025 4.50016e-16
  outer loop
   vertex -0.23281 0.229317 0.224626
   vertex -0.230551 0.230622 0.228523
   vertex -0.199428 0.248591 0.201403
  endloop
 endfacet
 facet normal -0.5 0.866025 -3.98485e-15
  outer loop
   vertex -0.234774 0.228184 0.220522
   vertex -0.23281 0.229317 0.224626
   vertex -0.199428 0.248591 0.201403
  endloop
 endfacet
 facet normal -0.5 0.866025 -2.41289e-15
  outer loop
   vertex -0.230551 0.230622 0.228523
   vertex -0.198353 0.249211 0.202967
   vertex -0.199428 0.248591 0.201403
  endloop
 endfacet
 facet normal -0.5 0.866025 1.09311e-15
  outer loop
   vertex -0.21184 0.241425 0.246075
   vertex -0.208075 0.243599 0.247831
   vertex -0.195513 0.250851 0.205211
  endloop
 endfacet
 facet normal -0.5 0.866025 -1.15692e-15
  outer loop
   vertex -0.215462 0.239334 0.243956
   vertex -0.21184 0.241425 0.246075
   vertex -0.195513 0.250851 0.205211
  endloop
 endfacet
 facet normal -0.5 0.866025 1.65722e-15
  outer loop
   vertex -0.197031 0.249975 0.204253
   vertex -0.215462 0.239334 0.243956
   vertex -0.195513 0.250851 0.205211
  endloop
 endfacet
 facet normal -0.5 0.866025 1.06056e-15
  outer loop
   vertex -0.236429 0.227228 0.216239
   vertex -0.234774 0.228184 0.220522
   vertex -0.200213 0.248138 0.199623
  endloop
 endfacet
 facet normal -0.5 0.866025 1.1732e-15
  outer loop
   vertex -0.237761 0.226459 0.211809
   vertex -0.236429 0.227228 0.216239
   vertex -0.200213 0.248138 0.199623
  endloop
 endfacet
 facet normal -0.5 0.866025 1.2051e-15
  outer loop
   vertex -0.234774 0.228184 0.220522
   vertex -0.199428 0.248591 0.201403
   vertex -0.200213 0.248138 0.199623
  endloop
 endfacet
 facet normal -0.5 0.866025 -1.20502e-16
  outer loop
   vertex -0.200225 0.248131 0.250202
   vertex -0.196198 0.250456 0.2508
   vertex -0.193861 0.251805 0.205801
  endloop
 endfacet
 facet normal -0.5 0.866025 -2.08988e-16
  outer loop
   vertex -0.204194 0.245839 0.24921
   vertex -0.200225 0.248131 0.250202
   vertex -0.193861 0.251805 0.205801
  endloop
 endfacet
 facet normal -0.5 0.866025 -8.99281e-16
  outer loop
   vertex -0.208075 0.243599 0.247831
   vertex -0.204194 0.245839 0.24921
   vertex -0.193861 0.251805 0.205801
  endloop
 endfacet
 facet normal -0.5 0.866025 9.23896e-16
  outer loop
   vertex -0.195513 0.250851 0.205211
   vertex -0.208075 0.243599 0.247831
   vertex -0.193861 0.251805 0.205801
  endloop
 endfacet
 facet normal -0.5 0.866025 -2.63485e-15
  outer loop
   vertex -0.238762 0.225882 0.207264
   vertex -0.237761 0.226459 0.211809
   vertex -0.200653 0.247884 0.197843
  endloop
 endfacet
 facet normal -0.5 0.866025 1.52684e-15
  outer loop
   vertex -0.239424 0.225499 0.202637
   vertex -0.238762 0.225882 0.207264
   vertex -0.200653 0.247884 0.197843
  endloop
 endfacet
 facet normal -0.5 0.866025 0
  outer loop
   vertex -0.237761 0.226459 0.211809
   vertex -0.200213 0.248138 0.199623
   vertex -0.200653 0.247884 0.197843
  endloop
 endfacet
 facet normal -0.5 0.866025 0
  outer loop
   vertex -0.196198 0.250456 0.2508
   vertex -0.192141 0.252798 0.251
   vertex -0.192141 0.252798 0.206
  endloop
 endfacet
 facet normal -0.5 0.866025 -2.54302e-16
  outer loop
   vertex -0.193861 0.251805 0.205801
   vertex -0.196198 0.250456 0.2508
   vertex -0.192141 0.252798 0.206
  endloop
 endfacet
 facet normal -0.5 0.866025 -3.72971e-16
  outer loop
   vertex -0.239685 0.225348 0.199321
   vertex -0.239424 0.225499 0.202637
   vertex -0.200801 0.247798 0.195999
  endloop
 endfacet
 facet normal -0.5 0.866025 3.26816e-15
  outer loop
   vertex -0.239772 0.225298 0.195992
   vertex -0.239685 0.225348 0.199321
   vertex -0.200801 0.247798 0.195999
  endloop
 endfacet
 facet normal -0.5 0.866025 -3.90116e-15
  outer loop
   vertex -0.239424 0.225499 0.202637
   vertex -0.200653 0.247884 0.197843
   vertex -0.200801 0.247798 0.195999
  endloop
 endfacet
 facet normal -0.5 0.866025 0
  outer loop
   vertex -0.192141 0.252798 0.251
   vertex -0.122859 0.292798 0.251
   vertex -0.122859 0.292798 0.206
  endloop
 endfacet
 facet normal -0.5 0.866025 0
  outer loop
   vertex -0.122859 0.292798 0.251
   vertex -0.118802 0.29514 0.2508
   vertex -0.122859 0.292798 0.206
  endloop
 endfacet
 facet normal -0.5 0.866025 0
  outer loop
   vertex -0.192141 0.252798 0.206
   vertex -0.192141 0.252798 0.251
   vertex -0.122859 0.292798 0.206
  endloop
 endfacet
 facet normal -0.5 0.866025 -3.61505e-17
  outer loop
   vertex -0.118802 0.29514 0.2508
   vertex -0.114775 0.297465 0.250202
   vertex -0.121139 0.293791 0.205801
  endloop
 endfacet
 facet normal -0.5 0.866025 5.62661e-17
  outer loop
   vertex -0.114775 0.297465 0.250202
   vertex -0.110806 0.299757 0.24921
   vertex -0.121139 0.293791 0.205801
  endloop
 endfacet
 facet normal -0.5 0.866025 3.69348e-16
  outer loop
   vertex -0.110806 0.299757 0.24921
   vertex -0.106925 0.301997 0.247831
   vertex -0.121139 0.293791 0.205801
  endloop
 endfacet
 facet normal -0.5 0.866025 -1.03605e-16
  outer loop
   vertex -0.122859 0.292798 0.206
   vertex -0.118802 0.29514 0.2508
   vertex -0.121139 0.293791 0.205801
  endloop
 endfacet
 facet normal -0.5 0.866025 -1.60751e-17
  outer loop
   vertex -0.106925 0.301997 0.247831
   vertex -0.10316 0.304171 0.246075
   vertex -0.119487 0.294745 0.205211
  endloop
 endfacet
 facet normal -0.5 0.866025 3.53503e-16
  outer loop
   vertex -0.10316 0.304171 0.246075
   vertex -0.099538 0.306262 0.243956
   vertex -0.119487 0.294745 0.205211
  endloop
 endfacet
 facet normal -0.5 0.866025 3.3939e-16
  outer loop
   vertex -0.121139 0.293791 0.205801
   vertex -0.106925 0.301997 0.247831
   vertex -0.119487 0.294745 0.205211
  endloop
 endfacet
 facet normal -0.5 0.866025 -3.53541e-16
  outer loop
   vertex -0.099538 0.306262 0.243956
   vertex -0.0960853 0.308256 0.241487
   vertex -0.117969 0.295621 0.204253
  endloop
 endfacet
 facet normal -0.5 0.866025 2.25042e-16
  outer loop
   vertex -0.0960853 0.308256 0.241487
   vertex -0.0928273 0.310137 0.238689
   vertex -0.117969 0.295621 0.204253
  endloop
 endfacet
 facet normal -0.5 0.866025 -1.69489e-15
  outer loop
   vertex -0.119487 0.294745 0.205211
   vertex -0.099538 0.306262 0.243956
   vertex -0.117969 0.295621 0.204253
  endloop
 endfacet
 facet normal -0.5 0.866025 -1.50715e-16
  outer loop
   vertex -0.117969 0.295621 0.204253
   vertex -0.0928273 0.310137 0.238689
   vertex -0.116647 0.296385 0.202967
  endloop
 endfacet
 facet normal -0.5 0.866025 -4.1764e-16
  outer loop
   vertex -0.0928273 0.310137 0.238689
   vertex -0.0897875 0.311892 0.235579
   vertex -0.116647 0.296385 0.202967
  endloop
 endfacet
 facet normal -0.5 0.866025 -2.57232e-16
  outer loop
   vertex -0.116647 0.296385 0.202967
   vertex -0.0897875 0.311892 0.235579
   vertex -0.086988 0.313508 0.232183
  endloop
 endfacet
 facet normal -0.5 0.866025 1.02771e-15
  outer loop
   vertex -0.116647 0.296385 0.202967
   vertex -0.086988 0.313508 0.232183
   vertex -0.0844492 0.314974 0.228523
  endloop
 endfacet
 facet normal -0.5 0.866025 1.99818e-15
  outer loop
   vertex -0.115572 0.297005 0.201403
   vertex -0.116647 0.296385 0.202967
   vertex -0.0844492 0.314974 0.228523
  endloop
 endfacet
 facet normal -0.5 0.866025 -1.02861e-15
  outer loop
   vertex -0.115572 0.297005 0.201403
   vertex -0.0844492 0.314974 0.228523
   vertex -0.0821896 0.316279 0.224626
  endloop
 endfacet
 facet normal -0.5 0.866025 1.54252e-15
  outer loop
   vertex -0.115572 0.297005 0.201403
   vertex -0.0821896 0.316279 0.224626
   vertex -0.0802255 0.317412 0.220522
  endloop
 endfacet
 facet normal -0.5 0.866025 -2.25956e-15
  outer loop
   vertex -0.114787 0.297458 0.199623
   vertex -0.115572 0.297005 0.201403
   vertex -0.0802255 0.317412 0.220522
  endloop
 endfacet
 facet normal -0.5 0.866025 -1.02842e-15
  outer loop
   vertex -0.114787 0.297458 0.199623
   vertex -0.0802255 0.317412 0.220522
   vertex -0.0785713 0.318368 0.216239
  endloop
 endfacet
 facet normal -0.5 0.866025 0
  outer loop
   vertex -0.114787 0.297458 0.199623
   vertex -0.0785713 0.318368 0.216239
   vertex -0.077239 0.319137 0.211809
  endloop
 endfacet
 facet normal -0.5 0.866025 4.67349e-16
  outer loop
   vertex -0.114347 0.297712 0.197843
   vertex -0.114787 0.297458 0.199623
   vertex -0.077239 0.319137 0.211809
  endloop
 endfacet
 facet normal -0.5 0.866025 1.02823e-15
  outer loop
   vertex -0.114347 0.297712 0.197843
   vertex -0.077239 0.319137 0.211809
   vertex -0.0762382 0.319714 0.207264
  endloop
 endfacet
 facet normal -0.5 0.866025 0
  outer loop
   vertex -0.114347 0.297712 0.197843
   vertex -0.0762382 0.319714 0.207264
   vertex -0.0755763 0.320097 0.202637
  endloop
 endfacet
 facet normal -0.5 0.866025 3.27637e-15
  outer loop
   vertex -0.114199 0.297798 0.195999
   vertex -0.114347 0.297712 0.197843
   vertex -0.0755763 0.320097 0.202637
  endloop
 endfacet
 facet normal -0.5 0.866025 7.23338e-16
  outer loop
   vertex -0.114199 0.297798 0.195999
   vertex -0.0755763 0.320097 0.202637
   vertex -0.0753149 0.320248 0.199321
  endloop
 endfacet
 facet normal -0.5 0.866025 -7.23744e-16
  outer loop
   vertex -0.114199 0.297798 0.195999
   vertex -0.0753149 0.320248 0.199321
   vertex -0.0752276 0.320298 0.195992
  endloop
 endfacet
 facet normal -0.5 0.866025 0
  outer loop
   vertex -0.239772 0.225298 -0.133992
   vertex -0.239772 0.225298 0.195992
   vertex -0.200801 0.247798 -0.133999
  endloop
 endfacet
 facet normal -0.5 0.866025 3.72971e-16
  outer loop
   vertex -0.239424 0.225499 -0.140637
   vertex -0.239685 0.225348 -0.137321
   vertex -0.200801 0.247798 -0.133999
  endloop
 endfacet
 facet normal -0.5 0.866025 -3.26534e-15
  outer loop
   vertex -0.239685 0.225348 -0.137321
   vertex -0.239772 0.225298 -0.133992
   vertex -0.200801 0.247798 -0.133999
  endloop
 endfacet
 facet normal -0.5 0.866025 0
  outer loop
   vertex -0.239772 0.225298 0.195992
   vertex -0.200801 0.247798 0.195999
   vertex -0.200801 0.247798 -0.133999
  endloop
 endfacet
 facet normal -0.5 0.866025 3.90119e-15
  outer loop
   vertex -0.239424 0.225499 -0.140637
   vertex -0.200801 0.247798 -0.133999
   vertex -0.200653 0.247884 -0.135843
  endloop
 endfacet
 facet normal -0.5 0.866025 2.61877e-15
  outer loop
   vertex -0.237761 0.226459 -0.149809
   vertex -0.238762 0.225882 -0.145264
   vertex -0.200653 0.247884 -0.135843
  endloop
 endfacet
 facet normal -0.5 0.866025 -1.51881e-15
  outer loop
   vertex -0.238762 0.225882 -0.145264
   vertex -0.239424 0.225499 -0.140637
   vertex -0.200653 0.247884 -0.135843
  endloop
 endfacet
 facet normal -0.5 0.866025 -1.06056e-15
  outer loop
   vertex -0.234774 0.228184 -0.158522
   vertex -0.236429 0.227228 -0.154239
   vertex -0.200213 0.248138 -0.137623
  endloop
 endfacet
 facet normal -0.5 0.866025 -1.1732e-15
  outer loop
   vertex -0.236429 0.227228 -0.154239
   vertex -0.237761 0.226459 -0.149809
   vertex -0.200213 0.248138 -0.137623
  endloop
 endfacet
 facet normal -0.5 0.866025 0
  outer loop
   vertex -0.237761 0.226459 -0.149809
   vertex -0.200653 0.247884 -0.135843
   vertex -0.200213 0.248138 -0.137623
  endloop
 endfacet
 facet normal -0.5 0.866025 -1.2051e-15
  outer loop
   vertex -0.234774 0.228184 -0.158522
   vertex -0.200213 0.248138 -0.137623
   vertex -0.199428 0.248591 -0.139403
  endloop
 endfacet
 facet normal -0.5 0.866025 -4.50016e-16
  outer loop
   vertex -0.230551 0.230622 -0.166523
   vertex -0.23281 0.229317 -0.162626
   vertex -0.199428 0.248591 -0.139403
  endloop
 endfacet
 facet normal -0.5 0.866025 3.98485e-15
  outer loop
   vertex -0.23281 0.229317 -0.162626
   vertex -0.234774 0.228184 -0.158522
   vertex -0.199428 0.248591 -0.139403
  endloop
 endfacet
 facet normal -0.5 0.866025 2.41289e-15
  outer loop
   vertex -0.230551 0.230622 -0.166523
   vertex -0.199428 0.248591 -0.139403
   vertex -0.198353 0.249211 -0.140967
  endloop
 endfacet
 facet normal -0.5 0.866025 1.15617e-15
  outer loop
   vertex -0.228012 0.232088 -0.170183
   vertex -0.230551 0.230622 -0.166523
   vertex -0.198353 0.249211 -0.140967
  endloop
 endfacet
 facet normal -0.5 0.866025 -1.12539e-15
  outer loop
   vertex -0.228012 0.232088 -0.170183
   vertex -0.198353 0.249211 -0.140967
   vertex -0.225213 0.233704 -0.173579
  endloop
 endfacet
 facet normal -0.5 0.866025 -1.50715e-16
  outer loop
   vertex -0.198353 0.249211 -0.140967
   vertex -0.197031 0.249975 -0.142253
   vertex -0.222173 0.235459 -0.176689
  endloop
 endfacet
 facet normal -0.5 0.866025 -3.56601e-15
  outer loop
   vertex -0.225213 0.233704 -0.173579
   vertex -0.198353 0.249211 -0.140967
   vertex -0.222173 0.235459 -0.176689
  endloop
 endfacet
 facet normal -0.5 0.866025 1.1895e-15
  outer loop
   vertex -0.222173 0.235459 -0.176689
   vertex -0.197031 0.249975 -0.142253
   vertex -0.218915 0.23734 -0.179487
  endloop
 endfacet
 facet normal -0.5 0.866025 -1.65722e-15
  outer loop
   vertex -0.197031 0.249975 -0.142253
   vertex -0.195513 0.250851 -0.143211
   vertex -0.215462 0.239334 -0.181956
  endloop
 endfacet
 facet normal -0.5 0.866025 -1.06062e-15
  outer loop
   vertex -0.218915 0.23734 -0.179487
   vertex -0.197031 0.249975 -0.142253
   vertex -0.215462 0.239334 -0.181956
  endloop
 endfacet
 facet normal -0.5 0.866025 1.15692e-15
  outer loop
   vertex -0.215462 0.239334 -0.181956
   vertex -0.195513 0.250851 -0.143211
   vertex -0.21184 0.241425 -0.184075
  endloop
 endfacet
 facet normal -0.5 0.866025 -9.23896e-16
  outer loop
   vertex -0.195513 0.250851 -0.143211
   vertex -0.193861 0.251805 -0.143801
   vertex -0.208075 0.243599 -0.185831
  endloop
 endfacet
 facet normal -0.5 0.866025 -1.09311e-15
  outer loop
   vertex -0.21184 0.241425 -0.184075
   vertex -0.195513 0.250851 -0.143211
   vertex -0.208075 0.243599 -0.185831
  endloop
 endfacet
 facet normal -0.5 0.866025 8.99282e-16
  outer loop
   vertex -0.208075 0.243599 -0.185831
   vertex -0.193861 0.251805 -0.143801
   vertex -0.204194 0.245839 -0.18721
  endloop
 endfacet
 facet normal -0.5 0.866025 2.08988e-16
  outer loop
   vertex -0.204194 0.245839 -0.18721
   vertex -0.193861 0.251805 -0.143801
   vertex -0.200225 0.248131 -0.188202
  endloop
 endfacet
 facet normal -0.5 0.866025 1.20502e-16
  outer loop
   vertex -0.200225 0.248131 -0.188202
   vertex -0.193861 0.251805 -0.143801
   vertex -0.196198 0.250456 -0.1888
  endloop
 endfacet
 facet normal -0.5 0.866025 2.54302e-16
  outer loop
   vertex -0.193861 0.251805 -0.143801
   vertex -0.192141 0.252798 -0.144
   vertex -0.196198 0.250456 -0.1888
  endloop
 endfacet
 facet normal -0.5 0.866025 0
  outer loop
   vertex -0.196198 0.250456 -0.1888
   vertex -0.192141 0.252798 -0.144
   vertex -0.192141 0.252798 -0.189
  endloop
 endfacet
 facet normal -0.5 0.866025 0
  outer loop
   vertex -0.192141 0.252798 -0.189
   vertex -0.192141 0.252798 -0.144
   vertex -0.122859 0.292798 -0.144
  endloop
 endfacet
 facet normal -0.5 0.866025 0
  outer loop
   vertex -0.114199 0.297798 0.195999
   vertex -0.0752276 0.320298 0.195992
   vertex -0.0752276 0.320298 -0.133992
  endloop
 endfacet
 facet normal -0.5 0.866025 0
  outer loop
   vertex -0.114199 0.297798 -0.133999
   vertex -0.114199 0.297798 0.195999
   vertex -0.0752276 0.320298 -0.133992
  endloop
 endfacet
 facet normal -0.5 0.866025 0
  outer loop
   vertex -0.192141 0.252798 -0.189
   vertex -0.122859 0.292798 -0.144
   vertex -0.122859 0.292798 -0.189
  endloop
 endfacet
 facet normal -0.5 0.866025 0
  outer loop
   vertex -0.122859 0.292798 -0.189
   vertex -0.122859 0.292798 -0.144
   vertex -0.119977 0.294462 -0.188899
  endloop
 endfacet
 facet normal -0.5 0.866025 -1.51609e-15
  outer loop
   vertex -0.114371 0.297698 -0.135986
   vertex -0.114199 0.297798 -0.133999
   vertex -0.0754007 0.320198 -0.138678
  endloop
 endfacet
 facet normal -0.5 0.866025 -5.1416e-16
  outer loop
   vertex -0.114199 0.297798 -0.133999
   vertex -0.0752276 0.320298 -0.133992
   vertex -0.0754007 0.320198 -0.138678
  endloop
 endfacet
 facet normal -0.5 0.866025 -2.82611e-17
  outer loop
   vertex -0.119977 0.294462 -0.188899
   vertex -0.122859 0.292798 -0.144
   vertex -0.117106 0.296119 -0.188597
  endloop
 endfacet
 facet normal -0.5 0.866025 4.06492e-17
  outer loop
   vertex -0.122859 0.292798 -0.144
   vertex -0.121262 0.29372 -0.143829
   vertex -0.117106 0.296119 -0.188597
  endloop
 endfacet
 facet normal -0.5 0.866025 1.02816e-15
  outer loop
   vertex -0.114371 0.297698 -0.135986
   vertex -0.0754007 0.320198 -0.138678
   vertex -0.0759188 0.319899 -0.143329
  endloop
 endfacet
 facet normal -0.5 0.866025 -2.08982e-16
  outer loop
   vertex -0.117106 0.296119 -0.188597
   vertex -0.121262 0.29372 -0.143829
   vertex -0.1131 0.298432 -0.187833
  endloop
 endfacet
 facet normal -0.5 0.866025 -5.14279e-16
  outer loop
   vertex -0.114371 0.297698 -0.135986
   vertex -0.0759188 0.319899 -0.143329
   vertex -0.0767779 0.319403 -0.147913
  endloop
 endfacet
 facet normal -0.5 0.866025 -4.06285e-17
  outer loop
   vertex -0.121262 0.29372 -0.143829
   vertex -0.119721 0.29461 -0.14332
   vertex -0.109165 0.300704 -0.186677
  endloop
 endfacet
 facet normal -0.5 0.866025 4.33843e-16
  outer loop
   vertex -0.1131 0.298432 -0.187833
   vertex -0.121262 0.29372 -0.143829
   vertex -0.109165 0.300704 -0.186677
  endloop
 endfacet
 facet normal -0.5 0.866025 -1.15031e-15
  outer loop
   vertex -0.114882 0.297403 -0.137893
   vertex -0.114371 0.297698 -0.135986
   vertex -0.0779721 0.318713 -0.152395
  endloop
 endfacet
 facet normal -0.5 0.866025 -5.13826e-16
  outer loop
   vertex -0.114371 0.297698 -0.135986
   vertex -0.0767779 0.319403 -0.147913
   vertex -0.0779721 0.318713 -0.152395
  endloop
 endfacet
 facet normal -0.5 0.866025 -4.98293e-16
  outer loop
   vertex -0.109165 0.300704 -0.186677
   vertex -0.119721 0.29461 -0.14332
   vertex -0.105329 0.302919 -0.185139
  endloop
 endfacet
 facet normal -0.5 0.866025 5.14393e-16
  outer loop
   vertex -0.114882 0.297403 -0.137893
   vertex -0.0779721 0.318713 -0.152395
   vertex -0.0794925 0.317836 -0.156743
  endloop
 endfacet
 facet normal -0.5 0.866025 6.78035e-16
  outer loop
   vertex -0.119721 0.29461 -0.14332
   vertex -0.11818 0.2955 -0.142414
   vertex -0.10162 0.30506 -0.183229
  endloop
 endfacet
 facet normal -0.5 0.866025 4.50006e-16
  outer loop
   vertex -0.105329 0.302919 -0.185139
   vertex -0.119721 0.29461 -0.14332
   vertex -0.10162 0.30506 -0.183229
  endloop
 endfacet
 facet normal -0.5 0.866025 2.82448e-15
  outer loop
   vertex -0.115711 0.296925 -0.139646
   vertex -0.114882 0.297403 -0.137893
   vertex -0.081328 0.316776 -0.160926
  endloop
 endfacet
 facet normal -0.5 0.866025 0
  outer loop
   vertex -0.114882 0.297403 -0.137893
   vertex -0.0794925 0.317836 -0.156743
   vertex -0.081328 0.316776 -0.160926
  endloop
 endfacet
 facet normal -0.5 0.866025 -2.89217e-16
  outer loop
   vertex -0.10162 0.30506 -0.183229
   vertex -0.11818 0.2955 -0.142414
   vertex -0.0980662 0.307112 -0.180961
  endloop
 endfacet
 facet normal -0.5 0.866025 -5.14195e-16
  outer loop
   vertex -0.115711 0.296925 -0.139646
   vertex -0.081328 0.316776 -0.160926
   vertex -0.0834655 0.315542 -0.164914
  endloop
 endfacet
 facet normal -0.5 0.866025 -7.9176e-16
  outer loop
   vertex -0.11818 0.2955 -0.142414
   vertex -0.116825 0.296282 -0.141173
   vertex -0.0946924 0.30906 -0.178352
  endloop
 endfacet
 facet normal -0.5 0.866025 1.92904e-16
  outer loop
   vertex -0.0980662 0.307112 -0.180961
   vertex -0.11818 0.2955 -0.142414
   vertex -0.0946924 0.30906 -0.178352
  endloop
 endfacet
 facet normal -0.5 0.866025 -9.79612e-16
  outer loop
   vertex -0.116825 0.296282 -0.141173
   vertex -0.115711 0.296925 -0.139646
   vertex -0.0858892 0.314143 -0.168676
  endloop
 endfacet
 facet normal -0.5 0.866025 0
  outer loop
   vertex -0.115711 0.296925 -0.139646
   vertex -0.0834655 0.315542 -0.164914
   vertex -0.0858892 0.314143 -0.168676
  endloop
 endfacet
 facet normal -0.5 0.866025 1.28464e-16
  outer loop
   vertex -0.0946924 0.30906 -0.178352
   vertex -0.116825 0.296282 -0.141173
   vertex -0.0915231 0.31089 -0.17542
  endloop
 endfacet
 facet normal -0.5 0.866025 5.14026e-16
  outer loop
   vertex -0.116825 0.296282 -0.141173
   vertex -0.0858892 0.314143 -0.168676
   vertex -0.0885816 0.312588 -0.172187
  endloop
 endfacet
 facet normal -0.5 0.866025 -6.75129e-16
  outer loop
   vertex -0.0915231 0.31089 -0.17542
   vertex -0.116825 0.296282 -0.141173
   vertex -0.0885816 0.312588 -0.172187
  endloop
 endfacet
endsolid patch0
