solid patch0
 facet normal 0.5 0.866025 -1.02804e-15
  outer loop
   vertex -0.0866468 -0.244423 0.201967
   vertex -0.0628273 -0.258175 0.237689
   vertex -0.0597875 -0.25993 0.234579
  endloop
 endfacet
 facet normal 0.5 0.866025 0
  outer loop
   vertex -0.0866468 -0.244423 0.201967
   vertex -0.0597875 -0.25993 0.234579
   vertex -0.056988 -0.261547 0.231183
  endloop
 endfacet
 facet normal 0.5 0.866025 0
  outer loop
   vertex -0.0866468 -0.244423 0.201967
   vertex -0.056988 -0.261547 0.231183
   vertex -0.0544492 -0.263012 0.227523
  endloop
 endfacet
 facet normal 0.5 0.866025 -2.57121e-16
  outer loop
   vertex -0.0879693 -0.24366 0.203253
   vertex -0.069538 -0.254301 0.242956
   vertex -0.0660853 -0.256294 0.240487
  endloop
 endfacet
 facet normal 0.5 0.866025 7.71571e-16
  outer loop
   vertex -0.0879693 -0.24366 0.203253
   vertex -0.0660853 -0.256294 0.240487
   vertex -0.0628273 -0.258175 0.237689
  endloop
 endfacet
 facet normal 0.5 0.866025 -7.6111e-15
  outer loop
   vertex -0.0879693 -0.24366 0.203253
   vertex -0.0628273 -0.258175 0.237689
   vertex -0.0866468 -0.244423 0.201967
  endloop
 endfacet
 facet normal 0.5 0.866025 -5.14304e-16
  outer loop
   vertex -0.0855719 -0.245044 0.200403
   vertex -0.0544492 -0.263012 0.227523
   vertex -0.0521896 -0.264317 0.223626
  endloop
 endfacet
 facet normal 0.5 0.866025 0
  outer loop
   vertex -0.0855719 -0.245044 0.200403
   vertex -0.0521896 -0.264317 0.223626
   vertex -0.0502255 -0.265451 0.219522
  endloop
 endfacet
 facet normal 0.5 0.866025 -2.33749e-15
  outer loop
   vertex -0.0855719 -0.245044 0.200403
   vertex -0.0866468 -0.244423 0.201967
   vertex -0.0544492 -0.263012 0.227523
  endloop
 endfacet
 facet normal 0.5 0.866025 1.28601e-16
  outer loop
   vertex -0.0894868 -0.242783 0.204211
   vertex -0.0769252 -0.250036 0.246831
   vertex -0.07316 -0.25221 0.245075
  endloop
 endfacet
 facet normal 0.5 0.866025 -2.57093e-16
  outer loop
   vertex -0.0894868 -0.242783 0.204211
   vertex -0.07316 -0.25221 0.245075
   vertex -0.069538 -0.254301 0.242956
  endloop
 endfacet
 facet normal 0.5 0.866025 3.76642e-17
  outer loop
   vertex -0.0894868 -0.242783 0.204211
   vertex -0.069538 -0.254301 0.242956
   vertex -0.0879693 -0.24366 0.203253
  endloop
 endfacet
 facet normal 0.5 0.866025 -5.1421e-16
  outer loop
   vertex -0.0847875 -0.245497 0.198623
   vertex -0.0502255 -0.265451 0.219522
   vertex -0.0485713 -0.266406 0.215239
  endloop
 endfacet
 facet normal 0.5 0.866025 -5.14281e-16
  outer loop
   vertex -0.0847875 -0.245497 0.198623
   vertex -0.0485713 -0.266406 0.215239
   vertex -0.047239 -0.267175 0.210809
  endloop
 endfacet
 facet normal 0.5 0.866025 1.99595e-15
  outer loop
   vertex -0.0847875 -0.245497 0.198623
   vertex -0.0855719 -0.245044 0.200403
   vertex -0.0502255 -0.265451 0.219522
  endloop
 endfacet
 facet normal 0.5 0.866025 -1.12468e-16
  outer loop
   vertex -0.0911385 -0.24183 0.204801
   vertex -0.0888022 -0.243179 0.2498
   vertex -0.0847748 -0.245504 0.249202
  endloop
 endfacet
 facet normal 0.5 0.866025 6.10889e-16
  outer loop
   vertex -0.0911385 -0.24183 0.204801
   vertex -0.0847748 -0.245504 0.249202
   vertex -0.0808062 -0.247795 0.24821
  endloop
 endfacet
 facet normal 0.5 0.866025 1.67009e-15
  outer loop
   vertex -0.0911385 -0.24183 0.204801
   vertex -0.0808062 -0.247795 0.24821
   vertex -0.0769252 -0.250036 0.246831
  endloop
 endfacet
 facet normal 0.5 0.866025 -2.07405e-16
  outer loop
   vertex -0.0911385 -0.24183 0.204801
   vertex -0.0769252 -0.250036 0.246831
   vertex -0.0894868 -0.242783 0.204211
  endloop
 endfacet
 facet normal 0.5 0.866025 -1.07964e-14
  outer loop
   vertex -0.0843472 -0.245751 0.196843
   vertex -0.047239 -0.267175 0.210809
   vertex -0.0462382 -0.267753 0.206264
  endloop
 endfacet
 facet normal 0.5 0.866025 0
  outer loop
   vertex -0.0843472 -0.245751 0.196843
   vertex -0.0462382 -0.267753 0.206264
   vertex -0.0455763 -0.268135 0.201637
  endloop
 endfacet
 facet normal 0.5 0.866025 -5.68947e-16
  outer loop
   vertex -0.0843472 -0.245751 0.196843
   vertex -0.0847875 -0.245497 0.198623
   vertex -0.047239 -0.267175 0.210809
  endloop
 endfacet
 facet normal 0.5 0.866025 -0
  outer loop
   vertex -0.092859 -0.240836 0.205
   vertex -0.092859 -0.240836 0.25
   vertex -0.0888022 -0.243179 0.2498
  endloop
 endfacet
 facet normal 0.5 0.866025 5.65116e-17
  outer loop
   vertex -0.092859 -0.240836 0.205
   vertex -0.0888022 -0.243179 0.2498
   vertex -0.0911385 -0.24183 0.204801
  endloop
 endfacet
 facet normal 0.5 0.866025 -7.23338e-16
  outer loop
   vertex -0.0841987 -0.245836 0.194999
   vertex -0.0455763 -0.268135 0.201637
   vertex -0.0453149 -0.268286 0.198321
  endloop
 endfacet
 facet normal 0.5 0.866025 1.44749e-15
  outer loop
   vertex -0.0841987 -0.245836 0.194999
   vertex -0.0453149 -0.268286 0.198321
   vertex -0.0452276 -0.268336 0.194992
  endloop
 endfacet
 facet normal 0.5 0.866025 5.07964e-16
  outer loop
   vertex -0.0841987 -0.245836 0.194999
   vertex -0.0843472 -0.245751 0.196843
   vertex -0.0455763 -0.268135 0.201637
  endloop
 endfacet
 facet normal 0.5 0.866025 -0
  outer loop
   vertex -0.162141 -0.200836 0.205
   vertex -0.162141 -0.200836 0.25
   vertex -0.092859 -0.240836 0.25
  endloop
 endfacet
 facet normal 0.5 0.866025 -0
  outer loop
   vertex -0.162141 -0.200836 0.205
   vertex -0.166198 -0.198494 0.2498
   vertex -0.162141 -0.200836 0.25
  endloop
 endfacet
 facet normal 0.5 0.866025 0
  outer loop
   vertex -0.162141 -0.200836 0.205
   vertex -0.092859 -0.240836 0.25
   vertex -0.092859 -0.240836 0.205
  endloop
 endfacet
 facet normal 0.5 0.866025 1.12468e-16
  outer loop
   vertex -0.163861 -0.199843 0.204801
   vertex -0.170225 -0.196169 0.249202
   vertex -0.166198 -0.198494 0.2498
  endloop
 endfacet
 facet normal 0.5 0.866025 -6.10889e-16
  outer loop
   vertex -0.163861 -0.199843 0.204801
   vertex -0.174194 -0.193878 0.24821
   vertex -0.170225 -0.196169 0.249202
  endloop
 endfacet
 facet normal 0.5 0.866025 -7.06578e-16
  outer loop
   vertex -0.163861 -0.199843 0.204801
   vertex -0.178075 -0.191637 0.246831
   vertex -0.174194 -0.193878 0.24821
  endloop
 endfacet
 facet normal 0.5 0.866025 -5.65116e-17
  outer loop
   vertex -0.163861 -0.199843 0.204801
   vertex -0.166198 -0.198494 0.2498
   vertex -0.162141 -0.200836 0.205
  endloop
 endfacet
 facet normal 0.5 0.866025 6.43003e-16
  outer loop
   vertex -0.165513 -0.19889 0.204211
   vertex -0.18184 -0.189463 0.245075
   vertex -0.178075 -0.191637 0.246831
  endloop
 endfacet
 facet normal 0.5 0.866025 -7.71279e-16
  outer loop
   vertex -0.165513 -0.19889 0.204211
   vertex -0.185462 -0.187372 0.242956
   vertex -0.18184 -0.189463 0.245075
  endloop
 endfacet
 facet normal 0.5 0.866025 1.09359e-15
  outer loop
   vertex -0.165513 -0.19889 0.204211
   vertex -0.178075 -0.191637 0.246831
   vertex -0.163861 -0.199843 0.204801
  endloop
 endfacet
 facet normal 0.5 0.866025 -1.2856e-16
  outer loop
   vertex -0.167031 -0.198013 0.203253
   vertex -0.188915 -0.185379 0.240487
   vertex -0.185462 -0.187372 0.242956
  endloop
 endfacet
 facet normal 0.5 0.866025 -1.28595e-15
  outer loop
   vertex -0.167031 -0.198013 0.203253
   vertex -0.192173 -0.183498 0.237689
   vertex -0.188915 -0.185379 0.240487
  endloop
 endfacet
 facet normal 0.5 0.866025 -2.14686e-15
  outer loop
   vertex -0.167031 -0.198013 0.203253
   vertex -0.185462 -0.187372 0.242956
   vertex -0.165513 -0.19889 0.204211
  endloop
 endfacet
 facet normal 0.5 0.866025 7.23431e-15
  outer loop
   vertex -0.168353 -0.19725 0.201967
   vertex -0.192173 -0.183498 0.237689
   vertex -0.167031 -0.198013 0.203253
  endloop
 endfacet
 facet normal 0.5 0.866025 1.28505e-15
  outer loop
   vertex -0.168353 -0.19725 0.201967
   vertex -0.195213 -0.181743 0.234579
   vertex -0.192173 -0.183498 0.237689
  endloop
 endfacet
 facet normal 0.5 0.866025 -1.70417e-15
  outer loop
   vertex -0.198012 -0.180126 0.231183
   vertex -0.195213 -0.181743 0.234579
   vertex -0.168353 -0.19725 0.201967
  endloop
 endfacet
 facet normal 0.5 0.866025 6.42318e-16
  outer loop
   vertex -0.200551 -0.178661 0.227523
   vertex -0.198012 -0.180126 0.231183
   vertex -0.168353 -0.19725 0.201967
  endloop
 endfacet
 facet normal 0.5 0.866025 2.41289e-15
  outer loop
   vertex -0.200551 -0.178661 0.227523
   vertex -0.168353 -0.19725 0.201967
   vertex -0.169428 -0.196629 0.200403
  endloop
 endfacet
 facet normal 0.5 0.866025 -9.32177e-16
  outer loop
   vertex -0.20281 -0.177356 0.223626
   vertex -0.200551 -0.178661 0.227523
   vertex -0.169428 -0.196629 0.200403
  endloop
 endfacet
 facet normal 0.5 0.866025 -1.47825e-15
  outer loop
   vertex -0.204774 -0.176222 0.219522
   vertex -0.20281 -0.177356 0.223626
   vertex -0.169428 -0.196629 0.200403
  endloop
 endfacet
 facet normal 0.5 0.866025 -2.4102e-15
  outer loop
   vertex -0.204774 -0.176222 0.219522
   vertex -0.169428 -0.196629 0.200403
   vertex -0.170213 -0.196176 0.198623
  endloop
 endfacet
 facet normal 0.5 0.866025 1.47835e-15
  outer loop
   vertex -0.206429 -0.175267 0.215239
   vertex -0.204774 -0.176222 0.219522
   vertex -0.170213 -0.196176 0.198623
  endloop
 endfacet
 facet normal 0.5 0.866025 1.3982e-15
  outer loop
   vertex -0.207761 -0.174498 0.210809
   vertex -0.206429 -0.175267 0.215239
   vertex -0.170213 -0.196176 0.198623
  endloop
 endfacet
 facet normal 0.5 0.866025 0
  outer loop
   vertex -0.207761 -0.174498 0.210809
   vertex -0.170213 -0.196176 0.198623
   vertex -0.170653 -0.195922 0.196843
  endloop
 endfacet
 facet normal 0.5 0.866025 -4.01652e-16
  outer loop
   vertex -0.208762 -0.17392 0.206264
   vertex -0.207761 -0.174498 0.210809
   vertex -0.170653 -0.195922 0.196843
  endloop
 endfacet
 facet normal 0.5 0.866025 1.28576e-15
  outer loop
   vertex -0.209424 -0.173538 0.201637
   vertex -0.208762 -0.17392 0.206264
   vertex -0.170653 -0.195922 0.196843
  endloop
 endfacet
 facet normal 0.5 0.866025 -3.90116e-15
  outer loop
   vertex -0.209424 -0.173538 0.201637
   vertex -0.170653 -0.195922 0.196843
   vertex -0.170801 -0.195836 0.194999
  endloop
 endfacet
 facet normal 0.5 0.866025 2.65601e-16
  outer loop
   vertex -0.209685 -0.173387 0.198321
   vertex -0.209424 -0.173538 0.201637
   vertex -0.170801 -0.195836 0.194999
  endloop
 endfacet
 facet normal 0.5 0.866025 -3.29927e-15
  outer loop
   vertex -0.209772 -0.173336 0.194992
   vertex -0.209685 -0.173387 0.198321
   vertex -0.170801 -0.195836 0.194999
  endloop
 endfacet
 facet normal 0.5 0.866025 0
  outer loop
   vertex -0.0841987 -0.245836 -0.134999
   vertex -0.0452276 -0.268336 0.194992
   vertex -0.0452276 -0.268336 -0.134992
  endloop
 endfacet
 facet normal 0.5 0.866025 7.23338e-16
  outer loop
   vertex -0.0841987 -0.245836 -0.134999
   vertex -0.0453149 -0.268286 -0.138321
   vertex -0.0455763 -0.268135 -0.141637
  endloop
 endfacet
 facet normal 0.5 0.866025 -1.44749e-15
  outer loop
   vertex -0.0841987 -0.245836 -0.134999
   vertex -0.0452276 -0.268336 -0.134992
   vertex -0.0453149 -0.268286 -0.138321
  endloop
 endfacet
 facet normal 0.5 0.866025 -0
  outer loop
   vertex -0.0841987 -0.245836 -0.134999
   vertex -0.0841987 -0.245836 0.194999
   vertex -0.0452276 -0.268336 0.194992
  endloop
 endfacet
 facet normal 0.5 0.866025 -5.13047e-16
  outer loop
   vertex -0.0843472 -0.245751 -0.136843
   vertex -0.0841987 -0.245836 -0.134999
   vertex -0.0455763 -0.268135 -0.141637
  endloop
 endfacet
 facet normal 0.5 0.866025 1.07964e-14
  outer loop
   vertex -0.0843472 -0.245751 -0.136843
   vertex -0.0462382 -0.267753 -0.146264
   vertex -0.047239 -0.267175 -0.150809
  endloop
 endfacet
 facet normal 0.5 0.866025 0
  outer loop
   vertex -0.0843472 -0.245751 -0.136843
   vertex -0.0455763 -0.268135 -0.141637
   vertex -0.0462382 -0.267753 -0.146264
  endloop
 endfacet
 facet normal 0.5 0.866025 5.1421e-16
  outer loop
   vertex -0.0847875 -0.245497 -0.138623
   vertex -0.0485713 -0.266406 -0.155239
   vertex -0.0502255 -0.265451 -0.159522
  endloop
 endfacet
 facet normal 0.5 0.866025 5.14281e-16
  outer loop
   vertex -0.0847875 -0.245497 -0.138623
   vertex -0.047239 -0.267175 -0.150809
   vertex -0.0485713 -0.266406 -0.155239
  endloop
 endfacet
 facet normal 0.5 0.866025 5.48627e-16
  outer loop
   vertex -0.0847875 -0.245497 -0.138623
   vertex -0.0843472 -0.245751 -0.136843
   vertex -0.047239 -0.267175 -0.150809
  endloop
 endfacet
 facet normal 0.5 0.866025 -1.99595e-15
  outer loop
   vertex -0.0855719 -0.245044 -0.140403
   vertex -0.0847875 -0.245497 -0.138623
   vertex -0.0502255 -0.265451 -0.159522
  endloop
 endfacet
 facet normal 0.5 0.866025 5.14304e-16
  outer loop
   vertex -0.0855719 -0.245044 -0.140403
   vertex -0.0521896 -0.264317 -0.163626
   vertex -0.0544492 -0.263012 -0.167523
  endloop
 endfacet
 facet normal 0.5 0.866025 0
  outer loop
   vertex -0.0855719 -0.245044 -0.140403
   vertex -0.0502255 -0.265451 -0.159522
   vertex -0.0521896 -0.264317 -0.163626
  endloop
 endfacet
 facet normal 0.5 0.866025 2.29979e-15
  outer loop
   vertex -0.0866468 -0.244423 -0.141967
   vertex -0.0855719 -0.245044 -0.140403
   vertex -0.0544492 -0.263012 -0.167523
  endloop
 endfacet
 facet normal 0.5 0.866025 0
  outer loop
   vertex -0.0866468 -0.244423 -0.141967
   vertex -0.0544492 -0.263012 -0.167523
   vertex -0.056988 -0.261547 -0.171183
  endloop
 endfacet
 facet normal 0.5 0.866025 -1.92925e-16
  outer loop
   vertex -0.0597875 -0.25993 -0.174579
   vertex -0.0866468 -0.244423 -0.141967
   vertex -0.056988 -0.261547 -0.171183
  endloop
 endfacet
 facet normal 0.5 0.866025 7.83717e-15
  outer loop
   vertex -0.0628273 -0.258175 -0.177689
   vertex -0.0879693 -0.24366 -0.143253
   vertex -0.0866468 -0.244423 -0.141967
  endloop
 endfacet
 facet normal 0.5 0.866025 8.67407e-16
  outer loop
   vertex -0.0628273 -0.258175 -0.177689
   vertex -0.0866468 -0.244423 -0.141967
   vertex -0.0597875 -0.25993 -0.174579
  endloop
 endfacet
 facet normal 0.5 0.866025 -7.07272e-16
  outer loop
   vertex -0.0660853 -0.256294 -0.180487
   vertex -0.0879693 -0.24366 -0.143253
   vertex -0.0628273 -0.258175 -0.177689
  endloop
 endfacet
 facet normal 0.5 0.866025 0
  outer loop
   vertex -0.069538 -0.254301 -0.182956
   vertex -0.0894868 -0.242783 -0.144211
   vertex -0.0879693 -0.24366 -0.143253
  endloop
 endfacet
 facet normal 0.5 0.866025 3.21401e-16
  outer loop
   vertex -0.069538 -0.254301 -0.182956
   vertex -0.0879693 -0.24366 -0.143253
   vertex -0.0660853 -0.256294 -0.180487
  endloop
 endfacet
 facet normal 0.5 0.866025 2.24956e-16
  outer loop
   vertex -0.07316 -0.25221 -0.185075
   vertex -0.0894868 -0.242783 -0.144211
   vertex -0.069538 -0.254301 -0.182956
  endloop
 endfacet
 facet normal 0.5 0.866025 3.0168e-16
  outer loop
   vertex -0.0769252 -0.250036 -0.186831
   vertex -0.0911385 -0.24183 -0.144801
   vertex -0.0894868 -0.242783 -0.144211
  endloop
 endfacet
 facet normal 0.5 0.866025 -1.44676e-16
  outer loop
   vertex -0.0769252 -0.250036 -0.186831
   vertex -0.0894868 -0.242783 -0.144211
   vertex -0.07316 -0.25221 -0.185075
  endloop
 endfacet
 facet normal 0.5 0.866025 -1.65404e-15
  outer loop
   vertex -0.0808062 -0.247795 -0.18821
   vertex -0.0911385 -0.24183 -0.144801
   vertex -0.0769252 -0.250036 -0.186831
  endloop
 endfacet
 facet normal 0.5 0.866025 -6.18927e-16
  outer loop
   vertex -0.0847748 -0.245504 -0.189202
   vertex -0.0911385 -0.24183 -0.144801
   vertex -0.0808062 -0.247795 -0.18821
  endloop
 endfacet
 facet normal 0.5 0.866025 1.20502e-16
  outer loop
   vertex -0.0888022 -0.243179 -0.1898
   vertex -0.0911385 -0.24183 -0.144801
   vertex -0.0847748 -0.245504 -0.189202
  endloop
 endfacet
 facet normal 0.5 0.866025 -4.7093e-17
  outer loop
   vertex -0.0888022 -0.243179 -0.1898
   vertex -0.092859 -0.240836 -0.145
   vertex -0.0911385 -0.24183 -0.144801
  endloop
 endfacet
 facet normal 0.5 0.866025 -0
  outer loop
   vertex -0.092859 -0.240836 -0.19
   vertex -0.092859 -0.240836 -0.145
   vertex -0.0888022 -0.243179 -0.1898
  endloop
 endfacet
 facet normal 0.5 0.866025 0
  outer loop
   vertex -0.162141 -0.200836 -0.145
   vertex -0.092859 -0.240836 -0.145
   vertex -0.092859 -0.240836 -0.19
  endloop
 endfacet
 facet normal 0.5 0.866025 -0
  outer loop
   vertex -0.209772 -0.173336 -0.134992
   vertex -0.209772 -0.173336 0.194992
   vertex -0.170801 -0.195836 0.194999
  endloop
 endfacet
 facet normal 0.5 0.866025 0
  outer loop
   vertex -0.209772 -0.173336 -0.134992
   vertex -0.170801 -0.195836 0.194999
   vertex -0.170801 -0.195836 -0.134999
  endloop
 endfacet
 facet normal 0.5 0.866025 -0
  outer loop
   vertex -0.162141 -0.200836 -0.19
   vertex -0.162141 -0.200836 -0.145
   vertex -0.092859 -0.240836 -0.19
  endloop
 endfacet
 facet normal 0.5 0.866025 0
  outer loop
   vertex -0.165023 -0.199173 -0.189899
   vertex -0.162141 -0.200836 -0.145
   vertex -0.162141 -0.200836 -0.19
  endloop
 endfacet
 facet normal 0.5 0.866025 6.02669e-15
  outer loop
   vertex -0.209599 -0.173436 -0.139678
   vertex -0.170801 -0.195836 -0.134999
   vertex -0.170629 -0.195936 -0.136986
  endloop
 endfacet
 facet normal 0.5 0.866025 -2.81181e-16
  outer loop
   vertex -0.209599 -0.173436 -0.139678
   vertex -0.209772 -0.173336 -0.134992
   vertex -0.170801 -0.195836 -0.134999
  endloop
 endfacet
 facet normal 0.5 0.866025 1.24349e-16
  outer loop
   vertex -0.167894 -0.197515 -0.189597
   vertex -0.162141 -0.200836 -0.145
   vertex -0.165023 -0.199173 -0.189899
  endloop
 endfacet
 facet normal 0.5 0.866025 2.03246e-16
  outer loop
   vertex -0.167894 -0.197515 -0.189597
   vertex -0.163738 -0.199915 -0.144829
   vertex -0.162141 -0.200836 -0.145
  endloop
 endfacet
 facet normal 0.5 0.866025 1.08438e-15
  outer loop
   vertex -0.209081 -0.173736 -0.144329
   vertex -0.209599 -0.173436 -0.139678
   vertex -0.170629 -0.195936 -0.136986
  endloop
 endfacet
 facet normal 0.5 0.866025 -7.71625e-16
  outer loop
   vertex -0.1719 -0.195202 -0.188833
   vertex -0.163738 -0.199915 -0.144829
   vertex -0.167894 -0.197515 -0.189597
  endloop
 endfacet
 facet normal 0.5 0.866025 -6.91062e-16
  outer loop
   vertex -0.208222 -0.174232 -0.148913
   vertex -0.209081 -0.173736 -0.144329
   vertex -0.170629 -0.195936 -0.136986
  endloop
 endfacet
 facet normal 0.5 0.866025 -1.46263e-15
  outer loop
   vertex -0.175835 -0.19293 -0.187677
   vertex -0.165279 -0.199025 -0.14432
   vertex -0.163738 -0.199915 -0.144829
  endloop
 endfacet
 facet normal 0.5 0.866025 1.25332e-15
  outer loop
   vertex -0.175835 -0.19293 -0.187677
   vertex -0.163738 -0.199915 -0.144829
   vertex -0.1719 -0.195202 -0.188833
  endloop
 endfacet
 facet normal 0.5 0.866025 -1.20689e-15
  outer loop
   vertex -0.207028 -0.174921 -0.153395
   vertex -0.170629 -0.195936 -0.136986
   vertex -0.170118 -0.196231 -0.138893
  endloop
 endfacet
 facet normal 0.5 0.866025 9.47366e-16
  outer loop
   vertex -0.207028 -0.174921 -0.153395
   vertex -0.208222 -0.174232 -0.148913
   vertex -0.170629 -0.195936 -0.136986
  endloop
 endfacet
 facet normal 0.5 0.866025 0
  outer loop
   vertex -0.179671 -0.190715 -0.186139
   vertex -0.165279 -0.199025 -0.14432
   vertex -0.175835 -0.19293 -0.187677
  endloop
 endfacet
 facet normal 0.5 0.866025 -6.10841e-16
  outer loop
   vertex -0.205507 -0.175799 -0.157743
   vertex -0.207028 -0.174921 -0.153395
   vertex -0.170118 -0.196231 -0.138893
  endloop
 endfacet
 facet normal 0.5 0.866025 1.2054e-15
  outer loop
   vertex -0.18338 -0.188574 -0.184229
   vertex -0.16682 -0.198135 -0.143414
   vertex -0.165279 -0.199025 -0.14432
  endloop
 endfacet
 facet normal 0.5 0.866025 9.32155e-16
  outer loop
   vertex -0.18338 -0.188574 -0.184229
   vertex -0.165279 -0.199025 -0.14432
   vertex -0.179671 -0.190715 -0.186139
  endloop
 endfacet
 facet normal 0.5 0.866025 2.4102e-15
  outer loop
   vertex -0.203672 -0.176859 -0.161926
   vertex -0.170118 -0.196231 -0.138893
   vertex -0.169289 -0.19671 -0.140646
  endloop
 endfacet
 facet normal 0.5 0.866025 1.79938e-15
  outer loop
   vertex -0.203672 -0.176859 -0.161926
   vertex -0.205507 -0.175799 -0.157743
   vertex -0.170118 -0.196231 -0.138893
  endloop
 endfacet
 facet normal 0.5 0.866025 8.35514e-16
  outer loop
   vertex -0.186934 -0.186522 -0.181961
   vertex -0.16682 -0.198135 -0.143414
   vertex -0.18338 -0.188574 -0.184229
  endloop
 endfacet
 facet normal 0.5 0.866025 -1.44617e-15
  outer loop
   vertex -0.201535 -0.178093 -0.165914
   vertex -0.203672 -0.176859 -0.161926
   vertex -0.169289 -0.19671 -0.140646
  endloop
 endfacet
 facet normal 0.5 0.866025 -7.8422e-15
  outer loop
   vertex -0.190308 -0.184574 -0.179352
   vertex -0.168175 -0.197353 -0.142173
   vertex -0.16682 -0.198135 -0.143414
  endloop
 endfacet
 facet normal 0.5 0.866025 -1.02882e-15
  outer loop
   vertex -0.190308 -0.184574 -0.179352
   vertex -0.16682 -0.198135 -0.143414
   vertex -0.186934 -0.186522 -0.181961
  endloop
 endfacet
 facet normal 0.5 0.866025 -1.20568e-15
  outer loop
   vertex -0.199111 -0.179492 -0.169676
   vertex -0.169289 -0.19671 -0.140646
   vertex -0.168175 -0.197353 -0.142173
  endloop
 endfacet
 facet normal 0.5 0.866025 3.21465e-17
  outer loop
   vertex -0.199111 -0.179492 -0.169676
   vertex -0.201535 -0.178093 -0.165914
   vertex -0.169289 -0.19671 -0.140646
  endloop
 endfacet
 facet normal 0.5 0.866025 1.09195e-15
  outer loop
   vertex -0.193477 -0.182745 -0.17642
   vertex -0.168175 -0.197353 -0.142173
   vertex -0.190308 -0.184574 -0.179352
  endloop
 endfacet
 facet normal 0.5 0.866025 -7.71039e-16
  outer loop
   vertex -0.196418 -0.181046 -0.173187
   vertex -0.199111 -0.179492 -0.169676
   vertex -0.168175 -0.197353 -0.142173
  endloop
 endfacet
 facet normal 0.5 0.866025 -6.75129e-16
  outer loop
   vertex -0.196418 -0.181046 -0.173187
   vertex -0.168175 -0.197353 -0.142173
   vertex -0.193477 -0.182745 -0.17642
  endloop
 endfacet
 facet normal 0.00833207 0.0144316 0.999861
  outer loop
   vertex -0.122859 -0.292798 0.251
   vertex -0.092859 -0.240836 0.25
   vertex -0.162141 -0.200836 0.25
  endloop
 endfacet
 facet normal 0.00833207 0.0144316 0.999861
  outer loop
   vertex -0.192141 -0.252798 0.251
   vertex -0.122859 -0.292798 0.251
   vertex -0.162141 -0.200836 0.25
  endloop
 endfacet
 facet normal 0.0452615 -0.00690656 0.998951
  outer loop
   vertex -0.0888022 -0.243179 0.2498
   vertex -0.092859 -0.240836 0.25
   vertex -0.118802 -0.29514 0.2508
  endloop
 endfacet
 facet normal 0.0452557 -0.00690382 0.998952
  outer loop
   vertex -0.092859 -0.240836 0.25
   vertex -0.122859 -0.292798 0.251
   vertex -0.118802 -0.29514 0.2508
  endloop
 endfacet
 facet normal 0.118702 -0.0494476 0.991698
  outer loop
   vertex -0.0847748 -0.245504 0.249202
   vertex -0.0888022 -0.243179 0.2498
   vertex -0.114775 -0.297465 0.250202
  endloop
 endfacet
 facet normal 0.118705 -0.049449 0.991697
  outer loop
   vertex -0.0888022 -0.243179 0.2498
   vertex -0.118802 -0.29514 0.2508
   vertex -0.114775 -0.297465 0.250202
  endloop
 endfacet
 facet normal 0.191349 -0.0916684 0.977232
  outer loop
   vertex -0.0808062 -0.247795 0.24821
   vertex -0.0847748 -0.245504 0.249202
   vertex -0.110806 -0.299757 0.24921
  endloop
 endfacet
 facet normal 0.191349 -0.0916684 0.977232
  outer loop
   vertex -0.0847748 -0.245504 0.249202
   vertex -0.114775 -0.297465 0.250202
   vertex -0.110806 -0.299757 0.24921
  endloop
 endfacet
 facet normal 0.262635 -0.133241 0.955651
  outer loop
   vertex -0.0769252 -0.250036 0.246831
   vertex -0.0808062 -0.247795 0.24821
   vertex -0.106925 -0.301997 0.247831
  endloop
 endfacet
 facet normal 0.262635 -0.133241 0.955651
  outer loop
   vertex -0.0808062 -0.247795 0.24821
   vertex -0.110806 -0.299757 0.24921
   vertex -0.106925 -0.301997 0.247831
  endloop
 endfacet
 facet normal 0.332013 -0.173845 0.927117
  outer loop
   vertex -0.07316 -0.25221 0.245075
   vertex -0.0769252 -0.250036 0.246831
   vertex -0.10316 -0.304171 0.246075
  endloop
 endfacet
 facet normal 0.332013 -0.173845 0.927117
  outer loop
   vertex -0.0769252 -0.250036 0.246831
   vertex -0.106925 -0.301997 0.247831
   vertex -0.10316 -0.304171 0.246075
  endloop
 endfacet
 facet normal 0.398791 -0.213077 0.891944
  outer loop
   vertex -0.069538 -0.254301 0.242956
   vertex -0.07316 -0.25221 0.245075
   vertex -0.099538 -0.306262 0.243956
  endloop
 endfacet
 facet normal 0.398791 -0.213077 0.891944
  outer loop
   vertex -0.07316 -0.25221 0.245075
   vertex -0.10316 -0.304171 0.246075
   vertex -0.099538 -0.306262 0.243956
  endloop
 endfacet
 facet normal 0.463006 -0.250957 0.850086
  outer loop
   vertex -0.0660853 -0.256294 0.240487
   vertex -0.069538 -0.254301 0.242956
   vertex -0.0960853 -0.308256 0.241487
  endloop
 endfacet
 facet normal 0.463006 -0.250957 0.850086
  outer loop
   vertex -0.069538 -0.254301 0.242956
   vertex -0.099538 -0.306262 0.243956
   vertex -0.0960853 -0.308256 0.241487
  endloop
 endfacet
 facet normal 0.523472 -0.286786 0.802329
  outer loop
   vertex -0.0628273 -0.258175 0.237689
   vertex -0.0660853 -0.256294 0.240487
   vertex -0.0928273 -0.310137 0.238689
  endloop
 endfacet
 facet normal 0.523472 -0.286786 0.802329
  outer loop
   vertex -0.0660853 -0.256294 0.240487
   vertex -0.0960853 -0.308256 0.241487
   vertex -0.0928273 -0.310137 0.238689
  endloop
 endfacet
 facet normal 0.580508 -0.320753 0.748417
  outer loop
   vertex -0.0597875 -0.25993 0.234579
   vertex -0.0628273 -0.258175 0.237689
   vertex -0.0897875 -0.311892 0.235579
  endloop
 endfacet
 facet normal 0.580508 -0.320753 0.748417
  outer loop
   vertex -0.0628273 -0.258175 0.237689
   vertex -0.0928273 -0.310137 0.238689
   vertex -0.0897875 -0.311892 0.235579
  endloop
 endfacet
 facet normal 0.632989 -0.352189 0.689411
  outer loop
   vertex -0.056988 -0.261547 0.231183
   vertex -0.0597875 -0.25993 0.234579
   vertex -0.086988 -0.313508 0.232183
  endloop
 endfacet
 facet normal 0.63299 -0.35219 0.68941
  outer loop
   vertex -0.0597875 -0.25993 0.234579
   vertex -0.0897875 -0.311892 0.235579
   vertex -0.086988 -0.313508 0.232183
  endloop
 endfacet
 facet normal 0.681101 -0.381203 0.625129
  outer loop
   vertex -0.0544492 -0.263012 0.227523
   vertex -0.056988 -0.261547 0.231183
   vertex -0.0844492 -0.314974 0.228523
  endloop
 endfacet
 facet normal 0.6811 -0.381203 0.62513
  outer loop
   vertex -0.056988 -0.261547 0.231183
   vertex -0.086988 -0.313508 0.232183
   vertex -0.0844492 -0.314974 0.228523
  endloop
 endfacet
 facet normal 0.724226 -0.407425 0.556329
  outer loop
   vertex -0.0521896 -0.264317 0.223626
   vertex -0.0544492 -0.263012 0.227523
   vertex -0.0821896 -0.316279 0.224626
  endloop
 endfacet
 facet normal 0.724226 -0.407425 0.556329
  outer loop
   vertex -0.0544492 -0.263012 0.227523
   vertex -0.0844492 -0.314974 0.228523
   vertex -0.0821896 -0.316279 0.224626
  endloop
 endfacet
 facet normal 0.761995 -0.43063 0.483653
  outer loop
   vertex -0.0502255 -0.265451 0.219522
   vertex -0.0521896 -0.264317 0.223626
   vertex -0.0802255 -0.317412 0.220522
  endloop
 endfacet
 facet normal 0.761995 -0.43063 0.483653
  outer loop
   vertex -0.0521896 -0.264317 0.223626
   vertex -0.0821896 -0.316279 0.224626
   vertex -0.0802255 -0.317412 0.220522
  endloop
 endfacet
 facet normal 0.79431 -0.450757 0.407295
  outer loop
   vertex -0.0485713 -0.266406 0.215239
   vertex -0.0502255 -0.265451 0.219522
   vertex -0.0785713 -0.318368 0.216239
  endloop
 endfacet
 facet normal 0.79431 -0.450757 0.407295
  outer loop
   vertex -0.0502255 -0.265451 0.219522
   vertex -0.0802255 -0.317412 0.220522
   vertex -0.0785713 -0.318368 0.216239
  endloop
 endfacet
 facet normal 0.820822 -0.467588 0.328044
  outer loop
   vertex -0.0485713 -0.266406 0.215239
   vertex -0.0785713 -0.318368 0.216239
   vertex -0.077239 -0.319137 0.211809
  endloop
 endfacet
 facet normal 0.820821 -0.467588 0.328045
  outer loop
   vertex -0.047239 -0.267175 0.210809
   vertex -0.0485713 -0.266406 0.215239
   vertex -0.077239 -0.319137 0.211809
  endloop
 endfacet
 facet normal 0.841367 -0.481021 0.246416
  outer loop
   vertex -0.047239 -0.267175 0.210809
   vertex -0.077239 -0.319137 0.211809
   vertex -0.0762382 -0.319714 0.207264
  endloop
 endfacet
 facet normal 0.841367 -0.481021 0.246415
  outer loop
   vertex -0.0462382 -0.267753 0.206264
   vertex -0.047239 -0.267175 0.210809
   vertex -0.0762382 -0.319714 0.207264
  endloop
 endfacet
 facet normal 0.855802 -0.490961 0.162974
  outer loop
   vertex -0.0462382 -0.267753 0.206264
   vertex -0.0762382 -0.319714 0.207264
   vertex -0.0755763 -0.320097 0.202637
  endloop
 endfacet
 facet normal 0.855802 -0.490961 0.162974
  outer loop
   vertex -0.0455763 -0.268135 0.201637
   vertex -0.0462382 -0.267753 0.206264
   vertex -0.0755763 -0.320097 0.202637
  endloop
 endfacet
 facet normal 0.863213 -0.496631 0.0906676
  outer loop
   vertex -0.0455763 -0.268135 0.201637
   vertex -0.0755763 -0.320097 0.202637
   vertex -0.0753149 -0.320248 0.199321
  endloop
 endfacet
 facet normal 0.863213 -0.496631 0.0906676
  outer loop
   vertex -0.0453149 -0.268286 0.198321
   vertex -0.0455763 -0.268135 0.201637
   vertex -0.0753149 -0.320248 0.199321
  endloop
 endfacet
 facet normal 0.865881 -0.499334 0.0302651
  outer loop
   vertex -0.0453149 -0.268286 0.198321
   vertex -0.0753149 -0.320248 0.199321
   vertex -0.0752276 -0.320298 0.195992
  endloop
 endfacet
 facet normal 0.865881 -0.499334 0.0302652
  outer loop
   vertex -0.0452276 -0.268336 0.194992
   vertex -0.0453149 -0.268286 0.198321
   vertex -0.0752276 -0.320298 0.195992
  endloop
 endfacet
 facet normal -0.028612 0.0357443 0.998951
  outer loop
   vertex -0.196198 -0.250456 0.2508
   vertex -0.162141 -0.200836 0.25
   vertex -0.166198 -0.198494 0.2498
  endloop
 endfacet
 facet normal -0.0286067 0.0357407 0.998952
  outer loop
   vertex -0.196198 -0.250456 0.2508
   vertex -0.192141 -0.252798 0.251
   vertex -0.162141 -0.200836 0.25
  endloop
 endfacet
 facet normal -0.102174 0.0780755 0.991698
  outer loop
   vertex -0.200225 -0.248131 0.250202
   vertex -0.166198 -0.198494 0.2498
   vertex -0.170225 -0.196169 0.249202
  endloop
 endfacet
 facet normal -0.102177 0.0780773 0.991697
  outer loop
   vertex -0.200225 -0.248131 0.250202
   vertex -0.196198 -0.250456 0.2508
   vertex -0.166198 -0.198494 0.2498
  endloop
 endfacet
 facet normal -0.175062 0.119879 0.977232
  outer loop
   vertex -0.204194 -0.245839 0.24921
   vertex -0.170225 -0.196169 0.249202
   vertex -0.174194 -0.193878 0.24821
  endloop
 endfacet
 facet normal -0.175062 0.119879 0.977232
  outer loop
   vertex -0.204194 -0.245839 0.24921
   vertex -0.200225 -0.248131 0.250202
   vertex -0.170225 -0.196169 0.249202
  endloop
 endfacet
 facet normal -0.246708 0.160828 0.955651
  outer loop
   vertex -0.208075 -0.243599 0.247831
   vertex -0.174194 -0.193878 0.24821
   vertex -0.178075 -0.191637 0.246831
  endloop
 endfacet
 facet normal -0.246708 0.160828 0.955651
  outer loop
   vertex -0.208075 -0.243599 0.247831
   vertex -0.204194 -0.245839 0.24921
   vertex -0.174194 -0.193878 0.24821
  endloop
 endfacet
 facet normal -0.316561 0.200609 0.927117
  outer loop
   vertex -0.21184 -0.241425 0.246075
   vertex -0.178075 -0.191637 0.246831
   vertex -0.18184 -0.189463 0.245075
  endloop
 endfacet
 facet normal -0.316561 0.200609 0.927117
  outer loop
   vertex -0.21184 -0.241425 0.246075
   vertex -0.208075 -0.243599 0.247831
   vertex -0.178075 -0.191637 0.246831
  endloop
 endfacet
 facet normal -0.383926 0.238825 0.891944
  outer loop
   vertex -0.215462 -0.239334 0.243956
   vertex -0.18184 -0.189463 0.245075
   vertex -0.185462 -0.187372 0.242956
  endloop
 endfacet
 facet normal -0.383926 0.238825 0.891944
  outer loop
   vertex -0.215462 -0.239334 0.243956
   vertex -0.21184 -0.241425 0.246075
   vertex -0.18184 -0.189463 0.245075
  endloop
 endfacet
 facet normal -0.448838 0.275496 0.850086
  outer loop
   vertex -0.218915 -0.23734 0.241487
   vertex -0.185462 -0.187372 0.242956
   vertex -0.188915 -0.185379 0.240487
  endloop
 endfacet
 facet normal -0.448838 0.275496 0.850086
  outer loop
   vertex -0.218915 -0.23734 0.241487
   vertex -0.215462 -0.239334 0.243956
   vertex -0.185462 -0.187372 0.242956
  endloop
 endfacet
 facet normal -0.5101 0.309947 0.802329
  outer loop
   vertex -0.222173 -0.235459 0.238689
   vertex -0.188915 -0.185379 0.240487
   vertex -0.192173 -0.183498 0.237689
  endloop
 endfacet
 facet normal -0.5101 0.309947 0.802329
  outer loop
   vertex -0.222173 -0.235459 0.238689
   vertex -0.218915 -0.23734 0.241487
   vertex -0.188915 -0.185379 0.240487
  endloop
 endfacet
 facet normal -0.568034 0.342358 0.748417
  outer loop
   vertex -0.225213 -0.233704 0.235579
   vertex -0.192173 -0.183498 0.237689
   vertex -0.195213 -0.181743 0.234579
  endloop
 endfacet
 facet normal -0.568034 0.342358 0.748417
  outer loop
   vertex -0.225213 -0.233704 0.235579
   vertex -0.222173 -0.235459 0.238689
   vertex -0.192173 -0.183498 0.237689
  endloop
 endfacet
 facet normal -0.621499 0.37209 0.689411
  outer loop
   vertex -0.228012 -0.232088 0.232183
   vertex -0.195213 -0.181743 0.234579
   vertex -0.198012 -0.180126 0.231183
  endloop
 endfacet
 facet normal -0.6215 0.372091 0.68941
  outer loop
   vertex -0.228012 -0.232088 0.232183
   vertex -0.225213 -0.233704 0.235579
   vertex -0.195213 -0.181743 0.234579
  endloop
 endfacet
 facet normal -0.670682 0.399249 0.625129
  outer loop
   vertex -0.230551 -0.230622 0.228523
   vertex -0.198012 -0.180126 0.231183
   vertex -0.200551 -0.178661 0.227523
  endloop
 endfacet
 facet normal -0.670681 0.399248 0.62513
  outer loop
   vertex -0.230551 -0.230622 0.228523
   vertex -0.228012 -0.232088 0.232183
   vertex -0.198012 -0.180126 0.231183
  endloop
 endfacet
 facet normal -0.714953 0.423485 0.556329
  outer loop
   vertex -0.23281 -0.229317 0.224626
   vertex -0.200551 -0.178661 0.227523
   vertex -0.20281 -0.177356 0.223626
  endloop
 endfacet
 facet normal -0.714953 0.423485 0.556329
  outer loop
   vertex -0.23281 -0.229317 0.224626
   vertex -0.230551 -0.230622 0.228523
   vertex -0.200551 -0.178661 0.227523
  endloop
 endfacet
 facet normal -0.753935 0.444592 0.483653
  outer loop
   vertex -0.234774 -0.228184 0.220522
   vertex -0.20281 -0.177356 0.223626
   vertex -0.204774 -0.176222 0.219522
  endloop
 endfacet
 facet normal -0.753935 0.444592 0.483653
  outer loop
   vertex -0.234774 -0.228184 0.220522
   vertex -0.23281 -0.229317 0.224626
   vertex -0.20281 -0.177356 0.223626
  endloop
 endfacet
 facet normal -0.787522 0.462514 0.407295
  outer loop
   vertex -0.236429 -0.227228 0.216239
   vertex -0.204774 -0.176222 0.219522
   vertex -0.206429 -0.175267 0.215239
  endloop
 endfacet
 facet normal -0.787522 0.462514 0.407295
  outer loop
   vertex -0.236429 -0.227228 0.216239
   vertex -0.234774 -0.228184 0.220522
   vertex -0.204774 -0.176222 0.219522
  endloop
 endfacet
 facet normal -0.815354 0.477058 0.328044
  outer loop
   vertex -0.237761 -0.226459 0.211809
   vertex -0.236429 -0.227228 0.216239
   vertex -0.206429 -0.175267 0.215239
  endloop
 endfacet
 facet normal -0.815354 0.477058 0.328045
  outer loop
   vertex -0.237761 -0.226459 0.211809
   vertex -0.206429 -0.175267 0.215239
   vertex -0.207761 -0.174498 0.210809
  endloop
 endfacet
 facet normal -0.83726 0.488134 0.246416
  outer loop
   vertex -0.238762 -0.225882 0.207264
   vertex -0.237761 -0.226459 0.211809
   vertex -0.207761 -0.174498 0.210809
  endloop
 endfacet
 facet normal -0.83726 0.488135 0.246415
  outer loop
   vertex -0.238762 -0.225882 0.207264
   vertex -0.207761 -0.174498 0.210809
   vertex -0.208762 -0.17392 0.206264
  endloop
 endfacet
 facet normal -0.853086 0.495666 0.162974
  outer loop
   vertex -0.239424 -0.225499 0.202637
   vertex -0.238762 -0.225882 0.207264
   vertex -0.208762 -0.17392 0.206264
  endloop
 endfacet
 facet normal -0.853086 0.495666 0.162974
  outer loop
   vertex -0.239424 -0.225499 0.202637
   vertex -0.208762 -0.17392 0.206264
   vertex -0.209424 -0.173538 0.201637
  endloop
 endfacet
 facet normal -0.861702 0.499249 0.0906676
  outer loop
   vertex -0.239685 -0.225348 0.199321
   vertex -0.239424 -0.225499 0.202637
   vertex -0.209424 -0.173538 0.201637
  endloop
 endfacet
 facet normal -0.861702 0.499249 0.0906676
  outer loop
   vertex -0.239685 -0.225348 0.199321
   vertex -0.209424 -0.173538 0.201637
   vertex -0.209685 -0.173387 0.198321
  endloop
 endfacet
 facet normal -0.865376 0.500208 0.0302651
  outer loop
   vertex -0.239772 -0.225298 0.195992
   vertex -0.239685 -0.225348 0.199321
   vertex -0.209685 -0.173387 0.198321
  endloop
 endfacet
 facet normal -0.865376 0.500208 0.0302652
  outer loop
   vertex -0.239772 -0.225298 0.195992
   vertex -0.209685 -0.173387 0.198321
   vertex -0.209772 -0.173336 0.194992
  endloop
 endfacet
 facet normal 0.866025 -0.5 0
  outer loop
   vertex -0.0752276 -0.320298 -0.133992
   vertex -0.0452276 -0.268336 -0.134992
   vertex -0.0452276 -0.268336 0.194992
  endloop
 endfacet
 facet normal 0.866025 -0.5 0
  outer loop
   vertex -0.0752276 -0.320298 0.195992
   vertex -0.0752276 -0.320298 -0.133992
   vertex -0.0452276 -0.268336 0.194992
  endloop
 endfacet
 facet normal -0.866025 0.5 0
  outer loop
   vertex -0.239772 -0.225298 0.195992
   vertex -0.209772 -0.173336 0.194992
   vertex -0.239772 -0.225298 -0.133992
  endloop
 endfacet
 facet normal -0.866025 0.5 0
  outer loop
   vertex -0.239772 -0.225298 -0.133992
   vertex -0.209772 -0.173336 0.194992
   vertex -0.209772 -0.173336 -0.134992
  endloop
 endfacet
 facet normal 0.0286121 -0.0357441 -0.998951
  outer loop
   vertex -0.122859 -0.292798 -0.189
   vertex -0.092859 -0.240836 -0.19
   vertex -0.0888022 -0.243179 -0.1898
  endloop
 endfacet
 facet normal 0.102174 -0.0780753 -0.991698
  outer loop
   vertex -0.118802 -0.29514 -0.1888
   vertex -0.0888022 -0.243179 -0.1898
   vertex -0.0847748 -0.245504 -0.189202
  endloop
 endfacet
 facet normal 0.0286095 -0.0357423 -0.998951
  outer loop
   vertex -0.118802 -0.29514 -0.1888
   vertex -0.122859 -0.292798 -0.189
   vertex -0.0888022 -0.243179 -0.1898
  endloop
 endfacet
 facet normal 0.175062 -0.119879 -0.977232
  outer loop
   vertex -0.114775 -0.297465 -0.188202
   vertex -0.0847748 -0.245504 -0.189202
   vertex -0.0808062 -0.247795 -0.18821
  endloop
 endfacet
 facet normal 0.102177 -0.0780771 -0.991697
  outer loop
   vertex -0.114775 -0.297465 -0.188202
   vertex -0.118802 -0.29514 -0.1888
   vertex -0.0847748 -0.245504 -0.189202
  endloop
 endfacet
 facet normal 0.246708 -0.160828 -0.955651
  outer loop
   vertex -0.110806 -0.299757 -0.18721
   vertex -0.0808062 -0.247795 -0.18821
   vertex -0.0769252 -0.250036 -0.186831
  endloop
 endfacet
 facet normal 0.175062 -0.119879 -0.977232
  outer loop
   vertex -0.110806 -0.299757 -0.18721
   vertex -0.114775 -0.297465 -0.188202
   vertex -0.0808062 -0.247795 -0.18821
  endloop
 endfacet
 facet normal 0.316561 -0.200609 -0.927117
  outer loop
   vertex -0.106925 -0.301997 -0.185831
   vertex -0.0769252 -0.250036 -0.186831
   vertex -0.07316 -0.25221 -0.185075
  endloop
 endfacet
 facet normal 0.246708 -0.160828 -0.955651
  outer loop
   vertex -0.106925 -0.301997 -0.185831
   vertex -0.110806 -0.299757 -0.18721
   vertex -0.0769252 -0.250036 -0.186831
  endloop
 endfacet
 facet normal 0.383926 -0.238825 -0.891944
  outer loop
   vertex -0.10316 -0.304171 -0.184075
   vertex -0.07316 -0.25221 -0.185075
   vertex -0.069538 -0.254301 -0.182956
  endloop
 endfacet
 facet normal 0.316561 -0.200609 -0.927117
  outer loop
   vertex -0.10316 -0.304171 -0.184075
   vertex -0.106925 -0.301997 -0.185831
   vertex -0.07316 -0.25221 -0.185075
  endloop
 endfacet
 facet normal 0.448836 -0.275495 -0.850088
  outer loop
   vertex -0.099538 -0.306262 -0.181956
   vertex -0.069538 -0.254301 -0.182956
   vertex -0.0660853 -0.256294 -0.180487
  endloop
 endfacet
 facet normal 0.383926 -0.238825 -0.891944
  outer loop
   vertex -0.099538 -0.306262 -0.181956
   vertex -0.10316 -0.304171 -0.184075
   vertex -0.069538 -0.254301 -0.182956
  endloop
 endfacet
 facet normal 0.510101 -0.309948 -0.802327
  outer loop
   vertex -0.0960853 -0.308256 -0.179487
   vertex -0.0660853 -0.256294 -0.180487
   vertex -0.0628273 -0.258175 -0.177689
  endloop
 endfacet
 facet normal 0.448836 -0.275495 -0.850088
  outer loop
   vertex -0.0960853 -0.308256 -0.179487
   vertex -0.099538 -0.306262 -0.181956
   vertex -0.0660853 -0.256294 -0.180487
  endloop
 endfacet
 facet normal 0.568034 -0.342358 -0.748417
  outer loop
   vertex -0.0928273 -0.310137 -0.176689
   vertex -0.0628273 -0.258175 -0.177689
   vertex -0.0597875 -0.25993 -0.174579
  endloop
 endfacet
 facet normal 0.510101 -0.309948 -0.802327
  outer loop
   vertex -0.0928273 -0.310137 -0.176689
   vertex -0.0960853 -0.308256 -0.179487
   vertex -0.0628273 -0.258175 -0.177689
  endloop
 endfacet
 facet normal 0.621499 -0.37209 -0.689411
  outer loop
   vertex -0.0897875 -0.311892 -0.173579
   vertex -0.0597875 -0.25993 -0.174579
   vertex -0.056988 -0.261547 -0.171183
  endloop
 endfacet
 facet normal 0.568033 -0.342357 -0.748419
  outer loop
   vertex -0.0897875 -0.311892 -0.173579
   vertex -0.0928273 -0.310137 -0.176689
   vertex -0.0597875 -0.25993 -0.174579
  endloop
 endfacet
 facet normal 0.670682 -0.399249 -0.625129
  outer loop
   vertex -0.086988 -0.313508 -0.170183
   vertex -0.056988 -0.261547 -0.171183
   vertex -0.0544492 -0.263012 -0.167523
  endloop
 endfacet
 facet normal 0.6215 -0.372091 -0.68941
  outer loop
   vertex -0.086988 -0.313508 -0.170183
   vertex -0.0897875 -0.311892 -0.173579
   vertex -0.056988 -0.261547 -0.171183
  endloop
 endfacet
 facet normal 0.714953 -0.423485 -0.556329
  outer loop
   vertex -0.0844492 -0.314974 -0.166523
   vertex -0.0544492 -0.263012 -0.167523
   vertex -0.0521896 -0.264317 -0.163626
  endloop
 endfacet
 facet normal 0.670682 -0.399249 -0.625129
  outer loop
   vertex -0.0844492 -0.314974 -0.166523
   vertex -0.086988 -0.313508 -0.170183
   vertex -0.0544492 -0.263012 -0.167523
  endloop
 endfacet
 facet normal 0.753935 -0.444592 -0.483653
  outer loop
   vertex -0.0821896 -0.316279 -0.162626
   vertex -0.0521896 -0.264317 -0.163626
   vertex -0.0502255 -0.265451 -0.159522
  endloop
 endfacet
 facet normal 0.714953 -0.423485 -0.556329
  outer loop
   vertex -0.0821896 -0.316279 -0.162626
   vertex -0.0844492 -0.314974 -0.166523
   vertex -0.0521896 -0.264317 -0.163626
  endloop
 endfacet
 facet normal 0.787522 -0.462514 -0.407295
  outer loop
   vertex -0.0802255 -0.317412 -0.158522
   vertex -0.0502255 -0.265451 -0.159522
   vertex -0.0485713 -0.266406 -0.155239
  endloop
 endfacet
 facet normal 0.753935 -0.444592 -0.483653
  outer loop
   vertex -0.0802255 -0.317412 -0.158522
   vertex -0.0821896 -0.316279 -0.162626
   vertex -0.0502255 -0.265451 -0.159522
  endloop
 endfacet
 facet normal 0.815354 -0.477058 -0.328045
  outer loop
   vertex -0.0785713 -0.318368 -0.154239
   vertex -0.0485713 -0.266406 -0.155239
   vertex -0.047239 -0.267175 -0.150809
  endloop
 endfacet
 facet normal 0.787522 -0.462514 -0.407295
  outer loop
   vertex -0.0785713 -0.318368 -0.154239
   vertex -0.0802255 -0.317412 -0.158522
   vertex -0.0485713 -0.266406 -0.155239
  endloop
 endfacet
 facet normal 0.815354 -0.477058 -0.328045
  outer loop
   vertex -0.077239 -0.319137 -0.149809
   vertex -0.0785713 -0.318368 -0.154239
   vertex -0.047239 -0.267175 -0.150809
  endloop
 endfacet
 facet normal 0.83726 -0.488135 -0.246415
  outer loop
   vertex -0.077239 -0.319137 -0.149809
   vertex -0.047239 -0.267175 -0.150809
   vertex -0.0462382 -0.267753 -0.146264
  endloop
 endfacet
 facet normal 0.83726 -0.488135 -0.246415
  outer loop
   vertex -0.0762382 -0.319714 -0.145264
   vertex -0.077239 -0.319137 -0.149809
   vertex -0.0462382 -0.267753 -0.146264
  endloop
 endfacet
 facet normal 0.853086 -0.495666 -0.162974
  outer loop
   vertex -0.0762382 -0.319714 -0.145264
   vertex -0.0462382 -0.267753 -0.146264
   vertex -0.0455763 -0.268135 -0.141637
  endloop
 endfacet
 facet normal 0.853086 -0.495666 -0.162974
  outer loop
   vertex -0.0755763 -0.320097 -0.140637
   vertex -0.0762382 -0.319714 -0.145264
   vertex -0.0455763 -0.268135 -0.141637
  endloop
 endfacet
 facet normal 0.861702 -0.499249 -0.0906676
  outer loop
   vertex -0.0755763 -0.320097 -0.140637
   vertex -0.0455763 -0.268135 -0.141637
   vertex -0.0453149 -0.268286 -0.138321
  endloop
 endfacet
 facet normal 0.861702 -0.499249 -0.0906676
  outer loop
   vertex -0.0753149 -0.320248 -0.137321
   vertex -0.0755763 -0.320097 -0.140637
   vertex -0.0453149 -0.268286 -0.138321
  endloop
 endfacet
 facet normal 0.865376 -0.500208 -0.0302652
  outer loop
   vertex -0.0753149 -0.320248 -0.137321
   vertex -0.0453149 -0.268286 -0.138321
   vertex -0.0452276 -0.268336 -0.134992
  endloop
 endfacet
 facet normal 0.865376 -0.500208 -0.0302652
  outer loop
   vertex -0.0752276 -0.320298 -0.133992
   vertex -0.0753149 -0.320248 -0.137321
   vertex -0.0452276 -0.268336 -0.134992
  endloop
 endfacet
 facet normal -0.865593 0.49893 -0.04262
  outer loop
   vertex -0.239599 -0.225398 -0.138678
   vertex -0.209772 -0.173336 -0.134992
   vertex -0.209599 -0.173436 -0.139678
  endloop
 endfacet
 facet normal -0.865593 0.49893 -0.04262
  outer loop
   vertex -0.239599 -0.225398 -0.138678
   vertex -0.239772 -0.225298 -0.133992
   vertex -0.209772 -0.173336 -0.134992
  endloop
 endfacet
 facet normal -0.860011 0.494073 -0.127566
  outer loop
   vertex -0.239081 -0.225697 -0.143329
   vertex -0.209599 -0.173436 -0.139678
   vertex -0.209081 -0.173736 -0.144329
  endloop
 endfacet
 facet normal -0.860011 0.494073 -0.127566
  outer loop
   vertex -0.239081 -0.225697 -0.143329
   vertex -0.239599 -0.225398 -0.138678
   vertex -0.209599 -0.173436 -0.139678
  endloop
 endfacet
 facet normal -0.848186 0.48563 -0.211527
  outer loop
   vertex -0.238222 -0.226193 -0.147913
   vertex -0.209081 -0.173736 -0.144329
   vertex -0.208222 -0.174232 -0.148913
  endloop
 endfacet
 facet normal -0.848186 0.48563 -0.211527
  outer loop
   vertex -0.238222 -0.226193 -0.147913
   vertex -0.239081 -0.225697 -0.143329
   vertex -0.209081 -0.173736 -0.144329
  endloop
 endfacet
 facet normal -0.830178 0.473645 -0.294048
  outer loop
   vertex -0.237028 -0.226883 -0.152395
   vertex -0.208222 -0.174232 -0.148913
   vertex -0.207028 -0.174921 -0.153395
  endloop
 endfacet
 facet normal -0.830178 0.473645 -0.294048
  outer loop
   vertex -0.237028 -0.226883 -0.152395
   vertex -0.238222 -0.226193 -0.147913
   vertex -0.208222 -0.174232 -0.148913
  endloop
 endfacet
 facet normal -0.80614 0.45822 -0.374396
  outer loop
   vertex -0.235507 -0.22776 -0.156743
   vertex -0.207028 -0.174921 -0.153395
   vertex -0.205507 -0.175799 -0.157743
  endloop
 endfacet
 facet normal -0.80614 0.45822 -0.374396
  outer loop
   vertex -0.235507 -0.22776 -0.156743
   vertex -0.237028 -0.226883 -0.152395
   vertex -0.207028 -0.174921 -0.153395
  endloop
 endfacet
 facet normal -0.776262 0.439477 -0.451971
  outer loop
   vertex -0.233672 -0.22882 -0.160926
   vertex -0.205507 -0.175799 -0.157743
   vertex -0.203672 -0.176859 -0.161926
  endloop
 endfacet
 facet normal -0.776262 0.439477 -0.451971
  outer loop
   vertex -0.233672 -0.22882 -0.160926
   vertex -0.235507 -0.22776 -0.156743
   vertex -0.205507 -0.175799 -0.157743
  endloop
 endfacet
 facet normal -0.740763 0.417552 -0.526233
  outer loop
   vertex -0.231535 -0.230054 -0.164914
   vertex -0.203672 -0.176859 -0.161926
   vertex -0.201535 -0.178093 -0.165914
  endloop
 endfacet
 facet normal -0.740763 0.417552 -0.526233
  outer loop
   vertex -0.231535 -0.230054 -0.164914
   vertex -0.233672 -0.22882 -0.160926
   vertex -0.203672 -0.176859 -0.161926
  endloop
 endfacet
 facet normal -0.699776 0.39253 -0.596853
  outer loop
   vertex -0.229111 -0.231453 -0.168676
   vertex -0.201535 -0.178093 -0.165914
   vertex -0.199111 -0.179492 -0.169676
  endloop
 endfacet
 facet normal -0.699776 0.39253 -0.596853
  outer loop
   vertex -0.229111 -0.231453 -0.168676
   vertex -0.231535 -0.230054 -0.164914
   vertex -0.201535 -0.178093 -0.165914
  endloop
 endfacet
 facet normal -0.653858 0.364747 -0.662895
  outer loop
   vertex -0.226418 -0.233008 -0.172187
   vertex -0.199111 -0.179492 -0.169676
   vertex -0.196418 -0.181046 -0.173187
  endloop
 endfacet
 facet normal -0.653858 0.364747 -0.662895
  outer loop
   vertex -0.226418 -0.233008 -0.172187
   vertex -0.229111 -0.231453 -0.168676
   vertex -0.199111 -0.179492 -0.169676
  endloop
 endfacet
 facet normal -0.603081 0.33425 -0.724272
  outer loop
   vertex -0.223477 -0.234706 -0.17542
   vertex -0.196418 -0.181046 -0.173187
   vertex -0.193477 -0.182745 -0.17642
  endloop
 endfacet
 facet normal -0.603081 0.33425 -0.724272
  outer loop
   vertex -0.223477 -0.234706 -0.17542
   vertex -0.226418 -0.233008 -0.172187
   vertex -0.196418 -0.181046 -0.173187
  endloop
 endfacet
 facet normal -0.547945 0.301338 -0.780353
  outer loop
   vertex -0.220308 -0.236536 -0.178352
   vertex -0.193477 -0.182745 -0.17642
   vertex -0.190308 -0.184574 -0.179352
  endloop
 endfacet
 facet normal -0.547945 0.301338 -0.780353
  outer loop
   vertex -0.220308 -0.236536 -0.178352
   vertex -0.223477 -0.234706 -0.17542
   vertex -0.193477 -0.182745 -0.17642
  endloop
 endfacet
 facet normal -0.488769 0.266202 -0.830808
  outer loop
   vertex -0.216934 -0.238484 -0.180961
   vertex -0.190308 -0.184574 -0.179352
   vertex -0.186934 -0.186522 -0.181961
  endloop
 endfacet
 facet normal -0.488769 0.266202 -0.830808
  outer loop
   vertex -0.216934 -0.238484 -0.180961
   vertex -0.220308 -0.236536 -0.178352
   vertex -0.190308 -0.184574 -0.179352
  endloop
 endfacet
 facet normal -0.426141 0.22919 -0.875143
  outer loop
   vertex -0.21338 -0.240536 -0.183229
   vertex -0.186934 -0.186522 -0.181961
   vertex -0.18338 -0.188574 -0.184229
  endloop
 endfacet
 facet normal -0.426141 0.22919 -0.875143
  outer loop
   vertex -0.21338 -0.240536 -0.183229
   vertex -0.216934 -0.238484 -0.180961
   vertex -0.186934 -0.186522 -0.181961
  endloop
 endfacet
 facet normal -0.36035 0.190475 -0.913163
  outer loop
   vertex -0.209671 -0.242677 -0.185139
   vertex -0.18338 -0.188574 -0.184229
   vertex -0.179671 -0.190715 -0.186139
  endloop
 endfacet
 facet normal -0.36035 0.190475 -0.913163
  outer loop
   vertex -0.209671 -0.242677 -0.185139
   vertex -0.21338 -0.240536 -0.183229
   vertex -0.18338 -0.188574 -0.184229
  endloop
 endfacet
 facet normal -0.291915 0.150359 -0.944551
  outer loop
   vertex -0.205835 -0.244892 -0.186677
   vertex -0.209671 -0.242677 -0.185139
   vertex -0.179671 -0.190715 -0.186139
  endloop
 endfacet
 facet normal -0.291915 0.150359 -0.944551
  outer loop
   vertex -0.205835 -0.244892 -0.186677
   vertex -0.179671 -0.190715 -0.186139
   vertex -0.175835 -0.19293 -0.187677
  endloop
 endfacet
 facet normal -0.221556 0.109267 -0.969007
  outer loop
   vertex -0.2019 -0.247164 -0.187833
   vertex -0.205835 -0.244892 -0.186677
   vertex -0.175835 -0.19293 -0.187677
  endloop
 endfacet
 facet normal -0.221556 0.109267 -0.969007
  outer loop
   vertex -0.2019 -0.247164 -0.187833
   vertex -0.175835 -0.19293 -0.187677
   vertex -0.1719 -0.195202 -0.188833
  endloop
 endfacet
 facet normal -0.149317 0.0672228 -0.986502
  outer loop
   vertex -0.197894 -0.249477 -0.188597
   vertex -0.2019 -0.247164 -0.187833
   vertex -0.1719 -0.195202 -0.188833
  endloop
 endfacet
 facet normal -0.149317 0.0672228 -0.986502
  outer loop
   vertex -0.197894 -0.249477 -0.188597
   vertex -0.1719 -0.195202 -0.188833
   vertex -0.167894 -0.197515 -0.189597
  endloop
 endfacet
 facet normal -0.0868509 0.0309803 -0.995739
  outer loop
   vertex -0.195023 -0.251134 -0.188899
   vertex -0.197894 -0.249477 -0.188597
   vertex -0.167894 -0.197515 -0.189597
  endloop
 endfacet
 facet normal -0.0868509 0.0309803 -0.995739
  outer loop
   vertex -0.195023 -0.251134 -0.188899
   vertex -0.167894 -0.197515 -0.189597
   vertex -0.165023 -0.199173 -0.189899
  endloop
 endfacet
 facet normal -0.0345992 0.000742339 -0.999401
  outer loop
   vertex -0.192141 -0.252798 -0.189
   vertex -0.195023 -0.251134 -0.188899
   vertex -0.165023 -0.199173 -0.189899
  endloop
 endfacet
 facet normal -0.0345992 0.000742339 -0.999401
  outer loop
   vertex -0.192141 -0.252798 -0.189
   vertex -0.165023 -0.199173 -0.189899
   vertex -0.162141 -0.200836 -0.19
  endloop
 endfacet
 facet normal -0.00833219 -0.0144318 -0.999861
  outer loop
   vertex -0.192141 -0.252798 -0.189
   vertex -0.162141 -0.200836 -0.19
   vertex -0.092859 -0.240836 -0.19
  endloop
 endfacet
 facet normal -0.00833219 -0.0144318 -0.999861
  outer loop
   vertex -0.122859 -0.292798 -0.189
   vertex -0.192141 -0.252798 -0.189
   vertex -0.092859 -0.240836 -0.19
  endloop
 endfacet
 facet normal -0.00833219 -0.0144318 -0.999861
  outer loop
   vertex -0.192141 -0.252798 0.206
   vertex -0.092859 -0.240836 0.205
   vertex -0.122859 -0.292798 0.206
  endloop
 endfacet
 facet normal -0.00833219 -0.0144318 -0.999861
  outer loop
   vertex -0.162141 -0.200836 0.205
   vertex -0.092859 -0.240836 0.205
   vertex -0.192141 -0.252798 0.206
  endloop
 endfacet
 facet normal -0.0945997 0.0354706 -0.994883
  outer loop
   vertex -0.121139 -0.293791 0.205801
   vertex -0.092859 -0.240836 0.205
   vertex -0.0911385 -0.24183 0.204801
  endloop
 endfacet
 facet normal -0.0945997 0.0354706 -0.994883
  outer loop
   vertex -0.121139 -0.293791 0.205801
   vertex -0.122859 -0.292798 0.206
   vertex -0.092859 -0.240836 0.205
  endloop
 endfacet
 facet normal -0.263856 0.133954 -0.955215
  outer loop
   vertex -0.119487 -0.294745 0.205211
   vertex -0.0911385 -0.24183 0.204801
   vertex -0.0894868 -0.242783 0.204211
  endloop
 endfacet
 facet normal -0.263856 0.133954 -0.955215
  outer loop
   vertex -0.119487 -0.294745 0.205211
   vertex -0.121139 -0.293791 0.205801
   vertex -0.0911385 -0.24183 0.204801
  endloop
 endfacet
 facet normal -0.422716 0.227171 -0.877328
  outer loop
   vertex -0.117969 -0.295621 0.204253
   vertex -0.0894868 -0.242783 0.204211
   vertex -0.0879693 -0.24366 0.203253
  endloop
 endfacet
 facet normal -0.422716 0.227171 -0.877328
  outer loop
   vertex -0.117969 -0.295621 0.204253
   vertex -0.119487 -0.294745 0.205211
   vertex -0.0894868 -0.242783 0.204211
  endloop
 endfacet
 facet normal -0.564172 0.311006 -0.764843
  outer loop
   vertex -0.116647 -0.296385 0.202967
   vertex -0.0879693 -0.24366 0.203253
   vertex -0.0866468 -0.244423 0.201967
  endloop
 endfacet
 facet normal -0.564172 0.311006 -0.764843
  outer loop
   vertex -0.116647 -0.296385 0.202967
   vertex -0.117969 -0.295621 0.204253
   vertex -0.0879693 -0.24366 0.203253
  endloop
 endfacet
 facet normal -0.683505 0.382659 -0.621605
  outer loop
   vertex -0.115572 -0.297005 0.201403
   vertex -0.0866468 -0.244423 0.201967
   vertex -0.0855719 -0.245044 0.200403
  endloop
 endfacet
 facet normal -0.683505 0.382659 -0.621605
  outer loop
   vertex -0.115572 -0.297005 0.201403
   vertex -0.116647 -0.296385 0.202967
   vertex -0.0866468 -0.244423 0.201967
  endloop
 endfacet
 facet normal -0.775595 0.439062 -0.453516
  outer loop
   vertex -0.114787 -0.297458 0.199623
   vertex -0.0855719 -0.245044 0.200403
   vertex -0.0847875 -0.245497 0.198623
  endloop
 endfacet
 facet normal -0.775595 0.439062 -0.453516
  outer loop
   vertex -0.114787 -0.297458 0.199623
   vertex -0.115572 -0.297005 0.201403
   vertex -0.0855719 -0.245044 0.200403
  endloop
 endfacet
 facet normal -0.835005 0.476805 -0.274633
  outer loop
   vertex -0.114347 -0.297712 0.197843
   vertex -0.0847875 -0.245497 0.198623
   vertex -0.0843472 -0.245751 0.196843
  endloop
 endfacet
 facet normal -0.835005 0.476805 -0.274633
  outer loop
   vertex -0.114347 -0.297712 0.197843
   vertex -0.114787 -0.297458 0.199623
   vertex -0.0847875 -0.245497 0.198623
  endloop
 endfacet
 facet normal -0.863079 0.496518 -0.0925512
  outer loop
   vertex -0.114199 -0.297798 0.195999
   vertex -0.0843472 -0.245751 0.196843
   vertex -0.0841987 -0.245836 0.194999
  endloop
 endfacet
 facet normal -0.863079 0.496518 -0.0925512
  outer loop
   vertex -0.114199 -0.297798 0.195999
   vertex -0.114347 -0.297712 0.197843
   vertex -0.0843472 -0.245751 0.196843
  endloop
 endfacet
 facet normal 0.0780183 -0.0641905 -0.994883
  outer loop
   vertex -0.163861 -0.199843 0.204801
   vertex -0.162141 -0.200836 0.205
   vertex -0.193861 -0.251805 0.205801
  endloop
 endfacet
 facet normal 0.0780183 -0.0641905 -0.994883
  outer loop
   vertex -0.162141 -0.200836 0.205
   vertex -0.192141 -0.252798 0.206
   vertex -0.193861 -0.251805 0.205801
  endloop
 endfacet
 facet normal 0.247935 -0.161529 -0.955215
  outer loop
   vertex -0.165513 -0.19889 0.204211
   vertex -0.163861 -0.199843 0.204801
   vertex -0.195513 -0.250851 0.205211
  endloop
 endfacet
 facet normal 0.247935 -0.161529 -0.955215
  outer loop
   vertex -0.163861 -0.199843 0.204801
   vertex -0.193861 -0.251805 0.205801
   vertex -0.195513 -0.250851 0.205211
  endloop
 endfacet
 facet normal 0.408094 -0.252498 -0.877328
  outer loop
   vertex -0.167031 -0.198013 0.203253
   vertex -0.165513 -0.19889 0.204211
   vertex -0.197031 -0.249975 0.204253
  endloop
 endfacet
 facet normal 0.408094 -0.252498 -0.877328
  outer loop
   vertex -0.165513 -0.19889 0.204211
   vertex -0.195513 -0.250851 0.205211
   vertex -0.197031 -0.249975 0.204253
  endloop
 endfacet
 facet normal 0.551425 -0.333085 -0.764843
  outer loop
   vertex -0.168353 -0.19725 0.201967
   vertex -0.167031 -0.198013 0.203253
   vertex -0.198353 -0.249211 0.202967
  endloop
 endfacet
 facet normal 0.551425 -0.333085 -0.764843
  outer loop
   vertex -0.167031 -0.198013 0.203253
   vertex -0.197031 -0.249975 0.204253
   vertex -0.198353 -0.249211 0.202967
  endloop
 endfacet
 facet normal 0.673145 -0.400603 -0.621605
  outer loop
   vertex -0.169428 -0.196629 0.200403
   vertex -0.168353 -0.19725 0.201967
   vertex -0.199428 -0.248591 0.201403
  endloop
 endfacet
 facet normal 0.673145 -0.400603 -0.621605
  outer loop
   vertex -0.168353 -0.19725 0.201967
   vertex -0.198353 -0.249211 0.202967
   vertex -0.199428 -0.248591 0.201403
  endloop
 endfacet
 facet normal 0.768036 -0.452154 -0.453516
  outer loop
   vertex -0.170213 -0.196176 0.198623
   vertex -0.169428 -0.196629 0.200403
   vertex -0.200213 -0.248138 0.199623
  endloop
 endfacet
 facet normal 0.768036 -0.452154 -0.453516
  outer loop
   vertex -0.169428 -0.196629 0.200403
   vertex -0.199428 -0.248591 0.201403
   vertex -0.200213 -0.248138 0.199623
  endloop
 endfacet
 facet normal 0.830428 -0.484733 -0.274633
  outer loop
   vertex -0.170653 -0.195922 0.196843
   vertex -0.170213 -0.196176 0.198623
   vertex -0.200653 -0.247884 0.197843
  endloop
 endfacet
 facet normal 0.830428 -0.484733 -0.274633
  outer loop
   vertex -0.170213 -0.196176 0.198623
   vertex -0.200213 -0.248138 0.199623
   vertex -0.200653 -0.247884 0.197843
  endloop
 endfacet
 facet normal 0.861536 -0.499189 -0.0925512
  outer loop
   vertex -0.170801 -0.195836 0.194999
   vertex -0.170653 -0.195922 0.196843
   vertex -0.200801 -0.247798 0.195999
  endloop
 endfacet
 facet normal 0.861536 -0.499189 -0.0925512
  outer loop
   vertex -0.170653 -0.195922 0.196843
   vertex -0.200653 -0.247884 0.197843
   vertex -0.200801 -0.247798 0.195999
  endloop
 endfacet
 facet normal -0.866025 0.5 0
  outer loop
   vertex -0.0841987 -0.245836 0.194999
   vertex -0.0841987 -0.245836 -0.134999
   vertex -0.114199 -0.297798 -0.133999
  endloop
 endfacet
 facet normal -0.866025 0.5 0
  outer loop
   vertex -0.0841987 -0.245836 0.194999
   vertex -0.114199 -0.297798 -0.133999
   vertex -0.114199 -0.297798 0.195999
  endloop
 endfacet
 facet normal 0.866025 -0.5 0
  outer loop
   vertex -0.200801 -0.247798 -0.133999
   vertex -0.170801 -0.195836 0.194999
   vertex -0.200801 -0.247798 0.195999
  endloop
 endfacet
 facet normal 0.866025 -0.5 0
  outer loop
   vertex -0.170801 -0.195836 -0.134999
   vertex -0.170801 -0.195836 0.194999
   vertex -0.200801 -0.247798 -0.133999
  endloop
 endfacet
 facet normal -0.0780119 0.0641868 0.994884
  outer loop
   vertex -0.0911385 -0.24183 -0.144801
   vertex -0.092859 -0.240836 -0.145
   vertex -0.122859 -0.292798 -0.144
  endloop
 endfacet
 facet normal -0.247941 0.161532 0.955213
  outer loop
   vertex -0.0894868 -0.242783 -0.144211
   vertex -0.0911385 -0.24183 -0.144801
   vertex -0.121139 -0.293791 -0.143801
  endloop
 endfacet
 facet normal -0.0780119 0.0641868 0.994884
  outer loop
   vertex -0.0911385 -0.24183 -0.144801
   vertex -0.122859 -0.292798 -0.144
   vertex -0.121139 -0.293791 -0.143801
  endloop
 endfacet
 facet normal -0.408094 0.252497 0.877328
  outer loop
   vertex -0.0879693 -0.24366 -0.143253
   vertex -0.0894868 -0.242783 -0.144211
   vertex -0.119487 -0.294745 -0.143211
  endloop
 endfacet
 facet normal -0.247935 0.161528 0.955215
  outer loop
   vertex -0.0894868 -0.242783 -0.144211
   vertex -0.121139 -0.293791 -0.143801
   vertex -0.119487 -0.294745 -0.143211
  endloop
 endfacet
 facet normal -0.551425 0.333085 0.764843
  outer loop
   vertex -0.0866468 -0.244423 -0.141967
   vertex -0.0879693 -0.24366 -0.143253
   vertex -0.117969 -0.295621 -0.142253
  endloop
 endfacet
 facet normal -0.408099 0.2525 0.877325
  outer loop
   vertex -0.0879693 -0.24366 -0.143253
   vertex -0.119487 -0.294745 -0.143211
   vertex -0.117969 -0.295621 -0.142253
  endloop
 endfacet
 facet normal -0.673145 0.400603 0.621605
  outer loop
   vertex -0.0855719 -0.245044 -0.140403
   vertex -0.0866468 -0.244423 -0.141967
   vertex -0.116647 -0.296385 -0.140967
  endloop
 endfacet
 facet normal -0.551425 0.333085 0.764843
  outer loop
   vertex -0.0866468 -0.244423 -0.141967
   vertex -0.117969 -0.295621 -0.142253
   vertex -0.116647 -0.296385 -0.140967
  endloop
 endfacet
 facet normal -0.768036 0.452154 0.453516
  outer loop
   vertex -0.0847875 -0.245497 -0.138623
   vertex -0.0855719 -0.245044 -0.140403
   vertex -0.115572 -0.297005 -0.139403
  endloop
 endfacet
 facet normal -0.673145 0.400603 0.621605
  outer loop
   vertex -0.0855719 -0.245044 -0.140403
   vertex -0.116647 -0.296385 -0.140967
   vertex -0.115572 -0.297005 -0.139403
  endloop
 endfacet
 facet normal -0.830428 0.484733 0.274633
  outer loop
   vertex -0.0843472 -0.245751 -0.136843
   vertex -0.0847875 -0.245497 -0.138623
   vertex -0.114787 -0.297458 -0.137623
  endloop
 endfacet
 facet normal -0.768036 0.452154 0.453516
  outer loop
   vertex -0.0847875 -0.245497 -0.138623
   vertex -0.115572 -0.297005 -0.139403
   vertex -0.114787 -0.297458 -0.137623
  endloop
 endfacet
 facet normal -0.861536 0.499189 0.0925519
  outer loop
   vertex -0.0841987 -0.245836 -0.134999
   vertex -0.0843472 -0.245751 -0.136843
   vertex -0.114347 -0.297712 -0.135843
  endloop
 endfacet
 facet normal -0.830428 0.484733 0.274633
  outer loop
   vertex -0.0843472 -0.245751 -0.136843
   vertex -0.114787 -0.297458 -0.137623
   vertex -0.114347 -0.297712 -0.135843
  endloop
 endfacet
 facet normal -0.861536 0.499189 0.0925519
  outer loop
   vertex -0.0841987 -0.245836 -0.134999
   vertex -0.114347 -0.297712 -0.135843
   vertex -0.114199 -0.297798 -0.133999
  endloop
 endfacet
 facet normal 0.862532 -0.496063 0.0998009
  outer loop
   vertex -0.170629 -0.195936 -0.136986
   vertex -0.170801 -0.195836 -0.134999
   vertex -0.200629 -0.247898 -0.135986
  endloop
 endfacet
 facet normal 0.862532 -0.496063 0.0998009
  outer loop
   vertex -0.170801 -0.195836 -0.134999
   vertex -0.200801 -0.247798 -0.133999
   vertex -0.200629 -0.247898 -0.135986
  endloop
 endfacet
 facet normal 0.829775 -0.473382 0.295608
  outer loop
   vertex -0.170118 -0.196231 -0.138893
   vertex -0.170629 -0.195936 -0.136986
   vertex -0.200118 -0.248193 -0.137893
  endloop
 endfacet
 facet normal 0.829775 -0.473382 0.295606
  outer loop
   vertex -0.170629 -0.195936 -0.136986
   vertex -0.200629 -0.247898 -0.135986
   vertex -0.200118 -0.248193 -0.137893
  endloop
 endfacet
 facet normal 0.764063 -0.431909 0.47923
  outer loop
   vertex -0.169289 -0.19671 -0.140646
   vertex -0.170118 -0.196231 -0.138893
   vertex -0.199289 -0.248671 -0.139646
  endloop
 endfacet
 facet normal 0.764062 -0.431909 0.479233
  outer loop
   vertex -0.170118 -0.196231 -0.138893
   vertex -0.200118 -0.248193 -0.137893
   vertex -0.199289 -0.248671 -0.139646
  endloop
 endfacet
 facet normal 0.667679 -0.373087 0.644214
  outer loop
   vertex -0.168175 -0.197353 -0.142173
   vertex -0.169289 -0.19671 -0.140646
   vertex -0.198175 -0.249314 -0.141173
  endloop
 endfacet
 facet normal 0.667679 -0.373087 0.644214
  outer loop
   vertex -0.169289 -0.19671 -0.140646
   vertex -0.199289 -0.248671 -0.139646
   vertex -0.198175 -0.249314 -0.141173
  endloop
 endfacet
 facet normal 0.544781 -0.299455 0.783288
  outer loop
   vertex -0.16682 -0.198135 -0.143414
   vertex -0.168175 -0.197353 -0.142173
   vertex -0.19682 -0.250096 -0.142414
  endloop
 endfacet
 facet normal 0.544781 -0.299455 0.783288
  outer loop
   vertex -0.168175 -0.197353 -0.142173
   vertex -0.198175 -0.249314 -0.141173
   vertex -0.19682 -0.250096 -0.142414
  endloop
 endfacet
 facet normal 0.40034 -0.213988 0.891031
  outer loop
   vertex -0.165279 -0.199025 -0.14432
   vertex -0.16682 -0.198135 -0.143414
   vertex -0.195279 -0.250986 -0.14332
  endloop
 endfacet
 facet normal 0.40034 -0.213988 0.891031
  outer loop
   vertex -0.16682 -0.198135 -0.143414
   vertex -0.19682 -0.250096 -0.142414
   vertex -0.195279 -0.250986 -0.14332
  endloop
 endfacet
 facet normal 0.246048 -0.123555 0.96135
  outer loop
   vertex -0.163738 -0.199915 -0.144829
   vertex -0.165279 -0.199025 -0.14432
   vertex -0.193738 -0.251876 -0.143829
  endloop
 endfacet
 facet normal 0.246048 -0.123555 0.96135
  outer loop
   vertex -0.165279 -0.199025 -0.14432
   vertex -0.195279 -0.250986 -0.14332
   vertex -0.193738 -0.251876 -0.143829
  endloop
 endfacet
 facet normal 0.088269 -0.031802 0.995589
  outer loop
   vertex -0.162141 -0.200836 -0.145
   vertex -0.163738 -0.199915 -0.144829
   vertex -0.192141 -0.252798 -0.144
  endloop
 endfacet
 facet normal 0.088269 -0.031802 0.995589
  outer loop
   vertex -0.163738 -0.199915 -0.144829
   vertex -0.193738 -0.251876 -0.143829
   vertex -0.192141 -0.252798 -0.144
  endloop
 endfacet
 facet normal 0.00833219 0.0144318 0.999861
  outer loop
   vertex -0.092859 -0.240836 -0.145
   vertex -0.162141 -0.200836 -0.145
   vertex -0.192141 -0.252798 -0.144
  endloop
 endfacet
 facet normal 0.00833219 0.0144318 0.999861
  outer loop
   vertex -0.092859 -0.240836 -0.145
   vertex -0.192141 -0.252798 -0.144
   vertex -0.122859 -0.292798 -0.144
  endloop
 endfacet
 facet normal -0.5 -0.866025 -3.21262e-16
  outer loop
   vertex -0.0897875 -0.311892 0.235579
   vertex -0.0928273 -0.310137 0.238689
   vertex -0.116647 -0.296385 0.202967
  endloop
 endfacet
 facet normal -0.5 -0.866025 -1.31832e-15
  outer loop
   vertex -0.086988 -0.313508 0.232183
   vertex -0.0897875 -0.311892 0.235579
   vertex -0.116647 -0.296385 0.202967
  endloop
 endfacet
 facet normal -0.5 -0.866025 -1.15618e-15
  outer loop
   vertex -0.0844492 -0.314974 0.228523
   vertex -0.086988 -0.313508 0.232183
   vertex -0.116647 -0.296385 0.202967
  endloop
 endfacet
 facet normal -0.5 -0.866025 3.53541e-16
  outer loop
   vertex -0.0960853 -0.308256 0.241487
   vertex -0.099538 -0.306262 0.243956
   vertex -0.117969 -0.295621 0.204253
  endloop
 endfacet
 facet normal -0.5 -0.866025 5.04736e-15
  outer loop
   vertex -0.0928273 -0.310137 0.238689
   vertex -0.0960853 -0.308256 0.241487
   vertex -0.117969 -0.295621 0.204253
  endloop
 endfacet
 facet normal -0.5 -0.866025 -9.41968e-16
  outer loop
   vertex -0.116647 -0.296385 0.202967
   vertex -0.0928273 -0.310137 0.238689
   vertex -0.117969 -0.295621 0.204253
  endloop
 endfacet
 facet normal -0.5 -0.866025 -2.57152e-16
  outer loop
   vertex -0.0821896 -0.316279 0.224626
   vertex -0.0844492 -0.314974 0.228523
   vertex -0.115572 -0.297005 0.201403
  endloop
 endfacet
 facet normal -0.5 -0.866025 -7.0699e-16
  outer loop
   vertex -0.0802255 -0.317412 0.220522
   vertex -0.0821896 -0.316279 0.224626
   vertex -0.115572 -0.297005 0.201403
  endloop
 endfacet
 facet normal -0.5 -0.866025 1.20645e-15
  outer loop
   vertex -0.0844492 -0.314974 0.228523
   vertex -0.116647 -0.296385 0.202967
   vertex -0.115572 -0.297005 0.201403
  endloop
 endfacet
 facet normal -0.5 -0.866025 -1.28601e-16
  outer loop
   vertex -0.10316 -0.304171 0.246075
   vertex -0.106925 -0.301997 0.247831
   vertex -0.119487 -0.294745 0.205211
  endloop
 endfacet
 facet normal -0.5 -0.866025 2.24956e-16
  outer loop
   vertex -0.099538 -0.306262 0.243956
   vertex -0.10316 -0.304171 0.246075
   vertex -0.119487 -0.294745 0.205211
  endloop
 endfacet
 facet normal -0.5 -0.866025 -3.76642e-17
  outer loop
   vertex -0.117969 -0.295621 0.204253
   vertex -0.099538 -0.306262 0.243956
   vertex -0.119487 -0.294745 0.205211
  endloop
 endfacet
 facet normal -0.5 -0.866025 -3.53519e-16
  outer loop
   vertex -0.0785713 -0.318368 0.216239
   vertex -0.0802255 -0.317412 0.220522
   vertex -0.114787 -0.297458 0.199623
  endloop
 endfacet
 facet normal -0.5 -0.866025 -3.21425e-16
  outer loop
   vertex -0.077239 -0.319137 0.211809
   vertex -0.0785713 -0.318368 0.216239
   vertex -0.114787 -0.297458 0.199623
  endloop
 endfacet
 facet normal -0.5 -0.866025 -2.4102e-15
  outer loop
   vertex -0.0802255 -0.317412 0.220522
   vertex -0.115572 -0.297005 0.201403
   vertex -0.114787 -0.297458 0.199623
  endloop
 endfacet
 facet normal -0.5 -0.866025 -1.84769e-16
  outer loop
   vertex -0.114775 -0.297465 0.250202
   vertex -0.118802 -0.29514 0.2508
   vertex -0.121139 -0.293791 0.205801
  endloop
 endfacet
 facet normal -0.5 -0.866025 -9.64561e-17
  outer loop
   vertex -0.110806 -0.299757 0.24921
   vertex -0.114775 -0.297465 0.250202
   vertex -0.121139 -0.293791 0.205801
  endloop
 endfacet
 facet normal -0.5 -0.866025 2.2482e-16
  outer loop
   vertex -0.106925 -0.301997 0.247831
   vertex -0.110806 -0.299757 0.24921
   vertex -0.121139 -0.293791 0.205801
  endloop
 endfacet
 facet normal -0.5 -0.866025 2.07405e-16
  outer loop
   vertex -0.119487 -0.294745 0.205211
   vertex -0.106925 -0.301997 0.247831
   vertex -0.121139 -0.293791 0.205801
  endloop
 endfacet
 facet normal -0.5 -0.866025 7.87241e-16
  outer loop
   vertex -0.0762382 -0.319714 0.207264
   vertex -0.077239 -0.319137 0.211809
   vertex -0.114347 -0.297712 0.197843
  endloop
 endfacet
 facet normal -0.5 -0.866025 -3.37513e-16
  outer loop
   vertex -0.0755763 -0.320097 0.202637
   vertex -0.0762382 -0.319714 0.207264
   vertex -0.114347 -0.297712 0.197843
  endloop
 endfacet
 facet normal -0.5 -0.866025 0
  outer loop
   vertex -0.077239 -0.319137 0.211809
   vertex -0.114787 -0.297458 0.199623
   vertex -0.114347 -0.297712 0.197843
  endloop
 endfacet
 facet normal -0.5 -0.866025 0
  outer loop
   vertex -0.118802 -0.29514 0.2508
   vertex -0.122859 -0.292798 0.251
   vertex -0.122859 -0.292798 0.206
  endloop
 endfacet
 facet normal -0.5 -0.866025 -5.65116e-17
  outer loop
   vertex -0.121139 -0.293791 0.205801
   vertex -0.118802 -0.29514 0.2508
   vertex -0.122859 -0.292798 0.206
  endloop
 endfacet
 facet normal -0.5 -0.866025 1.97788e-16
  outer loop
   vertex -0.0753149 -0.320248 0.199321
   vertex -0.0755763 -0.320097 0.202637
   vertex -0.114199 -0.297798 0.195999
  endloop
 endfacet
 facet normal -0.5 -0.866025 -1.24393e-15
  outer loop
   vertex -0.0752276 -0.320298 0.195992
   vertex -0.0753149 -0.320248 0.199321
   vertex -0.114199 -0.297798 0.195999
  endloop
 endfacet
 facet normal -0.5 -0.866025 0
  outer loop
   vertex -0.0755763 -0.320097 0.202637
   vertex -0.114347 -0.297712 0.197843
   vertex -0.114199 -0.297798 0.195999
  endloop
 endfacet
 facet normal -0.5 -0.866025 0
  outer loop
   vertex -0.122859 -0.292798 0.251
   vertex -0.192141 -0.252798 0.251
   vertex -0.192141 -0.252798 0.206
  endloop
 endfacet
 facet normal -0.5 -0.866025 -0
  outer loop
   vertex -0.192141 -0.252798 0.251
   vertex -0.196198 -0.250456 0.2508
   vertex -0.192141 -0.252798 0.206
  endloop
 endfacet
 facet normal -0.5 -0.866025 0
  outer loop
   vertex -0.122859 -0.292798 0.206
   vertex -0.122859 -0.292798 0.251
   vertex -0.192141 -0.252798 0.206
  endloop
 endfacet
 facet normal -0.5 -0.866025 -1.20502e-16
  outer loop
   vertex -0.196198 -0.250456 0.2508
   vertex -0.200225 -0.248131 0.250202
   vertex -0.193861 -0.251805 0.205801
  endloop
 endfacet
 facet normal -0.5 -0.866025 6.18927e-16
  outer loop
   vertex -0.200225 -0.248131 0.250202
   vertex -0.204194 -0.245839 0.24921
   vertex -0.193861 -0.251805 0.205801
  endloop
 endfacet
 facet normal -0.5 -0.866025 -1.1241e-16
  outer loop
   vertex -0.204194 -0.245839 0.24921
   vertex -0.208075 -0.243599 0.247831
   vertex -0.193861 -0.251805 0.205801
  endloop
 endfacet
 facet normal -0.5 -0.866025 5.65116e-17
  outer loop
   vertex -0.192141 -0.252798 0.206
   vertex -0.196198 -0.250456 0.2508
   vertex -0.193861 -0.251805 0.205801
  endloop
 endfacet
 facet normal -0.5 -0.866025 1.88078e-15
  outer loop
   vertex -0.208075 -0.243599 0.247831
   vertex -0.21184 -0.241425 0.246075
   vertex -0.195513 -0.250851 0.205211
  endloop
 endfacet
 facet normal -0.5 -0.866025 -3.85639e-16
  outer loop
   vertex -0.21184 -0.241425 0.246075
   vertex -0.215462 -0.239334 0.243956
   vertex -0.195513 -0.250851 0.205211
  endloop
 endfacet
 facet normal -0.5 -0.866025 1.71581e-15
  outer loop
   vertex -0.193861 -0.251805 0.205801
   vertex -0.208075 -0.243599 0.247831
   vertex -0.195513 -0.250851 0.205211
  endloop
 endfacet
 facet normal -0.5 -0.866025 1.2856e-16
  outer loop
   vertex -0.215462 -0.239334 0.243956
   vertex -0.218915 -0.23734 0.241487
   vertex -0.197031 -0.249975 0.204253
  endloop
 endfacet
 facet normal -0.5 -0.866025 1.15736e-15
  outer loop
   vertex -0.218915 -0.23734 0.241487
   vertex -0.222173 -0.235459 0.238689
   vertex -0.197031 -0.249975 0.204253
  endloop
 endfacet
 facet normal -0.5 -0.866025 -1.12992e-15
  outer loop
   vertex -0.195513 -0.250851 0.205211
   vertex -0.215462 -0.239334 0.243956
   vertex -0.197031 -0.249975 0.204253
  endloop
 endfacet
 facet normal -0.5 -0.866025 -7.19664e-15
  outer loop
   vertex -0.197031 -0.249975 0.204253
   vertex -0.222173 -0.235459 0.238689
   vertex -0.198353 -0.249211 0.202967
  endloop
 endfacet
 facet normal -0.5 -0.866025 4.1764e-16
  outer loop
   vertex -0.222173 -0.235459 0.238689
   vertex -0.225213 -0.233704 0.235579
   vertex -0.198353 -0.249211 0.202967
  endloop
 endfacet
 facet normal -0.5 -0.866025 -7.71697e-16
  outer loop
   vertex -0.198353 -0.249211 0.202967
   vertex -0.225213 -0.233704 0.235579
   vertex -0.228012 -0.232088 0.232183
  endloop
 endfacet
 facet normal -0.5 -0.866025 2.05542e-15
  outer loop
   vertex -0.198353 -0.249211 0.202967
   vertex -0.228012 -0.232088 0.232183
   vertex -0.230551 -0.230622 0.228523
  endloop
 endfacet
 facet normal -0.5 -0.866025 -2.11128e-15
  outer loop
   vertex -0.199428 -0.248591 0.201403
   vertex -0.198353 -0.249211 0.202967
   vertex -0.230551 -0.230622 0.228523
  endloop
 endfacet
 facet normal -0.5 -0.866025 -1.54291e-15
  outer loop
   vertex -0.199428 -0.248591 0.201403
   vertex -0.230551 -0.230622 0.228523
   vertex -0.23281 -0.229317 0.224626
  endloop
 endfacet
 facet normal -0.5 -0.866025 -1.02835e-15
  outer loop
   vertex -0.199428 -0.248591 0.201403
   vertex -0.23281 -0.229317 0.224626
   vertex -0.234774 -0.228184 0.220522
  endloop
 endfacet
 facet normal -0.5 -0.866025 2.33488e-15
  outer loop
   vertex -0.200213 -0.248138 0.199623
   vertex -0.199428 -0.248591 0.201403
   vertex -0.234774 -0.228184 0.220522
  endloop
 endfacet
 facet normal -0.5 -0.866025 1.02842e-15
  outer loop
   vertex -0.200213 -0.248138 0.199623
   vertex -0.234774 -0.228184 0.220522
   vertex -0.236429 -0.227228 0.216239
  endloop
 endfacet
 facet normal -0.5 -0.866025 1.54284e-15
  outer loop
   vertex -0.200213 -0.248138 0.199623
   vertex -0.236429 -0.227228 0.216239
   vertex -0.237761 -0.226459 0.211809
  endloop
 endfacet
 facet normal -0.5 -0.866025 -4.67349e-16
  outer loop
   vertex -0.200653 -0.247884 0.197843
   vertex -0.200213 -0.248138 0.199623
   vertex -0.237761 -0.226459 0.211809
  endloop
 endfacet
 facet normal -0.5 -0.866025 -2.57058e-15
  outer loop
   vertex -0.200653 -0.247884 0.197843
   vertex -0.237761 -0.226459 0.211809
   vertex -0.238762 -0.225882 0.207264
  endloop
 endfacet
 facet normal -0.5 -0.866025 1.54292e-15
  outer loop
   vertex -0.200653 -0.247884 0.197843
   vertex -0.238762 -0.225882 0.207264
   vertex -0.239424 -0.225499 0.202637
  endloop
 endfacet
 facet normal -0.5 -0.866025 -3.27637e-15
  outer loop
   vertex -0.200801 -0.247798 0.195999
   vertex -0.200653 -0.247884 0.197843
   vertex -0.239424 -0.225499 0.202637
  endloop
 endfacet
 facet normal -0.5 -0.866025 -7.23338e-16
  outer loop
   vertex -0.200801 -0.247798 0.195999
   vertex -0.239424 -0.225499 0.202637
   vertex -0.239685 -0.225348 0.199321
  endloop
 endfacet
 facet normal -0.5 -0.866025 -1.44749e-15
  outer loop
   vertex -0.200801 -0.247798 0.195999
   vertex -0.239685 -0.225348 0.199321
   vertex -0.239772 -0.225298 0.195992
  endloop
 endfacet
 facet normal -0.5 -0.866025 0
  outer loop
   vertex -0.0752276 -0.320298 -0.133992
   vertex -0.0752276 -0.320298 0.195992
   vertex -0.114199 -0.297798 -0.133999
  endloop
 endfacet
 facet normal -0.5 -0.866025 -1.97788e-16
  outer loop
   vertex -0.0755763 -0.320097 -0.140637
   vertex -0.0753149 -0.320248 -0.137321
   vertex -0.114199 -0.297798 -0.133999
  endloop
 endfacet
 facet normal -0.5 -0.866025 1.24677e-15
  outer loop
   vertex -0.0753149 -0.320248 -0.137321
   vertex -0.0752276 -0.320298 -0.133992
   vertex -0.114199 -0.297798 -0.133999
  endloop
 endfacet
 facet normal -0.5 -0.866025 0
  outer loop
   vertex -0.0752276 -0.320298 0.195992
   vertex -0.114199 -0.297798 0.195999
   vertex -0.114199 -0.297798 -0.133999
  endloop
 endfacet
 facet normal -0.5 -0.866025 0
  outer loop
   vertex -0.0755763 -0.320097 -0.140637
   vertex -0.114199 -0.297798 -0.133999
   vertex -0.114347 -0.297712 -0.135843
  endloop
 endfacet
 facet normal -0.5 -0.866025 -7.87239e-16
  outer loop
   vertex -0.077239 -0.319137 -0.149809
   vertex -0.0762382 -0.319714 -0.145264
   vertex -0.114347 -0.297712 -0.135843
  endloop
 endfacet
 facet normal -0.5 -0.866025 3.29477e-16
  outer loop
   vertex -0.0762382 -0.319714 -0.145264
   vertex -0.0755763 -0.320097 -0.140637
   vertex -0.114347 -0.297712 -0.135843
  endloop
 endfacet
 facet normal -0.5 -0.866025 3.53519e-16
  outer loop
   vertex -0.0802255 -0.317412 -0.158522
   vertex -0.0785713 -0.318368 -0.154239
   vertex -0.114787 -0.297458 -0.137623
  endloop
 endfacet
 facet normal -0.5 -0.866025 3.21425e-16
  outer loop
   vertex -0.0785713 -0.318368 -0.154239
   vertex -0.077239 -0.319137 -0.149809
   vertex -0.114787 -0.297458 -0.137623
  endloop
 endfacet
 facet normal -0.5 -0.866025 0
  outer loop
   vertex -0.077239 -0.319137 -0.149809
   vertex -0.114347 -0.297712 -0.135843
   vertex -0.114787 -0.297458 -0.137623
  endloop
 endfacet
 facet normal -0.5 -0.866025 2.4102e-15
  outer loop
   vertex -0.0802255 -0.317412 -0.158522
   vertex -0.114787 -0.297458 -0.137623
   vertex -0.115572 -0.297005 -0.139403
  endloop
 endfacet
 facet normal -0.5 -0.866025 2.57152e-16
  outer loop
   vertex -0.0844492 -0.314974 -0.166523
   vertex -0.0821896 -0.316279 -0.162626
   vertex -0.115572 -0.297005 -0.139403
  endloop
 endfacet
 facet normal -0.5 -0.866025 7.0699e-16
  outer loop
   vertex -0.0821896 -0.316279 -0.162626
   vertex -0.0802255 -0.317412 -0.158522
   vertex -0.115572 -0.297005 -0.139403
  endloop
 endfacet
 facet normal -0.5 -0.866025 -1.20645e-15
  outer loop
   vertex -0.0844492 -0.314974 -0.166523
   vertex -0.115572 -0.297005 -0.139403
   vertex -0.116647 -0.296385 -0.140967
  endloop
 endfacet
 facet normal -0.5 -0.866025 1.15617e-15
  outer loop
   vertex -0.086988 -0.313508 -0.170183
   vertex -0.0844492 -0.314974 -0.166523
   vertex -0.116647 -0.296385 -0.140967
  endloop
 endfacet
 facet normal -0.5 -0.866025 1.31832e-15
  outer loop
   vertex -0.086988 -0.313508 -0.170183
   vertex -0.116647 -0.296385 -0.140967
   vertex -0.0897875 -0.311892 -0.173579
  endloop
 endfacet
 facet normal -0.5 -0.866025 9.41968e-16
  outer loop
   vertex -0.116647 -0.296385 -0.140967
   vertex -0.117969 -0.295621 -0.142253
   vertex -0.0928273 -0.310137 -0.176689
  endloop
 endfacet
 facet normal -0.5 -0.866025 3.21262e-16
  outer loop
   vertex -0.0897875 -0.311892 -0.173579
   vertex -0.116647 -0.296385 -0.140967
   vertex -0.0928273 -0.310137 -0.176689
  endloop
 endfacet
 facet normal -0.5 -0.866025 -5.04735e-15
  outer loop
   vertex -0.0928273 -0.310137 -0.176689
   vertex -0.117969 -0.295621 -0.142253
   vertex -0.0960853 -0.308256 -0.179487
  endloop
 endfacet
 facet normal -0.5 -0.866025 3.7664e-17
  outer loop
   vertex -0.117969 -0.295621 -0.142253
   vertex -0.119487 -0.294745 -0.143211
   vertex -0.099538 -0.306262 -0.181956
  endloop
 endfacet
 facet normal -0.5 -0.866025 -3.53542e-16
  outer loop
   vertex -0.0960853 -0.308256 -0.179487
   vertex -0.117969 -0.295621 -0.142253
   vertex -0.099538 -0.306262 -0.181956
  endloop
 endfacet
 facet normal -0.5 -0.866025 -2.24956e-16
  outer loop
   vertex -0.099538 -0.306262 -0.181956
   vertex -0.119487 -0.294745 -0.143211
   vertex -0.10316 -0.304171 -0.184075
  endloop
 endfacet
 facet normal -0.5 -0.866025 -2.07405e-16
  outer loop
   vertex -0.119487 -0.294745 -0.143211
   vertex -0.121139 -0.293791 -0.143801
   vertex -0.106925 -0.301997 -0.185831
  endloop
 endfacet
 facet normal -0.5 -0.866025 1.28601e-16
  outer loop
   vertex -0.10316 -0.304171 -0.184075
   vertex -0.119487 -0.294745 -0.143211
   vertex -0.106925 -0.301997 -0.185831
  endloop
 endfacet
 facet normal -0.5 -0.866025 -2.2482e-16
  outer loop
   vertex -0.106925 -0.301997 -0.185831
   vertex -0.121139 -0.293791 -0.143801
   vertex -0.110806 -0.299757 -0.18721
  endloop
 endfacet
 facet normal -0.5 -0.866025 9.64561e-17
  outer loop
   vertex -0.110806 -0.299757 -0.18721
   vertex -0.121139 -0.293791 -0.143801
   vertex -0.114775 -0.297465 -0.188202
  endloop
 endfacet
 facet normal -0.5 -0.866025 1.84769e-16
  outer loop
   vertex -0.114775 -0.297465 -0.188202
   vertex -0.121139 -0.293791 -0.143801
   vertex -0.118802 -0.29514 -0.1888
  endloop
 endfacet
 facet normal -0.5 -0.866025 5.65116e-17
  outer loop
   vertex -0.121139 -0.293791 -0.143801
   vertex -0.122859 -0.292798 -0.144
   vertex -0.118802 -0.29514 -0.1888
  endloop
 endfacet
 facet normal -0.5 -0.866025 0
  outer loop
   vertex -0.118802 -0.29514 -0.1888
   vertex -0.122859 -0.292798 -0.144
   vertex -0.122859 -0.292798 -0.189
  endloop
 endfacet
 facet normal -0.5 -0.866025 0
  outer loop
   vertex -0.122859 -0.292798 -0.189
   vertex -0.122859 -0.292798 -0.144
   vertex -0.192141 -0.252798 -0.144
  endloop
 endfacet
 facet normal -0.5 -0.866025 0
  outer loop
   vertex -0.200801 -0.247798 0.195999
   vertex -0.239772 -0.225298 0.195992
   vertex -0.239772 -0.225298 -0.133992
  endloop
 endfacet
 facet normal -0.5 -0.866025 0
  outer loop
   vertex -0.200801 -0.247798 -0.133999
   vertex -0.200801 -0.247798 0.195999
   vertex -0.239772 -0.225298 -0.133992
  endloop
 endfacet
 facet normal -0.5 -0.866025 0
  outer loop
   vertex -0.122859 -0.292798 -0.189
   vertex -0.192141 -0.252798 -0.144
   vertex -0.192141 -0.252798 -0.189
  endloop
 endfacet
 facet normal -0.5 -0.866025 0
  outer loop
   vertex -0.192141 -0.252798 -0.189
   vertex -0.192141 -0.252798 -0.144
   vertex -0.195023 -0.251134 -0.188899
  endloop
 endfacet
 facet normal -0.5 -0.866025 1.49725e-15
  outer loop
   vertex -0.200629 -0.247898 -0.135986
   vertex -0.200801 -0.247798 -0.133999
   vertex -0.239599 -0.225398 -0.138678
  endloop
 endfacet
 facet normal -0.5 -0.866025 5.1416e-16
  outer loop
   vertex -0.200801 -0.247798 -0.133999
   vertex -0.239772 -0.225298 -0.133992
   vertex -0.239599 -0.225398 -0.138678
  endloop
 endfacet
 facet normal -0.5 -0.866025 -1.24349e-16
  outer loop
   vertex -0.195023 -0.251134 -0.188899
   vertex -0.192141 -0.252798 -0.144
   vertex -0.197894 -0.249477 -0.188597
  endloop
 endfacet
 facet normal -0.5 -0.866025 9.14608e-16
  outer loop
   vertex -0.192141 -0.252798 -0.144
   vertex -0.193738 -0.251876 -0.143829
   vertex -0.197894 -0.249477 -0.188597
  endloop
 endfacet
 facet normal -0.5 -0.866025 -1.54223e-15
  outer loop
   vertex -0.200629 -0.247898 -0.135986
   vertex -0.239599 -0.225398 -0.138678
   vertex -0.239081 -0.225697 -0.143329
  endloop
 endfacet
 facet normal -0.5 -0.866025 7.47512e-16
  outer loop
   vertex -0.197894 -0.249477 -0.188597
   vertex -0.193738 -0.251876 -0.143829
   vertex -0.2019 -0.247164 -0.187833
  endloop
 endfacet
 facet normal -0.5 -0.866025 1.02856e-15
  outer loop
   vertex -0.200629 -0.247898 -0.135986
   vertex -0.239081 -0.225697 -0.143329
   vertex -0.238222 -0.226193 -0.147913
  endloop
 endfacet
 facet normal -0.5 -0.866025 -2.78305e-15
  outer loop
   vertex -0.193738 -0.251876 -0.143829
   vertex -0.195279 -0.250986 -0.14332
   vertex -0.205835 -0.244892 -0.186677
  endloop
 endfacet
 facet normal -0.5 -0.866025 -3.21365e-17
  outer loop
   vertex -0.2019 -0.247164 -0.187833
   vertex -0.193738 -0.251876 -0.143829
   vertex -0.205835 -0.244892 -0.186677
  endloop
 endfacet
 facet normal -0.5 -0.866025 1.15031e-15
  outer loop
   vertex -0.200118 -0.248193 -0.137893
   vertex -0.200629 -0.247898 -0.135986
   vertex -0.237028 -0.226883 -0.152395
  endloop
 endfacet
 facet normal -0.5 -0.866025 2.0553e-15
  outer loop
   vertex -0.200629 -0.247898 -0.135986
   vertex -0.238222 -0.226193 -0.147913
   vertex -0.237028 -0.226883 -0.152395
  endloop
 endfacet
 facet normal -0.5 -0.866025 -3.05406e-16
  outer loop
   vertex -0.205835 -0.244892 -0.186677
   vertex -0.195279 -0.250986 -0.14332
   vertex -0.209671 -0.242677 -0.185139
  endloop
 endfacet
 facet normal -0.5 -0.866025 -2.05757e-15
  outer loop
   vertex -0.200118 -0.248193 -0.137893
   vertex -0.237028 -0.226883 -0.152395
   vertex -0.235507 -0.22776 -0.156743
  endloop
 endfacet
 facet normal -0.5 -0.866025 1.80809e-15
  outer loop
   vertex -0.195279 -0.250986 -0.14332
   vertex -0.19682 -0.250096 -0.142414
   vertex -0.21338 -0.240536 -0.183229
  endloop
 endfacet
 facet normal -0.5 -0.866025 -1.22144e-15
  outer loop
   vertex -0.209671 -0.242677 -0.185139
   vertex -0.195279 -0.250986 -0.14332
   vertex -0.21338 -0.240536 -0.183229
  endloop
 endfacet
 facet normal -0.5 -0.866025 3.16341e-15
  outer loop
   vertex -0.199289 -0.248671 -0.139646
   vertex -0.200118 -0.248193 -0.137893
   vertex -0.233672 -0.22882 -0.160926
  endloop
 endfacet
 facet normal -0.5 -0.866025 1.02822e-15
  outer loop
   vertex -0.200118 -0.248193 -0.137893
   vertex -0.235507 -0.22776 -0.156743
   vertex -0.233672 -0.22882 -0.160926
  endloop
 endfacet
 facet normal -0.5 -0.866025 4.49892e-16
  outer loop
   vertex -0.21338 -0.240536 -0.183229
   vertex -0.19682 -0.250096 -0.142414
   vertex -0.216934 -0.238484 -0.180961
  endloop
 endfacet
 facet normal -0.5 -0.866025 -1.54258e-15
  outer loop
   vertex -0.199289 -0.248671 -0.139646
   vertex -0.233672 -0.22882 -0.160926
   vertex -0.231535 -0.230054 -0.164914
  endloop
 endfacet
 facet normal -0.5 -0.866025 7.76679e-15
  outer loop
   vertex -0.19682 -0.250096 -0.142414
   vertex -0.198175 -0.249314 -0.141173
   vertex -0.220308 -0.236536 -0.178352
  endloop
 endfacet
 facet normal -0.5 -0.866025 -2.31485e-15
  outer loop
   vertex -0.216934 -0.238484 -0.180961
   vertex -0.19682 -0.250096 -0.142414
   vertex -0.220308 -0.236536 -0.178352
  endloop
 endfacet
 facet normal -0.5 -0.866025 -4.63432e-15
  outer loop
   vertex -0.198175 -0.249314 -0.141173
   vertex -0.199289 -0.248671 -0.139646
   vertex -0.229111 -0.231453 -0.168676
  endloop
 endfacet
 facet normal -0.5 -0.866025 -5.14344e-16
  outer loop
   vertex -0.199289 -0.248671 -0.139646
   vertex -0.231535 -0.230054 -0.164914
   vertex -0.229111 -0.231453 -0.168676
  endloop
 endfacet
 facet normal -0.5 -0.866025 2.50505e-15
  outer loop
   vertex -0.220308 -0.236536 -0.178352
   vertex -0.198175 -0.249314 -0.141173
   vertex -0.223477 -0.234706 -0.17542
  endloop
 endfacet
 facet normal -0.5 -0.866025 1.02805e-15
  outer loop
   vertex -0.198175 -0.249314 -0.141173
   vertex -0.229111 -0.231453 -0.168676
   vertex -0.226418 -0.233008 -0.172187
  endloop
 endfacet
 facet normal -0.5 -0.866025 -1.47885e-15
  outer loop
   vertex -0.223477 -0.234706 -0.17542
   vertex -0.198175 -0.249314 -0.141173
   vertex -0.226418 -0.233008 -0.172187
  endloop
 endfacet
endsolid patch0
