solid patch0
  facet normal 0.664794 -0.747027 0
    outer loop
       vertex 0.0192836 -0.0229813 0.06
       vertex 0.0192836 -0.0229813 0
       vertex 0.0205872 -0.0218212 0
    endloop
  endfacet
  facet normal 0.707107 -0.707107 0
    outer loop
       vertex 0.0218212 -0.0205872 0.06
       vertex 0.0205872 -0.0218212 0.06
       vertex 0.0218212 -0.0205872 0
    endloop
  endfacet
  facet normal 0.747027 -0.664794 0
    outer loop
       vertex 0.0229813 -0.0192836 0.06
       vertex 0.0218212 -0.0205872 0.06
       vertex 0.0218212 -0.0205872 0
    endloop
  endfacet
  facet normal 0.707107 -0.707107 0
    outer loop
       vertex 0.0205872 -0.0218212 0.06
       vertex 0.0205872 -0.0218212 0
       vertex 0.0218212 -0.0205872 0
    endloop
  endfacet
  facet normal 0.747027 -0.664794 0
    outer loop
       vertex 0.0229813 -0.0192836 0.06
       vertex 0.0218212 -0.0205872 0
       vertex 0.0229813 -0.0192836 0
    endloop
  endfacet
  facet normal 0.999576 0.0291104 0
    outer loop
       vertex 0.03 0 0.06
       vertex 0.03 0 0
       vertex 0.0299492 0.00174434 0
    endloop
  endfacet
  facet normal 0.999576 0.0291104 0
    outer loop
       vertex 0.0299492 0.00174434 0.06
       vertex 0.03 0 0.06
       vertex 0.0299492 0.00174434 0
    endloop
  endfacet
  facet normal 0.784389 -0.620269 0
    outer loop
       vertex 0.0240637 -0.0179148 0.06
       vertex 0.0229813 -0.0192836 0.06
       vertex 0.0240637 -0.0179148 0
    endloop
  endfacet
  facet normal 0.784389 -0.620269 0
    outer loop
       vertex 0.0229813 -0.0192836 0.06
       vertex 0.0229813 -0.0192836 0
       vertex 0.0240637 -0.0179148 0
    endloop
  endfacet
  facet normal 0.996199 0.0871015 0
    outer loop
       vertex 0.0297972 0.00348279 0.06
       vertex 0.0299492 0.00174434 0.06
       vertex 0.0297972 0.00348279 0
    endloop
  endfacet
  facet normal 0.819165 -0.573558 0
    outer loop
       vertex 0.0250646 -0.0164853 0.06
       vertex 0.0240637 -0.0179148 0.06
       vertex 0.0250646 -0.0164853 0
    endloop
  endfacet
  facet normal 0.851103 -0.524999 0
    outer loop
       vertex 0.0259808 -0.015 0.06
       vertex 0.0250646 -0.0164853 0.06
       vertex 0.0250646 -0.0164853 0
    endloop
  endfacet
  facet normal 0.996199 0.0871015 0
    outer loop
       vertex 0.0299492 0.00174434 0.06
       vertex 0.0299492 0.00174434 0
       vertex 0.0297972 0.00348279 0
    endloop
  endfacet
  facet normal 0.819165 -0.573558 0
    outer loop
       vertex 0.0240637 -0.0179148 0.06
       vertex 0.0240637 -0.0179148 0
       vertex 0.0250646 -0.0164853 0
    endloop
  endfacet
  facet normal 0.989435 0.144977 0
    outer loop
       vertex 0.0295442 0.00520945 0.06
       vertex 0.0297972 0.00348279 0.06
       vertex 0.0295442 0.00520945 0
    endloop
  endfacet
  facet normal 0.851103 -0.524999 0
    outer loop
       vertex 0.0259808 -0.015 0.06
       vertex 0.0250646 -0.0164853 0
       vertex 0.0259808 -0.015 0
    endloop
  endfacet
  facet normal 0.979339 0.202225 0
    outer loop
       vertex 0.0291913 0.00691848 0.06
       vertex 0.0295442 0.00520945 0.06
       vertex 0.0295442 0.00520945 0
    endloop
  endfacet
  facet normal 0.989435 0.144977 0
    outer loop
       vertex 0.0297972 0.00348279 0.06
       vertex 0.0297972 0.00348279 0
       vertex 0.0295442 0.00520945 0
    endloop
  endfacet
  facet normal 0.880202 -0.474598 0
    outer loop
       vertex 0.026809 -0.013464 0.06
       vertex 0.0259808 -0.015 0.06
       vertex 0.026809 -0.013464 0
    endloop
  endfacet
  facet normal 0.880202 -0.474598 0
    outer loop
       vertex 0.0259808 -0.015 0.06
       vertex 0.0259808 -0.015 0
       vertex 0.026809 -0.013464 0
    endloop
  endfacet
  facet normal 0.979339 0.202225 0
    outer loop
       vertex 0.0291913 0.00691848 0.06
       vertex 0.0295442 0.00520945 0
       vertex 0.0291913 0.00691848 0
    endloop
  endfacet
  facet normal 0.90631 -0.422613 0
    outer loop
       vertex 0.0275465 -0.0118824 0.06
       vertex 0.026809 -0.013464 0.06
       vertex 0.0275465 -0.0118824 0
    endloop
  endfacet
  facet normal 0.929348 -0.369206 0
    outer loop
       vertex 0.0281908 -0.0102606 0.06
       vertex 0.0275465 -0.0118824 0.06
       vertex 0.0275465 -0.0118824 0
    endloop
  endfacet
  facet normal 0.965934 0.258787 0
    outer loop
       vertex 0.0287397 0.0086041 0.06
       vertex 0.0291913 0.00691848 0.06
       vertex 0.0287397 0.0086041 0
    endloop
  endfacet
  facet normal 0.90631 -0.422613 0
    outer loop
       vertex 0.026809 -0.013464 0.06
       vertex 0.026809 -0.013464 0
       vertex 0.0275465 -0.0118824 0
    endloop
  endfacet
  facet normal 0.965934 0.258787 0
    outer loop
       vertex 0.0291913 0.00691848 0.06
       vertex 0.0291913 0.00691848 0
       vertex 0.0287397 0.0086041 0
    endloop
  endfacet
  facet normal 0.929348 -0.369206 0
    outer loop
       vertex 0.0281908 -0.0102606 0.06
       vertex 0.0275465 -0.0118824 0
       vertex 0.0281908 -0.0102606 0
    endloop
  endfacet
  facet normal 0.949244 0.314542 0
    outer loop
       vertex 0.0281908 0.0102606 0.06
       vertex 0.0287397 0.0086041 0.06
       vertex 0.0281908 0.0102606 0
    endloop
  endfacet
  facet normal 0.929348 0.369206 0
    outer loop
       vertex 0.0275465 0.0118824 0.06
       vertex 0.0281908 0.0102606 0.06
       vertex 0.0281908 0.0102606 0
    endloop
  endfacet
  facet normal 0.949244 0.314542 0
    outer loop
       vertex 0.0287397 0.0086041 0.06
       vertex 0.0287397 0.0086041 0
       vertex 0.0281908 0.0102606 0
    endloop
  endfacet
  facet normal 0.949244 -0.314542 0
    outer loop
       vertex 0.0287397 -0.0086041 0.06
       vertex 0.0281908 -0.0102606 0.06
       vertex 0.0287397 -0.0086041 0
    endloop
  endfacet
  facet normal 0.949244 -0.314542 0
    outer loop
       vertex 0.0281908 -0.0102606 0.06
       vertex 0.0281908 -0.0102606 0
       vertex 0.0287397 -0.0086041 0
    endloop
  endfacet
  facet normal 0.929348 0.369206 0
    outer loop
       vertex 0.0275465 0.0118824 0.06
       vertex 0.0281908 0.0102606 0
       vertex 0.0275465 0.0118824 0
    endloop
  endfacet
  facet normal 0.965934 -0.258787 0
    outer loop
       vertex 0.0291913 -0.00691848 0.06
       vertex 0.0287397 -0.0086041 0.06
       vertex 0.0291913 -0.00691848 0
    endloop
  endfacet
  facet normal 0.979339 -0.202225 0
    outer loop
       vertex 0.0295442 -0.00520945 0.06
       vertex 0.0291913 -0.00691848 0.06
       vertex 0.0291913 -0.00691848 0
    endloop
  endfacet
  facet normal 0.965934 -0.258787 0
    outer loop
       vertex 0.0287397 -0.0086041 0.06
       vertex 0.0287397 -0.0086041 0
       vertex 0.0291913 -0.00691848 0
    endloop
  endfacet
  facet normal 0.90631 0.422613 0
    outer loop
       vertex 0.026809 0.013464 0.06
       vertex 0.0275465 0.0118824 0.06
       vertex 0.026809 0.013464 0
    endloop
  endfacet
  facet normal 0.90631 0.422613 0
    outer loop
       vertex 0.0275465 0.0118824 0.06
       vertex 0.0275465 0.0118824 0
       vertex 0.026809 0.013464 0
    endloop
  endfacet
  facet normal 0.979339 -0.202225 0
    outer loop
       vertex 0.0295442 -0.00520945 0.06
       vertex 0.0291913 -0.00691848 0
       vertex 0.0295442 -0.00520945 0
    endloop
  endfacet
  facet normal 0.880202 0.474598 0
    outer loop
       vertex 0.0259808 0.015 0.06
       vertex 0.026809 0.013464 0.06
       vertex 0.0259808 0.015 0
    endloop
  endfacet
  facet normal 0.880202 0.474598 0
    outer loop
       vertex 0.026809 0.013464 0.06
       vertex 0.026809 0.013464 0
       vertex 0.0259808 0.015 0
    endloop
  endfacet
  facet normal 0.989435 -0.144977 0
    outer loop
       vertex 0.0297972 -0.00348279 0.06
       vertex 0.0295442 -0.00520945 0.06
       vertex 0.0297972 -0.00348279 0
    endloop
  endfacet
  facet normal 0.996199 -0.0871015 0
    outer loop
       vertex 0.0299492 -0.00174434 0.06
       vertex 0.0297972 -0.00348279 0.06
       vertex 0.0297972 -0.00348279 0
    endloop
  endfacet
  facet normal 0.989435 -0.144977 0
    outer loop
       vertex 0.0295442 -0.00520945 0.06
       vertex 0.0295442 -0.00520945 0
       vertex 0.0297972 -0.00348279 0
    endloop
  endfacet
  facet normal 0.996199 -0.0871015 0
    outer loop
       vertex 0.0299492 -0.00174434 0.06
       vertex 0.0297972 -0.00348279 0
       vertex 0.0299492 -0.00174434 0
    endloop
  endfacet
  facet normal 0.851103 0.524999 0
    outer loop
       vertex 0.0250646 0.0164853 0.06
       vertex 0.0259808 0.015 0.06
       vertex 0.0250646 0.0164853 0
    endloop
  endfacet
  facet normal 0.851103 0.524999 0
    outer loop
       vertex 0.0259808 0.015 0.06
       vertex 0.0259808 0.015 0
       vertex 0.0250646 0.0164853 0
    endloop
  endfacet
  facet normal 0.999576 -0.0291104 0
    outer loop
       vertex 0.03 0 0.06
       vertex 0.0299492 -0.00174434 0.06
       vertex 0.03 0 0
    endloop
  endfacet
  facet normal 0.999576 -0.0291104 0
    outer loop
       vertex 0.0299492 -0.00174434 0.06
       vertex 0.0299492 -0.00174434 0
       vertex 0.03 0 0
    endloop
  endfacet
  facet normal 0.819165 0.573558 0
    outer loop
       vertex 0.0240637 0.0179148 0.06
       vertex 0.0250646 0.0164853 0.06
       vertex 0.0240637 0.0179148 0
    endloop
  endfacet
  facet normal 0.819165 0.573558 0
    outer loop
       vertex 0.0250646 0.0164853 0.06
       vertex 0.0250646 0.0164853 0
       vertex 0.0240637 0.0179148 0
    endloop
  endfacet
  facet normal 0.784389 0.620269 0
    outer loop
       vertex 0.0229813 0.0192836 0.06
       vertex 0.0240637 0.0179148 0.06
       vertex 0.0229813 0.0192836 0
    endloop
  endfacet
  facet normal 0.747027 0.664794 0
    outer loop
       vertex 0.0218212 0.0205872 0.06
       vertex 0.0229813 0.0192836 0.06
       vertex 0.0229813 0.0192836 0
    endloop
  endfacet
  facet normal 0.784389 0.620269 0
    outer loop
       vertex 0.0240637 0.0179148 0.06
       vertex 0.0240637 0.0179148 0
       vertex 0.0229813 0.0192836 0
    endloop
  endfacet
  facet normal 0.747027 0.664794 0
    outer loop
       vertex 0.0218212 0.0205872 0.06
       vertex 0.0229813 0.0192836 0
       vertex 0.0218212 0.0205872 0
    endloop
  endfacet
  facet normal 0.707107 0.707107 0
    outer loop
       vertex 0.0205872 0.0218212 0.06
       vertex 0.0218212 0.0205872 0.06
       vertex 0.0205872 0.0218212 0
    endloop
  endfacet
  facet normal 0.707107 0.707107 0
    outer loop
       vertex 0.0218212 0.0205872 0.06
       vertex 0.0218212 0.0205872 0
       vertex 0.0205872 0.0218212 0
    endloop
  endfacet
  facet normal 0.664794 0.747027 0
    outer loop
       vertex 0.0192836 0.0229813 0.06
       vertex 0.0205872 0.0218212 0.06
       vertex 0.0192836 0.0229813 0
    endloop
  endfacet
  facet normal 0.664794 0.747027 0
    outer loop
       vertex 0.0205872 0.0218212 0.06
       vertex 0.0205872 0.0218212 0
       vertex 0.0192836 0.0229813 0
    endloop
  endfacet
  facet normal 0.620269 0.784389 0
    outer loop
       vertex 0.0179148 0.0240637 0.06
       vertex 0.0192836 0.0229813 0.06
       vertex 0.0179148 0.0240637 0
    endloop
  endfacet
  facet normal 0.620269 0.784389 0
    outer loop
       vertex 0.0192836 0.0229813 0.06
       vertex 0.0192836 0.0229813 0
       vertex 0.0179148 0.0240637 0
    endloop
  endfacet
  facet normal 0.573558 0.819165 0
    outer loop
       vertex 0.0164853 0.0250646 0.06
       vertex 0.0179148 0.0240637 0.06
       vertex 0.0164853 0.0250646 0
    endloop
  endfacet
  facet normal 0.524999 0.851103 0
    outer loop
       vertex 0.015 0.0259808 0.06
       vertex 0.0164853 0.0250646 0.06
       vertex 0.0164853 0.0250646 0
    endloop
  endfacet
  facet normal 0.573558 0.819165 0
    outer loop
       vertex 0.0179148 0.0240637 0.06
       vertex 0.0179148 0.0240637 0
       vertex 0.0164853 0.0250646 0
    endloop
  endfacet
  facet normal 0.524999 0.851103 0
    outer loop
       vertex 0.015 0.0259808 0.06
       vertex 0.0164853 0.0250646 0
       vertex 0.015 0.0259808 0
    endloop
  endfacet
  facet normal 0.474598 0.880202 0
    outer loop
       vertex 0.013464 0.026809 0.06
       vertex 0.015 0.0259808 0.06
       vertex 0.013464 0.026809 0
    endloop
  endfacet
  facet normal 0.474598 0.880202 0
    outer loop
       vertex 0.015 0.0259808 0.06
       vertex 0.015 0.0259808 0
       vertex 0.013464 0.026809 0
    endloop
  endfacet
  facet normal 0.422613 0.90631 0
    outer loop
       vertex 0.013464 0.026809 0.06
       vertex 0.013464 0.026809 0
       vertex 0.0118824 0.0275465 0
    endloop
  endfacet
  facet normal 0.422613 0.90631 0
    outer loop
       vertex 0.0118824 0.0275465 0.06
       vertex 0.013464 0.026809 0.06
       vertex 0.0118824 0.0275465 0
    endloop
  endfacet
  facet normal 0.369206 0.929348 0
    outer loop
       vertex 0.0118824 0.0275465 0.06
       vertex 0.0118824 0.0275465 0
       vertex 0.0102606 0.0281908 0
    endloop
  endfacet
  facet normal 0.369206 0.929348 0
    outer loop
       vertex 0.0102606 0.0281908 0.06
       vertex 0.0118824 0.0275465 0.06
       vertex 0.0102606 0.0281908 0
    endloop
  endfacet
  facet normal 0.314542 0.949244 0
    outer loop
       vertex 0.0102606 0.0281908 0.06
       vertex 0.0102606 0.0281908 0
       vertex 0.0086041 0.0287397 0
    endloop
  endfacet
  facet normal 0.314542 0.949244 0
    outer loop
       vertex 0.0086041 0.0287397 0.06
       vertex 0.0102606 0.0281908 0.06
       vertex 0.0086041 0.0287397 0
    endloop
  endfacet
  facet normal 0.258787 0.965934 0
    outer loop
       vertex 0.0086041 0.0287397 0.06
       vertex 0.0086041 0.0287397 0
       vertex 0.00691848 0.0291913 0
    endloop
  endfacet
  facet normal 0.258787 0.965934 0
    outer loop
       vertex 0.00691848 0.0291913 0.06
       vertex 0.0086041 0.0287397 0.06
       vertex 0.00691848 0.0291913 0
    endloop
  endfacet
  facet normal 0.202225 0.979339 0
    outer loop
       vertex 0.00691848 0.0291913 0.06
       vertex 0.00691848 0.0291913 0
       vertex 0.00520945 0.0295442 0
    endloop
  endfacet
  facet normal 0.202225 0.979339 0
    outer loop
       vertex 0.00520945 0.0295442 0.06
       vertex 0.00691848 0.0291913 0.06
       vertex 0.00520945 0.0295442 0
    endloop
  endfacet
  facet normal 0.144977 0.989435 0
    outer loop
       vertex 0.00520945 0.0295442 0.06
       vertex 0.00520945 0.0295442 0
       vertex 0.00348279 0.0297972 0
    endloop
  endfacet
  facet normal 0.144977 0.989435 0
    outer loop
       vertex 0.00348279 0.0297972 0.06
       vertex 0.00520945 0.0295442 0.06
       vertex 0.00348279 0.0297972 0
    endloop
  endfacet
  facet normal 0.0871015 0.996199 0
    outer loop
       vertex 0.00348279 0.0297972 0.06
       vertex 0.00348279 0.0297972 0
       vertex 0.00174434 0.0299492 0
    endloop
  endfacet
  facet normal 0.0871015 0.996199 0
    outer loop
       vertex 0.00174434 0.0299492 0.06
       vertex 0.00348279 0.0297972 0.06
       vertex 0.00174434 0.0299492 0
    endloop
  endfacet
  facet normal 0.0291104 0.999576 0
    outer loop
       vertex 0.00174434 0.0299492 0.06
       vertex 0.00174434 0.0299492 0
       vertex 1.83697e-18 0.03 0
    endloop
  endfacet
  facet normal 0.0291104 0.999576 0
    outer loop
       vertex 1.83697e-18 0.03 0.06
       vertex 0.00174434 0.0299492 0.06
       vertex 1.83697e-18 0.03 0
    endloop
  endfacet
  facet normal -0.0291104 0.999576 0
    outer loop
       vertex 1.83697e-18 0.03 0.06
       vertex 1.83697e-18 0.03 0
       vertex -0.00174434 0.0299492 0
    endloop
  endfacet
  facet normal -0.0291104 0.999576 0
    outer loop
       vertex -0.00174434 0.0299492 0.06
       vertex 1.83697e-18 0.03 0.06
       vertex -0.00174434 0.0299492 0
    endloop
  endfacet
  facet normal -0.0871015 0.996199 0
    outer loop
       vertex -0.00348279 0.0297972 0.06
       vertex -0.00174434 0.0299492 0.06
       vertex -0.00348279 0.0297972 0
    endloop
  endfacet
  facet normal -0.0871015 0.996199 0
    outer loop
       vertex -0.00174434 0.0299492 0.06
       vertex -0.00174434 0.0299492 0
       vertex -0.00348279 0.0297972 0
    endloop
  endfacet
  facet normal -0.144977 0.989435 0
    outer loop
       vertex -0.00520945 0.0295442 0.06
       vertex -0.00348279 0.0297972 0.06
       vertex -0.00520945 0.0295442 0
    endloop
  endfacet
  facet normal -0.144977 0.989435 0
    outer loop
       vertex -0.00348279 0.0297972 0.06
       vertex -0.00348279 0.0297972 0
       vertex -0.00520945 0.0295442 0
    endloop
  endfacet
  facet normal -0.202225 0.979339 0
    outer loop
       vertex -0.00691848 0.0291913 0.06
       vertex -0.00520945 0.0295442 0.06
       vertex -0.00691848 0.0291913 0
    endloop
  endfacet
  facet normal -0.202225 0.979339 0
    outer loop
       vertex -0.00520945 0.0295442 0.06
       vertex -0.00520945 0.0295442 0
       vertex -0.00691848 0.0291913 0
    endloop
  endfacet
  facet normal -0.258787 0.965934 0
    outer loop
       vertex -0.0086041 0.0287397 0.06
       vertex -0.00691848 0.0291913 0.06
       vertex -0.0086041 0.0287397 0
    endloop
  endfacet
  facet normal -0.258787 0.965934 0
    outer loop
       vertex -0.00691848 0.0291913 0.06
       vertex -0.00691848 0.0291913 0
       vertex -0.0086041 0.0287397 0
    endloop
  endfacet
  facet normal -0.314542 0.949244 0
    outer loop
       vertex -0.0102606 0.0281908 0.06
       vertex -0.0086041 0.0287397 0.06
       vertex -0.0102606 0.0281908 0
    endloop
  endfacet
  facet normal -0.369206 0.929348 0
    outer loop
       vertex -0.0118824 0.0275465 0.06
       vertex -0.0102606 0.0281908 0.06
       vertex -0.0102606 0.0281908 0
    endloop
  endfacet
  facet normal -0.314542 0.949244 0
    outer loop
       vertex -0.0086041 0.0287397 0.06
       vertex -0.0086041 0.0287397 0
       vertex -0.0102606 0.0281908 0
    endloop
  endfacet
  facet normal -0.369206 0.929348 0
    outer loop
       vertex -0.0118824 0.0275465 0.06
       vertex -0.0102606 0.0281908 0
       vertex -0.0118824 0.0275465 0
    endloop
  endfacet
  facet normal -0.422613 0.90631 0
    outer loop
       vertex -0.013464 0.026809 0.06
       vertex -0.0118824 0.0275465 0.06
       vertex -0.013464 0.026809 0
    endloop
  endfacet
  facet normal -0.422613 0.90631 0
    outer loop
       vertex -0.0118824 0.0275465 0.06
       vertex -0.0118824 0.0275465 0
       vertex -0.013464 0.026809 0
    endloop
  endfacet
  facet normal -0.474598 0.880202 0
    outer loop
       vertex -0.015 0.0259808 0.06
       vertex -0.013464 0.026809 0.06
       vertex -0.015 0.0259808 0
    endloop
  endfacet
  facet normal -0.474598 0.880202 0
    outer loop
       vertex -0.013464 0.026809 0.06
       vertex -0.013464 0.026809 0
       vertex -0.015 0.0259808 0
    endloop
  endfacet
  facet normal -0.524999 0.851103 0
    outer loop
       vertex -0.0164853 0.0250646 0.06
       vertex -0.015 0.0259808 0.06
       vertex -0.0164853 0.0250646 0
    endloop
  endfacet
  facet normal -0.524999 0.851103 0
    outer loop
       vertex -0.015 0.0259808 0.06
       vertex -0.015 0.0259808 0
       vertex -0.0164853 0.0250646 0
    endloop
  endfacet
  facet normal -0.573558 0.819165 0
    outer loop
       vertex -0.0179148 0.0240637 0.06
       vertex -0.0164853 0.0250646 0.06
       vertex -0.0179148 0.0240637 0
    endloop
  endfacet
  facet normal -0.573558 0.819165 0
    outer loop
       vertex -0.0164853 0.0250646 0.06
       vertex -0.0164853 0.0250646 0
       vertex -0.0179148 0.0240637 0
    endloop
  endfacet
  facet normal -0.620269 0.784389 0
    outer loop
       vertex -0.0192836 0.0229813 0.06
       vertex -0.0179148 0.0240637 0.06
       vertex -0.0192836 0.0229813 0
    endloop
  endfacet
  facet normal -0.620269 0.784389 0
    outer loop
       vertex -0.0179148 0.0240637 0.06
       vertex -0.0179148 0.0240637 0
       vertex -0.0192836 0.0229813 0
    endloop
  endfacet
  facet normal -0.664794 0.747027 0
    outer loop
       vertex -0.0205872 0.0218212 0.06
       vertex -0.0192836 0.0229813 0.06
       vertex -0.0205872 0.0218212 0
    endloop
  endfacet
  facet normal -0.707107 0.707107 0
    outer loop
       vertex -0.0218212 0.0205872 0.06
       vertex -0.0205872 0.0218212 0.06
       vertex -0.0205872 0.0218212 0
    endloop
  endfacet
  facet normal -0.664794 0.747027 0
    outer loop
       vertex -0.0192836 0.0229813 0.06
       vertex -0.0192836 0.0229813 0
       vertex -0.0205872 0.0218212 0
    endloop
  endfacet
  facet normal -0.747027 0.664794 0
    outer loop
       vertex -0.0229813 0.0192836 0.06
       vertex -0.0218212 0.0205872 0.06
       vertex -0.0218212 0.0205872 0
    endloop
  endfacet
  facet normal -0.707107 0.707107 0
    outer loop
       vertex -0.0218212 0.0205872 0.06
       vertex -0.0205872 0.0218212 0
       vertex -0.0218212 0.0205872 0
    endloop
  endfacet
  facet normal -0.747027 0.664794 0
    outer loop
       vertex -0.0229813 0.0192836 0.06
       vertex -0.0218212 0.0205872 0
       vertex -0.0229813 0.0192836 0
    endloop
  endfacet
  facet normal -0.784389 0.620269 0
    outer loop
       vertex -0.0240637 0.0179148 0.06
       vertex -0.0229813 0.0192836 0.06
       vertex -0.0240637 0.0179148 0
    endloop
  endfacet
  facet normal -0.784389 0.620269 0
    outer loop
       vertex -0.0229813 0.0192836 0.06
       vertex -0.0229813 0.0192836 0
       vertex -0.0240637 0.0179148 0
    endloop
  endfacet
  facet normal -0.819165 0.573558 0
    outer loop
       vertex -0.0250646 0.0164853 0.06
       vertex -0.0240637 0.0179148 0.06
       vertex -0.0250646 0.0164853 0
    endloop
  endfacet
  facet normal -0.851103 0.524999 0
    outer loop
       vertex -0.0259808 0.015 0.06
       vertex -0.0250646 0.0164853 0.06
       vertex -0.0250646 0.0164853 0
    endloop
  endfacet
  facet normal -0.819165 0.573558 0
    outer loop
       vertex -0.0240637 0.0179148 0.06
       vertex -0.0240637 0.0179148 0
       vertex -0.0250646 0.0164853 0
    endloop
  endfacet
  facet normal -0.851103 0.524999 0
    outer loop
       vertex -0.0259808 0.015 0.06
       vertex -0.0250646 0.0164853 0
       vertex -0.0259808 0.015 0
    endloop
  endfacet
  facet normal -0.880202 0.474598 0
    outer loop
       vertex -0.0259808 0.015 0.06
       vertex -0.0259808 0.015 0
       vertex -0.026809 0.013464 0
    endloop
  endfacet
  facet normal -0.880202 0.474598 0
    outer loop
       vertex -0.026809 0.013464 0.06
       vertex -0.0259808 0.015 0.06
       vertex -0.026809 0.013464 0
    endloop
  endfacet
  facet normal -0.90631 0.422613 0
    outer loop
       vertex -0.0275465 0.0118824 0.06
       vertex -0.026809 0.013464 0.06
       vertex -0.026809 0.013464 0
    endloop
  endfacet
  facet normal -0.90631 0.422613 0
    outer loop
       vertex -0.0275465 0.0118824 0.06
       vertex -0.026809 0.013464 0
       vertex -0.0275465 0.0118824 0
    endloop
  endfacet
  facet normal -0.929348 0.369206 0
    outer loop
       vertex -0.0275465 0.0118824 0.06
       vertex -0.0275465 0.0118824 0
       vertex -0.0281908 0.0102606 0
    endloop
  endfacet
  facet normal -0.929348 0.369206 0
    outer loop
       vertex -0.0281908 0.0102606 0.06
       vertex -0.0275465 0.0118824 0.06
       vertex -0.0281908 0.0102606 0
    endloop
  endfacet
  facet normal -0.949244 0.314542 0
    outer loop
       vertex -0.0281908 0.0102606 0.06
       vertex -0.0281908 0.0102606 0
       vertex -0.0287397 0.0086041 0
    endloop
  endfacet
  facet normal -0.949244 0.314542 0
    outer loop
       vertex -0.0287397 0.0086041 0.06
       vertex -0.0281908 0.0102606 0.06
       vertex -0.0287397 0.0086041 0
    endloop
  endfacet
  facet normal -0.965934 0.258787 0
    outer loop
       vertex -0.0291913 0.00691848 0.06
       vertex -0.0287397 0.0086041 0.06
       vertex -0.0287397 0.0086041 0
    endloop
  endfacet
  facet normal -0.965934 0.258787 0
    outer loop
       vertex -0.0291913 0.00691848 0.06
       vertex -0.0287397 0.0086041 0
       vertex -0.0291913 0.00691848 0
    endloop
  endfacet
  facet normal -0.979339 0.202225 0
    outer loop
       vertex -0.0291913 0.00691848 0.06
       vertex -0.0291913 0.00691848 0
       vertex -0.0295442 0.00520945 0
    endloop
  endfacet
  facet normal -0.979339 0.202225 0
    outer loop
       vertex -0.0295442 0.00520945 0.06
       vertex -0.0291913 0.00691848 0.06
       vertex -0.0295442 0.00520945 0
    endloop
  endfacet
  facet normal -0.989435 0.144977 0
    outer loop
       vertex -0.0295442 0.00520945 0.06
       vertex -0.0295442 0.00520945 0
       vertex -0.0297972 0.00348279 0
    endloop
  endfacet
  facet normal -0.989435 0.144977 0
    outer loop
       vertex -0.0297972 0.00348279 0.06
       vertex -0.0295442 0.00520945 0.06
       vertex -0.0297972 0.00348279 0
    endloop
  endfacet
  facet normal -0.996199 0.0871015 0
    outer loop
       vertex -0.0297972 0.00348279 0.06
       vertex -0.0297972 0.00348279 0
       vertex -0.0299492 0.00174434 0
    endloop
  endfacet
  facet normal -0.996199 0.0871015 0
    outer loop
       vertex -0.0299492 0.00174434 0.06
       vertex -0.0297972 0.00348279 0.06
       vertex -0.0299492 0.00174434 0
    endloop
  endfacet
  facet normal -0.999576 0.0291104 0
    outer loop
       vertex -0.03 3.67394e-18 0.06
       vertex -0.0299492 0.00174434 0.06
       vertex -0.0299492 0.00174434 0
    endloop
  endfacet
  facet normal -0.999576 0.0291104 0
    outer loop
       vertex -0.03 3.67394e-18 0.06
       vertex -0.0299492 0.00174434 0
       vertex -0.03 3.67394e-18 0
    endloop
  endfacet
  facet normal -0.999576 -0.0291104 -0
    outer loop
       vertex -0.03 3.67394e-18 0.06
       vertex -0.03 3.67394e-18 0
       vertex -0.0299492 -0.00174434 0
    endloop
  endfacet
  facet normal -0.999576 -0.0291104 -0
    outer loop
       vertex -0.0299492 -0.00174434 0.06
       vertex -0.03 3.67394e-18 0.06
       vertex -0.0299492 -0.00174434 0
    endloop
  endfacet
  facet normal -0.996199 -0.0871015 -0
    outer loop
       vertex -0.0299492 -0.00174434 0.06
       vertex -0.0299492 -0.00174434 0
       vertex -0.0297972 -0.00348279 0
    endloop
  endfacet
  facet normal -0.996199 -0.0871015 -0
    outer loop
       vertex -0.0297972 -0.00348279 0.06
       vertex -0.0299492 -0.00174434 0.06
       vertex -0.0297972 -0.00348279 0
    endloop
  endfacet
  facet normal -0.989435 -0.144977 -0
    outer loop
       vertex -0.0297972 -0.00348279 0.06
       vertex -0.0297972 -0.00348279 0
       vertex -0.0295442 -0.00520945 0
    endloop
  endfacet
  facet normal -0.989435 -0.144977 -0
    outer loop
       vertex -0.0295442 -0.00520945 0.06
       vertex -0.0297972 -0.00348279 0.06
       vertex -0.0295442 -0.00520945 0
    endloop
  endfacet
  facet normal -0.979339 -0.202225 0
    outer loop
       vertex -0.0291913 -0.00691848 0.06
       vertex -0.0295442 -0.00520945 0.06
       vertex -0.0295442 -0.00520945 0
    endloop
  endfacet
  facet normal -0.979339 -0.202225 -0
    outer loop
       vertex -0.0291913 -0.00691848 0.06
       vertex -0.0295442 -0.00520945 0
       vertex -0.0291913 -0.00691848 0
    endloop
  endfacet
  facet normal -0.965934 -0.258787 -0
    outer loop
       vertex -0.0291913 -0.00691848 0.06
       vertex -0.0291913 -0.00691848 0
       vertex -0.0287397 -0.0086041 0
    endloop
  endfacet
  facet normal -0.965934 -0.258787 -0
    outer loop
       vertex -0.0287397 -0.0086041 0.06
       vertex -0.0291913 -0.00691848 0.06
       vertex -0.0287397 -0.0086041 0
    endloop
  endfacet
  facet normal -0.949244 -0.314542 0
    outer loop
       vertex -0.0281908 -0.0102606 0.06
       vertex -0.0287397 -0.0086041 0.06
       vertex -0.0287397 -0.0086041 0
    endloop
  endfacet
  facet normal -0.949244 -0.314542 -0
    outer loop
       vertex -0.0281908 -0.0102606 0.06
       vertex -0.0287397 -0.0086041 0
       vertex -0.0281908 -0.0102606 0
    endloop
  endfacet
  facet normal -0.929348 -0.369206 -0
    outer loop
       vertex -0.0281908 -0.0102606 0.06
       vertex -0.0281908 -0.0102606 0
       vertex -0.0275465 -0.0118824 0
    endloop
  endfacet
  facet normal -0.929348 -0.369206 -0
    outer loop
       vertex -0.0275465 -0.0118824 0.06
       vertex -0.0281908 -0.0102606 0.06
       vertex -0.0275465 -0.0118824 0
    endloop
  endfacet
  facet normal -0.90631 -0.422613 -0
    outer loop
       vertex -0.0275465 -0.0118824 0.06
       vertex -0.0275465 -0.0118824 0
       vertex -0.026809 -0.013464 0
    endloop
  endfacet
  facet normal -0.90631 -0.422613 -0
    outer loop
       vertex -0.026809 -0.013464 0.06
       vertex -0.0275465 -0.0118824 0.06
       vertex -0.026809 -0.013464 0
    endloop
  endfacet
  facet normal -0.880202 -0.474598 -0
    outer loop
       vertex -0.0259808 -0.015 0.06
       vertex -0.026809 -0.013464 0.06
       vertex -0.0259808 -0.015 0
    endloop
  endfacet
  facet normal -0.880202 -0.474598 -0
    outer loop
       vertex -0.026809 -0.013464 0.06
       vertex -0.026809 -0.013464 0
       vertex -0.0259808 -0.015 0
    endloop
  endfacet
  facet normal -0.851103 -0.524999 0
    outer loop
       vertex -0.0250646 -0.0164853 0.06
       vertex -0.0259808 -0.015 0.06
       vertex -0.0259808 -0.015 0
    endloop
  endfacet
  facet normal -0.851103 -0.524999 -0
    outer loop
       vertex -0.0250646 -0.0164853 0.06
       vertex -0.0259808 -0.015 0
       vertex -0.0250646 -0.0164853 0
    endloop
  endfacet
  facet normal -0.819165 -0.573558 -0
    outer loop
       vertex -0.0240637 -0.0179148 0.06
       vertex -0.0250646 -0.0164853 0.06
       vertex -0.0240637 -0.0179148 0
    endloop
  endfacet
  facet normal -0.819165 -0.573558 -0
    outer loop
       vertex -0.0250646 -0.0164853 0.06
       vertex -0.0250646 -0.0164853 0
       vertex -0.0240637 -0.0179148 0
    endloop
  endfacet
  facet normal -0.784389 -0.620269 -0
    outer loop
       vertex -0.0229813 -0.0192836 0.06
       vertex -0.0240637 -0.0179148 0.06
       vertex -0.0229813 -0.0192836 0
    endloop
  endfacet
  facet normal -0.784389 -0.620269 -0
    outer loop
       vertex -0.0240637 -0.0179148 0.06
       vertex -0.0240637 -0.0179148 0
       vertex -0.0229813 -0.0192836 0
    endloop
  endfacet
  facet normal -0.747027 -0.664794 -0
    outer loop
       vertex -0.0218212 -0.0205872 0.06
       vertex -0.0229813 -0.0192836 0.06
       vertex -0.0218212 -0.0205872 0
    endloop
  endfacet
  facet normal -0.747027 -0.664794 -0
    outer loop
       vertex -0.0229813 -0.0192836 0.06
       vertex -0.0229813 -0.0192836 0
       vertex -0.0218212 -0.0205872 0
    endloop
  endfacet
  facet normal -0.707107 -0.707107 -0
    outer loop
       vertex -0.0205872 -0.0218212 0.06
       vertex -0.0218212 -0.0205872 0.06
       vertex -0.0205872 -0.0218212 0
    endloop
  endfacet
  facet normal -0.664794 -0.747027 0
    outer loop
       vertex -0.0192836 -0.0229813 0.06
       vertex -0.0205872 -0.0218212 0.06
       vertex -0.0205872 -0.0218212 0
    endloop
  endfacet
  facet normal -0.707107 -0.707107 -0
    outer loop
       vertex -0.0218212 -0.0205872 0.06
       vertex -0.0218212 -0.0205872 0
       vertex -0.0205872 -0.0218212 0
    endloop
  endfacet
  facet normal -0.664794 -0.747027 -0
    outer loop
       vertex -0.0192836 -0.0229813 0.06
       vertex -0.0205872 -0.0218212 0
       vertex -0.0192836 -0.0229813 0
    endloop
  endfacet
  facet normal -0.620269 -0.784389 -0
    outer loop
       vertex -0.0179148 -0.0240637 0.06
       vertex -0.0192836 -0.0229813 0.06
       vertex -0.0179148 -0.0240637 0
    endloop
  endfacet
  facet normal -0.620269 -0.784389 -0
    outer loop
       vertex -0.0192836 -0.0229813 0.06
       vertex -0.0192836 -0.0229813 0
       vertex -0.0179148 -0.0240637 0
    endloop
  endfacet
  facet normal -0.573558 -0.819165 -0
    outer loop
       vertex -0.0179148 -0.0240637 0.06
       vertex -0.0179148 -0.0240637 0
       vertex -0.0164853 -0.0250646 0
    endloop
  endfacet
  facet normal -0.573558 -0.819165 -0
    outer loop
       vertex -0.0164853 -0.0250646 0.06
       vertex -0.0179148 -0.0240637 0.06
       vertex -0.0164853 -0.0250646 0
    endloop
  endfacet
  facet normal -0.524999 -0.851103 0
    outer loop
       vertex -0.015 -0.0259808 0.06
       vertex -0.0164853 -0.0250646 0.06
       vertex -0.0164853 -0.0250646 0
    endloop
  endfacet
  facet normal -0.524999 -0.851103 -0
    outer loop
       vertex -0.015 -0.0259808 0.06
       vertex -0.0164853 -0.0250646 0
       vertex -0.015 -0.0259808 0
    endloop
  endfacet
  facet normal -0.474598 -0.880202 -0
    outer loop
       vertex -0.015 -0.0259808 0.06
       vertex -0.015 -0.0259808 0
       vertex -0.013464 -0.026809 0
    endloop
  endfacet
  facet normal -0.474598 -0.880202 -0
    outer loop
       vertex -0.013464 -0.026809 0.06
       vertex -0.015 -0.0259808 0.06
       vertex -0.013464 -0.026809 0
    endloop
  endfacet
  facet normal -0.422613 -0.90631 -0
    outer loop
       vertex -0.013464 -0.026809 0.06
       vertex -0.013464 -0.026809 0
       vertex -0.0118824 -0.0275465 0
    endloop
  endfacet
  facet normal -0.422613 -0.90631 -0
    outer loop
       vertex -0.0118824 -0.0275465 0.06
       vertex -0.013464 -0.026809 0.06
       vertex -0.0118824 -0.0275465 0
    endloop
  endfacet
  facet normal -0.369206 -0.929348 -0
    outer loop
       vertex -0.0118824 -0.0275465 0.06
       vertex -0.0118824 -0.0275465 0
       vertex -0.0102606 -0.0281908 0
    endloop
  endfacet
  facet normal -0.369206 -0.929348 -0
    outer loop
       vertex -0.0102606 -0.0281908 0.06
       vertex -0.0118824 -0.0275465 0.06
       vertex -0.0102606 -0.0281908 0
    endloop
  endfacet
  facet normal -0.314542 -0.949244 -0
    outer loop
       vertex -0.0102606 -0.0281908 0.06
       vertex -0.0102606 -0.0281908 0
       vertex -0.0086041 -0.0287397 0
    endloop
  endfacet
  facet normal -0.314542 -0.949244 -0
    outer loop
       vertex -0.0086041 -0.0287397 0.06
       vertex -0.0102606 -0.0281908 0.06
       vertex -0.0086041 -0.0287397 0
    endloop
  endfacet
  facet normal -0.258787 -0.965934 0
    outer loop
       vertex -0.00691848 -0.0291913 0.06
       vertex -0.0086041 -0.0287397 0.06
       vertex -0.0086041 -0.0287397 0
    endloop
  endfacet
  facet normal -0.258787 -0.965934 -0
    outer loop
       vertex -0.00691848 -0.0291913 0.06
       vertex -0.0086041 -0.0287397 0
       vertex -0.00691848 -0.0291913 0
    endloop
  endfacet
  facet normal -0.202225 -0.979339 -0
    outer loop
       vertex -0.00691848 -0.0291913 0.06
       vertex -0.00691848 -0.0291913 0
       vertex -0.00520945 -0.0295442 0
    endloop
  endfacet
  facet normal -0.202225 -0.979339 -0
    outer loop
       vertex -0.00520945 -0.0295442 0.06
       vertex -0.00691848 -0.0291913 0.06
       vertex -0.00520945 -0.0295442 0
    endloop
  endfacet
  facet normal -0.144977 -0.989435 -0
    outer loop
       vertex -0.00520945 -0.0295442 0.06
       vertex -0.00520945 -0.0295442 0
       vertex -0.00348279 -0.0297972 0
    endloop
  endfacet
  facet normal -0.144977 -0.989435 -0
    outer loop
       vertex -0.00348279 -0.0297972 0.06
       vertex -0.00520945 -0.0295442 0.06
       vertex -0.00348279 -0.0297972 0
    endloop
  endfacet
  facet normal -0.0871015 -0.996199 -0
    outer loop
       vertex -0.00348279 -0.0297972 0.06
       vertex -0.00348279 -0.0297972 0
       vertex -0.00174434 -0.0299492 0
    endloop
  endfacet
  facet normal -0.0871015 -0.996199 -0
    outer loop
       vertex -0.00174434 -0.0299492 0.06
       vertex -0.00348279 -0.0297972 0.06
       vertex -0.00174434 -0.0299492 0
    endloop
  endfacet
  facet normal -0.0291104 -0.999576 0
    outer loop
       vertex -5.88016e-17 -0.03 0.06
       vertex -0.00174434 -0.0299492 0.06
       vertex -0.00174434 -0.0299492 0
    endloop
  endfacet
  facet normal -0.0291104 -0.999576 -0
    outer loop
       vertex -5.88016e-17 -0.03 0.06
       vertex -0.00174434 -0.0299492 0
       vertex -5.88016e-17 -0.03 0
    endloop
  endfacet
  facet normal 0.0291104 -0.999576 0
    outer loop
       vertex -5.88016e-17 -0.03 0.06
       vertex -5.88016e-17 -0.03 0
       vertex 0.00174434 -0.0299492 0
    endloop
  endfacet
  facet normal 0.0291104 -0.999576 0
    outer loop
       vertex 0.00174434 -0.0299492 0.06
       vertex -5.88016e-17 -0.03 0.06
       vertex 0.00174434 -0.0299492 0
    endloop
  endfacet
  facet normal 0.0871015 -0.996199 0
    outer loop
       vertex 0.00174434 -0.0299492 0.06
       vertex 0.00174434 -0.0299492 0
       vertex 0.00348279 -0.0297972 0
    endloop
  endfacet
  facet normal 0.0871015 -0.996199 0
    outer loop
       vertex 0.00348279 -0.0297972 0.06
       vertex 0.00174434 -0.0299492 0.06
       vertex 0.00348279 -0.0297972 0
    endloop
  endfacet
  facet normal 0.144977 -0.989435 0
    outer loop
       vertex 0.00348279 -0.0297972 0.06
       vertex 0.00348279 -0.0297972 0
       vertex 0.00520945 -0.0295442 0
    endloop
  endfacet
  facet normal 0.144977 -0.989435 0
    outer loop
       vertex 0.00520945 -0.0295442 0.06
       vertex 0.00348279 -0.0297972 0.06
       vertex 0.00520945 -0.0295442 0
    endloop
  endfacet
  facet normal 0.202225 -0.979339 0
    outer loop
       vertex 0.00520945 -0.0295442 0.06
       vertex 0.00520945 -0.0295442 0
       vertex 0.00691848 -0.0291913 0
    endloop
  endfacet
  facet normal 0.202225 -0.979339 0
    outer loop
       vertex 0.00691848 -0.0291913 0.06
       vertex 0.00520945 -0.0295442 0.06
       vertex 0.00691848 -0.0291913 0
    endloop
  endfacet
  facet normal 0.258787 -0.965934 0
    outer loop
       vertex 0.00691848 -0.0291913 0.06
       vertex 0.00691848 -0.0291913 0
       vertex 0.0086041 -0.0287397 0
    endloop
  endfacet
  facet normal 0.258787 -0.965934 0
    outer loop
       vertex 0.0086041 -0.0287397 0.06
       vertex 0.00691848 -0.0291913 0.06
       vertex 0.0086041 -0.0287397 0
    endloop
  endfacet
  facet normal 0.314542 -0.949244 0
    outer loop
       vertex 0.0086041 -0.0287397 0.06
       vertex 0.0086041 -0.0287397 0
       vertex 0.0102606 -0.0281908 0
    endloop
  endfacet
  facet normal 0.314542 -0.949244 0
    outer loop
       vertex 0.0102606 -0.0281908 0.06
       vertex 0.0086041 -0.0287397 0.06
       vertex 0.0102606 -0.0281908 0
    endloop
  endfacet
  facet normal 0.369206 -0.929348 0
    outer loop
       vertex 0.0118824 -0.0275465 0.06
       vertex 0.0102606 -0.0281908 0.06
       vertex 0.0102606 -0.0281908 0
    endloop
  endfacet
  facet normal 0.369206 -0.929348 0
    outer loop
       vertex 0.0118824 -0.0275465 0.06
       vertex 0.0102606 -0.0281908 0
       vertex 0.0118824 -0.0275465 0
    endloop
  endfacet
  facet normal 0.422613 -0.90631 0
    outer loop
       vertex 0.0118824 -0.0275465 0.06
       vertex 0.0118824 -0.0275465 0
       vertex 0.013464 -0.026809 0
    endloop
  endfacet
  facet normal 0.422613 -0.90631 0
    outer loop
       vertex 0.013464 -0.026809 0.06
       vertex 0.0118824 -0.0275465 0.06
       vertex 0.013464 -0.026809 0
    endloop
  endfacet
  facet normal 0.474598 -0.880202 0
    outer loop
       vertex 0.013464 -0.026809 0.06
       vertex 0.013464 -0.026809 0
       vertex 0.015 -0.0259808 0
    endloop
  endfacet
  facet normal 0.474598 -0.880202 0
    outer loop
       vertex 0.015 -0.0259808 0.06
       vertex 0.013464 -0.026809 0.06
       vertex 0.015 -0.0259808 0
    endloop
  endfacet
  facet normal 0.573558 -0.819165 0
    outer loop
       vertex 0.0179148 -0.0240637 0.06
       vertex 0.0164853 -0.0250646 0.06
       vertex 0.0164853 -0.0250646 0
    endloop
  endfacet
  facet normal 0.524999 -0.851103 0
    outer loop
       vertex 0.015 -0.0259808 0.06
       vertex 0.015 -0.0259808 0
       vertex 0.0164853 -0.0250646 0
    endloop
  endfacet
  facet normal 0.524999 -0.851103 0
    outer loop
       vertex 0.0164853 -0.0250646 0.06
       vertex 0.015 -0.0259808 0.06
       vertex 0.0164853 -0.0250646 0
    endloop
  endfacet
  facet normal 0.573558 -0.819165 0
    outer loop
       vertex 0.0179148 -0.0240637 0.06
       vertex 0.0164853 -0.0250646 0
       vertex 0.0179148 -0.0240637 0
    endloop
  endfacet
  facet normal 0.620269 -0.784389 0
    outer loop
       vertex 0.0192836 -0.0229813 0.06
       vertex 0.0179148 -0.0240637 0.06
       vertex 0.0192836 -0.0229813 0
    endloop
  endfacet
  facet normal 0.620269 -0.784389 0
    outer loop
       vertex 0.0179148 -0.0240637 0.06
       vertex 0.0179148 -0.0240637 0
       vertex 0.0192836 -0.0229813 0
    endloop
  endfacet
  facet normal 0.664794 -0.747027 0
    outer loop
       vertex 0.0205872 -0.0218212 0.06
       vertex 0.0192836 -0.0229813 0.06
       vertex 0.0205872 -0.0218212 0
    endloop
  endfacet
endsolid patch0
