solid patch0
  facet normal 0.664796 -0.747025 0
    outer loop
       vertex 0.0192836 -0.0229813 0.06
       vertex 0.0192836 -0.0229813 0
       vertex 0.0205872 -0.0218212 0
    endloop
  endfacet
  facet normal 0.707107 -0.707107 0
    outer loop
       vertex 0.0218212 -0.0205872 0.06
       vertex 0.0205872 -0.0218212 0.06
       vertex 0.0218212 -0.0205872 0
    endloop
  endfacet
  facet normal 0.747025 -0.664796 0
    outer loop
       vertex 0.0229813 -0.0192836 0.06
       vertex 0.0218212 -0.0205872 0.06
       vertex 0.0218212 -0.0205872 0
    endloop
  endfacet
  facet normal 0.707107 -0.707107 0
    outer loop
       vertex 0.0205872 -0.0218212 0.06
       vertex 0.0205872 -0.0218212 0
       vertex 0.0218212 -0.0205872 0
    endloop
  endfacet
  facet normal 0.747025 -0.664796 0
    outer loop
       vertex 0.0229813 -0.0192836 0.06
       vertex 0.0218212 -0.0205872 0
       vertex 0.0229813 -0.0192836 0
    endloop
  endfacet
  facet normal 0.999577 0.0290843 0
    outer loop
       vertex 0.03 0 0.06
       vertex 0.03 0 0
       vertex 0.0299492 0.00174434 0
    endloop
  endfacet
  facet normal 0.999577 0.0290843 0
    outer loop
       vertex 0.0299492 0.00174434 0.06
       vertex 0.03 0 0.06
       vertex 0.0299492 0.00174434 0
    endloop
  endfacet
  facet normal 0.784415 -0.620236 0
    outer loop
       vertex 0.0240637 -0.0179148 0.06
       vertex 0.0229813 -0.0192836 0.06
       vertex 0.0240637 -0.0179148 0
    endloop
  endfacet
  facet normal 0.784415 -0.620236 0
    outer loop
       vertex 0.0229813 -0.0192836 0.06
       vertex 0.0229813 -0.0192836 0
       vertex 0.0240637 -0.0179148 0
    endloop
  endfacet
  facet normal 0.996195 0.0871557 0
    outer loop
       vertex 0.0297972 0.00348279 0.06
       vertex 0.0299492 0.00174434 0.06
       vertex 0.0297972 0.00348279 0
    endloop
  endfacet
  facet normal 0.819152 -0.573576 0
    outer loop
       vertex 0.0250646 -0.0164853 0.06
       vertex 0.0240637 -0.0179148 0.06
       vertex 0.0250646 -0.0164853 0
    endloop
  endfacet
  facet normal 0.851117 -0.524977 0
    outer loop
       vertex 0.0259808 -0.015 0.06
       vertex 0.0250646 -0.0164853 0.06
       vertex 0.0250646 -0.0164853 0
    endloop
  endfacet
  facet normal 0.996195 0.0871557 0
    outer loop
       vertex 0.0299492 0.00174434 0.06
       vertex 0.0299492 0.00174434 0
       vertex 0.0297972 0.00348279 0
    endloop
  endfacet
  facet normal 0.819152 -0.573576 0
    outer loop
       vertex 0.0240637 -0.0179148 0.06
       vertex 0.0240637 -0.0179148 0
       vertex 0.0250646 -0.0164853 0
    endloop
  endfacet
  facet normal 0.989442 0.144932 0
    outer loop
       vertex 0.0295442 0.00520945 0.06
       vertex 0.0297972 0.00348279 0.06
       vertex 0.0295442 0.00520945 0
    endloop
  endfacet
  facet normal 0.851117 -0.524977 0
    outer loop
       vertex 0.0259808 -0.015 0.06
       vertex 0.0250646 -0.0164853 0
       vertex 0.0259808 -0.015 0
    endloop
  endfacet
  facet normal 0.97934 0.202218 0
    outer loop
       vertex 0.0291913 0.00691848 0.06
       vertex 0.0295442 0.00520945 0.06
       vertex 0.0295442 0.00520945 0
    endloop
  endfacet
  facet normal 0.989442 0.144932 0
    outer loop
       vertex 0.0297972 0.00348279 0.06
       vertex 0.0297972 0.00348279 0
       vertex 0.0295442 0.00520945 0
    endloop
  endfacet
  facet normal 0.880202 -0.4746 0
    outer loop
       vertex 0.026809 -0.013464 0.06
       vertex 0.0259808 -0.015 0.06
       vertex 0.026809 -0.013464 0
    endloop
  endfacet
  facet normal 0.880202 -0.4746 0
    outer loop
       vertex 0.0259808 -0.015 0.06
       vertex 0.0259808 -0.015 0
       vertex 0.026809 -0.013464 0
    endloop
  endfacet
  facet normal 0.97934 0.202218 0
    outer loop
       vertex 0.0291913 0.00691848 0.06
       vertex 0.0295442 0.00520945 0
       vertex 0.0291913 0.00691848 0
    endloop
  endfacet
  facet normal 0.906308 -0.422619 0
    outer loop
       vertex 0.0275465 -0.0118824 0.06
       vertex 0.026809 -0.013464 0.06
       vertex 0.0275465 -0.0118824 0
    endloop
  endfacet
  facet normal 0.929348 -0.369206 0
    outer loop
       vertex 0.0281908 -0.0102606 0.06
       vertex 0.0275465 -0.0118824 0.06
       vertex 0.0275465 -0.0118824 0
    endloop
  endfacet
  facet normal 0.965926 0.258819 0
    outer loop
       vertex 0.0287397 0.0086041 0.06
       vertex 0.0291913 0.00691848 0.06
       vertex 0.0287397 0.0086041 0
    endloop
  endfacet
  facet normal 0.906308 -0.422619 0
    outer loop
       vertex 0.026809 -0.013464 0.06
       vertex 0.026809 -0.013464 0
       vertex 0.0275465 -0.0118824 0
    endloop
  endfacet
  facet normal 0.965926 0.258819 0
    outer loop
       vertex 0.0291913 0.00691848 0.06
       vertex 0.0291913 0.00691848 0
       vertex 0.0287397 0.0086041 0
    endloop
  endfacet
  facet normal 0.929348 -0.369206 0
    outer loop
       vertex 0.0281908 -0.0102606 0.06
       vertex 0.0275465 -0.0118824 0
       vertex 0.0281908 -0.0102606 0
    endloop
  endfacet
  facet normal 0.949243 0.314545 0
    outer loop
       vertex 0.0281908 0.0102606 0.06
       vertex 0.0287397 0.0086041 0.06
       vertex 0.0281908 0.0102606 0
    endloop
  endfacet
  facet normal 0.929348 0.369206 0
    outer loop
       vertex 0.0275465 0.0118824 0.06
       vertex 0.0281908 0.0102606 0.06
       vertex 0.0281908 0.0102606 0
    endloop
  endfacet
  facet normal 0.949243 0.314545 0
    outer loop
       vertex 0.0287397 0.0086041 0.06
       vertex 0.0287397 0.0086041 0
       vertex 0.0281908 0.0102606 0
    endloop
  endfacet
  facet normal 0.949243 -0.314545 0
    outer loop
       vertex 0.0287397 -0.0086041 0.06
       vertex 0.0281908 -0.0102606 0.06
       vertex 0.0287397 -0.0086041 0
    endloop
  endfacet
  facet normal 0.949243 -0.314545 0
    outer loop
       vertex 0.0281908 -0.0102606 0.06
       vertex 0.0281908 -0.0102606 0
       vertex 0.0287397 -0.0086041 0
    endloop
  endfacet
  facet normal 0.929348 0.369206 0
    outer loop
       vertex 0.0275465 0.0118824 0.06
       vertex 0.0281908 0.0102606 0
       vertex 0.0275465 0.0118824 0
    endloop
  endfacet
  facet normal 0.965926 -0.258819 0
    outer loop
       vertex 0.0291913 -0.00691848 0.06
       vertex 0.0287397 -0.0086041 0.06
       vertex 0.0291913 -0.00691848 0
    endloop
  endfacet
  facet normal 0.97934 -0.202218 0
    outer loop
       vertex 0.0295442 -0.00520945 0.06
       vertex 0.0291913 -0.00691848 0.06
       vertex 0.0291913 -0.00691848 0
    endloop
  endfacet
  facet normal 0.965926 -0.258819 0
    outer loop
       vertex 0.0287397 -0.0086041 0.06
       vertex 0.0287397 -0.0086041 0
       vertex 0.0291913 -0.00691848 0
    endloop
  endfacet
  facet normal 0.906308 0.422619 0
    outer loop
       vertex 0.026809 0.013464 0.06
       vertex 0.0275465 0.0118824 0.06
       vertex 0.026809 0.013464 0
    endloop
  endfacet
  facet normal 0.906308 0.422619 0
    outer loop
       vertex 0.0275465 0.0118824 0.06
       vertex 0.0275465 0.0118824 0
       vertex 0.026809 0.013464 0
    endloop
  endfacet
  facet normal 0.97934 -0.202218 0
    outer loop
       vertex 0.0295442 -0.00520945 0.06
       vertex 0.0291913 -0.00691848 0
       vertex 0.0295442 -0.00520945 0
    endloop
  endfacet
  facet normal 0.880202 0.4746 0
    outer loop
       vertex 0.0259808 0.015 0.06
       vertex 0.026809 0.013464 0.06
       vertex 0.0259808 0.015 0
    endloop
  endfacet
  facet normal 0.880202 0.4746 0
    outer loop
       vertex 0.026809 0.013464 0.06
       vertex 0.026809 0.013464 0
       vertex 0.0259808 0.015 0
    endloop
  endfacet
  facet normal 0.989442 -0.144932 0
    outer loop
       vertex 0.0297972 -0.00348279 0.06
       vertex 0.0295442 -0.00520945 0.06
       vertex 0.0297972 -0.00348279 0
    endloop
  endfacet
  facet normal 0.996195 -0.0871557 0
    outer loop
       vertex 0.0299492 -0.00174434 0.06
       vertex 0.0297972 -0.00348279 0.06
       vertex 0.0297972 -0.00348279 0
    endloop
  endfacet
  facet normal 0.989442 -0.144932 0
    outer loop
       vertex 0.0295442 -0.00520945 0.06
       vertex 0.0295442 -0.00520945 0
       vertex 0.0297972 -0.00348279 0
    endloop
  endfacet
  facet normal 0.996195 -0.0871557 0
    outer loop
       vertex 0.0299492 -0.00174434 0.06
       vertex 0.0297972 -0.00348279 0
       vertex 0.0299492 -0.00174434 0
    endloop
  endfacet
  facet normal 0.851117 0.524977 0
    outer loop
       vertex 0.0250646 0.0164853 0.06
       vertex 0.0259808 0.015 0.06
       vertex 0.0250646 0.0164853 0
    endloop
  endfacet
  facet normal 0.851117 0.524977 0
    outer loop
       vertex 0.0259808 0.015 0.06
       vertex 0.0259808 0.015 0
       vertex 0.0250646 0.0164853 0
    endloop
  endfacet
  facet normal 0.999577 -0.0290843 0
    outer loop
       vertex 0.03 0 0.06
       vertex 0.0299492 -0.00174434 0.06
       vertex 0.03 0 0
    endloop
  endfacet
  facet normal 0.999577 -0.0290843 0
    outer loop
       vertex 0.0299492 -0.00174434 0.06
       vertex 0.0299492 -0.00174434 0
       vertex 0.03 0 0
    endloop
  endfacet
  facet normal 0.819152 0.573576 0
    outer loop
       vertex 0.0240637 0.0179148 0.06
       vertex 0.0250646 0.0164853 0.06
       vertex 0.0240637 0.0179148 0
    endloop
  endfacet
  facet normal 0.819152 0.573576 0
    outer loop
       vertex 0.0250646 0.0164853 0.06
       vertex 0.0250646 0.0164853 0
       vertex 0.0240637 0.0179148 0
    endloop
  endfacet
  facet normal 0.784415 0.620236 0
    outer loop
       vertex 0.0229813 0.0192836 0.06
       vertex 0.0240637 0.0179148 0.06
       vertex 0.0229813 0.0192836 0
    endloop
  endfacet
  facet normal 0.747025 0.664796 0
    outer loop
       vertex 0.0218212 0.0205872 0.06
       vertex 0.0229813 0.0192836 0.06
       vertex 0.0229813 0.0192836 0
    endloop
  endfacet
  facet normal 0.784415 0.620236 0
    outer loop
       vertex 0.0240637 0.0179148 0.06
       vertex 0.0240637 0.0179148 0
       vertex 0.0229813 0.0192836 0
    endloop
  endfacet
  facet normal 0.747025 0.664796 0
    outer loop
       vertex 0.0218212 0.0205872 0.06
       vertex 0.0229813 0.0192836 0
       vertex 0.0218212 0.0205872 0
    endloop
  endfacet
  facet normal 0.707107 0.707107 0
    outer loop
       vertex 0.0205872 0.0218212 0.06
       vertex 0.0218212 0.0205872 0.06
       vertex 0.0205872 0.0218212 0
    endloop
  endfacet
  facet normal 0.707107 0.707107 0
    outer loop
       vertex 0.0218212 0.0205872 0.06
       vertex 0.0218212 0.0205872 0
       vertex 0.0205872 0.0218212 0
    endloop
  endfacet
  facet normal 0.664796 0.747025 0
    outer loop
       vertex 0.0192836 0.0229813 0.06
       vertex 0.0205872 0.0218212 0.06
       vertex 0.0192836 0.0229813 0
    endloop
  endfacet
  facet normal 0.664796 0.747025 0
    outer loop
       vertex 0.0205872 0.0218212 0.06
       vertex 0.0205872 0.0218212 0
       vertex 0.0192836 0.0229813 0
    endloop
  endfacet
  facet normal 0.620236 0.784415 0
    outer loop
       vertex 0.0179148 0.0240637 0.06
       vertex 0.0192836 0.0229813 0.06
       vertex 0.0179148 0.0240637 0
    endloop
  endfacet
  facet normal 0.620236 0.784415 0
    outer loop
       vertex 0.0192836 0.0229813 0.06
       vertex 0.0192836 0.0229813 0
       vertex 0.0179148 0.0240637 0
    endloop
  endfacet
  facet normal 0.573576 0.819152 0
    outer loop
       vertex 0.0164853 0.0250646 0.06
       vertex 0.0179148 0.0240637 0.06
       vertex 0.0164853 0.0250646 0
    endloop
  endfacet
  facet normal 0.524977 0.851117 0
    outer loop
       vertex 0.015 0.0259808 0.06
       vertex 0.0164853 0.0250646 0.06
       vertex 0.0164853 0.0250646 0
    endloop
  endfacet
  facet normal 0.573576 0.819152 0
    outer loop
       vertex 0.0179148 0.0240637 0.06
       vertex 0.0179148 0.0240637 0
       vertex 0.0164853 0.0250646 0
    endloop
  endfacet
  facet normal 0.524977 0.851117 0
    outer loop
       vertex 0.015 0.0259808 0.06
       vertex 0.0164853 0.0250646 0
       vertex 0.015 0.0259808 0
    endloop
  endfacet
  facet normal 0.4746 0.880202 0
    outer loop
       vertex 0.013464 0.026809 0.06
       vertex 0.015 0.0259808 0.06
       vertex 0.013464 0.026809 0
    endloop
  endfacet
  facet normal 0.4746 0.880202 0
    outer loop
       vertex 0.015 0.0259808 0.06
       vertex 0.015 0.0259808 0
       vertex 0.013464 0.026809 0
    endloop
  endfacet
  facet normal 0.422619 0.906308 0
    outer loop
       vertex 0.013464 0.026809 0.06
       vertex 0.013464 0.026809 0
       vertex 0.0118824 0.0275465 0
    endloop
  endfacet
  facet normal 0.422619 0.906308 0
    outer loop
       vertex 0.0118824 0.0275465 0.06
       vertex 0.013464 0.026809 0.06
       vertex 0.0118824 0.0275465 0
    endloop
  endfacet
  facet normal 0.369206 0.929348 0
    outer loop
       vertex 0.0118824 0.0275465 0.06
       vertex 0.0118824 0.0275465 0
       vertex 0.0102606 0.0281908 0
    endloop
  endfacet
  facet normal 0.369206 0.929348 0
    outer loop
       vertex 0.0102606 0.0281908 0.06
       vertex 0.0118824 0.0275465 0.06
       vertex 0.0102606 0.0281908 0
    endloop
  endfacet
  facet normal 0.314545 0.949243 0
    outer loop
       vertex 0.0102606 0.0281908 0.06
       vertex 0.0102606 0.0281908 0
       vertex 0.0086041 0.0287397 0
    endloop
  endfacet
  facet normal 0.314545 0.949243 0
    outer loop
       vertex 0.0086041 0.0287397 0.06
       vertex 0.0102606 0.0281908 0.06
       vertex 0.0086041 0.0287397 0
    endloop
  endfacet
  facet normal 0.258819 0.965926 0
    outer loop
       vertex 0.0086041 0.0287397 0.06
       vertex 0.0086041 0.0287397 0
       vertex 0.00691848 0.0291913 0
    endloop
  endfacet
  facet normal 0.258819 0.965926 0
    outer loop
       vertex 0.00691848 0.0291913 0.06
       vertex 0.0086041 0.0287397 0.06
       vertex 0.00691848 0.0291913 0
    endloop
  endfacet
  facet normal 0.202218 0.97934 0
    outer loop
       vertex 0.00691848 0.0291913 0.06
       vertex 0.00691848 0.0291913 0
       vertex 0.00520945 0.0295442 0
    endloop
  endfacet
  facet normal 0.202218 0.97934 0
    outer loop
       vertex 0.00520945 0.0295442 0.06
       vertex 0.00691848 0.0291913 0.06
       vertex 0.00520945 0.0295442 0
    endloop
  endfacet
  facet normal 0.144932 0.989442 0
    outer loop
       vertex 0.00520945 0.0295442 0.06
       vertex 0.00520945 0.0295442 0
       vertex 0.00348279 0.0297972 0
    endloop
  endfacet
  facet normal 0.144932 0.989442 0
    outer loop
       vertex 0.00348279 0.0297972 0.06
       vertex 0.00520945 0.0295442 0.06
       vertex 0.00348279 0.0297972 0
    endloop
  endfacet
  facet normal 0.0871557 0.996195 0
    outer loop
       vertex 0.00348279 0.0297972 0.06
       vertex 0.00348279 0.0297972 0
       vertex 0.00174434 0.0299492 0
    endloop
  endfacet
  facet normal 0.0871557 0.996195 0
    outer loop
       vertex 0.00174434 0.0299492 0.06
       vertex 0.00348279 0.0297972 0.06
       vertex 0.00174434 0.0299492 0
    endloop
  endfacet
  facet normal 0.0290843 0.999577 0
    outer loop
       vertex 0.00174434 0.0299492 0.06
       vertex 0.00174434 0.0299492 0
       vertex 1.83697e-18 0.03 0
    endloop
  endfacet
  facet normal 0.0290843 0.999577 0
    outer loop
       vertex 1.83697e-18 0.03 0.06
       vertex 0.00174434 0.0299492 0.06
       vertex 1.83697e-18 0.03 0
    endloop
  endfacet
  facet normal -0.0290843 0.999577 0
    outer loop
       vertex 1.83697e-18 0.03 0.06
       vertex 1.83697e-18 0.03 0
       vertex -0.00174434 0.0299492 0
    endloop
  endfacet
  facet normal -0.0290843 0.999577 0
    outer loop
       vertex -0.00174434 0.0299492 0.06
       vertex 1.83697e-18 0.03 0.06
       vertex -0.00174434 0.0299492 0
    endloop
  endfacet
  facet normal -0.0871557 0.996195 0
    outer loop
       vertex -0.00348279 0.0297972 0.06
       vertex -0.00174434 0.0299492 0.06
       vertex -0.00348279 0.0297972 0
    endloop
  endfacet
  facet normal -0.0871557 0.996195 0
    outer loop
       vertex -0.00174434 0.0299492 0.06
       vertex -0.00174434 0.0299492 0
       vertex -0.00348279 0.0297972 0
    endloop
  endfacet
  facet normal -0.144932 0.989442 0
    outer loop
       vertex -0.00520945 0.0295442 0.06
       vertex -0.00348279 0.0297972 0.06
       vertex -0.00520945 0.0295442 0
    endloop
  endfacet
  facet normal -0.144932 0.989442 0
    outer loop
       vertex -0.00348279 0.0297972 0.06
       vertex -0.00348279 0.0297972 0
       vertex -0.00520945 0.0295442 0
    endloop
  endfacet
  facet normal -0.202218 0.97934 0
    outer loop
       vertex -0.00691848 0.0291913 0.06
       vertex -0.00520945 0.0295442 0.06
       vertex -0.00691848 0.0291913 0
    endloop
  endfacet
  facet normal -0.202218 0.97934 0
    outer loop
       vertex -0.00520945 0.0295442 0.06
       vertex -0.00520945 0.0295442 0
       vertex -0.00691848 0.0291913 0
    endloop
  endfacet
  facet normal -0.258819 0.965926 0
    outer loop
       vertex -0.0086041 0.0287397 0.06
       vertex -0.00691848 0.0291913 0.06
       vertex -0.0086041 0.0287397 0
    endloop
  endfacet
  facet normal -0.258819 0.965926 0
    outer loop
       vertex -0.00691848 0.0291913 0.06
       vertex -0.00691848 0.0291913 0
       vertex -0.0086041 0.0287397 0
    endloop
  endfacet
  facet normal -0.314545 0.949243 0
    outer loop
       vertex -0.0102606 0.0281908 0.06
       vertex -0.0086041 0.0287397 0.06
       vertex -0.0102606 0.0281908 0
    endloop
  endfacet
  facet normal -0.369206 0.929348 0
    outer loop
       vertex -0.0118824 0.0275465 0.06
       vertex -0.0102606 0.0281908 0.06
       vertex -0.0102606 0.0281908 0
    endloop
  endfacet
  facet normal -0.314545 0.949243 0
    outer loop
       vertex -0.0086041 0.0287397 0.06
       vertex -0.0086041 0.0287397 0
       vertex -0.0102606 0.0281908 0
    endloop
  endfacet
  facet normal -0.369206 0.929348 0
    outer loop
       vertex -0.0118824 0.0275465 0.06
       vertex -0.0102606 0.0281908 0
       vertex -0.0118824 0.0275465 0
    endloop
  endfacet
  facet normal -0.422619 0.906308 0
    outer loop
       vertex -0.013464 0.026809 0.06
       vertex -0.0118824 0.0275465 0.06
       vertex -0.013464 0.026809 0
    endloop
  endfacet
  facet normal -0.422619 0.906308 0
    outer loop
       vertex -0.0118824 0.0275465 0.06
       vertex -0.0118824 0.0275465 0
       vertex -0.013464 0.026809 0
    endloop
  endfacet
  facet normal -0.4746 0.880202 0
    outer loop
       vertex -0.015 0.0259808 0.06
       vertex -0.013464 0.026809 0.06
       vertex -0.015 0.0259808 0
    endloop
  endfacet
  facet normal -0.4746 0.880202 0
    outer loop
       vertex -0.013464 0.026809 0.06
       vertex -0.013464 0.026809 0
       vertex -0.015 0.0259808 0
    endloop
  endfacet
  facet normal -0.524977 0.851117 0
    outer loop
       vertex -0.0164853 0.0250646 0.06
       vertex -0.015 0.0259808 0.06
       vertex -0.0164853 0.0250646 0
    endloop
  endfacet
  facet normal -0.524977 0.851117 0
    outer loop
       vertex -0.015 0.0259808 0.06
       vertex -0.015 0.0259808 0
       vertex -0.0164853 0.0250646 0
    endloop
  endfacet
  facet normal -0.573576 0.819152 0
    outer loop
       vertex -0.0179148 0.0240637 0.06
       vertex -0.0164853 0.0250646 0.06
       vertex -0.0179148 0.0240637 0
    endloop
  endfacet
  facet normal -0.573576 0.819152 0
    outer loop
       vertex -0.0164853 0.0250646 0.06
       vertex -0.0164853 0.0250646 0
       vertex -0.0179148 0.0240637 0
    endloop
  endfacet
  facet normal -0.620236 0.784415 0
    outer loop
       vertex -0.0192836 0.0229813 0.06
       vertex -0.0179148 0.0240637 0.06
       vertex -0.0192836 0.0229813 0
    endloop
  endfacet
  facet normal -0.620236 0.784415 0
    outer loop
       vertex -0.0179148 0.0240637 0.06
       vertex -0.0179148 0.0240637 0
       vertex -0.0192836 0.0229813 0
    endloop
  endfacet
  facet normal -0.664796 0.747025 0
    outer loop
       vertex -0.0205872 0.0218212 0.06
       vertex -0.0192836 0.0229813 0.06
       vertex -0.0205872 0.0218212 0
    endloop
  endfacet
  facet normal -0.707107 0.707107 0
    outer loop
       vertex -0.0218212 0.0205872 0.06
       vertex -0.0205872 0.0218212 0.06
       vertex -0.0205872 0.0218212 0
    endloop
  endfacet
  facet normal -0.664796 0.747025 0
    outer loop
       vertex -0.0192836 0.0229813 0.06
       vertex -0.0192836 0.0229813 0
       vertex -0.0205872 0.0218212 0
    endloop
  endfacet
  facet normal -0.747025 0.664796 0
    outer loop
       vertex -0.0229813 0.0192836 0.06
       vertex -0.0218212 0.0205872 0.06
       vertex -0.0218212 0.0205872 0
    endloop
  endfacet
  facet normal -0.707107 0.707107 0
    outer loop
       vertex -0.0218212 0.0205872 0.06
       vertex -0.0205872 0.0218212 0
       vertex -0.0218212 0.0205872 0
    endloop
  endfacet
  facet normal -0.747025 0.664796 0
    outer loop
       vertex -0.0229813 0.0192836 0.06
       vertex -0.0218212 0.0205872 0
       vertex -0.0229813 0.0192836 0
    endloop
  endfacet
  facet normal -0.784415 0.620236 0
    outer loop
       vertex -0.0240637 0.0179148 0.06
       vertex -0.0229813 0.0192836 0.06
       vertex -0.0240637 0.0179148 0
    endloop
  endfacet
  facet normal -0.784415 0.620236 0
    outer loop
       vertex -0.0229813 0.0192836 0.06
       vertex -0.0229813 0.0192836 0
       vertex -0.0240637 0.0179148 0
    endloop
  endfacet
  facet normal -0.819152 0.573576 0
    outer loop
       vertex -0.0250646 0.0164853 0.06
       vertex -0.0240637 0.0179148 0.06
       vertex -0.0250646 0.0164853 0
    endloop
  endfacet
  facet normal -0.851117 0.524977 0
    outer loop
       vertex -0.0259808 0.015 0.06
       vertex -0.0250646 0.0164853 0.06
       vertex -0.0250646 0.0164853 0
    endloop
  endfacet
  facet normal -0.819152 0.573576 0
    outer loop
       vertex -0.0240637 0.0179148 0.06
       vertex -0.0240637 0.0179148 0
       vertex -0.0250646 0.0164853 0
    endloop
  endfacet
  facet normal -0.851117 0.524977 0
    outer loop
       vertex -0.0259808 0.015 0.06
       vertex -0.0250646 0.0164853 0
       vertex -0.0259808 0.015 0
    endloop
  endfacet
  facet normal -0.880202 0.4746 0
    outer loop
       vertex -0.0259808 0.015 0.06
       vertex -0.0259808 0.015 0
       vertex -0.026809 0.013464 0
    endloop
  endfacet
  facet normal -0.880202 0.4746 0
    outer loop
       vertex -0.026809 0.013464 0.06
       vertex -0.0259808 0.015 0.06
       vertex -0.026809 0.013464 0
    endloop
  endfacet
  facet normal -0.906308 0.422619 0
    outer loop
       vertex -0.0275465 0.0118824 0.06
       vertex -0.026809 0.013464 0.06
       vertex -0.026809 0.013464 0
    endloop
  endfacet
  facet normal -0.906308 0.422619 0
    outer loop
       vertex -0.0275465 0.0118824 0.06
       vertex -0.026809 0.013464 0
       vertex -0.0275465 0.0118824 0
    endloop
  endfacet
  facet normal -0.929348 0.369206 0
    outer loop
       vertex -0.0275465 0.0118824 0.06
       vertex -0.0275465 0.0118824 0
       vertex -0.0281908 0.0102606 0
    endloop
  endfacet
  facet normal -0.929348 0.369206 0
    outer loop
       vertex -0.0281908 0.0102606 0.06
       vertex -0.0275465 0.0118824 0.06
       vertex -0.0281908 0.0102606 0
    endloop
  endfacet
  facet normal -0.949243 0.314545 0
    outer loop
       vertex -0.0281908 0.0102606 0.06
       vertex -0.0281908 0.0102606 0
       vertex -0.0287397 0.0086041 0
    endloop
  endfacet
  facet normal -0.949243 0.314545 0
    outer loop
       vertex -0.0287397 0.0086041 0.06
       vertex -0.0281908 0.0102606 0.06
       vertex -0.0287397 0.0086041 0
    endloop
  endfacet
  facet normal -0.965926 0.258819 0
    outer loop
       vertex -0.0291913 0.00691848 0.06
       vertex -0.0287397 0.0086041 0.06
       vertex -0.0287397 0.0086041 0
    endloop
  endfacet
  facet normal -0.965926 0.258819 0
    outer loop
       vertex -0.0291913 0.00691848 0.06
       vertex -0.0287397 0.0086041 0
       vertex -0.0291913 0.00691848 0
    endloop
  endfacet
  facet normal -0.97934 0.202218 0
    outer loop
       vertex -0.0291913 0.00691848 0.06
       vertex -0.0291913 0.00691848 0
       vertex -0.0295442 0.00520945 0
    endloop
  endfacet
  facet normal -0.97934 0.202218 0
    outer loop
       vertex -0.0295442 0.00520945 0.06
       vertex -0.0291913 0.00691848 0.06
       vertex -0.0295442 0.00520945 0
    endloop
  endfacet
  facet normal -0.989442 0.144932 0
    outer loop
       vertex -0.0295442 0.00520945 0.06
       vertex -0.0295442 0.00520945 0
       vertex -0.0297972 0.00348279 0
    endloop
  endfacet
  facet normal -0.989442 0.144932 0
    outer loop
       vertex -0.0297972 0.00348279 0.06
       vertex -0.0295442 0.00520945 0.06
       vertex -0.0297972 0.00348279 0
    endloop
  endfacet
  facet normal -0.996195 0.0871557 0
    outer loop
       vertex -0.0297972 0.00348279 0.06
       vertex -0.0297972 0.00348279 0
       vertex -0.0299492 0.00174434 0
    endloop
  endfacet
  facet normal -0.996195 0.0871557 0
    outer loop
       vertex -0.0299492 0.00174434 0.06
       vertex -0.0297972 0.00348279 0.06
       vertex -0.0299492 0.00174434 0
    endloop
  endfacet
  facet normal -0.999577 0.0290843 0
    outer loop
       vertex -0.03 3.67394e-18 0.06
       vertex -0.0299492 0.00174434 0.06
       vertex -0.0299492 0.00174434 0
    endloop
  endfacet
  facet normal -0.999577 0.0290843 0
    outer loop
       vertex -0.03 3.67394e-18 0.06
       vertex -0.0299492 0.00174434 0
       vertex -0.03 3.67394e-18 0
    endloop
  endfacet
  facet normal -0.999577 -0.0290843 -0
    outer loop
       vertex -0.03 3.67394e-18 0.06
       vertex -0.03 3.67394e-18 0
       vertex -0.0299492 -0.00174434 0
    endloop
  endfacet
  facet normal -0.999577 -0.0290843 -0
    outer loop
       vertex -0.0299492 -0.00174434 0.06
       vertex -0.03 3.67394e-18 0.06
       vertex -0.0299492 -0.00174434 0
    endloop
  endfacet
  facet normal -0.996195 -0.0871557 -0
    outer loop
       vertex -0.0299492 -0.00174434 0.06
       vertex -0.0299492 -0.00174434 0
       vertex -0.0297972 -0.00348279 0
    endloop
  endfacet
  facet normal -0.996195 -0.0871557 -0
    outer loop
       vertex -0.0297972 -0.00348279 0.06
       vertex -0.0299492 -0.00174434 0.06
       vertex -0.0297972 -0.00348279 0
    endloop
  endfacet
  facet normal -0.989442 -0.144932 -0
    outer loop
       vertex -0.0297972 -0.00348279 0.06
       vertex -0.0297972 -0.00348279 0
       vertex -0.0295442 -0.00520945 0
    endloop
  endfacet
  facet normal -0.989442 -0.144932 -0
    outer loop
       vertex -0.0295442 -0.00520945 0.06
       vertex -0.0297972 -0.00348279 0.06
       vertex -0.0295442 -0.00520945 0
    endloop
  endfacet
  facet normal -0.97934 -0.202218 0
    outer loop
       vertex -0.0291913 -0.00691848 0.06
       vertex -0.0295442 -0.00520945 0.06
       vertex -0.0295442 -0.00520945 0
    endloop
  endfacet
  facet normal -0.97934 -0.202218 -0
    outer loop
       vertex -0.0291913 -0.00691848 0.06
       vertex -0.0295442 -0.00520945 0
       vertex -0.0291913 -0.00691848 0
    endloop
  endfacet
  facet normal -0.965926 -0.258819 -0
    outer loop
       vertex -0.0291913 -0.00691848 0.06
       vertex -0.0291913 -0.00691848 0
       vertex -0.0287397 -0.0086041 0
    endloop
  endfacet
  facet normal -0.965926 -0.258819 -0
    outer loop
       vertex -0.0287397 -0.0086041 0.06
       vertex -0.0291913 -0.00691848 0.06
       vertex -0.0287397 -0.0086041 0
    endloop
  endfacet
  facet normal -0.949243 -0.314545 0
    outer loop
       vertex -0.0281908 -0.0102606 0.06
       vertex -0.0287397 -0.0086041 0.06
       vertex -0.0287397 -0.0086041 0
    endloop
  endfacet
  facet normal -0.949243 -0.314545 -0
    outer loop
       vertex -0.0281908 -0.0102606 0.06
       vertex -0.0287397 -0.0086041 0
       vertex -0.0281908 -0.0102606 0
    endloop
  endfacet
  facet normal -0.929348 -0.369206 -0
    outer loop
       vertex -0.0281908 -0.0102606 0.06
       vertex -0.0281908 -0.0102606 0
       vertex -0.0275465 -0.0118824 0
    endloop
  endfacet
  facet normal -0.929348 -0.369206 -0
    outer loop
       vertex -0.0275465 -0.0118824 0.06
       vertex -0.0281908 -0.0102606 0.06
       vertex -0.0275465 -0.0118824 0
    endloop
  endfacet
  facet normal -0.906308 -0.422619 -0
    outer loop
       vertex -0.0275465 -0.0118824 0.06
       vertex -0.0275465 -0.0118824 0
       vertex -0.026809 -0.013464 0
    endloop
  endfacet
  facet normal -0.906308 -0.422619 -0
    outer loop
       vertex -0.026809 -0.013464 0.06
       vertex -0.0275465 -0.0118824 0.06
       vertex -0.026809 -0.013464 0
    endloop
  endfacet
  facet normal -0.880202 -0.4746 -0
    outer loop
       vertex -0.0259808 -0.015 0.06
       vertex -0.026809 -0.013464 0.06
       vertex -0.0259808 -0.015 0
    endloop
  endfacet
  facet normal -0.880202 -0.4746 -0
    outer loop
       vertex -0.026809 -0.013464 0.06
       vertex -0.026809 -0.013464 0
       vertex -0.0259808 -0.015 0
    endloop
  endfacet
  facet normal -0.851117 -0.524977 0
    outer loop
       vertex -0.0250646 -0.0164853 0.06
       vertex -0.0259808 -0.015 0.06
       vertex -0.0259808 -0.015 0
    endloop
  endfacet
  facet normal -0.851117 -0.524977 -0
    outer loop
       vertex -0.0250646 -0.0164853 0.06
       vertex -0.0259808 -0.015 0
       vertex -0.0250646 -0.0164853 0
    endloop
  endfacet
  facet normal -0.819152 -0.573576 -0
    outer loop
       vertex -0.0240637 -0.0179148 0.06
       vertex -0.0250646 -0.0164853 0.06
       vertex -0.0240637 -0.0179148 0
    endloop
  endfacet
  facet normal -0.819152 -0.573576 -0
    outer loop
       vertex -0.0250646 -0.0164853 0.06
       vertex -0.0250646 -0.0164853 0
       vertex -0.0240637 -0.0179148 0
    endloop
  endfacet
  facet normal -0.784415 -0.620236 -0
    outer loop
       vertex -0.0229813 -0.0192836 0.06
       vertex -0.0240637 -0.0179148 0.06
       vertex -0.0229813 -0.0192836 0
    endloop
  endfacet
  facet normal -0.784415 -0.620236 -0
    outer loop
       vertex -0.0240637 -0.0179148 0.06
       vertex -0.0240637 -0.0179148 0
       vertex -0.0229813 -0.0192836 0
    endloop
  endfacet
  facet normal -0.747025 -0.664796 -0
    outer loop
       vertex -0.0218212 -0.0205872 0.06
       vertex -0.0229813 -0.0192836 0.06
       vertex -0.0218212 -0.0205872 0
    endloop
  endfacet
  facet normal -0.747025 -0.664796 -0
    outer loop
       vertex -0.0229813 -0.0192836 0.06
       vertex -0.0229813 -0.0192836 0
       vertex -0.0218212 -0.0205872 0
    endloop
  endfacet
  facet normal -0.707107 -0.707107 -0
    outer loop
       vertex -0.0205872 -0.0218212 0.06
       vertex -0.0218212 -0.0205872 0.06
       vertex -0.0205872 -0.0218212 0
    endloop
  endfacet
  facet normal -0.664796 -0.747025 0
    outer loop
       vertex -0.0192836 -0.0229813 0.06
       vertex -0.0205872 -0.0218212 0.06
       vertex -0.0205872 -0.0218212 0
    endloop
  endfacet
  facet normal -0.707107 -0.707107 -0
    outer loop
       vertex -0.0218212 -0.0205872 0.06
       vertex -0.0218212 -0.0205872 0
       vertex -0.0205872 -0.0218212 0
    endloop
  endfacet
  facet normal -0.664796 -0.747025 -0
    outer loop
       vertex -0.0192836 -0.0229813 0.06
       vertex -0.0205872 -0.0218212 0
       vertex -0.0192836 -0.0229813 0
    endloop
  endfacet
  facet normal -0.620236 -0.784415 -0
    outer loop
       vertex -0.0179148 -0.0240637 0.06
       vertex -0.0192836 -0.0229813 0.06
       vertex -0.0179148 -0.0240637 0
    endloop
  endfacet
  facet normal -0.620236 -0.784415 -0
    outer loop
       vertex -0.0192836 -0.0229813 0.06
       vertex -0.0192836 -0.0229813 0
       vertex -0.0179148 -0.0240637 0
    endloop
  endfacet
  facet normal -0.573576 -0.819152 -0
    outer loop
       vertex -0.0179148 -0.0240637 0.06
       vertex -0.0179148 -0.0240637 0
       vertex -0.0164853 -0.0250646 0
    endloop
  endfacet
  facet normal -0.573576 -0.819152 -0
    outer loop
       vertex -0.0164853 -0.0250646 0.06
       vertex -0.0179148 -0.0240637 0.06
       vertex -0.0164853 -0.0250646 0
    endloop
  endfacet
  facet normal -0.524977 -0.851117 0
    outer loop
       vertex -0.015 -0.0259808 0.06
       vertex -0.0164853 -0.0250646 0.06
       vertex -0.0164853 -0.0250646 0
    endloop
  endfacet
  facet normal -0.524977 -0.851117 -0
    outer loop
       vertex -0.015 -0.0259808 0.06
       vertex -0.0164853 -0.0250646 0
       vertex -0.015 -0.0259808 0
    endloop
  endfacet
  facet normal -0.4746 -0.880202 -0
    outer loop
       vertex -0.015 -0.0259808 0.06
       vertex -0.015 -0.0259808 0
       vertex -0.013464 -0.026809 0
    endloop
  endfacet
  facet normal -0.4746 -0.880202 -0
    outer loop
       vertex -0.013464 -0.026809 0.06
       vertex -0.015 -0.0259808 0.06
       vertex -0.013464 -0.026809 0
    endloop
  endfacet
  facet normal -0.422619 -0.906308 -0
    outer loop
       vertex -0.013464 -0.026809 0.06
       vertex -0.013464 -0.026809 0
       vertex -0.0118824 -0.0275465 0
    endloop
  endfacet
  facet normal -0.422619 -0.906308 -0
    outer loop
       vertex -0.0118824 -0.0275465 0.06
       vertex -0.013464 -0.026809 0.06
       vertex -0.0118824 -0.0275465 0
    endloop
  endfacet
  facet normal -0.369206 -0.929348 -0
    outer loop
       vertex -0.0118824 -0.0275465 0.06
       vertex -0.0118824 -0.0275465 0
       vertex -0.0102606 -0.0281908 0
    endloop
  endfacet
  facet normal -0.369206 -0.929348 -0
    outer loop
       vertex -0.0102606 -0.0281908 0.06
       vertex -0.0118824 -0.0275465 0.06
       vertex -0.0102606 -0.0281908 0
    endloop
  endfacet
  facet normal -0.314545 -0.949243 -0
    outer loop
       vertex -0.0102606 -0.0281908 0.06
       vertex -0.0102606 -0.0281908 0
       vertex -0.0086041 -0.0287397 0
    endloop
  endfacet
  facet normal -0.314545 -0.949243 -0
    outer loop
       vertex -0.0086041 -0.0287397 0.06
       vertex -0.0102606 -0.0281908 0.06
       vertex -0.0086041 -0.0287397 0
    endloop
  endfacet
  facet normal -0.258819 -0.965926 0
    outer loop
       vertex -0.00691848 -0.0291913 0.06
       vertex -0.0086041 -0.0287397 0.06
       vertex -0.0086041 -0.0287397 0
    endloop
  endfacet
  facet normal -0.258819 -0.965926 -0
    outer loop
       vertex -0.00691848 -0.0291913 0.06
       vertex -0.0086041 -0.0287397 0
       vertex -0.00691848 -0.0291913 0
    endloop
  endfacet
  facet normal -0.202218 -0.97934 -0
    outer loop
       vertex -0.00691848 -0.0291913 0.06
       vertex -0.00691848 -0.0291913 0
       vertex -0.00520945 -0.0295442 0
    endloop
  endfacet
  facet normal -0.202218 -0.97934 -0
    outer loop
       vertex -0.00520945 -0.0295442 0.06
       vertex -0.00691848 -0.0291913 0.06
       vertex -0.00520945 -0.0295442 0
    endloop
  endfacet
  facet normal -0.144932 -0.989442 -0
    outer loop
       vertex -0.00520945 -0.0295442 0.06
       vertex -0.00520945 -0.0295442 0
       vertex -0.00348279 -0.0297972 0
    endloop
  endfacet
  facet normal -0.144932 -0.989442 -0
    outer loop
       vertex -0.00348279 -0.0297972 0.06
       vertex -0.00520945 -0.0295442 0.06
       vertex -0.00348279 -0.0297972 0
    endloop
  endfacet
  facet normal -0.0871557 -0.996195 -0
    outer loop
       vertex -0.00348279 -0.0297972 0.06
       vertex -0.00348279 -0.0297972 0
       vertex -0.00174434 -0.0299492 0
    endloop
  endfacet
  facet normal -0.0871557 -0.996195 -0
    outer loop
       vertex -0.00174434 -0.0299492 0.06
       vertex -0.00348279 -0.0297972 0.06
       vertex -0.00174434 -0.0299492 0
    endloop
  endfacet
  facet normal -0.0290843 -0.999577 0
    outer loop
       vertex -5.88016e-17 -0.03 0.06
       vertex -0.00174434 -0.0299492 0.06
       vertex -0.00174434 -0.0299492 0
    endloop
  endfacet
  facet normal -0.0290843 -0.999577 -0
    outer loop
       vertex -5.88016e-17 -0.03 0.06
       vertex -0.00174434 -0.0299492 0
       vertex -5.88016e-17 -0.03 0
    endloop
  endfacet
  facet normal 0.0290843 -0.999577 0
    outer loop
       vertex -5.88016e-17 -0.03 0.06
       vertex -5.88016e-17 -0.03 0
       vertex 0.00174434 -0.0299492 0
    endloop
  endfacet
  facet normal 0.0290843 -0.999577 0
    outer loop
       vertex 0.00174434 -0.0299492 0.06
       vertex -5.88016e-17 -0.03 0.06
       vertex 0.00174434 -0.0299492 0
    endloop
  endfacet
  facet normal 0.0871557 -0.996195 0
    outer loop
       vertex 0.00174434 -0.0299492 0.06
       vertex 0.00174434 -0.0299492 0
       vertex 0.00348279 -0.0297972 0
    endloop
  endfacet
  facet normal 0.0871557 -0.996195 0
    outer loop
       vertex 0.00348279 -0.0297972 0.06
       vertex 0.00174434 -0.0299492 0.06
       vertex 0.00348279 -0.0297972 0
    endloop
  endfacet
  facet normal 0.144932 -0.989442 0
    outer loop
       vertex 0.00348279 -0.0297972 0.06
       vertex 0.00348279 -0.0297972 0
       vertex 0.00520945 -0.0295442 0
    endloop
  endfacet
  facet normal 0.144932 -0.989442 0
    outer loop
       vertex 0.00520945 -0.0295442 0.06
       vertex 0.00348279 -0.0297972 0.06
       vertex 0.00520945 -0.0295442 0
    endloop
  endfacet
  facet normal 0.202218 -0.97934 0
    outer loop
       vertex 0.00520945 -0.0295442 0.06
       vertex 0.00520945 -0.0295442 0
       vertex 0.00691848 -0.0291913 0
    endloop
  endfacet
  facet normal 0.202218 -0.97934 0
    outer loop
       vertex 0.00691848 -0.0291913 0.06
       vertex 0.00520945 -0.0295442 0.06
       vertex 0.00691848 -0.0291913 0
    endloop
  endfacet
  facet normal 0.258819 -0.965926 0
    outer loop
       vertex 0.00691848 -0.0291913 0.06
       vertex 0.00691848 -0.0291913 0
       vertex 0.0086041 -0.0287397 0
    endloop
  endfacet
  facet normal 0.258819 -0.965926 0
    outer loop
       vertex 0.0086041 -0.0287397 0.06
       vertex 0.00691848 -0.0291913 0.06
       vertex 0.0086041 -0.0287397 0
    endloop
  endfacet
  facet normal 0.314545 -0.949243 0
    outer loop
       vertex 0.0086041 -0.0287397 0.06
       vertex 0.0086041 -0.0287397 0
       vertex 0.0102606 -0.0281908 0
    endloop
  endfacet
  facet normal 0.314545 -0.949243 0
    outer loop
       vertex 0.0102606 -0.0281908 0.06
       vertex 0.0086041 -0.0287397 0.06
       vertex 0.0102606 -0.0281908 0
    endloop
  endfacet
  facet normal 0.369206 -0.929348 0
    outer loop
       vertex 0.0118824 -0.0275465 0.06
       vertex 0.0102606 -0.0281908 0.06
       vertex 0.0102606 -0.0281908 0
    endloop
  endfacet
  facet normal 0.369206 -0.929348 0
    outer loop
       vertex 0.0118824 -0.0275465 0.06
       vertex 0.0102606 -0.0281908 0
       vertex 0.0118824 -0.0275465 0
    endloop
  endfacet
  facet normal 0.422619 -0.906308 0
    outer loop
       vertex 0.0118824 -0.0275465 0.06
       vertex 0.0118824 -0.0275465 0
       vertex 0.013464 -0.026809 0
    endloop
  endfacet
  facet normal 0.422619 -0.906308 0
    outer loop
       vertex 0.013464 -0.026809 0.06
       vertex 0.0118824 -0.0275465 0.06
       vertex 0.013464 -0.026809 0
    endloop
  endfacet
  facet normal 0.4746 -0.880202 0
    outer loop
       vertex 0.013464 -0.026809 0.06
       vertex 0.013464 -0.026809 0
       vertex 0.015 -0.0259808 0
    endloop
  endfacet
  facet normal 0.4746 -0.880202 0
    outer loop
       vertex 0.015 -0.0259808 0.06
       vertex 0.013464 -0.026809 0.06
       vertex 0.015 -0.0259808 0
    endloop
  endfacet
  facet normal 0.573576 -0.819152 0
    outer loop
       vertex 0.0179148 -0.0240637 0.06
       vertex 0.0164853 -0.0250646 0.06
       vertex 0.0164853 -0.0250646 0
    endloop
  endfacet
  facet normal 0.524977 -0.851117 0
    outer loop
       vertex 0.015 -0.0259808 0.06
       vertex 0.015 -0.0259808 0
       vertex 0.0164853 -0.0250646 0
    endloop
  endfacet
  facet normal 0.524977 -0.851117 0
    outer loop
       vertex 0.0164853 -0.0250646 0.06
       vertex 0.015 -0.0259808 0.06
       vertex 0.0164853 -0.0250646 0
    endloop
  endfacet
  facet normal 0.573576 -0.819152 0
    outer loop
       vertex 0.0179148 -0.0240637 0.06
       vertex 0.0164853 -0.0250646 0
       vertex 0.0179148 -0.0240637 0
    endloop
  endfacet
  facet normal 0.620236 -0.784415 0
    outer loop
       vertex 0.0192836 -0.0229813 0.06
       vertex 0.0179148 -0.0240637 0.06
       vertex 0.0192836 -0.0229813 0
    endloop
  endfacet
  facet normal 0.620236 -0.784415 0
    outer loop
       vertex 0.0179148 -0.0240637 0.06
       vertex 0.0179148 -0.0240637 0
       vertex 0.0192836 -0.0229813 0
    endloop
  endfacet
  facet normal 0.664796 -0.747025 0
    outer loop
       vertex 0.0205872 -0.0218212 0.06
       vertex 0.0192836 -0.0229813 0.06
       vertex 0.0205872 -0.0218212 0
    endloop
  endfacet
  facet normal 0 0 -1
    outer loop
       vertex 0.0240637 -0.0179148 0
       vertex 0.0229813 -0.0192836 0
       vertex 0.0218212 -0.0205872 0
    endloop
  endfacet
  facet normal 0 0 -1
    outer loop
       vertex 0.0179148 -0.0240637 0
       vertex 0.0205872 -0.0218212 0
       vertex 0.0192836 -0.0229813 0
    endloop
  endfacet
  facet normal 0 0 -1
    outer loop
       vertex 0.0179148 -0.0240637 0
       vertex 0.0218212 -0.0205872 0
       vertex 0.0205872 -0.0218212 0
    endloop
  endfacet
  facet normal 0 0 -1
    outer loop
       vertex 0.0250646 -0.0164853 0
       vertex 0.0240637 -0.0179148 0
       vertex 0.0218212 -0.0205872 0
    endloop
  endfacet
  facet normal 0 0 -1
    outer loop
       vertex 0.015 -0.0259808 0
       vertex 0.0179148 -0.0240637 0
       vertex 0.0164853 -0.0250646 0
    endloop
  endfacet
  facet normal 0 0 -1
    outer loop
       vertex 0.026809 -0.013464 0
       vertex 0.0259808 -0.015 0
       vertex 0.0250646 -0.0164853 0
    endloop
  endfacet
  facet normal 0 0 -1
    outer loop
       vertex 0.0118824 -0.0275465 0
       vertex 0.0179148 -0.0240637 0
       vertex 0.015 -0.0259808 0
    endloop
  endfacet
  facet normal 0 0 -1
    outer loop
       vertex 0.0118824 -0.0275465 0
       vertex 0.015 -0.0259808 0
       vertex 0.013464 -0.026809 0
    endloop
  endfacet
  facet normal 0 0 -1
    outer loop
       vertex 0.0281908 -0.0102606 0
       vertex 0.0275465 -0.0118824 0
       vertex 0.026809 -0.013464 0
    endloop
  endfacet
  facet normal 0 0 -1
    outer loop
       vertex 0.0287397 -0.0086041 0
       vertex 0.0281908 -0.0102606 0
       vertex 0.026809 -0.013464 0
    endloop
  endfacet
  facet normal 0 0 -1
    outer loop
       vertex 0.0287397 -0.0086041 0
       vertex 0.026809 -0.013464 0
       vertex 0.0250646 -0.0164853 0
    endloop
  endfacet
  facet normal 0 0 -1
    outer loop
       vertex 0.00691848 -0.0291913 0
       vertex 0.0102606 -0.0281908 0
       vertex 0.0086041 -0.0287397 0
    endloop
  endfacet
  facet normal 0 0 -1
    outer loop
       vertex 0.00691848 -0.0291913 0
       vertex 0.0118824 -0.0275465 0
       vertex 0.0102606 -0.0281908 0
    endloop
  endfacet
  facet normal 0 0 -1
    outer loop
       vertex 0.0295442 -0.00520945 0
       vertex 0.0291913 -0.00691848 0
       vertex 0.0287397 -0.0086041 0
    endloop
  endfacet
  facet normal 0 0 -1
    outer loop
       vertex 0.0295442 -0.00520945 0
       vertex 0.0287397 -0.0086041 0
       vertex 0.0250646 -0.0164853 0
    endloop
  endfacet
  facet normal 0 0 -1
    outer loop
       vertex 0.0295442 -0.00520945 0
       vertex 0.0250646 -0.0164853 0
       vertex 0.0218212 -0.0205872 0
    endloop
  endfacet
  facet normal 0 0 -1
    outer loop
       vertex 0.00520945 -0.0295442 0
       vertex 0.0179148 -0.0240637 0
       vertex 0.0118824 -0.0275465 0
    endloop
  endfacet
  facet normal 0 0 -1
    outer loop
       vertex 0.00520945 -0.0295442 0
       vertex 0.0118824 -0.0275465 0
       vertex 0.00691848 -0.0291913 0
    endloop
  endfacet
  facet normal 0 0 -1
    outer loop
       vertex 0.0299492 -0.00174434 0
       vertex 0.0297972 -0.00348279 0
       vertex 0.0295442 -0.00520945 0
    endloop
  endfacet
  facet normal 0 0 -1
    outer loop
       vertex 0.03 0 0
       vertex 0.0218212 -0.0205872 0
       vertex 0.0179148 -0.0240637 0
    endloop
  endfacet
  facet normal 0 0 -1
    outer loop
       vertex 0.03 0 0
       vertex 0.0299492 -0.00174434 0
       vertex 0.0295442 -0.00520945 0
    endloop
  endfacet
  facet normal 0 0 -1
    outer loop
       vertex 0.03 0 0
       vertex 0.0295442 -0.00520945 0
       vertex 0.0218212 -0.0205872 0
    endloop
  endfacet
  facet normal 0 0 -1
    outer loop
       vertex 0.03 0 0
       vertex 0.0179148 -0.0240637 0
       vertex 0.00520945 -0.0295442 0
    endloop
  endfacet
  facet normal 0 0 -1
    outer loop
       vertex -5.88016e-17 -0.03 0
       vertex 0.00348279 -0.0297972 0
       vertex 0.00174434 -0.0299492 0
    endloop
  endfacet
  facet normal 0 0 -1
    outer loop
       vertex -5.88016e-17 -0.03 0
       vertex 0.00520945 -0.0295442 0
       vertex 0.00348279 -0.0297972 0
    endloop
  endfacet
  facet normal 0 -0 -1
    outer loop
       vertex 0.0299492 0.00174434 0
       vertex 0.03 0 0
       vertex 0.00520945 -0.0295442 0
    endloop
  endfacet
  facet normal 0 0 -1
    outer loop
       vertex -0.00348279 -0.0297972 0
       vertex 0.00520945 -0.0295442 0
       vertex -5.88016e-17 -0.03 0
    endloop
  endfacet
  facet normal 0 0 -1
    outer loop
       vertex -0.00348279 -0.0297972 0
       vertex -5.88016e-17 -0.03 0
       vertex -0.00174434 -0.0299492 0
    endloop
  endfacet
  facet normal 0 0 -1
    outer loop
       vertex 0.0295442 0.00520945 0
       vertex 0.0297972 0.00348279 0
       vertex 0.0299492 0.00174434 0
    endloop
  endfacet
  facet normal 0 -0 -1
    outer loop
       vertex 0.0295442 0.00520945 0
       vertex 0.0299492 0.00174434 0
       vertex 0.00520945 -0.0295442 0
    endloop
  endfacet
  facet normal 0 0 -1
    outer loop
       vertex 0.0295442 0.00520945 0
       vertex 0.00520945 -0.0295442 0
       vertex -0.00348279 -0.0297972 0
    endloop
  endfacet
  facet normal 0 -0 -1
    outer loop
       vertex 0.0291913 0.00691848 0
       vertex 0.0295442 0.00520945 0
       vertex -0.00348279 -0.0297972 0
    endloop
  endfacet
  facet normal 0 0 -1
    outer loop
       vertex 0.0291913 0.00691848 0
       vertex -0.00348279 -0.0297972 0
       vertex -0.00520945 -0.0295442 0
    endloop
  endfacet
  facet normal 0 0 -1
    outer loop
       vertex -0.0086041 -0.0287397 0
       vertex 0.0287397 0.0086041 0
       vertex 0.0291913 0.00691848 0
    endloop
  endfacet
  facet normal 0 0 -1
    outer loop
       vertex -0.0086041 -0.0287397 0
       vertex -0.00520945 -0.0295442 0
       vertex -0.00691848 -0.0291913 0
    endloop
  endfacet
  facet normal 0 0 -1
    outer loop
       vertex -0.0086041 -0.0287397 0
       vertex 0.0291913 0.00691848 0
       vertex -0.00520945 -0.0295442 0
    endloop
  endfacet
  facet normal 0 0 -1
    outer loop
       vertex 0.0275465 0.0118824 0
       vertex 0.0281908 0.0102606 0
       vertex 0.0287397 0.0086041 0
    endloop
  endfacet
  facet normal 0 -0 -1
    outer loop
       vertex 0.0275465 0.0118824 0
       vertex 0.0287397 0.0086041 0
       vertex -0.0086041 -0.0287397 0
    endloop
  endfacet
  facet normal 0 0 -1
    outer loop
       vertex -0.0118824 -0.0275465 0
       vertex -0.0086041 -0.0287397 0
       vertex -0.0102606 -0.0281908 0
    endloop
  endfacet
  facet normal 0 -0 -1
    outer loop
       vertex 0.026809 0.013464 0
       vertex 0.0275465 0.0118824 0
       vertex -0.0086041 -0.0287397 0
    endloop
  endfacet
  facet normal 0 0 -1
    outer loop
       vertex -0.013464 -0.026809 0
       vertex -0.0086041 -0.0287397 0
       vertex -0.0118824 -0.0275465 0
    endloop
  endfacet
  facet normal 0 -0 -1
    outer loop
       vertex 0.0259808 0.015 0
       vertex 0.026809 0.013464 0
       vertex -0.0086041 -0.0287397 0
    endloop
  endfacet
  facet normal 0 0 -1
    outer loop
       vertex 0.0240637 0.0179148 0
       vertex 0.0250646 0.0164853 0
       vertex 0.0259808 0.015 0
    endloop
  endfacet
  facet normal 0 0 -1
    outer loop
       vertex -0.0179148 -0.0240637 0
       vertex -0.015 -0.0259808 0
       vertex -0.0164853 -0.0250646 0
    endloop
  endfacet
  facet normal 0 0 -1
    outer loop
       vertex -0.0179148 -0.0240637 0
       vertex -0.013464 -0.026809 0
       vertex -0.015 -0.0259808 0
    endloop
  endfacet
  facet normal 0 0 -1
    outer loop
       vertex 0.0229813 0.0192836 0
       vertex 0.0240637 0.0179148 0
       vertex 0.0259808 0.015 0
    endloop
  endfacet
  facet normal 0 -0 -1
    outer loop
       vertex 0.0229813 0.0192836 0
       vertex 0.0259808 0.015 0
       vertex -0.0086041 -0.0287397 0
    endloop
  endfacet
  facet normal 0 0 -1
    outer loop
       vertex -0.0192836 -0.0229813 0
       vertex -0.013464 -0.026809 0
       vertex -0.0179148 -0.0240637 0
    endloop
  endfacet
  facet normal 0 0 -1
    outer loop
       vertex -0.0192836 -0.0229813 0
       vertex -0.0086041 -0.0287397 0
       vertex -0.013464 -0.026809 0
    endloop
  endfacet
  facet normal 0 0 -1
    outer loop
       vertex 0.0192836 0.0229813 0
       vertex 0.0218212 0.0205872 0
       vertex 0.0229813 0.0192836 0
    endloop
  endfacet
  facet normal 0 0 -1
    outer loop
       vertex 0.0192836 0.0229813 0
       vertex 0.0205872 0.0218212 0
       vertex 0.0218212 0.0205872 0
    endloop
  endfacet
  facet normal 0 0 -1
    outer loop
       vertex -0.0229813 -0.0192836 0
       vertex -0.0086041 -0.0287397 0
       vertex -0.0192836 -0.0229813 0
    endloop
  endfacet
  facet normal 0 0 -1
    outer loop
       vertex -0.0229813 -0.0192836 0
       vertex -0.0205872 -0.0218212 0
       vertex -0.0218212 -0.0205872 0
    endloop
  endfacet
  facet normal 0 0 -1
    outer loop
       vertex -0.0229813 -0.0192836 0
       vertex -0.0192836 -0.0229813 0
       vertex -0.0205872 -0.0218212 0
    endloop
  endfacet
  facet normal 0 -0 -1
    outer loop
       vertex 0.0179148 0.0240637 0
       vertex 0.0229813 0.0192836 0
       vertex -0.0086041 -0.0287397 0
    endloop
  endfacet
  facet normal 0 0 -1
    outer loop
       vertex 0.0179148 0.0240637 0
       vertex -0.0086041 -0.0287397 0
       vertex -0.0229813 -0.0192836 0
    endloop
  endfacet
  facet normal 0 0 -1
    outer loop
       vertex 0.0179148 0.0240637 0
       vertex 0.0192836 0.0229813 0
       vertex 0.0229813 0.0192836 0
    endloop
  endfacet
  facet normal 0 -0 -1
    outer loop
       vertex 0.0164853 0.0250646 0
       vertex 0.0179148 0.0240637 0
       vertex -0.0229813 -0.0192836 0
    endloop
  endfacet
  facet normal 0 0 -1
    outer loop
       vertex 0.0164853 0.0250646 0
       vertex -0.0229813 -0.0192836 0
       vertex -0.0240637 -0.0179148 0
    endloop
  endfacet
  facet normal 0 0 -1
    outer loop
       vertex 0.013464 0.026809 0
       vertex 0.015 0.0259808 0
       vertex 0.0164853 0.0250646 0
    endloop
  endfacet
  facet normal 0 0 -1
    outer loop
       vertex -0.026809 -0.013464 0
       vertex 0.0164853 0.0250646 0
       vertex -0.0240637 -0.0179148 0
    endloop
  endfacet
  facet normal 0 0 -1
    outer loop
       vertex -0.026809 -0.013464 0
       vertex -0.0250646 -0.0164853 0
       vertex -0.0259808 -0.015 0
    endloop
  endfacet
  facet normal 0 0 -1
    outer loop
       vertex -0.026809 -0.013464 0
       vertex -0.0240637 -0.0179148 0
       vertex -0.0250646 -0.0164853 0
    endloop
  endfacet
  facet normal 0 0 -1
    outer loop
       vertex -0.0275465 -0.0118824 0
       vertex 0.0118824 0.0275465 0
       vertex 0.013464 0.026809 0
    endloop
  endfacet
  facet normal 0 0 -1
    outer loop
       vertex -0.0275465 -0.0118824 0
       vertex 0.013464 0.026809 0
       vertex 0.0164853 0.0250646 0
    endloop
  endfacet
  facet normal 0 0 -1
    outer loop
       vertex -0.0275465 -0.0118824 0
       vertex 0.0164853 0.0250646 0
       vertex -0.026809 -0.013464 0
    endloop
  endfacet
  facet normal 0 -0 -1
    outer loop
       vertex 0.0102606 0.0281908 0
       vertex 0.0118824 0.0275465 0
       vertex -0.0275465 -0.0118824 0
    endloop
  endfacet
  facet normal 0 0 -1
    outer loop
       vertex -0.0281908 -0.0102606 0
       vertex 0.0102606 0.0281908 0
       vertex -0.0275465 -0.0118824 0
    endloop
  endfacet
  facet normal 0 0 -1
    outer loop
       vertex 0.00691848 0.0291913 0
       vertex 0.0086041 0.0287397 0
       vertex 0.0102606 0.0281908 0
    endloop
  endfacet
  facet normal 0 0 -1
    outer loop
       vertex -0.0291913 -0.00691848 0
       vertex 0.0102606 0.0281908 0
       vertex -0.0281908 -0.0102606 0
    endloop
  endfacet
  facet normal 0 0 -1
    outer loop
       vertex -0.0291913 -0.00691848 0
       vertex -0.0281908 -0.0102606 0
       vertex -0.0287397 -0.0086041 0
    endloop
  endfacet
  facet normal 0 0 -1
    outer loop
       vertex -0.0295442 -0.00520945 0
       vertex 0.0102606 0.0281908 0
       vertex -0.0291913 -0.00691848 0
    endloop
  endfacet
  facet normal 0 0 -1
    outer loop
       vertex 0.00348279 0.0297972 0
       vertex 0.00520945 0.0295442 0
       vertex 0.00691848 0.0291913 0
    endloop
  endfacet
  facet normal 0 0 -1
    outer loop
       vertex -0.0299492 -0.00174434 0
       vertex -0.0295442 -0.00520945 0
       vertex -0.0297972 -0.00348279 0
    endloop
  endfacet
  facet normal 0 0 -1
    outer loop
       vertex -0.0299492 -0.00174434 0
       vertex 0.0102606 0.0281908 0
       vertex -0.0295442 -0.00520945 0
    endloop
  endfacet
  facet normal 0 0 -1
    outer loop
       vertex 0.00174434 0.0299492 0
       vertex 0.00691848 0.0291913 0
       vertex 0.0102606 0.0281908 0
    endloop
  endfacet
  facet normal 0 0 -1
    outer loop
       vertex 0.00174434 0.0299492 0
       vertex 0.00348279 0.0297972 0
       vertex 0.00691848 0.0291913 0
    endloop
  endfacet
  facet normal 0 0 -1
    outer loop
       vertex -0.00174434 0.0299492 0
       vertex 1.83697e-18 0.03 0
       vertex 0.00174434 0.0299492 0
    endloop
  endfacet
  facet normal 0 0 -1
    outer loop
       vertex -0.00174434 0.0299492 0
       vertex 0.00174434 0.0299492 0
       vertex 0.0102606 0.0281908 0
    endloop
  endfacet
  facet normal 0 -0 -1
    outer loop
       vertex -0.00174434 0.0299492 0
       vertex 0.0102606 0.0281908 0
       vertex -0.0299492 -0.00174434 0
    endloop
  endfacet
  facet normal 0 -0 -1
    outer loop
       vertex -0.0299492 0.00174434 0
       vertex -0.0299492 -0.00174434 0
       vertex -0.03 3.67394e-18 0
    endloop
  endfacet
  facet normal 0 0 -1
    outer loop
       vertex -0.00691848 0.0291913 0
       vertex -0.00520945 0.0295442 0
       vertex -0.00348279 0.0297972 0
    endloop
  endfacet
  facet normal 0 0 -1
    outer loop
       vertex -0.0281908 0.0102606 0
       vertex -0.00348279 0.0297972 0
       vertex -0.00174434 0.0299492 0
    endloop
  endfacet
  facet normal 0 0 -1
    outer loop
       vertex -0.0281908 0.0102606 0
       vertex -0.0086041 0.0287397 0
       vertex -0.00691848 0.0291913 0
    endloop
  endfacet
  facet normal 0 0 -1
    outer loop
       vertex -0.0281908 0.0102606 0
       vertex -0.0291913 0.00691848 0
       vertex -0.0287397 0.0086041 0
    endloop
  endfacet
  facet normal 0 0 -1
    outer loop
       vertex -0.0281908 0.0102606 0
       vertex -0.0295442 0.00520945 0
       vertex -0.0291913 0.00691848 0
    endloop
  endfacet
  facet normal 0 0 -1
    outer loop
       vertex -0.0281908 0.0102606 0
       vertex -0.0297972 0.00348279 0
       vertex -0.0295442 0.00520945 0
    endloop
  endfacet
  facet normal 0 0 -1
    outer loop
       vertex -0.0281908 0.0102606 0
       vertex -0.0299492 0.00174434 0
       vertex -0.0297972 0.00348279 0
    endloop
  endfacet
  facet normal 0 -0 -1
    outer loop
       vertex -0.0281908 0.0102606 0
       vertex -0.00174434 0.0299492 0
       vertex -0.0299492 -0.00174434 0
    endloop
  endfacet
  facet normal 0 0 -1
    outer loop
       vertex -0.0281908 0.0102606 0
       vertex -0.0299492 -0.00174434 0
       vertex -0.0299492 0.00174434 0
    endloop
  endfacet
  facet normal 0 0 -1
    outer loop
       vertex -0.0281908 0.0102606 0
       vertex -0.00691848 0.0291913 0
       vertex -0.00348279 0.0297972 0
    endloop
  endfacet
  facet normal 0 0 -1
    outer loop
       vertex -0.0118824 0.0275465 0
       vertex -0.0102606 0.0281908 0
       vertex -0.0086041 0.0287397 0
    endloop
  endfacet
  facet normal 0 0 -1
    outer loop
       vertex -0.015 0.0259808 0
       vertex -0.013464 0.026809 0
       vertex -0.0118824 0.0275465 0
    endloop
  endfacet
  facet normal 0 0 -1
    outer loop
       vertex -0.015 0.0259808 0
       vertex -0.0118824 0.0275465 0
       vertex -0.0086041 0.0287397 0
    endloop
  endfacet
  facet normal 0 0 -1
    outer loop
       vertex -0.0250646 0.0164853 0
       vertex -0.026809 0.013464 0
       vertex -0.0259808 0.015 0
    endloop
  endfacet
  facet normal 0 0 -1
    outer loop
       vertex -0.0250646 0.0164853 0
       vertex -0.0275465 0.0118824 0
       vertex -0.026809 0.013464 0
    endloop
  endfacet
  facet normal 0 0 -1
    outer loop
       vertex -0.0250646 0.0164853 0
       vertex -0.0281908 0.0102606 0
       vertex -0.0275465 0.0118824 0
    endloop
  endfacet
  facet normal 0 0 -1
    outer loop
       vertex -0.0179148 0.0240637 0
       vertex -0.0164853 0.0250646 0
       vertex -0.015 0.0259808 0
    endloop
  endfacet
  facet normal 0 0 -1
    outer loop
       vertex -0.0192836 0.0229813 0
       vertex -0.0179148 0.0240637 0
       vertex -0.015 0.0259808 0
    endloop
  endfacet
  facet normal 0 0 -1
    outer loop
       vertex -0.0229813 0.0192836 0
       vertex -0.0250646 0.0164853 0
       vertex -0.0240637 0.0179148 0
    endloop
  endfacet
  facet normal 0 0 -1
    outer loop
       vertex -0.0218212 0.0205872 0
       vertex -0.0281908 0.0102606 0
       vertex -0.0250646 0.0164853 0
    endloop
  endfacet
  facet normal 0 0 -1
    outer loop
       vertex -0.0218212 0.0205872 0
       vertex -0.015 0.0259808 0
       vertex -0.0086041 0.0287397 0
    endloop
  endfacet
  facet normal 0 0 -1
    outer loop
       vertex -0.0218212 0.0205872 0
       vertex -0.0192836 0.0229813 0
       vertex -0.015 0.0259808 0
    endloop
  endfacet
  facet normal 0 0 -1
    outer loop
       vertex -0.0218212 0.0205872 0
       vertex -0.0250646 0.0164853 0
       vertex -0.0229813 0.0192836 0
    endloop
  endfacet
  facet normal 0 -0 -1
    outer loop
       vertex -0.0218212 0.0205872 0
       vertex -0.0086041 0.0287397 0
       vertex -0.0281908 0.0102606 0
    endloop
  endfacet
  facet normal 0 -0 -1
    outer loop
       vertex -0.0205872 0.0218212 0
       vertex -0.0192836 0.0229813 0
       vertex -0.0218212 0.0205872 0
    endloop
  endfacet
  facet normal 0 0 1
    outer loop
       vertex 0.0218212 -0.0205872 0.06
       vertex 0.0229813 -0.0192836 0.06
       vertex 0.0240637 -0.0179148 0.06
    endloop
  endfacet
  facet normal 0 -0 1
    outer loop
       vertex 0.0192836 -0.0229813 0.06
       vertex 0.0205872 -0.0218212 0.06
       vertex 0.0179148 -0.0240637 0.06
    endloop
  endfacet
  facet normal 0 -0 1
    outer loop
       vertex 0.0205872 -0.0218212 0.06
       vertex 0.0218212 -0.0205872 0.06
       vertex 0.0179148 -0.0240637 0.06
    endloop
  endfacet
  facet normal 0 0 1
    outer loop
       vertex 0.0218212 -0.0205872 0.06
       vertex 0.0240637 -0.0179148 0.06
       vertex 0.0250646 -0.0164853 0.06
    endloop
  endfacet
  facet normal 0 -0 1
    outer loop
       vertex 0.0164853 -0.0250646 0.06
       vertex 0.0179148 -0.0240637 0.06
       vertex 0.015 -0.0259808 0.06
    endloop
  endfacet
  facet normal 0 0 1
    outer loop
       vertex 0.0250646 -0.0164853 0.06
       vertex 0.0259808 -0.015 0.06
       vertex 0.026809 -0.013464 0.06
    endloop
  endfacet
  facet normal 0 -0 1
    outer loop
       vertex 0.015 -0.0259808 0.06
       vertex 0.0179148 -0.0240637 0.06
       vertex 0.0118824 -0.0275465 0.06
    endloop
  endfacet
  facet normal 0 -0 1
    outer loop
       vertex 0.013464 -0.026809 0.06
       vertex 0.015 -0.0259808 0.06
       vertex 0.0118824 -0.0275465 0.06
    endloop
  endfacet
  facet normal 0 0 1
    outer loop
       vertex 0.026809 -0.013464 0.06
       vertex 0.0275465 -0.0118824 0.06
       vertex 0.0281908 -0.0102606 0.06
    endloop
  endfacet
  facet normal 0 0 1
    outer loop
       vertex 0.026809 -0.013464 0.06
       vertex 0.0281908 -0.0102606 0.06
       vertex 0.0287397 -0.0086041 0.06
    endloop
  endfacet
  facet normal 0 0 1
    outer loop
       vertex 0.0250646 -0.0164853 0.06
       vertex 0.026809 -0.013464 0.06
       vertex 0.0287397 -0.0086041 0.06
    endloop
  endfacet
  facet normal 0 -0 1
    outer loop
       vertex 0.0086041 -0.0287397 0.06
       vertex 0.0102606 -0.0281908 0.06
       vertex 0.00691848 -0.0291913 0.06
    endloop
  endfacet
  facet normal 0 -0 1
    outer loop
       vertex 0.0102606 -0.0281908 0.06
       vertex 0.0118824 -0.0275465 0.06
       vertex 0.00691848 -0.0291913 0.06
    endloop
  endfacet
  facet normal 0 0 1
    outer loop
       vertex 0.0287397 -0.0086041 0.06
       vertex 0.0291913 -0.00691848 0.06
       vertex 0.0295442 -0.00520945 0.06
    endloop
  endfacet
  facet normal 0 0 1
    outer loop
       vertex 0.0250646 -0.0164853 0.06
       vertex 0.0287397 -0.0086041 0.06
       vertex 0.0295442 -0.00520945 0.06
    endloop
  endfacet
  facet normal 0 0 1
    outer loop
       vertex 0.0218212 -0.0205872 0.06
       vertex 0.0250646 -0.0164853 0.06
       vertex 0.0295442 -0.00520945 0.06
    endloop
  endfacet
  facet normal 0 -0 1
    outer loop
       vertex 0.0118824 -0.0275465 0.06
       vertex 0.0179148 -0.0240637 0.06
       vertex 0.00520945 -0.0295442 0.06
    endloop
  endfacet
  facet normal 0 -0 1
    outer loop
       vertex 0.00691848 -0.0291913 0.06
       vertex 0.0118824 -0.0275465 0.06
       vertex 0.00520945 -0.0295442 0.06
    endloop
  endfacet
  facet normal 0 0 1
    outer loop
       vertex 0.0295442 -0.00520945 0.06
       vertex 0.0297972 -0.00348279 0.06
       vertex 0.0299492 -0.00174434 0.06
    endloop
  endfacet
  facet normal 0 0 1
    outer loop
       vertex 0.0179148 -0.0240637 0.06
       vertex 0.0218212 -0.0205872 0.06
       vertex 0.03 0 0.06
    endloop
  endfacet
  facet normal 0 0 1
    outer loop
       vertex 0.0295442 -0.00520945 0.06
       vertex 0.0299492 -0.00174434 0.06
       vertex 0.03 0 0.06
    endloop
  endfacet
  facet normal 0 0 1
    outer loop
       vertex 0.0218212 -0.0205872 0.06
       vertex 0.0295442 -0.00520945 0.06
       vertex 0.03 0 0.06
    endloop
  endfacet
  facet normal 0 0 1
    outer loop
       vertex 0.00520945 -0.0295442 0.06
       vertex 0.0179148 -0.0240637 0.06
       vertex 0.03 0 0.06
    endloop
  endfacet
  facet normal 0 -0 1
    outer loop
       vertex 0.00174434 -0.0299492 0.06
       vertex 0.00348279 -0.0297972 0.06
       vertex -5.88016e-17 -0.03 0.06
    endloop
  endfacet
  facet normal 0 -0 1
    outer loop
       vertex 0.00348279 -0.0297972 0.06
       vertex 0.00520945 -0.0295442 0.06
       vertex -5.88016e-17 -0.03 0.06
    endloop
  endfacet
  facet normal 0 0 1
    outer loop
       vertex 0.00520945 -0.0295442 0.06
       vertex 0.03 0 0.06
       vertex 0.0299492 0.00174434 0.06
    endloop
  endfacet
  facet normal 0 -0 1
    outer loop
       vertex -5.88016e-17 -0.03 0.06
       vertex 0.00520945 -0.0295442 0.06
       vertex -0.00348279 -0.0297972 0.06
    endloop
  endfacet
  facet normal -0 -0 1
    outer loop
       vertex -0.00174434 -0.0299492 0.06
       vertex -5.88016e-17 -0.03 0.06
       vertex -0.00348279 -0.0297972 0.06
    endloop
  endfacet
  facet normal 0 0 1
    outer loop
       vertex 0.0299492 0.00174434 0.06
       vertex 0.0297972 0.00348279 0.06
       vertex 0.0295442 0.00520945 0.06
    endloop
  endfacet
  facet normal 0 0 1
    outer loop
       vertex 0.00520945 -0.0295442 0.06
       vertex 0.0299492 0.00174434 0.06
       vertex 0.0295442 0.00520945 0.06
    endloop
  endfacet
  facet normal 0 0 1
    outer loop
       vertex -0.00348279 -0.0297972 0.06
       vertex 0.00520945 -0.0295442 0.06
       vertex 0.0295442 0.00520945 0.06
    endloop
  endfacet
  facet normal 0 0 1
    outer loop
       vertex -0.00348279 -0.0297972 0.06
       vertex 0.0295442 0.00520945 0.06
       vertex 0.0291913 0.00691848 0.06
    endloop
  endfacet
  facet normal -0 0 1
    outer loop
       vertex -0.00520945 -0.0295442 0.06
       vertex -0.00348279 -0.0297972 0.06
       vertex 0.0291913 0.00691848 0.06
    endloop
  endfacet
  facet normal 0 0 1
    outer loop
       vertex 0.0291913 0.00691848 0.06
       vertex 0.0287397 0.0086041 0.06
       vertex -0.0086041 -0.0287397 0.06
    endloop
  endfacet
  facet normal -0 -0 1
    outer loop
       vertex -0.00691848 -0.0291913 0.06
       vertex -0.00520945 -0.0295442 0.06
       vertex -0.0086041 -0.0287397 0.06
    endloop
  endfacet
  facet normal 0 -0 1
    outer loop
       vertex -0.00520945 -0.0295442 0.06
       vertex 0.0291913 0.00691848 0.06
       vertex -0.0086041 -0.0287397 0.06
    endloop
  endfacet
  facet normal 0 0 1
    outer loop
       vertex 0.0287397 0.0086041 0.06
       vertex 0.0281908 0.0102606 0.06
       vertex 0.0275465 0.0118824 0.06
    endloop
  endfacet
  facet normal 0 0 1
    outer loop
       vertex -0.0086041 -0.0287397 0.06
       vertex 0.0287397 0.0086041 0.06
       vertex 0.0275465 0.0118824 0.06
    endloop
  endfacet
  facet normal -0 -0 1
    outer loop
       vertex -0.0102606 -0.0281908 0.06
       vertex -0.0086041 -0.0287397 0.06
       vertex -0.0118824 -0.0275465 0.06
    endloop
  endfacet
  facet normal 0 0 1
    outer loop
       vertex -0.0086041 -0.0287397 0.06
       vertex 0.0275465 0.0118824 0.06
       vertex 0.026809 0.013464 0.06
    endloop
  endfacet
  facet normal -0 -0 1
    outer loop
       vertex -0.0118824 -0.0275465 0.06
       vertex -0.0086041 -0.0287397 0.06
       vertex -0.013464 -0.026809 0.06
    endloop
  endfacet
  facet normal 0 0 1
    outer loop
       vertex -0.0086041 -0.0287397 0.06
       vertex 0.026809 0.013464 0.06
       vertex 0.0259808 0.015 0.06
    endloop
  endfacet
  facet normal 0 0 1
    outer loop
       vertex 0.0259808 0.015 0.06
       vertex 0.0250646 0.0164853 0.06
       vertex 0.0240637 0.0179148 0.06
    endloop
  endfacet
  facet normal -0 -0 1
    outer loop
       vertex -0.0164853 -0.0250646 0.06
       vertex -0.015 -0.0259808 0.06
       vertex -0.0179148 -0.0240637 0.06
    endloop
  endfacet
  facet normal -0 -0 1
    outer loop
       vertex -0.015 -0.0259808 0.06
       vertex -0.013464 -0.026809 0.06
       vertex -0.0179148 -0.0240637 0.06
    endloop
  endfacet
  facet normal 0 0 1
    outer loop
       vertex 0.0259808 0.015 0.06
       vertex 0.0240637 0.0179148 0.06
       vertex 0.0229813 0.0192836 0.06
    endloop
  endfacet
  facet normal 0 0 1
    outer loop
       vertex -0.0086041 -0.0287397 0.06
       vertex 0.0259808 0.015 0.06
       vertex 0.0229813 0.0192836 0.06
    endloop
  endfacet
  facet normal -0 -0 1
    outer loop
       vertex -0.0179148 -0.0240637 0.06
       vertex -0.013464 -0.026809 0.06
       vertex -0.0192836 -0.0229813 0.06
    endloop
  endfacet
  facet normal -0 -0 1
    outer loop
       vertex -0.013464 -0.026809 0.06
       vertex -0.0086041 -0.0287397 0.06
       vertex -0.0192836 -0.0229813 0.06
    endloop
  endfacet
  facet normal 0 0 1
    outer loop
       vertex 0.0229813 0.0192836 0.06
       vertex 0.0218212 0.0205872 0.06
       vertex 0.0192836 0.0229813 0.06
    endloop
  endfacet
  facet normal 0 0 1
    outer loop
       vertex 0.0218212 0.0205872 0.06
       vertex 0.0205872 0.0218212 0.06
       vertex 0.0192836 0.0229813 0.06
    endloop
  endfacet
  facet normal -0 -0 1
    outer loop
       vertex -0.0192836 -0.0229813 0.06
       vertex -0.0086041 -0.0287397 0.06
       vertex -0.0229813 -0.0192836 0.06
    endloop
  endfacet
  facet normal -0 -0 1
    outer loop
       vertex -0.0218212 -0.0205872 0.06
       vertex -0.0205872 -0.0218212 0.06
       vertex -0.0229813 -0.0192836 0.06
    endloop
  endfacet
  facet normal -0 -0 1
    outer loop
       vertex -0.0205872 -0.0218212 0.06
       vertex -0.0192836 -0.0229813 0.06
       vertex -0.0229813 -0.0192836 0.06
    endloop
  endfacet
  facet normal 0 0 1
    outer loop
       vertex -0.0086041 -0.0287397 0.06
       vertex 0.0229813 0.0192836 0.06
       vertex 0.0179148 0.0240637 0.06
    endloop
  endfacet
  facet normal -0 0 1
    outer loop
       vertex -0.0229813 -0.0192836 0.06
       vertex -0.0086041 -0.0287397 0.06
       vertex 0.0179148 0.0240637 0.06
    endloop
  endfacet
  facet normal 0 0 1
    outer loop
       vertex 0.0229813 0.0192836 0.06
       vertex 0.0192836 0.0229813 0.06
       vertex 0.0179148 0.0240637 0.06
    endloop
  endfacet
  facet normal 0 0 1
    outer loop
       vertex -0.0229813 -0.0192836 0.06
       vertex 0.0179148 0.0240637 0.06
       vertex 0.0164853 0.0250646 0.06
    endloop
  endfacet
  facet normal -0 0 1
    outer loop
       vertex -0.0240637 -0.0179148 0.06
       vertex -0.0229813 -0.0192836 0.06
       vertex 0.0164853 0.0250646 0.06
    endloop
  endfacet
  facet normal 0 0 1
    outer loop
       vertex 0.0164853 0.0250646 0.06
       vertex 0.015 0.0259808 0.06
       vertex 0.013464 0.026809 0.06
    endloop
  endfacet
  facet normal 0 -0 1
    outer loop
       vertex -0.0240637 -0.0179148 0.06
       vertex 0.0164853 0.0250646 0.06
       vertex -0.026809 -0.013464 0.06
    endloop
  endfacet
  facet normal -0 -0 1
    outer loop
       vertex -0.0259808 -0.015 0.06
       vertex -0.0250646 -0.0164853 0.06
       vertex -0.026809 -0.013464 0.06
    endloop
  endfacet
  facet normal -0 -0 1
    outer loop
       vertex -0.0250646 -0.0164853 0.06
       vertex -0.0240637 -0.0179148 0.06
       vertex -0.026809 -0.013464 0.06
    endloop
  endfacet
  facet normal 0 0 1
    outer loop
       vertex 0.013464 0.026809 0.06
       vertex 0.0118824 0.0275465 0.06
       vertex -0.0275465 -0.0118824 0.06
    endloop
  endfacet
  facet normal 0 0 1
    outer loop
       vertex 0.0164853 0.0250646 0.06
       vertex 0.013464 0.026809 0.06
       vertex -0.0275465 -0.0118824 0.06
    endloop
  endfacet
  facet normal 0 -0 1
    outer loop
       vertex -0.026809 -0.013464 0.06
       vertex 0.0164853 0.0250646 0.06
       vertex -0.0275465 -0.0118824 0.06
    endloop
  endfacet
  facet normal 0 0 1
    outer loop
       vertex -0.0275465 -0.0118824 0.06
       vertex 0.0118824 0.0275465 0.06
       vertex 0.0102606 0.0281908 0.06
    endloop
  endfacet
  facet normal 0 -0 1
    outer loop
       vertex -0.0275465 -0.0118824 0.06
       vertex 0.0102606 0.0281908 0.06
       vertex -0.0281908 -0.0102606 0.06
    endloop
  endfacet
  facet normal 0 0 1
    outer loop
       vertex 0.0102606 0.0281908 0.06
       vertex 0.0086041 0.0287397 0.06
       vertex 0.00691848 0.0291913 0.06
    endloop
  endfacet
  facet normal 0 -0 1
    outer loop
       vertex -0.0281908 -0.0102606 0.06
       vertex 0.0102606 0.0281908 0.06
       vertex -0.0291913 -0.00691848 0.06
    endloop
  endfacet
  facet normal -0 -0 1
    outer loop
       vertex -0.0287397 -0.0086041 0.06
       vertex -0.0281908 -0.0102606 0.06
       vertex -0.0291913 -0.00691848 0.06
    endloop
  endfacet
  facet normal 0 -0 1
    outer loop
       vertex -0.0291913 -0.00691848 0.06
       vertex 0.0102606 0.0281908 0.06
       vertex -0.0295442 -0.00520945 0.06
    endloop
  endfacet
  facet normal 0 0 1
    outer loop
       vertex 0.00691848 0.0291913 0.06
       vertex 0.00520945 0.0295442 0.06
       vertex 0.00348279 0.0297972 0.06
    endloop
  endfacet
  facet normal -0 -0 1
    outer loop
       vertex -0.0297972 -0.00348279 0.06
       vertex -0.0295442 -0.00520945 0.06
       vertex -0.0299492 -0.00174434 0.06
    endloop
  endfacet
  facet normal 0 -0 1
    outer loop
       vertex -0.0295442 -0.00520945 0.06
       vertex 0.0102606 0.0281908 0.06
       vertex -0.0299492 -0.00174434 0.06
    endloop
  endfacet
  facet normal 0 0 1
    outer loop
       vertex 0.0102606 0.0281908 0.06
       vertex 0.00691848 0.0291913 0.06
       vertex 0.00174434 0.0299492 0.06
    endloop
  endfacet
  facet normal 0 0 1
    outer loop
       vertex 0.00691848 0.0291913 0.06
       vertex 0.00348279 0.0297972 0.06
       vertex 0.00174434 0.0299492 0.06
    endloop
  endfacet
  facet normal 0 0 1
    outer loop
       vertex 0.00174434 0.0299492 0.06
       vertex 1.83697e-18 0.03 0.06
       vertex -0.00174434 0.0299492 0.06
    endloop
  endfacet
  facet normal 0 0 1
    outer loop
       vertex 0.0102606 0.0281908 0.06
       vertex 0.00174434 0.0299492 0.06
       vertex -0.00174434 0.0299492 0.06
    endloop
  endfacet
  facet normal 0 0 1
    outer loop
       vertex -0.0299492 -0.00174434 0.06
       vertex 0.0102606 0.0281908 0.06
       vertex -0.00174434 0.0299492 0.06
    endloop
  endfacet
  facet normal -0 0 1
    outer loop
       vertex -0.03 3.67394e-18 0.06
       vertex -0.0299492 -0.00174434 0.06
       vertex -0.0299492 0.00174434 0.06
    endloop
  endfacet
  facet normal 0 0 1
    outer loop
       vertex -0.00348279 0.0297972 0.06
       vertex -0.00520945 0.0295442 0.06
       vertex -0.00691848 0.0291913 0.06
    endloop
  endfacet
  facet normal 0 0 1
    outer loop
       vertex -0.00174434 0.0299492 0.06
       vertex -0.00348279 0.0297972 0.06
       vertex -0.0281908 0.0102606 0.06
    endloop
  endfacet
  facet normal 0 0 1
    outer loop
       vertex -0.00691848 0.0291913 0.06
       vertex -0.0086041 0.0287397 0.06
       vertex -0.0281908 0.0102606 0.06
    endloop
  endfacet
  facet normal -0 0 1
    outer loop
       vertex -0.0287397 0.0086041 0.06
       vertex -0.0291913 0.00691848 0.06
       vertex -0.0281908 0.0102606 0.06
    endloop
  endfacet
  facet normal -0 0 1
    outer loop
       vertex -0.0291913 0.00691848 0.06
       vertex -0.0295442 0.00520945 0.06
       vertex -0.0281908 0.0102606 0.06
    endloop
  endfacet
  facet normal -0 0 1
    outer loop
       vertex -0.0295442 0.00520945 0.06
       vertex -0.0297972 0.00348279 0.06
       vertex -0.0281908 0.0102606 0.06
    endloop
  endfacet
  facet normal -0 0 1
    outer loop
       vertex -0.0297972 0.00348279 0.06
       vertex -0.0299492 0.00174434 0.06
       vertex -0.0281908 0.0102606 0.06
    endloop
  endfacet
  facet normal 0 0 1
    outer loop
       vertex -0.0299492 -0.00174434 0.06
       vertex -0.00174434 0.0299492 0.06
       vertex -0.0281908 0.0102606 0.06
    endloop
  endfacet
  facet normal -0 0 1
    outer loop
       vertex -0.0299492 0.00174434 0.06
       vertex -0.0299492 -0.00174434 0.06
       vertex -0.0281908 0.0102606 0.06
    endloop
  endfacet
  facet normal 0 0 1
    outer loop
       vertex -0.00348279 0.0297972 0.06
       vertex -0.00691848 0.0291913 0.06
       vertex -0.0281908 0.0102606 0.06
    endloop
  endfacet
  facet normal 0 0 1
    outer loop
       vertex -0.0086041 0.0287397 0.06
       vertex -0.0102606 0.0281908 0.06
       vertex -0.0118824 0.0275465 0.06
    endloop
  endfacet
  facet normal 0 0 1
    outer loop
       vertex -0.0118824 0.0275465 0.06
       vertex -0.013464 0.026809 0.06
       vertex -0.015 0.0259808 0.06
    endloop
  endfacet
  facet normal 0 0 1
    outer loop
       vertex -0.0086041 0.0287397 0.06
       vertex -0.0118824 0.0275465 0.06
       vertex -0.015 0.0259808 0.06
    endloop
  endfacet
  facet normal -0 0 1
    outer loop
       vertex -0.0259808 0.015 0.06
       vertex -0.026809 0.013464 0.06
       vertex -0.0250646 0.0164853 0.06
    endloop
  endfacet
  facet normal -0 0 1
    outer loop
       vertex -0.026809 0.013464 0.06
       vertex -0.0275465 0.0118824 0.06
       vertex -0.0250646 0.0164853 0.06
    endloop
  endfacet
  facet normal -0 0 1
    outer loop
       vertex -0.0275465 0.0118824 0.06
       vertex -0.0281908 0.0102606 0.06
       vertex -0.0250646 0.0164853 0.06
    endloop
  endfacet
  facet normal 0 0 1
    outer loop
       vertex -0.015 0.0259808 0.06
       vertex -0.0164853 0.0250646 0.06
       vertex -0.0179148 0.0240637 0.06
    endloop
  endfacet
  facet normal 0 0 1
    outer loop
       vertex -0.015 0.0259808 0.06
       vertex -0.0179148 0.0240637 0.06
       vertex -0.0192836 0.0229813 0.06
    endloop
  endfacet
  facet normal -0 0 1
    outer loop
       vertex -0.0240637 0.0179148 0.06
       vertex -0.0250646 0.0164853 0.06
       vertex -0.0229813 0.0192836 0.06
    endloop
  endfacet
  facet normal -0 0 1
    outer loop
       vertex -0.0250646 0.0164853 0.06
       vertex -0.0281908 0.0102606 0.06
       vertex -0.0218212 0.0205872 0.06
    endloop
  endfacet
  facet normal 0 0 1
    outer loop
       vertex -0.0086041 0.0287397 0.06
       vertex -0.015 0.0259808 0.06
       vertex -0.0218212 0.0205872 0.06
    endloop
  endfacet
  facet normal 0 0 1
    outer loop
       vertex -0.015 0.0259808 0.06
       vertex -0.0192836 0.0229813 0.06
       vertex -0.0218212 0.0205872 0.06
    endloop
  endfacet
  facet normal -0 0 1
    outer loop
       vertex -0.0229813 0.0192836 0.06
       vertex -0.0250646 0.0164853 0.06
       vertex -0.0218212 0.0205872 0.06
    endloop
  endfacet
  facet normal 0 0 1
    outer loop
       vertex -0.0281908 0.0102606 0.06
       vertex -0.0086041 0.0287397 0.06
       vertex -0.0218212 0.0205872 0.06
    endloop
  endfacet
  facet normal 0 0 1
    outer loop
       vertex -0.0218212 0.0205872 0.06
       vertex -0.0192836 0.0229813 0.06
       vertex -0.0205872 0.0218212 0.06
    endloop
  endfacet
endsolid patch0
