solid patch0
 facet normal -1 0 0
  outer loop
   vertex 0.255 0.0471732 0.201967
   vertex 0.255 0.0746776 0.237689
   vertex 0.255 0.0781877 0.234579
  endloop
 endfacet
 facet normal -1 0 0
  outer loop
   vertex 0.255 0.0471732 0.201967
   vertex 0.255 0.0781877 0.234579
   vertex 0.255 0.0814202 0.231183
  endloop
 endfacet
 facet normal -1 0 0
  outer loop
   vertex 0.255 0.0471732 0.201967
   vertex 0.255 0.0814202 0.231183
   vertex 0.255 0.0843518 0.227523
  endloop
 endfacet
 facet normal -1 0 0
  outer loop
   vertex 0.255 0.0456461 0.203253
   vertex 0.255 0.0669288 0.242956
   vertex 0.255 0.0709156 0.240487
  endloop
 endfacet
 facet normal -1 0 0
  outer loop
   vertex 0.255 0.0456461 0.203253
   vertex 0.255 0.0709156 0.240487
   vertex 0.255 0.0746776 0.237689
  endloop
 endfacet
 facet normal -1 0 0
  outer loop
   vertex 0.255 0.0456461 0.203253
   vertex 0.255 0.0746776 0.237689
   vertex 0.255 0.0471732 0.201967
  endloop
 endfacet
 facet normal -1 0 0
  outer loop
   vertex 0.255 0.0484144 0.200403
   vertex 0.255 0.0843518 0.227523
   vertex 0.255 0.086961 0.223626
  endloop
 endfacet
 facet normal -1 0 0
  outer loop
   vertex 0.255 0.0484144 0.200403
   vertex 0.255 0.086961 0.223626
   vertex 0.255 0.0892289 0.219522
  endloop
 endfacet
 facet normal -1 0 0
  outer loop
   vertex 0.255 0.0484144 0.200403
   vertex 0.255 0.0471732 0.201967
   vertex 0.255 0.0843518 0.227523
  endloop
 endfacet
 facet normal -1 0 0
  outer loop
   vertex 0.255 0.0438939 0.204211
   vertex 0.255 0.0583987 0.246831
   vertex 0.255 0.0627464 0.245075
  endloop
 endfacet
 facet normal -1 0 0
  outer loop
   vertex 0.255 0.0438939 0.204211
   vertex 0.255 0.0627464 0.245075
   vertex 0.255 0.0669288 0.242956
  endloop
 endfacet
 facet normal -1 0 0
  outer loop
   vertex 0.255 0.0438939 0.204211
   vertex 0.255 0.0669288 0.242956
   vertex 0.255 0.0456461 0.203253
  endloop
 endfacet
 facet normal -1 0 0
  outer loop
   vertex 0.255 0.0493202 0.198623
   vertex 0.255 0.0892289 0.219522
   vertex 0.255 0.091139 0.215239
  endloop
 endfacet
 facet normal -1 0 0
  outer loop
   vertex 0.255 0.0493202 0.198623
   vertex 0.255 0.091139 0.215239
   vertex 0.255 0.0926774 0.210809
  endloop
 endfacet
 facet normal -1 0 0
  outer loop
   vertex 0.255 0.0493202 0.198623
   vertex 0.255 0.0484144 0.200403
   vertex 0.255 0.0892289 0.219522
  endloop
 endfacet
 facet normal -1 0 0
  outer loop
   vertex 0.255 0.0419866 0.204801
   vertex 0.255 0.0446844 0.2498
   vertex 0.255 0.0493348 0.249202
  endloop
 endfacet
 facet normal -1 0 0
  outer loop
   vertex 0.255 0.0419866 0.204801
   vertex 0.255 0.0493348 0.249202
   vertex 0.255 0.0539173 0.24821
  endloop
 endfacet
 facet normal -1 0 0
  outer loop
   vertex 0.255 0.0419866 0.204801
   vertex 0.255 0.0539173 0.24821
   vertex 0.255 0.0583987 0.246831
  endloop
 endfacet
 facet normal -1 0 0
  outer loop
   vertex 0.255 0.0419866 0.204801
   vertex 0.255 0.0583987 0.246831
   vertex 0.255 0.0438939 0.204211
  endloop
 endfacet
 facet normal -1 0 0
  outer loop
   vertex 0.255 0.0498286 0.196843
   vertex 0.255 0.0926774 0.210809
   vertex 0.255 0.093833 0.206264
  endloop
 endfacet
 facet normal -1 0 0
  outer loop
   vertex 0.255 0.0498286 0.196843
   vertex 0.255 0.093833 0.206264
   vertex 0.255 0.0945973 0.201637
  endloop
 endfacet
 facet normal -1 0 0
  outer loop
   vertex 0.255 0.0498286 0.196843
   vertex 0.255 0.0493202 0.198623
   vertex 0.255 0.0926774 0.210809
  endloop
 endfacet
 facet normal -1 0 0
  outer loop
   vertex 0.255 0.04 0.205
   vertex 0.255 0.04 0.25
   vertex 0.255 0.0446844 0.2498
  endloop
 endfacet
 facet normal -1 0 0
  outer loop
   vertex 0.255 0.04 0.205
   vertex 0.255 0.0446844 0.2498
   vertex 0.255 0.0419866 0.204801
  endloop
 endfacet
 facet normal -1 0 0
  outer loop
   vertex 0.255 0.05 0.194999
   vertex 0.255 0.0945973 0.201637
   vertex 0.255 0.0948992 0.198321
  endloop
 endfacet
 facet normal -1 0 0
  outer loop
   vertex 0.255 0.05 0.194999
   vertex 0.255 0.0948992 0.198321
   vertex 0.255 0.095 0.194992
  endloop
 endfacet
 facet normal -1 0 0
  outer loop
   vertex 0.255 0.05 0.194999
   vertex 0.255 0.0498286 0.196843
   vertex 0.255 0.0945973 0.201637
  endloop
 endfacet
 facet normal -1 0 0
  outer loop
   vertex 0.255 -0.04 0.205
   vertex 0.255 -0.04 0.25
   vertex 0.255 0.04 0.25
  endloop
 endfacet
 facet normal -1 0 0
  outer loop
   vertex 0.255 -0.04 0.205
   vertex 0.255 -0.0446844 0.2498
   vertex 0.255 -0.04 0.25
  endloop
 endfacet
 facet normal -1 0 0
  outer loop
   vertex 0.255 -0.04 0.205
   vertex 0.255 0.04 0.25
   vertex 0.255 0.04 0.205
  endloop
 endfacet
 facet normal -1 0 0
  outer loop
   vertex 0.255 -0.0419866 0.204801
   vertex 0.255 -0.0493348 0.249202
   vertex 0.255 -0.0446844 0.2498
  endloop
 endfacet
 facet normal -1 0 0
  outer loop
   vertex 0.255 -0.0419866 0.204801
   vertex 0.255 -0.0539173 0.24821
   vertex 0.255 -0.0493348 0.249202
  endloop
 endfacet
 facet normal -1 0 0
  outer loop
   vertex 0.255 -0.0419866 0.204801
   vertex 0.255 -0.0583987 0.246831
   vertex 0.255 -0.0539173 0.24821
  endloop
 endfacet
 facet normal -1 0 0
  outer loop
   vertex 0.255 -0.0419866 0.204801
   vertex 0.255 -0.0446844 0.2498
   vertex 0.255 -0.04 0.205
  endloop
 endfacet
 facet normal -1 0 0
  outer loop
   vertex 0.255 -0.0438939 0.204211
   vertex 0.255 -0.0627464 0.245075
   vertex 0.255 -0.0583987 0.246831
  endloop
 endfacet
 facet normal -1 0 0
  outer loop
   vertex 0.255 -0.0438939 0.204211
   vertex 0.255 -0.0669288 0.242956
   vertex 0.255 -0.0627464 0.245075
  endloop
 endfacet
 facet normal -1 0 0
  outer loop
   vertex 0.255 -0.0438939 0.204211
   vertex 0.255 -0.0583987 0.246831
   vertex 0.255 -0.0419866 0.204801
  endloop
 endfacet
 facet normal -1 0 0
  outer loop
   vertex 0.255 -0.0456461 0.203253
   vertex 0.255 -0.0709156 0.240487
   vertex 0.255 -0.0669288 0.242956
  endloop
 endfacet
 facet normal -1 0 0
  outer loop
   vertex 0.255 -0.0456461 0.203253
   vertex 0.255 -0.0746776 0.237689
   vertex 0.255 -0.0709156 0.240487
  endloop
 endfacet
 facet normal -1 0 0
  outer loop
   vertex 0.255 -0.0456461 0.203253
   vertex 0.255 -0.0669288 0.242956
   vertex 0.255 -0.0438939 0.204211
  endloop
 endfacet
 facet normal -1 0 0
  outer loop
   vertex 0.255 -0.0471732 0.201967
   vertex 0.255 -0.0746776 0.237689
   vertex 0.255 -0.0456461 0.203253
  endloop
 endfacet
 facet normal -1 0 0
  outer loop
   vertex 0.255 -0.0471732 0.201967
   vertex 0.255 -0.0781877 0.234579
   vertex 0.255 -0.0746776 0.237689
  endloop
 endfacet
 facet normal -1 0 0
  outer loop
   vertex 0.255 -0.0814202 0.231183
   vertex 0.255 -0.0781877 0.234579
   vertex 0.255 -0.0471732 0.201967
  endloop
 endfacet
 facet normal -1 0 0
  outer loop
   vertex 0.255 -0.0843518 0.227523
   vertex 0.255 -0.0814202 0.231183
   vertex 0.255 -0.0471732 0.201967
  endloop
 endfacet
 facet normal -1 0 0
  outer loop
   vertex 0.255 -0.0843518 0.227523
   vertex 0.255 -0.0471732 0.201967
   vertex 0.255 -0.0484144 0.200403
  endloop
 endfacet
 facet normal -1 0 0
  outer loop
   vertex 0.255 -0.086961 0.223626
   vertex 0.255 -0.0843518 0.227523
   vertex 0.255 -0.0484144 0.200403
  endloop
 endfacet
 facet normal -1 0 0
  outer loop
   vertex 0.255 -0.0892289 0.219522
   vertex 0.255 -0.086961 0.223626
   vertex 0.255 -0.0484144 0.200403
  endloop
 endfacet
 facet normal -1 0 0
  outer loop
   vertex 0.255 -0.0892289 0.219522
   vertex 0.255 -0.0484144 0.200403
   vertex 0.255 -0.0493202 0.198623
  endloop
 endfacet
 facet normal -1 0 0
  outer loop
   vertex 0.255 -0.091139 0.215239
   vertex 0.255 -0.0892289 0.219522
   vertex 0.255 -0.0493202 0.198623
  endloop
 endfacet
 facet normal -1 0 0
  outer loop
   vertex 0.255 -0.0926774 0.210809
   vertex 0.255 -0.091139 0.215239
   vertex 0.255 -0.0493202 0.198623
  endloop
 endfacet
 facet normal -1 0 0
  outer loop
   vertex 0.255 -0.0926774 0.210809
   vertex 0.255 -0.0493202 0.198623
   vertex 0.255 -0.0498286 0.196843
  endloop
 endfacet
 facet normal -1 0 0
  outer loop
   vertex 0.255 -0.093833 0.206264
   vertex 0.255 -0.0926774 0.210809
   vertex 0.255 -0.0498286 0.196843
  endloop
 endfacet
 facet normal -1 0 0
  outer loop
   vertex 0.255 -0.0945973 0.201637
   vertex 0.255 -0.093833 0.206264
   vertex 0.255 -0.0498286 0.196843
  endloop
 endfacet
 facet normal -1 0 0
  outer loop
   vertex 0.255 -0.0945973 0.201637
   vertex 0.255 -0.0498286 0.196843
   vertex 0.255 -0.05 0.194999
  endloop
 endfacet
 facet normal -1 0 0
  outer loop
   vertex 0.255 -0.0948992 0.198321
   vertex 0.255 -0.0945973 0.201637
   vertex 0.255 -0.05 0.194999
  endloop
 endfacet
 facet normal -1 0 0
  outer loop
   vertex 0.255 -0.095 0.194992
   vertex 0.255 -0.0948992 0.198321
   vertex 0.255 -0.05 0.194999
  endloop
 endfacet
 facet normal -1 0 0
  outer loop
   vertex 0.255 0.05 -0.134999
   vertex 0.255 0.095 0.194992
   vertex 0.255 0.095 -0.134992
  endloop
 endfacet
 facet normal -1 0 0
  outer loop
   vertex 0.255 0.05 -0.134999
   vertex 0.255 0.0948992 -0.138321
   vertex 0.255 0.0945973 -0.141637
  endloop
 endfacet
 facet normal -1 0 0
  outer loop
   vertex 0.255 0.05 -0.134999
   vertex 0.255 0.095 -0.134992
   vertex 0.255 0.0948992 -0.138321
  endloop
 endfacet
 facet normal -1 0 0
  outer loop
   vertex 0.255 0.05 -0.134999
   vertex 0.255 0.05 0.194999
   vertex 0.255 0.095 0.194992
  endloop
 endfacet
 facet normal -1 0 0
  outer loop
   vertex 0.255 0.0498286 -0.136843
   vertex 0.255 0.05 -0.134999
   vertex 0.255 0.0945973 -0.141637
  endloop
 endfacet
 facet normal -1 0 0
  outer loop
   vertex 0.255 0.0498286 -0.136843
   vertex 0.255 0.093833 -0.146264
   vertex 0.255 0.0926774 -0.150809
  endloop
 endfacet
 facet normal -1 0 0
  outer loop
   vertex 0.255 0.0498286 -0.136843
   vertex 0.255 0.0945973 -0.141637
   vertex 0.255 0.093833 -0.146264
  endloop
 endfacet
 facet normal -1 0 0
  outer loop
   vertex 0.255 0.0493202 -0.138623
   vertex 0.255 0.091139 -0.155239
   vertex 0.255 0.0892289 -0.159522
  endloop
 endfacet
 facet normal -1 0 0
  outer loop
   vertex 0.255 0.0493202 -0.138623
   vertex 0.255 0.0926774 -0.150809
   vertex 0.255 0.091139 -0.155239
  endloop
 endfacet
 facet normal -1 0 0
  outer loop
   vertex 0.255 0.0493202 -0.138623
   vertex 0.255 0.0498286 -0.136843
   vertex 0.255 0.0926774 -0.150809
  endloop
 endfacet
 facet normal -1 0 0
  outer loop
   vertex 0.255 0.0484144 -0.140403
   vertex 0.255 0.0493202 -0.138623
   vertex 0.255 0.0892289 -0.159522
  endloop
 endfacet
 facet normal -1 0 0
  outer loop
   vertex 0.255 0.0484144 -0.140403
   vertex 0.255 0.086961 -0.163626
   vertex 0.255 0.0843518 -0.167523
  endloop
 endfacet
 facet normal -1 0 0
  outer loop
   vertex 0.255 0.0484144 -0.140403
   vertex 0.255 0.0892289 -0.159522
   vertex 0.255 0.086961 -0.163626
  endloop
 endfacet
 facet normal -1 0 0
  outer loop
   vertex 0.255 0.0471732 -0.141967
   vertex 0.255 0.0484144 -0.140403
   vertex 0.255 0.0843518 -0.167523
  endloop
 endfacet
 facet normal -1 0 0
  outer loop
   vertex 0.255 0.0471732 -0.141967
   vertex 0.255 0.0843518 -0.167523
   vertex 0.255 0.0814202 -0.171183
  endloop
 endfacet
 facet normal -1 0 0
  outer loop
   vertex 0.255 0.0781877 -0.174579
   vertex 0.255 0.0471732 -0.141967
   vertex 0.255 0.0814202 -0.171183
  endloop
 endfacet
 facet normal -1 0 0
  outer loop
   vertex 0.255 0.0746776 -0.177689
   vertex 0.255 0.0456461 -0.143253
   vertex 0.255 0.0471732 -0.141967
  endloop
 endfacet
 facet normal -1 0 0
  outer loop
   vertex 0.255 0.0746776 -0.177689
   vertex 0.255 0.0471732 -0.141967
   vertex 0.255 0.0781877 -0.174579
  endloop
 endfacet
 facet normal -1 0 0
  outer loop
   vertex 0.255 0.0709156 -0.180487
   vertex 0.255 0.0456461 -0.143253
   vertex 0.255 0.0746776 -0.177689
  endloop
 endfacet
 facet normal -1 0 0
  outer loop
   vertex 0.255 0.0669288 -0.182956
   vertex 0.255 0.0438939 -0.144211
   vertex 0.255 0.0456461 -0.143253
  endloop
 endfacet
 facet normal -1 0 0
  outer loop
   vertex 0.255 0.0669288 -0.182956
   vertex 0.255 0.0456461 -0.143253
   vertex 0.255 0.0709156 -0.180487
  endloop
 endfacet
 facet normal -1 0 0
  outer loop
   vertex 0.255 0.0627464 -0.185075
   vertex 0.255 0.0438939 -0.144211
   vertex 0.255 0.0669288 -0.182956
  endloop
 endfacet
 facet normal -1 0 0
  outer loop
   vertex 0.255 0.0583987 -0.186831
   vertex 0.255 0.0419866 -0.144801
   vertex 0.255 0.0438939 -0.144211
  endloop
 endfacet
 facet normal -1 0 0
  outer loop
   vertex 0.255 0.0583987 -0.186831
   vertex 0.255 0.0438939 -0.144211
   vertex 0.255 0.0627464 -0.185075
  endloop
 endfacet
 facet normal -1 0 0
  outer loop
   vertex 0.255 0.0539173 -0.18821
   vertex 0.255 0.0419866 -0.144801
   vertex 0.255 0.0583987 -0.186831
  endloop
 endfacet
 facet normal -1 0 0
  outer loop
   vertex 0.255 0.0493348 -0.189202
   vertex 0.255 0.0419866 -0.144801
   vertex 0.255 0.0539173 -0.18821
  endloop
 endfacet
 facet normal -1 0 0
  outer loop
   vertex 0.255 0.0446844 -0.1898
   vertex 0.255 0.0419866 -0.144801
   vertex 0.255 0.0493348 -0.189202
  endloop
 endfacet
 facet normal -1 0 0
  outer loop
   vertex 0.255 0.0446844 -0.1898
   vertex 0.255 0.04 -0.145
   vertex 0.255 0.0419866 -0.144801
  endloop
 endfacet
 facet normal -1 0 0
  outer loop
   vertex 0.255 0.04 -0.19
   vertex 0.255 0.04 -0.145
   vertex 0.255 0.0446844 -0.1898
  endloop
 endfacet
 facet normal -1 0 0
  outer loop
   vertex 0.255 -0.04 -0.145
   vertex 0.255 0.04 -0.145
   vertex 0.255 0.04 -0.19
  endloop
 endfacet
 facet normal -1 0 0
  outer loop
   vertex 0.255 -0.095 -0.134992
   vertex 0.255 -0.095 0.194992
   vertex 0.255 -0.05 0.194999
  endloop
 endfacet
 facet normal -1 0 0
  outer loop
   vertex 0.255 -0.095 -0.134992
   vertex 0.255 -0.05 0.194999
   vertex 0.255 -0.05 -0.134999
  endloop
 endfacet
 facet normal -1 0 0
  outer loop
   vertex 0.255 -0.04 -0.19
   vertex 0.255 -0.04 -0.145
   vertex 0.255 0.04 -0.19
  endloop
 endfacet
 facet normal -1 0 0
  outer loop
   vertex 0.255 -0.0433275 -0.189899
   vertex 0.255 -0.04 -0.145
   vertex 0.255 -0.04 -0.19
  endloop
 endfacet
 facet normal -1 0 0
  outer loop
   vertex 0.255 -0.0948001 -0.139678
   vertex 0.255 -0.05 -0.134999
   vertex 0.255 -0.0498007 -0.136986
  endloop
 endfacet
 facet normal -1 0 0
  outer loop
   vertex 0.255 -0.0948001 -0.139678
   vertex 0.255 -0.095 -0.134992
   vertex 0.255 -0.05 -0.134999
  endloop
 endfacet
 facet normal -1 0 0
  outer loop
   vertex 0.255 -0.0466428 -0.189597
   vertex 0.255 -0.04 -0.145
   vertex 0.255 -0.0433275 -0.189899
  endloop
 endfacet
 facet normal -1 0 0
  outer loop
   vertex 0.255 -0.0466428 -0.189597
   vertex 0.255 -0.0418435 -0.144829
   vertex 0.255 -0.04 -0.145
  endloop
 endfacet
 facet normal -1 0 0
  outer loop
   vertex 0.255 -0.0942019 -0.144329
   vertex 0.255 -0.0948001 -0.139678
   vertex 0.255 -0.0498007 -0.136986
  endloop
 endfacet
 facet normal -1 0 0
  outer loop
   vertex 0.255 -0.0512688 -0.188833
   vertex 0.255 -0.0418435 -0.144829
   vertex 0.255 -0.0466428 -0.189597
  endloop
 endfacet
 facet normal -1 0 0
  outer loop
   vertex 0.255 -0.0932098 -0.148913
   vertex 0.255 -0.0942019 -0.144329
   vertex 0.255 -0.0498007 -0.136986
  endloop
 endfacet
 facet normal -1 0 0
  outer loop
   vertex 0.255 -0.055813 -0.187677
   vertex 0.255 -0.0436238 -0.14432
   vertex 0.255 -0.0418435 -0.144829
  endloop
 endfacet
 facet normal -1 0 0
  outer loop
   vertex 0.255 -0.055813 -0.187677
   vertex 0.255 -0.0418435 -0.144829
   vertex 0.255 -0.0512688 -0.188833
  endloop
 endfacet
 facet normal -1 0 0
  outer loop
   vertex 0.255 -0.0918309 -0.153395
   vertex 0.255 -0.0498007 -0.136986
   vertex 0.255 -0.0492106 -0.138893
  endloop
 endfacet
 facet normal -1 0 0
  outer loop
   vertex 0.255 -0.0918309 -0.153395
   vertex 0.255 -0.0932098 -0.148913
   vertex 0.255 -0.0498007 -0.136986
  endloop
 endfacet
 facet normal -1 0 0
  outer loop
   vertex 0.255 -0.0602422 -0.186139
   vertex 0.255 -0.0436238 -0.14432
   vertex 0.255 -0.055813 -0.187677
  endloop
 endfacet
 facet normal -1 0 0
  outer loop
   vertex 0.255 -0.0900753 -0.157743
   vertex 0.255 -0.0918309 -0.153395
   vertex 0.255 -0.0492106 -0.138893
  endloop
 endfacet
 facet normal -1 0 0
  outer loop
   vertex 0.255 -0.0645243 -0.184229
   vertex 0.255 -0.0454031 -0.143414
   vertex 0.255 -0.0436238 -0.14432
  endloop
 endfacet
 facet normal -1 0 0
  outer loop
   vertex 0.255 -0.0645243 -0.184229
   vertex 0.255 -0.0436238 -0.14432
   vertex 0.255 -0.0602422 -0.186139
  endloop
 endfacet
 facet normal -1 0 0
  outer loop
   vertex 0.255 -0.0879558 -0.161926
   vertex 0.255 -0.0492106 -0.138893
   vertex 0.255 -0.0482534 -0.140646
  endloop
 endfacet
 facet normal -1 0 0
  outer loop
   vertex 0.255 -0.0879558 -0.161926
   vertex 0.255 -0.0900753 -0.157743
   vertex 0.255 -0.0492106 -0.138893
  endloop
 endfacet
 facet normal -1 0 0
  outer loop
   vertex 0.255 -0.0686282 -0.181961
   vertex 0.255 -0.0454031 -0.143414
   vertex 0.255 -0.0645243 -0.184229
  endloop
 endfacet
 facet normal -1 0 0
  outer loop
   vertex 0.255 -0.0854877 -0.165914
   vertex 0.255 -0.0879558 -0.161926
   vertex 0.255 -0.0482534 -0.140646
  endloop
 endfacet
 facet normal -1 0 0
  outer loop
   vertex 0.255 -0.072524 -0.179352
   vertex 0.255 -0.0469671 -0.142173
   vertex 0.255 -0.0454031 -0.143414
  endloop
 endfacet
 facet normal -1 0 0
  outer loop
   vertex 0.255 -0.072524 -0.179352
   vertex 0.255 -0.0454031 -0.143414
   vertex 0.255 -0.0686282 -0.181961
  endloop
 endfacet
 facet normal -1 0 0
  outer loop
   vertex 0.255 -0.082689 -0.169676
   vertex 0.255 -0.0482534 -0.140646
   vertex 0.255 -0.0469671 -0.142173
  endloop
 endfacet
 facet normal -1 0 0
  outer loop
   vertex 0.255 -0.082689 -0.169676
   vertex 0.255 -0.0854877 -0.165914
   vertex 0.255 -0.0482534 -0.140646
  endloop
 endfacet
 facet normal -1 0 0
  outer loop
   vertex 0.255 -0.0761836 -0.17642
   vertex 0.255 -0.0469671 -0.142173
   vertex 0.255 -0.072524 -0.179352
  endloop
 endfacet
 facet normal -1 0 0
  outer loop
   vertex 0.255 -0.0795801 -0.173187
   vertex 0.255 -0.082689 -0.169676
   vertex 0.255 -0.0469671 -0.142173
  endloop
 endfacet
 facet normal -1 0 0
  outer loop
   vertex 0.255 -0.0795801 -0.173187
   vertex 0.255 -0.0469671 -0.142173
   vertex 0.255 -0.0761836 -0.17642
  endloop
 endfacet
 facet normal -0.0166641 0 0.999861
  outer loop
   vertex 0.315 0.04 0.251
   vertex 0.255 0.04 0.25
   vertex 0.255 -0.04 0.25
  endloop
 endfacet
 facet normal -0.0166641 0 0.999861
  outer loop
   vertex 0.315 -0.04 0.251
   vertex 0.315 0.04 0.251
   vertex 0.255 -0.04 0.25
  endloop
 endfacet
 facet normal -0.0166495 0.0426509 0.998951
  outer loop
   vertex 0.255 0.0446844 0.2498
   vertex 0.255 0.04 0.25
   vertex 0.315 0.0446844 0.2508
  endloop
 endfacet
 facet normal -0.016649 0.0426445 0.998952
  outer loop
   vertex 0.255 0.04 0.25
   vertex 0.315 0.04 0.251
   vertex 0.315 0.0446844 0.2508
  endloop
 endfacet
 facet normal -0.0165283 0.127523 0.991698
  outer loop
   vertex 0.255 0.0493348 0.249202
   vertex 0.255 0.0446844 0.2498
   vertex 0.315 0.0493348 0.250202
  endloop
 endfacet
 facet normal -0.0165286 0.127526 0.991697
  outer loop
   vertex 0.255 0.0446844 0.2498
   vertex 0.315 0.0446844 0.2508
   vertex 0.315 0.0493348 0.250202
  endloop
 endfacet
 facet normal -0.0162872 0.211547 0.977232
  outer loop
   vertex 0.255 0.0539173 0.24821
   vertex 0.255 0.0493348 0.249202
   vertex 0.315 0.0539173 0.24921
  endloop
 endfacet
 facet normal -0.0162872 0.211547 0.977232
  outer loop
   vertex 0.255 0.0493348 0.249202
   vertex 0.315 0.0493348 0.250202
   vertex 0.315 0.0539173 0.24921
  endloop
 endfacet
 facet normal -0.0159276 0.294069 0.955651
  outer loop
   vertex 0.255 0.0583987 0.246831
   vertex 0.255 0.0539173 0.24821
   vertex 0.315 0.0583987 0.247831
  endloop
 endfacet
 facet normal -0.0159276 0.294069 0.955651
  outer loop
   vertex 0.255 0.0539173 0.24821
   vertex 0.315 0.0539173 0.24921
   vertex 0.315 0.0583987 0.247831
  endloop
 endfacet
 facet normal -0.015452 0.374454 0.927117
  outer loop
   vertex 0.255 0.0627464 0.245075
   vertex 0.255 0.0583987 0.246831
   vertex 0.315 0.0627464 0.246075
  endloop
 endfacet
 facet normal -0.015452 0.374454 0.927117
  outer loop
   vertex 0.255 0.0583987 0.246831
   vertex 0.315 0.0583987 0.247831
   vertex 0.315 0.0627464 0.246075
  endloop
 endfacet
 facet normal -0.0148658 0.451902 0.891944
  outer loop
   vertex 0.255 0.0669288 0.242956
   vertex 0.255 0.0627464 0.245075
   vertex 0.315 0.0669288 0.243956
  endloop
 endfacet
 facet normal -0.0148658 0.451902 0.891944
  outer loop
   vertex 0.255 0.0627464 0.245075
   vertex 0.315 0.0627464 0.246075
   vertex 0.315 0.0669288 0.243956
  endloop
 endfacet
 facet normal -0.0141681 0.526453 0.850086
  outer loop
   vertex 0.255 0.0709156 0.240487
   vertex 0.255 0.0669288 0.242956
   vertex 0.315 0.0709156 0.241487
  endloop
 endfacet
 facet normal -0.0141681 0.526453 0.850086
  outer loop
   vertex 0.255 0.0669288 0.242956
   vertex 0.315 0.0669288 0.243956
   vertex 0.315 0.0709156 0.241487
  endloop
 endfacet
 facet normal -0.0133722 0.596733 0.802329
  outer loop
   vertex 0.255 0.0746776 0.237689
   vertex 0.255 0.0709156 0.240487
   vertex 0.315 0.0746776 0.238689
  endloop
 endfacet
 facet normal -0.0133722 0.596733 0.802329
  outer loop
   vertex 0.255 0.0709156 0.240487
   vertex 0.315 0.0709156 0.241487
   vertex 0.315 0.0746776 0.238689
  endloop
 endfacet
 facet normal -0.0124736 0.663111 0.748417
  outer loop
   vertex 0.255 0.0781877 0.234579
   vertex 0.255 0.0746776 0.237689
   vertex 0.315 0.0781877 0.235579
  endloop
 endfacet
 facet normal -0.0124736 0.663111 0.748417
  outer loop
   vertex 0.255 0.0746776 0.237689
   vertex 0.315 0.0746776 0.238689
   vertex 0.315 0.0781877 0.235579
  endloop
 endfacet
 facet normal -0.01149 0.724279 0.689411
  outer loop
   vertex 0.255 0.0814202 0.231183
   vertex 0.255 0.0781877 0.234579
   vertex 0.315 0.0814202 0.232183
  endloop
 endfacet
 facet normal -0.0114902 0.724281 0.68941
  outer loop
   vertex 0.255 0.0781877 0.234579
   vertex 0.315 0.0781877 0.235579
   vertex 0.315 0.0814202 0.232183
  endloop
 endfacet
 facet normal -0.0104188 0.780452 0.625129
  outer loop
   vertex 0.255 0.0843518 0.227523
   vertex 0.255 0.0814202 0.231183
   vertex 0.315 0.0843518 0.228523
  endloop
 endfacet
 facet normal -0.0104187 0.780451 0.62513
  outer loop
   vertex 0.255 0.0814202 0.231183
   vertex 0.315 0.0814202 0.232183
   vertex 0.315 0.0843518 0.228523
  endloop
 endfacet
 facet normal -0.00927217 0.83091 0.556329
  outer loop
   vertex 0.255 0.086961 0.223626
   vertex 0.255 0.0843518 0.227523
   vertex 0.315 0.086961 0.224626
  endloop
 endfacet
 facet normal -0.00927217 0.83091 0.556329
  outer loop
   vertex 0.255 0.0843518 0.227523
   vertex 0.315 0.0843518 0.228523
   vertex 0.315 0.086961 0.224626
  endloop
 endfacet
 facet normal -0.0080609 0.875223 0.483653
  outer loop
   vertex 0.255 0.0892289 0.219522
   vertex 0.255 0.086961 0.223626
   vertex 0.315 0.0892289 0.220522
  endloop
 endfacet
 facet normal -0.0080609 0.875223 0.483653
  outer loop
   vertex 0.255 0.086961 0.223626
   vertex 0.315 0.086961 0.224626
   vertex 0.315 0.0892289 0.220522
  endloop
 endfacet
 facet normal -0.00678827 0.913271 0.407295
  outer loop
   vertex 0.255 0.091139 0.215239
   vertex 0.255 0.0892289 0.219522
   vertex 0.315 0.091139 0.216239
  endloop
 endfacet
 facet normal -0.00678827 0.913271 0.407295
  outer loop
   vertex 0.255 0.0892289 0.219522
   vertex 0.315 0.0892289 0.220522
   vertex 0.315 0.091139 0.216239
  endloop
 endfacet
 facet normal -0.00546742 0.944646 0.328044
  outer loop
   vertex 0.255 0.091139 0.215239
   vertex 0.315 0.091139 0.216239
   vertex 0.315 0.0926774 0.211809
  endloop
 endfacet
 facet normal -0.00546735 0.944646 0.328045
  outer loop
   vertex 0.255 0.0926774 0.210809
   vertex 0.255 0.091139 0.215239
   vertex 0.315 0.0926774 0.211809
  endloop
 endfacet
 facet normal -0.00410687 0.969156 0.246416
  outer loop
   vertex 0.255 0.0926774 0.210809
   vertex 0.315 0.0926774 0.211809
   vertex 0.315 0.093833 0.207264
  endloop
 endfacet
 facet normal -0.00410692 0.969156 0.246415
  outer loop
   vertex 0.255 0.093833 0.206264
   vertex 0.255 0.0926774 0.210809
   vertex 0.315 0.093833 0.207264
  endloop
 endfacet
 facet normal -0.00271624 0.986627 0.162974
  outer loop
   vertex 0.255 0.093833 0.206264
   vertex 0.315 0.093833 0.207264
   vertex 0.315 0.0945973 0.202637
  endloop
 endfacet
 facet normal -0.00271624 0.986627 0.162974
  outer loop
   vertex 0.255 0.0945973 0.201637
   vertex 0.255 0.093833 0.206264
   vertex 0.315 0.0945973 0.202637
  endloop
 endfacet
 facet normal -0.00151113 0.99588 0.0906676
  outer loop
   vertex 0.255 0.0945973 0.201637
   vertex 0.315 0.0945973 0.202637
   vertex 0.315 0.0948992 0.199321
  endloop
 endfacet
 facet normal -0.00151113 0.99588 0.0906676
  outer loop
   vertex 0.255 0.0948992 0.198321
   vertex 0.255 0.0945973 0.201637
   vertex 0.315 0.0948992 0.199321
  endloop
 endfacet
 facet normal -0.000504419 0.999542 0.0302651
  outer loop
   vertex 0.255 0.0948992 0.198321
   vertex 0.315 0.0948992 0.199321
   vertex 0.315 0.095 0.195992
  endloop
 endfacet
 facet normal -0.000504414 0.999542 0.0302652
  outer loop
   vertex 0.255 0.095 0.194992
   vertex 0.255 0.0948992 0.198321
   vertex 0.315 0.095 0.195992
  endloop
 endfacet
 facet normal -0.0166495 -0.0426509 0.998951
  outer loop
   vertex 0.315 -0.0446844 0.2508
   vertex 0.255 -0.04 0.25
   vertex 0.255 -0.0446844 0.2498
  endloop
 endfacet
 facet normal -0.016649 -0.0426445 0.998952
  outer loop
   vertex 0.315 -0.0446844 0.2508
   vertex 0.315 -0.04 0.251
   vertex 0.255 -0.04 0.25
  endloop
 endfacet
 facet normal -0.0165283 -0.127523 0.991698
  outer loop
   vertex 0.315 -0.0493348 0.250202
   vertex 0.255 -0.0446844 0.2498
   vertex 0.255 -0.0493348 0.249202
  endloop
 endfacet
 facet normal -0.0165286 -0.127526 0.991697
  outer loop
   vertex 0.315 -0.0493348 0.250202
   vertex 0.315 -0.0446844 0.2508
   vertex 0.255 -0.0446844 0.2498
  endloop
 endfacet
 facet normal -0.0162872 -0.211547 0.977232
  outer loop
   vertex 0.315 -0.0539173 0.24921
   vertex 0.255 -0.0493348 0.249202
   vertex 0.255 -0.0539173 0.24821
  endloop
 endfacet
 facet normal -0.0162872 -0.211547 0.977232
  outer loop
   vertex 0.315 -0.0539173 0.24921
   vertex 0.315 -0.0493348 0.250202
   vertex 0.255 -0.0493348 0.249202
  endloop
 endfacet
 facet normal -0.0159276 -0.294069 0.955651
  outer loop
   vertex 0.315 -0.0583987 0.247831
   vertex 0.255 -0.0539173 0.24821
   vertex 0.255 -0.0583987 0.246831
  endloop
 endfacet
 facet normal -0.0159276 -0.294069 0.955651
  outer loop
   vertex 0.315 -0.0583987 0.247831
   vertex 0.315 -0.0539173 0.24921
   vertex 0.255 -0.0539173 0.24821
  endloop
 endfacet
 facet normal -0.015452 -0.374454 0.927117
  outer loop
   vertex 0.315 -0.0627464 0.246075
   vertex 0.255 -0.0583987 0.246831
   vertex 0.255 -0.0627464 0.245075
  endloop
 endfacet
 facet normal -0.015452 -0.374454 0.927117
  outer loop
   vertex 0.315 -0.0627464 0.246075
   vertex 0.315 -0.0583987 0.247831
   vertex 0.255 -0.0583987 0.246831
  endloop
 endfacet
 facet normal -0.0148658 -0.451902 0.891944
  outer loop
   vertex 0.315 -0.0669288 0.243956
   vertex 0.255 -0.0627464 0.245075
   vertex 0.255 -0.0669288 0.242956
  endloop
 endfacet
 facet normal -0.0148658 -0.451902 0.891944
  outer loop
   vertex 0.315 -0.0669288 0.243956
   vertex 0.315 -0.0627464 0.246075
   vertex 0.255 -0.0627464 0.245075
  endloop
 endfacet
 facet normal -0.0141681 -0.526453 0.850086
  outer loop
   vertex 0.315 -0.0709156 0.241487
   vertex 0.255 -0.0669288 0.242956
   vertex 0.255 -0.0709156 0.240487
  endloop
 endfacet
 facet normal -0.0141681 -0.526453 0.850086
  outer loop
   vertex 0.315 -0.0709156 0.241487
   vertex 0.315 -0.0669288 0.243956
   vertex 0.255 -0.0669288 0.242956
  endloop
 endfacet
 facet normal -0.0133722 -0.596733 0.802329
  outer loop
   vertex 0.315 -0.0746776 0.238689
   vertex 0.255 -0.0709156 0.240487
   vertex 0.255 -0.0746776 0.237689
  endloop
 endfacet
 facet normal -0.0133722 -0.596733 0.802329
  outer loop
   vertex 0.315 -0.0746776 0.238689
   vertex 0.315 -0.0709156 0.241487
   vertex 0.255 -0.0709156 0.240487
  endloop
 endfacet
 facet normal -0.0124736 -0.663111 0.748417
  outer loop
   vertex 0.315 -0.0781877 0.235579
   vertex 0.255 -0.0746776 0.237689
   vertex 0.255 -0.0781877 0.234579
  endloop
 endfacet
 facet normal -0.0124736 -0.663111 0.748417
  outer loop
   vertex 0.315 -0.0781877 0.235579
   vertex 0.315 -0.0746776 0.238689
   vertex 0.255 -0.0746776 0.237689
  endloop
 endfacet
 facet normal -0.01149 -0.724279 0.689411
  outer loop
   vertex 0.315 -0.0814202 0.232183
   vertex 0.255 -0.0781877 0.234579
   vertex 0.255 -0.0814202 0.231183
  endloop
 endfacet
 facet normal -0.0114902 -0.724281 0.68941
  outer loop
   vertex 0.315 -0.0814202 0.232183
   vertex 0.315 -0.0781877 0.235579
   vertex 0.255 -0.0781877 0.234579
  endloop
 endfacet
 facet normal -0.0104188 -0.780452 0.625129
  outer loop
   vertex 0.315 -0.0843518 0.228523
   vertex 0.255 -0.0814202 0.231183
   vertex 0.255 -0.0843518 0.227523
  endloop
 endfacet
 facet normal -0.0104187 -0.780451 0.62513
  outer loop
   vertex 0.315 -0.0843518 0.228523
   vertex 0.315 -0.0814202 0.232183
   vertex 0.255 -0.0814202 0.231183
  endloop
 endfacet
 facet normal -0.00927217 -0.83091 0.556329
  outer loop
   vertex 0.315 -0.086961 0.224626
   vertex 0.255 -0.0843518 0.227523
   vertex 0.255 -0.086961 0.223626
  endloop
 endfacet
 facet normal -0.00927217 -0.83091 0.556329
  outer loop
   vertex 0.315 -0.086961 0.224626
   vertex 0.315 -0.0843518 0.228523
   vertex 0.255 -0.0843518 0.227523
  endloop
 endfacet
 facet normal -0.0080609 -0.875223 0.483653
  outer loop
   vertex 0.315 -0.0892289 0.220522
   vertex 0.255 -0.086961 0.223626
   vertex 0.255 -0.0892289 0.219522
  endloop
 endfacet
 facet normal -0.0080609 -0.875223 0.483653
  outer loop
   vertex 0.315 -0.0892289 0.220522
   vertex 0.315 -0.086961 0.224626
   vertex 0.255 -0.086961 0.223626
  endloop
 endfacet
 facet normal -0.00678827 -0.913271 0.407295
  outer loop
   vertex 0.315 -0.091139 0.216239
   vertex 0.255 -0.0892289 0.219522
   vertex 0.255 -0.091139 0.215239
  endloop
 endfacet
 facet normal -0.00678827 -0.913271 0.407295
  outer loop
   vertex 0.315 -0.091139 0.216239
   vertex 0.315 -0.0892289 0.220522
   vertex 0.255 -0.0892289 0.219522
  endloop
 endfacet
 facet normal -0.00546742 -0.944646 0.328044
  outer loop
   vertex 0.315 -0.0926774 0.211809
   vertex 0.315 -0.091139 0.216239
   vertex 0.255 -0.091139 0.215239
  endloop
 endfacet
 facet normal -0.00546735 -0.944646 0.328045
  outer loop
   vertex 0.315 -0.0926774 0.211809
   vertex 0.255 -0.091139 0.215239
   vertex 0.255 -0.0926774 0.210809
  endloop
 endfacet
 facet normal -0.00410687 -0.969156 0.246416
  outer loop
   vertex 0.315 -0.093833 0.207264
   vertex 0.315 -0.0926774 0.211809
   vertex 0.255 -0.0926774 0.210809
  endloop
 endfacet
 facet normal -0.00410692 -0.969156 0.246415
  outer loop
   vertex 0.315 -0.093833 0.207264
   vertex 0.255 -0.0926774 0.210809
   vertex 0.255 -0.093833 0.206264
  endloop
 endfacet
 facet normal -0.00271624 -0.986627 0.162974
  outer loop
   vertex 0.315 -0.0945973 0.202637
   vertex 0.315 -0.093833 0.207264
   vertex 0.255 -0.093833 0.206264
  endloop
 endfacet
 facet normal -0.00271624 -0.986627 0.162974
  outer loop
   vertex 0.315 -0.0945973 0.202637
   vertex 0.255 -0.093833 0.206264
   vertex 0.255 -0.0945973 0.201637
  endloop
 endfacet
 facet normal -0.00151113 -0.99588 0.0906676
  outer loop
   vertex 0.315 -0.0948992 0.199321
   vertex 0.315 -0.0945973 0.202637
   vertex 0.255 -0.0945973 0.201637
  endloop
 endfacet
 facet normal -0.00151113 -0.99588 0.0906676
  outer loop
   vertex 0.315 -0.0948992 0.199321
   vertex 0.255 -0.0945973 0.201637
   vertex 0.255 -0.0948992 0.198321
  endloop
 endfacet
 facet normal -0.000504419 -0.999542 0.0302651
  outer loop
   vertex 0.315 -0.095 0.195992
   vertex 0.315 -0.0948992 0.199321
   vertex 0.255 -0.0948992 0.198321
  endloop
 endfacet
 facet normal -0.000504414 -0.999542 0.0302652
  outer loop
   vertex 0.315 -0.095 0.195992
   vertex 0.255 -0.0948992 0.198321
   vertex 0.255 -0.095 0.194992
  endloop
 endfacet
 facet normal 0 1 0
  outer loop
   vertex 0.315 0.095 -0.133992
   vertex 0.255 0.095 -0.134992
   vertex 0.255 0.095 0.194992
  endloop
 endfacet
 facet normal 0 1 0
  outer loop
   vertex 0.315 0.095 0.195992
   vertex 0.315 0.095 -0.133992
   vertex 0.255 0.095 0.194992
  endloop
 endfacet
 facet normal 0 -1 -0
  outer loop
   vertex 0.315 -0.095 0.195992
   vertex 0.255 -0.095 0.194992
   vertex 0.315 -0.095 -0.133992
  endloop
 endfacet
 facet normal -0 -1 0
  outer loop
   vertex 0.315 -0.095 -0.133992
   vertex 0.255 -0.095 0.194992
   vertex 0.255 -0.095 -0.134992
  endloop
 endfacet
 facet normal 0.0166492 0.0426509 -0.998951
  outer loop
   vertex 0.315 0.04 -0.189
   vertex 0.255 0.04 -0.19
   vertex 0.255 0.0446844 -0.1898
  endloop
 endfacet
 facet normal 0.0165281 0.127523 -0.991698
  outer loop
   vertex 0.315 0.0446844 -0.1888
   vertex 0.255 0.0446844 -0.1898
   vertex 0.255 0.0493348 -0.189202
  endloop
 endfacet
 facet normal 0.016649 0.0426477 -0.998951
  outer loop
   vertex 0.315 0.0446844 -0.1888
   vertex 0.315 0.04 -0.189
   vertex 0.255 0.0446844 -0.1898
  endloop
 endfacet
 facet normal 0.0162872 0.211547 -0.977232
  outer loop
   vertex 0.315 0.0493348 -0.188202
   vertex 0.255 0.0493348 -0.189202
   vertex 0.255 0.0539173 -0.18821
  endloop
 endfacet
 facet normal 0.0165283 0.127526 -0.991697
  outer loop
   vertex 0.315 0.0493348 -0.188202
   vertex 0.315 0.0446844 -0.1888
   vertex 0.255 0.0493348 -0.189202
  endloop
 endfacet
 facet normal 0.0159276 0.294069 -0.955651
  outer loop
   vertex 0.315 0.0539173 -0.18721
   vertex 0.255 0.0539173 -0.18821
   vertex 0.255 0.0583987 -0.186831
  endloop
 endfacet
 facet normal 0.0162872 0.211547 -0.977232
  outer loop
   vertex 0.315 0.0539173 -0.18721
   vertex 0.315 0.0493348 -0.188202
   vertex 0.255 0.0539173 -0.18821
  endloop
 endfacet
 facet normal 0.015452 0.374454 -0.927117
  outer loop
   vertex 0.315 0.0583987 -0.185831
   vertex 0.255 0.0583987 -0.186831
   vertex 0.255 0.0627464 -0.185075
  endloop
 endfacet
 facet normal 0.0159276 0.294069 -0.955651
  outer loop
   vertex 0.315 0.0583987 -0.185831
   vertex 0.315 0.0539173 -0.18721
   vertex 0.255 0.0583987 -0.186831
  endloop
 endfacet
 facet normal 0.0148658 0.451902 -0.891944
  outer loop
   vertex 0.315 0.0627464 -0.184075
   vertex 0.255 0.0627464 -0.185075
   vertex 0.255 0.0669288 -0.182956
  endloop
 endfacet
 facet normal 0.015452 0.374454 -0.927117
  outer loop
   vertex 0.315 0.0627464 -0.184075
   vertex 0.315 0.0583987 -0.185831
   vertex 0.255 0.0627464 -0.185075
  endloop
 endfacet
 facet normal 0.0141682 0.526451 -0.850088
  outer loop
   vertex 0.315 0.0669288 -0.181956
   vertex 0.255 0.0669288 -0.182956
   vertex 0.255 0.0709156 -0.180487
  endloop
 endfacet
 facet normal 0.0148658 0.451902 -0.891944
  outer loop
   vertex 0.315 0.0669288 -0.181956
   vertex 0.315 0.0627464 -0.184075
   vertex 0.255 0.0669288 -0.182956
  endloop
 endfacet
 facet normal 0.0133721 0.596735 -0.802327
  outer loop
   vertex 0.315 0.0709156 -0.179487
   vertex 0.255 0.0709156 -0.180487
   vertex 0.255 0.0746776 -0.177689
  endloop
 endfacet
 facet normal 0.0141682 0.526451 -0.850088
  outer loop
   vertex 0.315 0.0709156 -0.179487
   vertex 0.315 0.0669288 -0.181956
   vertex 0.255 0.0709156 -0.180487
  endloop
 endfacet
 facet normal 0.0124736 0.663111 -0.748417
  outer loop
   vertex 0.315 0.0746776 -0.176689
   vertex 0.255 0.0746776 -0.177689
   vertex 0.255 0.0781877 -0.174579
  endloop
 endfacet
 facet normal 0.0133721 0.596735 -0.802327
  outer loop
   vertex 0.315 0.0746776 -0.176689
   vertex 0.315 0.0709156 -0.179487
   vertex 0.255 0.0746776 -0.177689
  endloop
 endfacet
 facet normal 0.01149 0.724279 -0.689411
  outer loop
   vertex 0.315 0.0781877 -0.173579
   vertex 0.255 0.0781877 -0.174579
   vertex 0.255 0.0814202 -0.171183
  endloop
 endfacet
 facet normal 0.0124735 0.663109 -0.748419
  outer loop
   vertex 0.315 0.0781877 -0.173579
   vertex 0.315 0.0746776 -0.176689
   vertex 0.255 0.0781877 -0.174579
  endloop
 endfacet
 facet normal 0.0104188 0.780452 -0.625129
  outer loop
   vertex 0.315 0.0814202 -0.170183
   vertex 0.255 0.0814202 -0.171183
   vertex 0.255 0.0843518 -0.167523
  endloop
 endfacet
 facet normal 0.0114902 0.724281 -0.68941
  outer loop
   vertex 0.315 0.0814202 -0.170183
   vertex 0.315 0.0781877 -0.173579
   vertex 0.255 0.0814202 -0.171183
  endloop
 endfacet
 facet normal 0.00927217 0.83091 -0.556329
  outer loop
   vertex 0.315 0.0843518 -0.166523
   vertex 0.255 0.0843518 -0.167523
   vertex 0.255 0.086961 -0.163626
  endloop
 endfacet
 facet normal 0.0104188 0.780452 -0.625129
  outer loop
   vertex 0.315 0.0843518 -0.166523
   vertex 0.315 0.0814202 -0.170183
   vertex 0.255 0.0843518 -0.167523
  endloop
 endfacet
 facet normal 0.0080609 0.875223 -0.483653
  outer loop
   vertex 0.315 0.086961 -0.162626
   vertex 0.255 0.086961 -0.163626
   vertex 0.255 0.0892289 -0.159522
  endloop
 endfacet
 facet normal 0.00927217 0.83091 -0.556329
  outer loop
   vertex 0.315 0.086961 -0.162626
   vertex 0.315 0.0843518 -0.166523
   vertex 0.255 0.086961 -0.163626
  endloop
 endfacet
 facet normal 0.00678827 0.913271 -0.407295
  outer loop
   vertex 0.315 0.0892289 -0.158522
   vertex 0.255 0.0892289 -0.159522
   vertex 0.255 0.091139 -0.155239
  endloop
 endfacet
 facet normal 0.0080609 0.875223 -0.483653
  outer loop
   vertex 0.315 0.0892289 -0.158522
   vertex 0.315 0.086961 -0.162626
   vertex 0.255 0.0892289 -0.159522
  endloop
 endfacet
 facet normal 0.00546743 0.944646 -0.328045
  outer loop
   vertex 0.315 0.091139 -0.154239
   vertex 0.255 0.091139 -0.155239
   vertex 0.255 0.0926774 -0.150809
  endloop
 endfacet
 facet normal 0.00678827 0.913271 -0.407295
  outer loop
   vertex 0.315 0.091139 -0.154239
   vertex 0.315 0.0892289 -0.158522
   vertex 0.255 0.091139 -0.155239
  endloop
 endfacet
 facet normal 0.00546743 0.944646 -0.328045
  outer loop
   vertex 0.315 0.0926774 -0.149809
   vertex 0.315 0.091139 -0.154239
   vertex 0.255 0.0926774 -0.150809
  endloop
 endfacet
 facet normal 0.00410692 0.969156 -0.246415
  outer loop
   vertex 0.315 0.0926774 -0.149809
   vertex 0.255 0.0926774 -0.150809
   vertex 0.255 0.093833 -0.146264
  endloop
 endfacet
 facet normal 0.00410692 0.969156 -0.246415
  outer loop
   vertex 0.315 0.093833 -0.145264
   vertex 0.315 0.0926774 -0.149809
   vertex 0.255 0.093833 -0.146264
  endloop
 endfacet
 facet normal 0.00271624 0.986627 -0.162974
  outer loop
   vertex 0.315 0.093833 -0.145264
   vertex 0.255 0.093833 -0.146264
   vertex 0.255 0.0945973 -0.141637
  endloop
 endfacet
 facet normal 0.00271624 0.986627 -0.162974
  outer loop
   vertex 0.315 0.0945973 -0.140637
   vertex 0.315 0.093833 -0.145264
   vertex 0.255 0.0945973 -0.141637
  endloop
 endfacet
 facet normal 0.00151113 0.99588 -0.0906676
  outer loop
   vertex 0.315 0.0945973 -0.140637
   vertex 0.255 0.0945973 -0.141637
   vertex 0.255 0.0948992 -0.138321
  endloop
 endfacet
 facet normal 0.00151113 0.99588 -0.0906676
  outer loop
   vertex 0.315 0.0948992 -0.137321
   vertex 0.315 0.0945973 -0.140637
   vertex 0.255 0.0948992 -0.138321
  endloop
 endfacet
 facet normal 0.000504421 0.999542 -0.0302652
  outer loop
   vertex 0.315 0.0948992 -0.137321
   vertex 0.255 0.0948992 -0.138321
   vertex 0.255 0.095 -0.134992
  endloop
 endfacet
 facet normal 0.000504421 0.999542 -0.0302652
  outer loop
   vertex 0.315 0.095 -0.133992
   vertex 0.315 0.0948992 -0.137321
   vertex 0.255 0.095 -0.134992
  endloop
 endfacet
 facet normal 0.000710335 -0.999091 -0.04262
  outer loop
   vertex 0.315 -0.0948001 -0.138678
   vertex 0.255 -0.095 -0.134992
   vertex 0.255 -0.0948001 -0.139678
  endloop
 endfacet
 facet normal 0.000710335 -0.999091 -0.04262
  outer loop
   vertex 0.315 -0.0948001 -0.138678
   vertex 0.315 -0.095 -0.133992
   vertex 0.255 -0.095 -0.134992
  endloop
 endfacet
 facet normal 0.00212611 -0.991828 -0.127566
  outer loop
   vertex 0.315 -0.0942019 -0.143329
   vertex 0.255 -0.0948001 -0.139678
   vertex 0.255 -0.0942019 -0.144329
  endloop
 endfacet
 facet normal 0.00212611 -0.991828 -0.127566
  outer loop
   vertex 0.315 -0.0942019 -0.143329
   vertex 0.315 -0.0948001 -0.138678
   vertex 0.255 -0.0948001 -0.139678
  endloop
 endfacet
 facet normal 0.00352546 -0.977366 -0.211527
  outer loop
   vertex 0.315 -0.0932098 -0.147913
   vertex 0.255 -0.0942019 -0.144329
   vertex 0.255 -0.0932098 -0.148913
  endloop
 endfacet
 facet normal 0.00352546 -0.977366 -0.211527
  outer loop
   vertex 0.315 -0.0932098 -0.147913
   vertex 0.315 -0.0942019 -0.143329
   vertex 0.255 -0.0942019 -0.144329
  endloop
 endfacet
 facet normal 0.00490081 -0.955778 -0.294048
  outer loop
   vertex 0.315 -0.0918309 -0.152395
   vertex 0.255 -0.0932098 -0.148913
   vertex 0.255 -0.0918309 -0.153395
  endloop
 endfacet
 facet normal 0.00490081 -0.955778 -0.294048
  outer loop
   vertex 0.315 -0.0918309 -0.152395
   vertex 0.315 -0.0932098 -0.147913
   vertex 0.255 -0.0932098 -0.148913
  endloop
 endfacet
 facet normal 0.00623995 -0.927248 -0.374396
  outer loop
   vertex 0.315 -0.0900753 -0.156743
   vertex 0.255 -0.0918309 -0.153395
   vertex 0.255 -0.0900753 -0.157743
  endloop
 endfacet
 facet normal 0.00623995 -0.927248 -0.374396
  outer loop
   vertex 0.315 -0.0900753 -0.156743
   vertex 0.315 -0.0918309 -0.152395
   vertex 0.255 -0.0918309 -0.153395
  endloop
 endfacet
 facet normal 0.00753287 -0.892001 -0.451971
  outer loop
   vertex 0.315 -0.0879558 -0.160926
   vertex 0.255 -0.0900753 -0.157743
   vertex 0.255 -0.0879558 -0.161926
  endloop
 endfacet
 facet normal 0.00753287 -0.892001 -0.451971
  outer loop
   vertex 0.315 -0.0879558 -0.160926
   vertex 0.315 -0.0900753 -0.156743
   vertex 0.255 -0.0900753 -0.157743
  endloop
 endfacet
 facet normal 0.00877056 -0.850295 -0.526233
  outer loop
   vertex 0.315 -0.0854877 -0.164914
   vertex 0.255 -0.0879558 -0.161926
   vertex 0.255 -0.0854877 -0.165914
  endloop
 endfacet
 facet normal 0.00877056 -0.850295 -0.526233
  outer loop
   vertex 0.315 -0.0854877 -0.164914
   vertex 0.315 -0.0879558 -0.160926
   vertex 0.255 -0.0879558 -0.161926
  endloop
 endfacet
 facet normal 0.00994757 -0.802289 -0.596853
  outer loop
   vertex 0.315 -0.082689 -0.168676
   vertex 0.255 -0.0854877 -0.165914
   vertex 0.255 -0.082689 -0.169676
  endloop
 endfacet
 facet normal 0.00994757 -0.802289 -0.596853
  outer loop
   vertex 0.315 -0.082689 -0.168676
   vertex 0.315 -0.0854877 -0.164914
   vertex 0.255 -0.0854877 -0.165914
  endloop
 endfacet
 facet normal 0.0110483 -0.748631 -0.662895
  outer loop
   vertex 0.315 -0.0795801 -0.172187
   vertex 0.255 -0.082689 -0.169676
   vertex 0.255 -0.0795801 -0.173187
  endloop
 endfacet
 facet normal 0.0110483 -0.748631 -0.662895
  outer loop
   vertex 0.315 -0.0795801 -0.172187
   vertex 0.315 -0.082689 -0.168676
   vertex 0.255 -0.082689 -0.169676
  endloop
 endfacet
 facet normal 0.0120712 -0.689408 -0.724272
  outer loop
   vertex 0.315 -0.0761836 -0.17542
   vertex 0.255 -0.0795801 -0.173187
   vertex 0.255 -0.0761836 -0.17642
  endloop
 endfacet
 facet normal 0.0120712 -0.689408 -0.724272
  outer loop
   vertex 0.315 -0.0761836 -0.17542
   vertex 0.315 -0.0795801 -0.172187
   vertex 0.255 -0.0795801 -0.173187
  endloop
 endfacet
 facet normal 0.0130059 -0.625204 -0.780353
  outer loop
   vertex 0.315 -0.072524 -0.178352
   vertex 0.255 -0.0761836 -0.17642
   vertex 0.255 -0.072524 -0.179352
  endloop
 endfacet
 facet normal 0.0130059 -0.625204 -0.780353
  outer loop
   vertex 0.315 -0.072524 -0.178352
   vertex 0.315 -0.0761836 -0.17542
   vertex 0.255 -0.0761836 -0.17642
  endloop
 endfacet
 facet normal 0.0138468 -0.556387 -0.830808
  outer loop
   vertex 0.315 -0.0686282 -0.180961
   vertex 0.255 -0.072524 -0.179352
   vertex 0.255 -0.0686282 -0.181961
  endloop
 endfacet
 facet normal 0.0138468 -0.556387 -0.830808
  outer loop
   vertex 0.315 -0.0686282 -0.180961
   vertex 0.315 -0.072524 -0.178352
   vertex 0.255 -0.072524 -0.179352
  endloop
 endfacet
 facet normal 0.0145857 -0.483644 -0.875143
  outer loop
   vertex 0.315 -0.0645243 -0.183229
   vertex 0.255 -0.0686282 -0.181961
   vertex 0.255 -0.0645243 -0.184229
  endloop
 endfacet
 facet normal 0.0145857 -0.483644 -0.875143
  outer loop
   vertex 0.315 -0.0645243 -0.183229
   vertex 0.315 -0.0686282 -0.180961
   vertex 0.255 -0.0686282 -0.181961
  endloop
 endfacet
 facet normal 0.0152194 -0.40731 -0.913163
  outer loop
   vertex 0.315 -0.0602422 -0.185139
   vertex 0.255 -0.0645243 -0.184229
   vertex 0.255 -0.0602422 -0.186139
  endloop
 endfacet
 facet normal 0.0152194 -0.40731 -0.913163
  outer loop
   vertex 0.315 -0.0602422 -0.185139
   vertex 0.315 -0.0645243 -0.183229
   vertex 0.255 -0.0645243 -0.184229
  endloop
 endfacet
 facet normal 0.0157426 -0.327986 -0.944551
  outer loop
   vertex 0.315 -0.055813 -0.186677
   vertex 0.315 -0.0602422 -0.185139
   vertex 0.255 -0.0602422 -0.186139
  endloop
 endfacet
 facet normal 0.0157426 -0.327986 -0.944551
  outer loop
   vertex 0.315 -0.055813 -0.186677
   vertex 0.255 -0.0602422 -0.186139
   vertex 0.255 -0.055813 -0.187677
  endloop
 endfacet
 facet normal 0.0161501 -0.246506 -0.969007
  outer loop
   vertex 0.315 -0.0512688 -0.187833
   vertex 0.315 -0.055813 -0.186677
   vertex 0.255 -0.055813 -0.187677
  endloop
 endfacet
 facet normal 0.0161501 -0.246506 -0.969007
  outer loop
   vertex 0.315 -0.0512688 -0.187833
   vertex 0.255 -0.055813 -0.187677
   vertex 0.255 -0.0512688 -0.188833
  endloop
 endfacet
 facet normal 0.0164417 -0.162924 -0.986502
  outer loop
   vertex 0.315 -0.0466428 -0.188597
   vertex 0.315 -0.0512688 -0.187833
   vertex 0.255 -0.0512688 -0.188833
  endloop
 endfacet
 facet normal 0.0164417 -0.162924 -0.986502
  outer loop
   vertex 0.315 -0.0466428 -0.188597
   vertex 0.255 -0.0512688 -0.188833
   vertex 0.255 -0.0466428 -0.189597
  endloop
 endfacet
 facet normal 0.0165957 -0.0907053 -0.995739
  outer loop
   vertex 0.315 -0.0433275 -0.188899
   vertex 0.315 -0.0466428 -0.188597
   vertex 0.255 -0.0466428 -0.189597
  endloop
 endfacet
 facet normal 0.0165957 -0.0907053 -0.995739
  outer loop
   vertex 0.315 -0.0433275 -0.188899
   vertex 0.255 -0.0466428 -0.189597
   vertex 0.255 -0.0433275 -0.189899
  endloop
 endfacet
 facet normal 0.0166567 -0.030335 -0.999401
  outer loop
   vertex 0.315 -0.04 -0.189
   vertex 0.315 -0.0433275 -0.188899
   vertex 0.255 -0.0433275 -0.189899
  endloop
 endfacet
 facet normal 0.0166567 -0.030335 -0.999401
  outer loop
   vertex 0.315 -0.04 -0.189
   vertex 0.255 -0.0433275 -0.189899
   vertex 0.255 -0.04 -0.19
  endloop
 endfacet
 facet normal 0.0166644 0 -0.999861
  outer loop
   vertex 0.315 -0.04 -0.189
   vertex 0.255 -0.04 -0.19
   vertex 0.255 0.04 -0.19
  endloop
 endfacet
 facet normal 0.0166644 0 -0.999861
  outer loop
   vertex 0.315 0.04 -0.189
   vertex 0.315 -0.04 -0.189
   vertex 0.255 0.04 -0.19
  endloop
 endfacet
 facet normal 0.0166644 0 -0.999861
  outer loop
   vertex 0.315 -0.04 0.206
   vertex 0.255 0.04 0.205
   vertex 0.315 0.04 0.206
  endloop
 endfacet
 facet normal 0.0166644 0 -0.999861
  outer loop
   vertex 0.255 -0.04 0.205
   vertex 0.255 0.04 0.205
   vertex 0.315 -0.04 0.206
  endloop
 endfacet
 facet normal 0.0165814 -0.0996611 -0.994883
  outer loop
   vertex 0.315 0.0419866 0.205801
   vertex 0.255 0.04 0.205
   vertex 0.255 0.0419866 0.204801
  endloop
 endfacet
 facet normal 0.0165814 -0.0996611 -0.994883
  outer loop
   vertex 0.315 0.0419866 0.205801
   vertex 0.315 0.04 0.206
   vertex 0.255 0.04 0.205
  endloop
 endfacet
 facet normal 0.0159203 -0.295483 -0.955215
  outer loop
   vertex 0.315 0.0438939 0.205211
   vertex 0.255 0.0419866 0.204801
   vertex 0.255 0.0438939 0.204211
  endloop
 endfacet
 facet normal 0.0159203 -0.295483 -0.955215
  outer loop
   vertex 0.315 0.0438939 0.205211
   vertex 0.315 0.0419866 0.205801
   vertex 0.255 0.0419866 0.204801
  endloop
 endfacet
 facet normal 0.0146222 -0.479669 -0.877328
  outer loop
   vertex 0.315 0.0456461 0.204253
   vertex 0.255 0.0438939 0.204211
   vertex 0.255 0.0456461 0.203253
  endloop
 endfacet
 facet normal 0.0146222 -0.479669 -0.877328
  outer loop
   vertex 0.315 0.0456461 0.204253
   vertex 0.315 0.0438939 0.205211
   vertex 0.255 0.0438939 0.204211
  endloop
 endfacet
 facet normal 0.0127474 -0.64409 -0.764843
  outer loop
   vertex 0.315 0.0471732 0.202967
   vertex 0.255 0.0456461 0.203253
   vertex 0.255 0.0471732 0.201967
  endloop
 endfacet
 facet normal 0.0127474 -0.64409 -0.764843
  outer loop
   vertex 0.315 0.0471732 0.202967
   vertex 0.315 0.0456461 0.204253
   vertex 0.255 0.0456461 0.203253
  endloop
 endfacet
 facet normal 0.0103601 -0.783262 -0.621605
  outer loop
   vertex 0.315 0.0484144 0.201403
   vertex 0.255 0.0471732 0.201967
   vertex 0.255 0.0484144 0.200403
  endloop
 endfacet
 facet normal 0.0103601 -0.783262 -0.621605
  outer loop
   vertex 0.315 0.0484144 0.201403
   vertex 0.315 0.0471732 0.202967
   vertex 0.255 0.0471732 0.201967
  endloop
 endfacet
 facet normal 0.00755862 -0.891216 -0.453516
  outer loop
   vertex 0.315 0.0493202 0.199623
   vertex 0.255 0.0484144 0.200403
   vertex 0.255 0.0493202 0.198623
  endloop
 endfacet
 facet normal 0.00755862 -0.891216 -0.453516
  outer loop
   vertex 0.315 0.0493202 0.199623
   vertex 0.315 0.0484144 0.201403
   vertex 0.255 0.0484144 0.200403
  endloop
 endfacet
 facet normal 0.00457722 -0.961538 -0.274633
  outer loop
   vertex 0.315 0.0498286 0.197843
   vertex 0.255 0.0493202 0.198623
   vertex 0.255 0.0498286 0.196843
  endloop
 endfacet
 facet normal 0.00457722 -0.961538 -0.274633
  outer loop
   vertex 0.315 0.0498286 0.197843
   vertex 0.315 0.0493202 0.199623
   vertex 0.255 0.0493202 0.198623
  endloop
 endfacet
 facet normal 0.00154252 -0.995707 -0.0925512
  outer loop
   vertex 0.315 0.05 0.195999
   vertex 0.255 0.0498286 0.196843
   vertex 0.255 0.05 0.194999
  endloop
 endfacet
 facet normal 0.00154252 -0.995707 -0.0925512
  outer loop
   vertex 0.315 0.05 0.195999
   vertex 0.315 0.0498286 0.197843
   vertex 0.255 0.0498286 0.196843
  endloop
 endfacet
 facet normal 0.0165814 0.0996611 -0.994883
  outer loop
   vertex 0.255 -0.0419866 0.204801
   vertex 0.255 -0.04 0.205
   vertex 0.315 -0.0419866 0.205801
  endloop
 endfacet
 facet normal 0.0165814 0.0996611 -0.994883
  outer loop
   vertex 0.255 -0.04 0.205
   vertex 0.315 -0.04 0.206
   vertex 0.315 -0.0419866 0.205801
  endloop
 endfacet
 facet normal 0.0159203 0.295483 -0.955215
  outer loop
   vertex 0.255 -0.0438939 0.204211
   vertex 0.255 -0.0419866 0.204801
   vertex 0.315 -0.0438939 0.205211
  endloop
 endfacet
 facet normal 0.0159203 0.295483 -0.955215
  outer loop
   vertex 0.255 -0.0419866 0.204801
   vertex 0.315 -0.0419866 0.205801
   vertex 0.315 -0.0438939 0.205211
  endloop
 endfacet
 facet normal 0.0146222 0.479669 -0.877328
  outer loop
   vertex 0.255 -0.0456461 0.203253
   vertex 0.255 -0.0438939 0.204211
   vertex 0.315 -0.0456461 0.204253
  endloop
 endfacet
 facet normal 0.0146222 0.479669 -0.877328
  outer loop
   vertex 0.255 -0.0438939 0.204211
   vertex 0.315 -0.0438939 0.205211
   vertex 0.315 -0.0456461 0.204253
  endloop
 endfacet
 facet normal 0.0127474 0.64409 -0.764843
  outer loop
   vertex 0.255 -0.0471732 0.201967
   vertex 0.255 -0.0456461 0.203253
   vertex 0.315 -0.0471732 0.202967
  endloop
 endfacet
 facet normal 0.0127474 0.64409 -0.764843
  outer loop
   vertex 0.255 -0.0456461 0.203253
   vertex 0.315 -0.0456461 0.204253
   vertex 0.315 -0.0471732 0.202967
  endloop
 endfacet
 facet normal 0.0103601 0.783262 -0.621605
  outer loop
   vertex 0.255 -0.0484144 0.200403
   vertex 0.255 -0.0471732 0.201967
   vertex 0.315 -0.0484144 0.201403
  endloop
 endfacet
 facet normal 0.0103601 0.783262 -0.621605
  outer loop
   vertex 0.255 -0.0471732 0.201967
   vertex 0.315 -0.0471732 0.202967
   vertex 0.315 -0.0484144 0.201403
  endloop
 endfacet
 facet normal 0.00755862 0.891216 -0.453516
  outer loop
   vertex 0.255 -0.0493202 0.198623
   vertex 0.255 -0.0484144 0.200403
   vertex 0.315 -0.0493202 0.199623
  endloop
 endfacet
 facet normal 0.00755862 0.891216 -0.453516
  outer loop
   vertex 0.255 -0.0484144 0.200403
   vertex 0.315 -0.0484144 0.201403
   vertex 0.315 -0.0493202 0.199623
  endloop
 endfacet
 facet normal 0.00457722 0.961538 -0.274633
  outer loop
   vertex 0.255 -0.0498286 0.196843
   vertex 0.255 -0.0493202 0.198623
   vertex 0.315 -0.0498286 0.197843
  endloop
 endfacet
 facet normal 0.00457722 0.961538 -0.274633
  outer loop
   vertex 0.255 -0.0493202 0.198623
   vertex 0.315 -0.0493202 0.199623
   vertex 0.315 -0.0498286 0.197843
  endloop
 endfacet
 facet normal 0.00154252 0.995707 -0.0925512
  outer loop
   vertex 0.255 -0.05 0.194999
   vertex 0.255 -0.0498286 0.196843
   vertex 0.315 -0.05 0.195999
  endloop
 endfacet
 facet normal 0.00154252 0.995707 -0.0925512
  outer loop
   vertex 0.255 -0.0498286 0.196843
   vertex 0.315 -0.0498286 0.197843
   vertex 0.315 -0.05 0.195999
  endloop
 endfacet
 facet normal 0 -1 0
  outer loop
   vertex 0.255 0.05 0.194999
   vertex 0.255 0.05 -0.134999
   vertex 0.315 0.05 -0.133999
  endloop
 endfacet
 facet normal 0 -1 0
  outer loop
   vertex 0.255 0.05 0.194999
   vertex 0.315 0.05 -0.133999
   vertex 0.315 0.05 0.195999
  endloop
 endfacet
 facet normal 0 1 -0
  outer loop
   vertex 0.315 -0.05 -0.133999
   vertex 0.255 -0.05 0.194999
   vertex 0.315 -0.05 0.195999
  endloop
 endfacet
 facet normal 0 1 0
  outer loop
   vertex 0.255 -0.05 -0.134999
   vertex 0.255 -0.05 0.194999
   vertex 0.315 -0.05 -0.133999
  endloop
 endfacet
 facet normal -0.0165814 -0.0996537 0.994884
  outer loop
   vertex 0.255 0.0419866 -0.144801
   vertex 0.255 0.04 -0.145
   vertex 0.315 0.04 -0.144
  endloop
 endfacet
 facet normal -0.0159203 -0.295489 0.955213
  outer loop
   vertex 0.255 0.0438939 -0.144211
   vertex 0.255 0.0419866 -0.144801
   vertex 0.315 0.0419866 -0.143801
  endloop
 endfacet
 facet normal -0.0165814 -0.0996537 0.994884
  outer loop
   vertex 0.255 0.0419866 -0.144801
   vertex 0.315 0.04 -0.144
   vertex 0.315 0.0419866 -0.143801
  endloop
 endfacet
 facet normal -0.0146219 -0.479669 0.877328
  outer loop
   vertex 0.255 0.0456461 -0.143253
   vertex 0.255 0.0438939 -0.144211
   vertex 0.315 0.0438939 -0.143211
  endloop
 endfacet
 facet normal -0.0159201 -0.295483 0.955215
  outer loop
   vertex 0.255 0.0438939 -0.144211
   vertex 0.315 0.0419866 -0.143801
   vertex 0.315 0.0438939 -0.143211
  endloop
 endfacet
 facet normal -0.0127474 -0.64409 0.764843
  outer loop
   vertex 0.255 0.0471732 -0.141967
   vertex 0.255 0.0456461 -0.143253
   vertex 0.315 0.0456461 -0.142253
  endloop
 endfacet
 facet normal -0.0146221 -0.479674 0.877325
  outer loop
   vertex 0.255 0.0456461 -0.143253
   vertex 0.315 0.0438939 -0.143211
   vertex 0.315 0.0456461 -0.142253
  endloop
 endfacet
 facet normal -0.0103601 -0.783262 0.621605
  outer loop
   vertex 0.255 0.0484144 -0.140403
   vertex 0.255 0.0471732 -0.141967
   vertex 0.315 0.0471732 -0.140967
  endloop
 endfacet
 facet normal -0.0127474 -0.64409 0.764843
  outer loop
   vertex 0.255 0.0471732 -0.141967
   vertex 0.315 0.0456461 -0.142253
   vertex 0.315 0.0471732 -0.140967
  endloop
 endfacet
 facet normal -0.00755862 -0.891216 0.453516
  outer loop
   vertex 0.255 0.0493202 -0.138623
   vertex 0.255 0.0484144 -0.140403
   vertex 0.315 0.0484144 -0.139403
  endloop
 endfacet
 facet normal -0.0103601 -0.783262 0.621605
  outer loop
   vertex 0.255 0.0484144 -0.140403
   vertex 0.315 0.0471732 -0.140967
   vertex 0.315 0.0484144 -0.139403
  endloop
 endfacet
 facet normal -0.00457722 -0.961538 0.274633
  outer loop
   vertex 0.255 0.0498286 -0.136843
   vertex 0.255 0.0493202 -0.138623
   vertex 0.315 0.0493202 -0.137623
  endloop
 endfacet
 facet normal -0.00755862 -0.891216 0.453516
  outer loop
   vertex 0.255 0.0493202 -0.138623
   vertex 0.315 0.0484144 -0.139403
   vertex 0.315 0.0493202 -0.137623
  endloop
 endfacet
 facet normal -0.00154254 -0.995707 0.0925519
  outer loop
   vertex 0.255 0.05 -0.134999
   vertex 0.255 0.0498286 -0.136843
   vertex 0.315 0.0498286 -0.135843
  endloop
 endfacet
 facet normal -0.00457722 -0.961538 0.274633
  outer loop
   vertex 0.255 0.0498286 -0.136843
   vertex 0.315 0.0493202 -0.137623
   vertex 0.315 0.0498286 -0.135843
  endloop
 endfacet
 facet normal -0.00154254 -0.995707 0.0925519
  outer loop
   vertex 0.255 0.05 -0.134999
   vertex 0.315 0.0498286 -0.135843
   vertex 0.315 0.05 -0.133999
  endloop
 endfacet
 facet normal -0.00166335 0.995006 0.0998009
  outer loop
   vertex 0.255 -0.0498007 -0.136986
   vertex 0.255 -0.05 -0.134999
   vertex 0.315 -0.0498007 -0.135986
  endloop
 endfacet
 facet normal -0.00166335 0.995006 0.0998009
  outer loop
   vertex 0.255 -0.05 -0.134999
   vertex 0.315 -0.05 -0.133999
   vertex 0.315 -0.0498007 -0.135986
  endloop
 endfacet
 facet normal -0.00492673 0.955297 0.295608
  outer loop
   vertex 0.255 -0.0492106 -0.138893
   vertex 0.255 -0.0498007 -0.136986
   vertex 0.315 -0.0492106 -0.137893
  endloop
 endfacet
 facet normal -0.00492677 0.955297 0.295606
  outer loop
   vertex 0.255 -0.0498007 -0.136986
   vertex 0.315 -0.0498007 -0.135986
   vertex 0.315 -0.0492106 -0.137893
  endloop
 endfacet
 facet normal -0.00798718 0.877653 0.47923
  outer loop
   vertex 0.255 -0.0482534 -0.140646
   vertex 0.255 -0.0492106 -0.138893
   vertex 0.315 -0.0482534 -0.139646
  endloop
 endfacet
 facet normal -0.00798712 0.877651 0.479233
  outer loop
   vertex 0.255 -0.0492106 -0.138893
   vertex 0.315 -0.0492106 -0.137893
   vertex 0.315 -0.0482534 -0.139646
  endloop
 endfacet
 facet normal -0.0107369 0.76477 0.644214
  outer loop
   vertex 0.255 -0.0469671 -0.142173
   vertex 0.255 -0.0482534 -0.140646
   vertex 0.315 -0.0469671 -0.141173
  endloop
 endfacet
 facet normal -0.0107369 0.76477 0.644214
  outer loop
   vertex 0.255 -0.0482534 -0.140646
   vertex 0.315 -0.0482534 -0.139646
   vertex 0.315 -0.0469671 -0.141173
  endloop
 endfacet
 facet normal -0.0130548 0.621522 0.783288
  outer loop
   vertex 0.255 -0.0454031 -0.143414
   vertex 0.255 -0.0469671 -0.142173
   vertex 0.315 -0.0454031 -0.142414
  endloop
 endfacet
 facet normal -0.0130548 0.621522 0.783288
  outer loop
   vertex 0.255 -0.0469671 -0.142173
   vertex 0.315 -0.0469671 -0.141173
   vertex 0.315 -0.0454031 -0.142414
  endloop
 endfacet
 facet normal -0.0148506 0.453699 0.891031
  outer loop
   vertex 0.255 -0.0436238 -0.14432
   vertex 0.255 -0.0454031 -0.143414
   vertex 0.315 -0.0436238 -0.14332
  endloop
 endfacet
 facet normal -0.0148506 0.453699 0.891031
  outer loop
   vertex 0.255 -0.0454031 -0.143414
   vertex 0.315 -0.0454031 -0.142414
   vertex 0.315 -0.0436238 -0.14332
  endloop
 endfacet
 facet normal -0.0160225 0.274861 0.96135
  outer loop
   vertex 0.255 -0.0418435 -0.144829
   vertex 0.255 -0.0436238 -0.14432
   vertex 0.315 -0.0418435 -0.143829
  endloop
 endfacet
 facet normal -0.0160225 0.274861 0.96135
  outer loop
   vertex 0.255 -0.0436238 -0.14432
   vertex 0.315 -0.0436238 -0.14332
   vertex 0.315 -0.0418435 -0.143829
  endloop
 endfacet
 facet normal -0.0165932 0.0923442 0.995589
  outer loop
   vertex 0.255 -0.04 -0.145
   vertex 0.255 -0.0418435 -0.144829
   vertex 0.315 -0.04 -0.144
  endloop
 endfacet
 facet normal -0.0165932 0.0923442 0.995589
  outer loop
   vertex 0.255 -0.0418435 -0.144829
   vertex 0.315 -0.0418435 -0.143829
   vertex 0.315 -0.04 -0.144
  endloop
 endfacet
 facet normal -0.0166644 0 0.999861
  outer loop
   vertex 0.255 0.04 -0.145
   vertex 0.255 -0.04 -0.145
   vertex 0.315 -0.04 -0.144
  endloop
 endfacet
 facet normal -0.0166644 0 0.999861
  outer loop
   vertex 0.255 0.04 -0.145
   vertex 0.315 -0.04 -0.144
   vertex 0.315 0.04 -0.144
  endloop
 endfacet
 facet normal 1 0 0
  outer loop
   vertex 0.315 0.0781877 0.235579
   vertex 0.315 0.0746776 0.238689
   vertex 0.315 0.0471732 0.202967
  endloop
 endfacet
 facet normal 1 0 0
  outer loop
   vertex 0.315 0.0814202 0.232183
   vertex 0.315 0.0781877 0.235579
   vertex 0.315 0.0471732 0.202967
  endloop
 endfacet
 facet normal 1 0 0
  outer loop
   vertex 0.315 0.0843518 0.228523
   vertex 0.315 0.0814202 0.232183
   vertex 0.315 0.0471732 0.202967
  endloop
 endfacet
 facet normal 1 0 0
  outer loop
   vertex 0.315 0.0709156 0.241487
   vertex 0.315 0.0669288 0.243956
   vertex 0.315 0.0456461 0.204253
  endloop
 endfacet
 facet normal 1 0 0
  outer loop
   vertex 0.315 0.0746776 0.238689
   vertex 0.315 0.0709156 0.241487
   vertex 0.315 0.0456461 0.204253
  endloop
 endfacet
 facet normal 1 0 -0
  outer loop
   vertex 0.315 0.0471732 0.202967
   vertex 0.315 0.0746776 0.238689
   vertex 0.315 0.0456461 0.204253
  endloop
 endfacet
 facet normal 1 0 0
  outer loop
   vertex 0.315 0.086961 0.224626
   vertex 0.315 0.0843518 0.228523
   vertex 0.315 0.0484144 0.201403
  endloop
 endfacet
 facet normal 1 0 0
  outer loop
   vertex 0.315 0.0892289 0.220522
   vertex 0.315 0.086961 0.224626
   vertex 0.315 0.0484144 0.201403
  endloop
 endfacet
 facet normal 1 0 0
  outer loop
   vertex 0.315 0.0843518 0.228523
   vertex 0.315 0.0471732 0.202967
   vertex 0.315 0.0484144 0.201403
  endloop
 endfacet
 facet normal 1 0 0
  outer loop
   vertex 0.315 0.0627464 0.246075
   vertex 0.315 0.0583987 0.247831
   vertex 0.315 0.0438939 0.205211
  endloop
 endfacet
 facet normal 1 0 0
  outer loop
   vertex 0.315 0.0669288 0.243956
   vertex 0.315 0.0627464 0.246075
   vertex 0.315 0.0438939 0.205211
  endloop
 endfacet
 facet normal 1 0 -0
  outer loop
   vertex 0.315 0.0456461 0.204253
   vertex 0.315 0.0669288 0.243956
   vertex 0.315 0.0438939 0.205211
  endloop
 endfacet
 facet normal 1 0 0
  outer loop
   vertex 0.315 0.091139 0.216239
   vertex 0.315 0.0892289 0.220522
   vertex 0.315 0.0493202 0.199623
  endloop
 endfacet
 facet normal 1 0 0
  outer loop
   vertex 0.315 0.0926774 0.211809
   vertex 0.315 0.091139 0.216239
   vertex 0.315 0.0493202 0.199623
  endloop
 endfacet
 facet normal 1 0 0
  outer loop
   vertex 0.315 0.0892289 0.220522
   vertex 0.315 0.0484144 0.201403
   vertex 0.315 0.0493202 0.199623
  endloop
 endfacet
 facet normal 1 0 0
  outer loop
   vertex 0.315 0.0493348 0.250202
   vertex 0.315 0.0446844 0.2508
   vertex 0.315 0.0419866 0.205801
  endloop
 endfacet
 facet normal 1 0 0
  outer loop
   vertex 0.315 0.0539173 0.24921
   vertex 0.315 0.0493348 0.250202
   vertex 0.315 0.0419866 0.205801
  endloop
 endfacet
 facet normal 1 0 0
  outer loop
   vertex 0.315 0.0583987 0.247831
   vertex 0.315 0.0539173 0.24921
   vertex 0.315 0.0419866 0.205801
  endloop
 endfacet
 facet normal 1 0 -0
  outer loop
   vertex 0.315 0.0438939 0.205211
   vertex 0.315 0.0583987 0.247831
   vertex 0.315 0.0419866 0.205801
  endloop
 endfacet
 facet normal 1 0 0
  outer loop
   vertex 0.315 0.093833 0.207264
   vertex 0.315 0.0926774 0.211809
   vertex 0.315 0.0498286 0.197843
  endloop
 endfacet
 facet normal 1 0 0
  outer loop
   vertex 0.315 0.0945973 0.202637
   vertex 0.315 0.093833 0.207264
   vertex 0.315 0.0498286 0.197843
  endloop
 endfacet
 facet normal 1 0 0
  outer loop
   vertex 0.315 0.0926774 0.211809
   vertex 0.315 0.0493202 0.199623
   vertex 0.315 0.0498286 0.197843
  endloop
 endfacet
 facet normal 1 0 0
  outer loop
   vertex 0.315 0.0446844 0.2508
   vertex 0.315 0.04 0.251
   vertex 0.315 0.04 0.206
  endloop
 endfacet
 facet normal 1 0 -0
  outer loop
   vertex 0.315 0.0419866 0.205801
   vertex 0.315 0.0446844 0.2508
   vertex 0.315 0.04 0.206
  endloop
 endfacet
 facet normal 1 0 0
  outer loop
   vertex 0.315 0.0948992 0.199321
   vertex 0.315 0.0945973 0.202637
   vertex 0.315 0.05 0.195999
  endloop
 endfacet
 facet normal 1 0 0
  outer loop
   vertex 0.315 0.095 0.195992
   vertex 0.315 0.0948992 0.199321
   vertex 0.315 0.05 0.195999
  endloop
 endfacet
 facet normal 1 0 0
  outer loop
   vertex 0.315 0.0945973 0.202637
   vertex 0.315 0.0498286 0.197843
   vertex 0.315 0.05 0.195999
  endloop
 endfacet
 facet normal 1 0 0
  outer loop
   vertex 0.315 0.04 0.251
   vertex 0.315 -0.04 0.251
   vertex 0.315 -0.04 0.206
  endloop
 endfacet
 facet normal 1 0 0
  outer loop
   vertex 0.315 -0.04 0.251
   vertex 0.315 -0.0446844 0.2508
   vertex 0.315 -0.04 0.206
  endloop
 endfacet
 facet normal 1 0 -0
  outer loop
   vertex 0.315 0.04 0.206
   vertex 0.315 0.04 0.251
   vertex 0.315 -0.04 0.206
  endloop
 endfacet
 facet normal 1 0 0
  outer loop
   vertex 0.315 -0.0446844 0.2508
   vertex 0.315 -0.0493348 0.250202
   vertex 0.315 -0.0419866 0.205801
  endloop
 endfacet
 facet normal 1 0 0
  outer loop
   vertex 0.315 -0.0493348 0.250202
   vertex 0.315 -0.0539173 0.24921
   vertex 0.315 -0.0419866 0.205801
  endloop
 endfacet
 facet normal 1 0 0
  outer loop
   vertex 0.315 -0.0539173 0.24921
   vertex 0.315 -0.0583987 0.247831
   vertex 0.315 -0.0419866 0.205801
  endloop
 endfacet
 facet normal 1 0 0
  outer loop
   vertex 0.315 -0.04 0.206
   vertex 0.315 -0.0446844 0.2508
   vertex 0.315 -0.0419866 0.205801
  endloop
 endfacet
 facet normal 1 0 0
  outer loop
   vertex 0.315 -0.0583987 0.247831
   vertex 0.315 -0.0627464 0.246075
   vertex 0.315 -0.0438939 0.205211
  endloop
 endfacet
 facet normal 1 0 0
  outer loop
   vertex 0.315 -0.0627464 0.246075
   vertex 0.315 -0.0669288 0.243956
   vertex 0.315 -0.0438939 0.205211
  endloop
 endfacet
 facet normal 1 0 0
  outer loop
   vertex 0.315 -0.0419866 0.205801
   vertex 0.315 -0.0583987 0.247831
   vertex 0.315 -0.0438939 0.205211
  endloop
 endfacet
 facet normal 1 0 0
  outer loop
   vertex 0.315 -0.0669288 0.243956
   vertex 0.315 -0.0709156 0.241487
   vertex 0.315 -0.0456461 0.204253
  endloop
 endfacet
 facet normal 1 0 0
  outer loop
   vertex 0.315 -0.0709156 0.241487
   vertex 0.315 -0.0746776 0.238689
   vertex 0.315 -0.0456461 0.204253
  endloop
 endfacet
 facet normal 1 0 0
  outer loop
   vertex 0.315 -0.0438939 0.205211
   vertex 0.315 -0.0669288 0.243956
   vertex 0.315 -0.0456461 0.204253
  endloop
 endfacet
 facet normal 1 0 0
  outer loop
   vertex 0.315 -0.0456461 0.204253
   vertex 0.315 -0.0746776 0.238689
   vertex 0.315 -0.0471732 0.202967
  endloop
 endfacet
 facet normal 1 0 0
  outer loop
   vertex 0.315 -0.0746776 0.238689
   vertex 0.315 -0.0781877 0.235579
   vertex 0.315 -0.0471732 0.202967
  endloop
 endfacet
 facet normal 1 0 0
  outer loop
   vertex 0.315 -0.0471732 0.202967
   vertex 0.315 -0.0781877 0.235579
   vertex 0.315 -0.0814202 0.232183
  endloop
 endfacet
 facet normal 1 0 0
  outer loop
   vertex 0.315 -0.0471732 0.202967
   vertex 0.315 -0.0814202 0.232183
   vertex 0.315 -0.0843518 0.228523
  endloop
 endfacet
 facet normal 1 0 -0
  outer loop
   vertex 0.315 -0.0484144 0.201403
   vertex 0.315 -0.0471732 0.202967
   vertex 0.315 -0.0843518 0.228523
  endloop
 endfacet
 facet normal 1 0 0
  outer loop
   vertex 0.315 -0.0484144 0.201403
   vertex 0.315 -0.0843518 0.228523
   vertex 0.315 -0.086961 0.224626
  endloop
 endfacet
 facet normal 1 0 0
  outer loop
   vertex 0.315 -0.0484144 0.201403
   vertex 0.315 -0.086961 0.224626
   vertex 0.315 -0.0892289 0.220522
  endloop
 endfacet
 facet normal 1 0 -0
  outer loop
   vertex 0.315 -0.0493202 0.199623
   vertex 0.315 -0.0484144 0.201403
   vertex 0.315 -0.0892289 0.220522
  endloop
 endfacet
 facet normal 1 0 0
  outer loop
   vertex 0.315 -0.0493202 0.199623
   vertex 0.315 -0.0892289 0.220522
   vertex 0.315 -0.091139 0.216239
  endloop
 endfacet
 facet normal 1 0 0
  outer loop
   vertex 0.315 -0.0493202 0.199623
   vertex 0.315 -0.091139 0.216239
   vertex 0.315 -0.0926774 0.211809
  endloop
 endfacet
 facet normal 1 0 -0
  outer loop
   vertex 0.315 -0.0498286 0.197843
   vertex 0.315 -0.0493202 0.199623
   vertex 0.315 -0.0926774 0.211809
  endloop
 endfacet
 facet normal 1 0 0
  outer loop
   vertex 0.315 -0.0498286 0.197843
   vertex 0.315 -0.0926774 0.211809
   vertex 0.315 -0.093833 0.207264
  endloop
 endfacet
 facet normal 1 0 0
  outer loop
   vertex 0.315 -0.0498286 0.197843
   vertex 0.315 -0.093833 0.207264
   vertex 0.315 -0.0945973 0.202637
  endloop
 endfacet
 facet normal 1 0 -0
  outer loop
   vertex 0.315 -0.05 0.195999
   vertex 0.315 -0.0498286 0.197843
   vertex 0.315 -0.0945973 0.202637
  endloop
 endfacet
 facet normal 1 0 0
  outer loop
   vertex 0.315 -0.05 0.195999
   vertex 0.315 -0.0945973 0.202637
   vertex 0.315 -0.0948992 0.199321
  endloop
 endfacet
 facet normal 1 0 0
  outer loop
   vertex 0.315 -0.05 0.195999
   vertex 0.315 -0.0948992 0.199321
   vertex 0.315 -0.095 0.195992
  endloop
 endfacet
 facet normal 1 0 -0
  outer loop
   vertex 0.315 0.095 -0.133992
   vertex 0.315 0.095 0.195992
   vertex 0.315 0.05 -0.133999
  endloop
 endfacet
 facet normal 1 0 -0
  outer loop
   vertex 0.315 0.0945973 -0.140637
   vertex 0.315 0.0948992 -0.137321
   vertex 0.315 0.05 -0.133999
  endloop
 endfacet
 facet normal 1 0 -0
  outer loop
   vertex 0.315 0.0948992 -0.137321
   vertex 0.315 0.095 -0.133992
   vertex 0.315 0.05 -0.133999
  endloop
 endfacet
 facet normal 1 0 0
  outer loop
   vertex 0.315 0.095 0.195992
   vertex 0.315 0.05 0.195999
   vertex 0.315 0.05 -0.133999
  endloop
 endfacet
 facet normal 1 0 0
  outer loop
   vertex 0.315 0.0945973 -0.140637
   vertex 0.315 0.05 -0.133999
   vertex 0.315 0.0498286 -0.135843
  endloop
 endfacet
 facet normal 1 0 -0
  outer loop
   vertex 0.315 0.0926774 -0.149809
   vertex 0.315 0.093833 -0.145264
   vertex 0.315 0.0498286 -0.135843
  endloop
 endfacet
 facet normal 1 0 -0
  outer loop
   vertex 0.315 0.093833 -0.145264
   vertex 0.315 0.0945973 -0.140637
   vertex 0.315 0.0498286 -0.135843
  endloop
 endfacet
 facet normal 1 0 -0
  outer loop
   vertex 0.315 0.0892289 -0.158522
   vertex 0.315 0.091139 -0.154239
   vertex 0.315 0.0493202 -0.137623
  endloop
 endfacet
 facet normal 1 0 -0
  outer loop
   vertex 0.315 0.091139 -0.154239
   vertex 0.315 0.0926774 -0.149809
   vertex 0.315 0.0493202 -0.137623
  endloop
 endfacet
 facet normal 1 0 0
  outer loop
   vertex 0.315 0.0926774 -0.149809
   vertex 0.315 0.0498286 -0.135843
   vertex 0.315 0.0493202 -0.137623
  endloop
 endfacet
 facet normal 1 0 0
  outer loop
   vertex 0.315 0.0892289 -0.158522
   vertex 0.315 0.0493202 -0.137623
   vertex 0.315 0.0484144 -0.139403
  endloop
 endfacet
 facet normal 1 0 -0
  outer loop
   vertex 0.315 0.0843518 -0.166523
   vertex 0.315 0.086961 -0.162626
   vertex 0.315 0.0484144 -0.139403
  endloop
 endfacet
 facet normal 1 0 -0
  outer loop
   vertex 0.315 0.086961 -0.162626
   vertex 0.315 0.0892289 -0.158522
   vertex 0.315 0.0484144 -0.139403
  endloop
 endfacet
 facet normal 1 0 0
  outer loop
   vertex 0.315 0.0843518 -0.166523
   vertex 0.315 0.0484144 -0.139403
   vertex 0.315 0.0471732 -0.140967
  endloop
 endfacet
 facet normal 1 0 -0
  outer loop
   vertex 0.315 0.0814202 -0.170183
   vertex 0.315 0.0843518 -0.166523
   vertex 0.315 0.0471732 -0.140967
  endloop
 endfacet
 facet normal 1 0 0
  outer loop
   vertex 0.315 0.0814202 -0.170183
   vertex 0.315 0.0471732 -0.140967
   vertex 0.315 0.0781877 -0.173579
  endloop
 endfacet
 facet normal 1 0 0
  outer loop
   vertex 0.315 0.0471732 -0.140967
   vertex 0.315 0.0456461 -0.142253
   vertex 0.315 0.0746776 -0.176689
  endloop
 endfacet
 facet normal 1 0 0
  outer loop
   vertex 0.315 0.0781877 -0.173579
   vertex 0.315 0.0471732 -0.140967
   vertex 0.315 0.0746776 -0.176689
  endloop
 endfacet
 facet normal 1 0 0
  outer loop
   vertex 0.315 0.0746776 -0.176689
   vertex 0.315 0.0456461 -0.142253
   vertex 0.315 0.0709156 -0.179487
  endloop
 endfacet
 facet normal 1 0 0
  outer loop
   vertex 0.315 0.0456461 -0.142253
   vertex 0.315 0.0438939 -0.143211
   vertex 0.315 0.0669288 -0.181956
  endloop
 endfacet
 facet normal 1 0 0
  outer loop
   vertex 0.315 0.0709156 -0.179487
   vertex 0.315 0.0456461 -0.142253
   vertex 0.315 0.0669288 -0.181956
  endloop
 endfacet
 facet normal 1 0 0
  outer loop
   vertex 0.315 0.0669288 -0.181956
   vertex 0.315 0.0438939 -0.143211
   vertex 0.315 0.0627464 -0.184075
  endloop
 endfacet
 facet normal 1 0 0
  outer loop
   vertex 0.315 0.0438939 -0.143211
   vertex 0.315 0.0419866 -0.143801
   vertex 0.315 0.0583987 -0.185831
  endloop
 endfacet
 facet normal 1 0 0
  outer loop
   vertex 0.315 0.0627464 -0.184075
   vertex 0.315 0.0438939 -0.143211
   vertex 0.315 0.0583987 -0.185831
  endloop
 endfacet
 facet normal 1 0 0
  outer loop
   vertex 0.315 0.0583987 -0.185831
   vertex 0.315 0.0419866 -0.143801
   vertex 0.315 0.0539173 -0.18721
  endloop
 endfacet
 facet normal 1 0 0
  outer loop
   vertex 0.315 0.0539173 -0.18721
   vertex 0.315 0.0419866 -0.143801
   vertex 0.315 0.0493348 -0.188202
  endloop
 endfacet
 facet normal 1 0 0
  outer loop
   vertex 0.315 0.0493348 -0.188202
   vertex 0.315 0.0419866 -0.143801
   vertex 0.315 0.0446844 -0.1888
  endloop
 endfacet
 facet normal 1 0 0
  outer loop
   vertex 0.315 0.0419866 -0.143801
   vertex 0.315 0.04 -0.144
   vertex 0.315 0.0446844 -0.1888
  endloop
 endfacet
 facet normal 1 0 0
  outer loop
   vertex 0.315 0.0446844 -0.1888
   vertex 0.315 0.04 -0.144
   vertex 0.315 0.04 -0.189
  endloop
 endfacet
 facet normal 1 0 -0
  outer loop
   vertex 0.315 0.04 -0.189
   vertex 0.315 0.04 -0.144
   vertex 0.315 -0.04 -0.144
  endloop
 endfacet
 facet normal 1 0 0
  outer loop
   vertex 0.315 -0.05 0.195999
   vertex 0.315 -0.095 0.195992
   vertex 0.315 -0.095 -0.133992
  endloop
 endfacet
 facet normal 1 0 -0
  outer loop
   vertex 0.315 -0.05 -0.133999
   vertex 0.315 -0.05 0.195999
   vertex 0.315 -0.095 -0.133992
  endloop
 endfacet
 facet normal 1 0 0
  outer loop
   vertex 0.315 0.04 -0.189
   vertex 0.315 -0.04 -0.144
   vertex 0.315 -0.04 -0.189
  endloop
 endfacet
 facet normal 1 0 -0
  outer loop
   vertex 0.315 -0.04 -0.189
   vertex 0.315 -0.04 -0.144
   vertex 0.315 -0.0433275 -0.188899
  endloop
 endfacet
 facet normal 1 0 0
  outer loop
   vertex 0.315 -0.0498007 -0.135986
   vertex 0.315 -0.05 -0.133999
   vertex 0.315 -0.0948001 -0.138678
  endloop
 endfacet
 facet normal 1 0 0
  outer loop
   vertex 0.315 -0.05 -0.133999
   vertex 0.315 -0.095 -0.133992
   vertex 0.315 -0.0948001 -0.138678
  endloop
 endfacet
 facet normal 1 0 -0
  outer loop
   vertex 0.315 -0.0433275 -0.188899
   vertex 0.315 -0.04 -0.144
   vertex 0.315 -0.0466428 -0.188597
  endloop
 endfacet
 facet normal 1 0 0
  outer loop
   vertex 0.315 -0.04 -0.144
   vertex 0.315 -0.0418435 -0.143829
   vertex 0.315 -0.0466428 -0.188597
  endloop
 endfacet
 facet normal 1 0 0
  outer loop
   vertex 0.315 -0.0498007 -0.135986
   vertex 0.315 -0.0948001 -0.138678
   vertex 0.315 -0.0942019 -0.143329
  endloop
 endfacet
 facet normal 1 0 -0
  outer loop
   vertex 0.315 -0.0466428 -0.188597
   vertex 0.315 -0.0418435 -0.143829
   vertex 0.315 -0.0512688 -0.187833
  endloop
 endfacet
 facet normal 1 0 0
  outer loop
   vertex 0.315 -0.0498007 -0.135986
   vertex 0.315 -0.0942019 -0.143329
   vertex 0.315 -0.0932098 -0.147913
  endloop
 endfacet
 facet normal 1 0 0
  outer loop
   vertex 0.315 -0.0418435 -0.143829
   vertex 0.315 -0.0436238 -0.14332
   vertex 0.315 -0.055813 -0.186677
  endloop
 endfacet
 facet normal 1 0 -0
  outer loop
   vertex 0.315 -0.0512688 -0.187833
   vertex 0.315 -0.0418435 -0.143829
   vertex 0.315 -0.055813 -0.186677
  endloop
 endfacet
 facet normal 1 0 0
  outer loop
   vertex 0.315 -0.0492106 -0.137893
   vertex 0.315 -0.0498007 -0.135986
   vertex 0.315 -0.0918309 -0.152395
  endloop
 endfacet
 facet normal 1 0 0
  outer loop
   vertex 0.315 -0.0498007 -0.135986
   vertex 0.315 -0.0932098 -0.147913
   vertex 0.315 -0.0918309 -0.152395
  endloop
 endfacet
 facet normal 1 0 -0
  outer loop
   vertex 0.315 -0.055813 -0.186677
   vertex 0.315 -0.0436238 -0.14332
   vertex 0.315 -0.0602422 -0.185139
  endloop
 endfacet
 facet normal 1 0 0
  outer loop
   vertex 0.315 -0.0492106 -0.137893
   vertex 0.315 -0.0918309 -0.152395
   vertex 0.315 -0.0900753 -0.156743
  endloop
 endfacet
 facet normal 1 0 0
  outer loop
   vertex 0.315 -0.0436238 -0.14332
   vertex 0.315 -0.0454031 -0.142414
   vertex 0.315 -0.0645243 -0.183229
  endloop
 endfacet
 facet normal 1 0 -0
  outer loop
   vertex 0.315 -0.0602422 -0.185139
   vertex 0.315 -0.0436238 -0.14332
   vertex 0.315 -0.0645243 -0.183229
  endloop
 endfacet
 facet normal 1 0 0
  outer loop
   vertex 0.315 -0.0482534 -0.139646
   vertex 0.315 -0.0492106 -0.137893
   vertex 0.315 -0.0879558 -0.160926
  endloop
 endfacet
 facet normal 1 0 0
  outer loop
   vertex 0.315 -0.0492106 -0.137893
   vertex 0.315 -0.0900753 -0.156743
   vertex 0.315 -0.0879558 -0.160926
  endloop
 endfacet
 facet normal 1 0 -0
  outer loop
   vertex 0.315 -0.0645243 -0.183229
   vertex 0.315 -0.0454031 -0.142414
   vertex 0.315 -0.0686282 -0.180961
  endloop
 endfacet
 facet normal 1 0 0
  outer loop
   vertex 0.315 -0.0482534 -0.139646
   vertex 0.315 -0.0879558 -0.160926
   vertex 0.315 -0.0854877 -0.164914
  endloop
 endfacet
 facet normal 1 0 0
  outer loop
   vertex 0.315 -0.0454031 -0.142414
   vertex 0.315 -0.0469671 -0.141173
   vertex 0.315 -0.072524 -0.178352
  endloop
 endfacet
 facet normal 1 0 -0
  outer loop
   vertex 0.315 -0.0686282 -0.180961
   vertex 0.315 -0.0454031 -0.142414
   vertex 0.315 -0.072524 -0.178352
  endloop
 endfacet
 facet normal 1 0 0
  outer loop
   vertex 0.315 -0.0469671 -0.141173
   vertex 0.315 -0.0482534 -0.139646
   vertex 0.315 -0.082689 -0.168676
  endloop
 endfacet
 facet normal 1 0 0
  outer loop
   vertex 0.315 -0.0482534 -0.139646
   vertex 0.315 -0.0854877 -0.164914
   vertex 0.315 -0.082689 -0.168676
  endloop
 endfacet
 facet normal 1 0 -0
  outer loop
   vertex 0.315 -0.072524 -0.178352
   vertex 0.315 -0.0469671 -0.141173
   vertex 0.315 -0.0761836 -0.17542
  endloop
 endfacet
 facet normal 1 0 0
  outer loop
   vertex 0.315 -0.0469671 -0.141173
   vertex 0.315 -0.082689 -0.168676
   vertex 0.315 -0.0795801 -0.172187
  endloop
 endfacet
 facet normal 1 0 -0
  outer loop
   vertex 0.315 -0.0761836 -0.17542
   vertex 0.315 -0.0469671 -0.141173
   vertex 0.315 -0.0795801 -0.172187
  endloop
 endfacet
endsolid patch0
