solid patch0
  facet normal 0 0 1
    outer loop
       vertex 0.0218212 -0.0205872 0.06
       vertex 0.0229813 -0.0192836 0.06
       vertex 0.0240637 -0.0179148 0.06
    endloop
  endfacet
  facet normal 0 -0 1
    outer loop
       vertex 0.0192836 -0.0229813 0.06
       vertex 0.0205872 -0.0218212 0.06
       vertex 0.0179148 -0.0240637 0.06
    endloop
  endfacet
  facet normal 0 -0 1
    outer loop
       vertex 0.0205872 -0.0218212 0.06
       vertex 0.0218212 -0.0205872 0.06
       vertex 0.0179148 -0.0240637 0.06
    endloop
  endfacet
  facet normal 0 0 1
    outer loop
       vertex 0.0218212 -0.0205872 0.06
       vertex 0.0240637 -0.0179148 0.06
       vertex 0.0250646 -0.0164853 0.06
    endloop
  endfacet
  facet normal 0 -0 1
    outer loop
       vertex 0.0164853 -0.0250646 0.06
       vertex 0.0179148 -0.0240637 0.06
       vertex 0.015 -0.0259808 0.06
    endloop
  endfacet
  facet normal 0 0 1
    outer loop
       vertex 0.0250646 -0.0164853 0.06
       vertex 0.0259808 -0.015 0.06
       vertex 0.026809 -0.013464 0.06
    endloop
  endfacet
  facet normal 0 -0 1
    outer loop
       vertex 0.015 -0.0259808 0.06
       vertex 0.0179148 -0.0240637 0.06
       vertex 0.0118824 -0.0275465 0.06
    endloop
  endfacet
  facet normal 0 -0 1
    outer loop
       vertex 0.013464 -0.026809 0.06
       vertex 0.015 -0.0259808 0.06
       vertex 0.0118824 -0.0275465 0.06
    endloop
  endfacet
  facet normal 0 0 1
    outer loop
       vertex 0.026809 -0.013464 0.06
       vertex 0.0275465 -0.0118824 0.06
       vertex 0.0281908 -0.0102606 0.06
    endloop
  endfacet
  facet normal 0 0 1
    outer loop
       vertex 0.026809 -0.013464 0.06
       vertex 0.0281908 -0.0102606 0.06
       vertex 0.0287397 -0.0086041 0.06
    endloop
  endfacet
  facet normal 0 0 1
    outer loop
       vertex 0.0250646 -0.0164853 0.06
       vertex 0.026809 -0.013464 0.06
       vertex 0.0287397 -0.0086041 0.06
    endloop
  endfacet
  facet normal 0 -0 1
    outer loop
       vertex 0.0086041 -0.0287397 0.06
       vertex 0.0102606 -0.0281908 0.06
       vertex 0.00691848 -0.0291913 0.06
    endloop
  endfacet
  facet normal 0 -0 1
    outer loop
       vertex 0.0102606 -0.0281908 0.06
       vertex 0.0118824 -0.0275465 0.06
       vertex 0.00691848 -0.0291913 0.06
    endloop
  endfacet
  facet normal 0 0 1
    outer loop
       vertex 0.0287397 -0.0086041 0.06
       vertex 0.0291913 -0.00691848 0.06
       vertex 0.0295442 -0.00520945 0.06
    endloop
  endfacet
  facet normal 0 0 1
    outer loop
       vertex 0.0250646 -0.0164853 0.06
       vertex 0.0287397 -0.0086041 0.06
       vertex 0.0295442 -0.00520945 0.06
    endloop
  endfacet
  facet normal 0 0 1
    outer loop
       vertex 0.0218212 -0.0205872 0.06
       vertex 0.0250646 -0.0164853 0.06
       vertex 0.0295442 -0.00520945 0.06
    endloop
  endfacet
  facet normal 0 -0 1
    outer loop
       vertex 0.0118824 -0.0275465 0.06
       vertex 0.0179148 -0.0240637 0.06
       vertex 0.00520945 -0.0295442 0.06
    endloop
  endfacet
  facet normal 0 -0 1
    outer loop
       vertex 0.00691848 -0.0291913 0.06
       vertex 0.0118824 -0.0275465 0.06
       vertex 0.00520945 -0.0295442 0.06
    endloop
  endfacet
  facet normal 0 0 1
    outer loop
       vertex 0.0295442 -0.00520945 0.06
       vertex 0.0297972 -0.00348279 0.06
       vertex 0.0299492 -0.00174434 0.06
    endloop
  endfacet
  facet normal 0 0 1
    outer loop
       vertex 0.0179148 -0.0240637 0.06
       vertex 0.0218212 -0.0205872 0.06
       vertex 0.03 0 0.06
    endloop
  endfacet
  facet normal 0 0 1
    outer loop
       vertex 0.0295442 -0.00520945 0.06
       vertex 0.0299492 -0.00174434 0.06
       vertex 0.03 0 0.06
    endloop
  endfacet
  facet normal 0 0 1
    outer loop
       vertex 0.0218212 -0.0205872 0.06
       vertex 0.0295442 -0.00520945 0.06
       vertex 0.03 0 0.06
    endloop
  endfacet
  facet normal 0 0 1
    outer loop
       vertex 0.00520945 -0.0295442 0.06
       vertex 0.0179148 -0.0240637 0.06
       vertex 0.03 0 0.06
    endloop
  endfacet
  facet normal 0 -0 1
    outer loop
       vertex 0.00174434 -0.0299492 0.06
       vertex 0.00348279 -0.0297972 0.06
       vertex -5.88016e-17 -0.03 0.06
    endloop
  endfacet
  facet normal 0 -0 1
    outer loop
       vertex 0.00348279 -0.0297972 0.06
       vertex 0.00520945 -0.0295442 0.06
       vertex -5.88016e-17 -0.03 0.06
    endloop
  endfacet
  facet normal 0 0 1
    outer loop
       vertex 0.00520945 -0.0295442 0.06
       vertex 0.03 0 0.06
       vertex 0.0299492 0.00174434 0.06
    endloop
  endfacet
  facet normal 0 -0 1
    outer loop
       vertex -5.88016e-17 -0.03 0.06
       vertex 0.00520945 -0.0295442 0.06
       vertex -0.00348279 -0.0297972 0.06
    endloop
  endfacet
  facet normal -0 -0 1
    outer loop
       vertex -0.00174434 -0.0299492 0.06
       vertex -5.88016e-17 -0.03 0.06
       vertex -0.00348279 -0.0297972 0.06
    endloop
  endfacet
  facet normal 0 0 1
    outer loop
       vertex 0.0299492 0.00174434 0.06
       vertex 0.0297972 0.00348279 0.06
       vertex 0.0295442 0.00520945 0.06
    endloop
  endfacet
  facet normal 0 0 1
    outer loop
       vertex 0.00520945 -0.0295442 0.06
       vertex 0.0299492 0.00174434 0.06
       vertex 0.0295442 0.00520945 0.06
    endloop
  endfacet
  facet normal 0 0 1
    outer loop
       vertex -0.00348279 -0.0297972 0.06
       vertex 0.00520945 -0.0295442 0.06
       vertex 0.0295442 0.00520945 0.06
    endloop
  endfacet
  facet normal 0 0 1
    outer loop
       vertex -0.00348279 -0.0297972 0.06
       vertex 0.0295442 0.00520945 0.06
       vertex 0.0291913 0.00691848 0.06
    endloop
  endfacet
  facet normal -0 0 1
    outer loop
       vertex -0.00520945 -0.0295442 0.06
       vertex -0.00348279 -0.0297972 0.06
       vertex 0.0291913 0.00691848 0.06
    endloop
  endfacet
  facet normal 0 0 1
    outer loop
       vertex 0.0291913 0.00691848 0.06
       vertex 0.0287397 0.0086041 0.06
       vertex -0.0086041 -0.0287397 0.06
    endloop
  endfacet
  facet normal -0 -0 1
    outer loop
       vertex -0.00691848 -0.0291913 0.06
       vertex -0.00520945 -0.0295442 0.06
       vertex -0.0086041 -0.0287397 0.06
    endloop
  endfacet
  facet normal 0 -0 1
    outer loop
       vertex -0.00520945 -0.0295442 0.06
       vertex 0.0291913 0.00691848 0.06
       vertex -0.0086041 -0.0287397 0.06
    endloop
  endfacet
  facet normal 0 0 1
    outer loop
       vertex 0.0287397 0.0086041 0.06
       vertex 0.0281908 0.0102606 0.06
       vertex 0.0275465 0.0118824 0.06
    endloop
  endfacet
  facet normal 0 0 1
    outer loop
       vertex -0.0086041 -0.0287397 0.06
       vertex 0.0287397 0.0086041 0.06
       vertex 0.0275465 0.0118824 0.06
    endloop
  endfacet
  facet normal -0 -0 1
    outer loop
       vertex -0.0102606 -0.0281908 0.06
       vertex -0.0086041 -0.0287397 0.06
       vertex -0.0118824 -0.0275465 0.06
    endloop
  endfacet
  facet normal 0 0 1
    outer loop
       vertex -0.0086041 -0.0287397 0.06
       vertex 0.0275465 0.0118824 0.06
       vertex 0.026809 0.013464 0.06
    endloop
  endfacet
  facet normal -0 -0 1
    outer loop
       vertex -0.0118824 -0.0275465 0.06
       vertex -0.0086041 -0.0287397 0.06
       vertex -0.013464 -0.026809 0.06
    endloop
  endfacet
  facet normal 0 0 1
    outer loop
       vertex -0.0086041 -0.0287397 0.06
       vertex 0.026809 0.013464 0.06
       vertex 0.0259808 0.015 0.06
    endloop
  endfacet
  facet normal 0 0 1
    outer loop
       vertex 0.0259808 0.015 0.06
       vertex 0.0250646 0.0164853 0.06
       vertex 0.0240637 0.0179148 0.06
    endloop
  endfacet
  facet normal -0 -0 1
    outer loop
       vertex -0.0164853 -0.0250646 0.06
       vertex -0.015 -0.0259808 0.06
       vertex -0.0179148 -0.0240637 0.06
    endloop
  endfacet
  facet normal -0 -0 1
    outer loop
       vertex -0.015 -0.0259808 0.06
       vertex -0.013464 -0.026809 0.06
       vertex -0.0179148 -0.0240637 0.06
    endloop
  endfacet
  facet normal 0 0 1
    outer loop
       vertex 0.0259808 0.015 0.06
       vertex 0.0240637 0.0179148 0.06
       vertex 0.0229813 0.0192836 0.06
    endloop
  endfacet
  facet normal 0 0 1
    outer loop
       vertex -0.0086041 -0.0287397 0.06
       vertex 0.0259808 0.015 0.06
       vertex 0.0229813 0.0192836 0.06
    endloop
  endfacet
  facet normal -0 -0 1
    outer loop
       vertex -0.0179148 -0.0240637 0.06
       vertex -0.013464 -0.026809 0.06
       vertex -0.0192836 -0.0229813 0.06
    endloop
  endfacet
  facet normal -0 -0 1
    outer loop
       vertex -0.013464 -0.026809 0.06
       vertex -0.0086041 -0.0287397 0.06
       vertex -0.0192836 -0.0229813 0.06
    endloop
  endfacet
  facet normal 0 0 1
    outer loop
       vertex 0.0229813 0.0192836 0.06
       vertex 0.0218212 0.0205872 0.06
       vertex 0.0192836 0.0229813 0.06
    endloop
  endfacet
  facet normal 0 0 1
    outer loop
       vertex 0.0218212 0.0205872 0.06
       vertex 0.0205872 0.0218212 0.06
       vertex 0.0192836 0.0229813 0.06
    endloop
  endfacet
  facet normal -0 -0 1
    outer loop
       vertex -0.0192836 -0.0229813 0.06
       vertex -0.0086041 -0.0287397 0.06
       vertex -0.0229813 -0.0192836 0.06
    endloop
  endfacet
  facet normal -0 -0 1
    outer loop
       vertex -0.0218212 -0.0205872 0.06
       vertex -0.0205872 -0.0218212 0.06
       vertex -0.0229813 -0.0192836 0.06
    endloop
  endfacet
  facet normal -0 -0 1
    outer loop
       vertex -0.0205872 -0.0218212 0.06
       vertex -0.0192836 -0.0229813 0.06
       vertex -0.0229813 -0.0192836 0.06
    endloop
  endfacet
  facet normal 0 0 1
    outer loop
       vertex -0.0086041 -0.0287397 0.06
       vertex 0.0229813 0.0192836 0.06
       vertex 0.0179148 0.0240637 0.06
    endloop
  endfacet
  facet normal -0 0 1
    outer loop
       vertex -0.0229813 -0.0192836 0.06
       vertex -0.0086041 -0.0287397 0.06
       vertex 0.0179148 0.0240637 0.06
    endloop
  endfacet
  facet normal 0 0 1
    outer loop
       vertex 0.0229813 0.0192836 0.06
       vertex 0.0192836 0.0229813 0.06
       vertex 0.0179148 0.0240637 0.06
    endloop
  endfacet
  facet normal 0 0 1
    outer loop
       vertex -0.0229813 -0.0192836 0.06
       vertex 0.0179148 0.0240637 0.06
       vertex 0.0164853 0.0250646 0.06
    endloop
  endfacet
  facet normal -0 0 1
    outer loop
       vertex -0.0240637 -0.0179148 0.06
       vertex -0.0229813 -0.0192836 0.06
       vertex 0.0164853 0.0250646 0.06
    endloop
  endfacet
  facet normal 0 0 1
    outer loop
       vertex 0.0164853 0.0250646 0.06
       vertex 0.015 0.0259808 0.06
       vertex 0.013464 0.026809 0.06
    endloop
  endfacet
  facet normal 0 -0 1
    outer loop
       vertex -0.0240637 -0.0179148 0.06
       vertex 0.0164853 0.0250646 0.06
       vertex -0.026809 -0.013464 0.06
    endloop
  endfacet
  facet normal -0 -0 1
    outer loop
       vertex -0.0259808 -0.015 0.06
       vertex -0.0250646 -0.0164853 0.06
       vertex -0.026809 -0.013464 0.06
    endloop
  endfacet
  facet normal -0 -0 1
    outer loop
       vertex -0.0250646 -0.0164853 0.06
       vertex -0.0240637 -0.0179148 0.06
       vertex -0.026809 -0.013464 0.06
    endloop
  endfacet
  facet normal 0 0 1
    outer loop
       vertex 0.013464 0.026809 0.06
       vertex 0.0118824 0.0275465 0.06
       vertex -0.0275465 -0.0118824 0.06
    endloop
  endfacet
  facet normal 0 0 1
    outer loop
       vertex 0.0164853 0.0250646 0.06
       vertex 0.013464 0.026809 0.06
       vertex -0.0275465 -0.0118824 0.06
    endloop
  endfacet
  facet normal 0 -0 1
    outer loop
       vertex -0.026809 -0.013464 0.06
       vertex 0.0164853 0.0250646 0.06
       vertex -0.0275465 -0.0118824 0.06
    endloop
  endfacet
  facet normal 0 0 1
    outer loop
       vertex -0.0275465 -0.0118824 0.06
       vertex 0.0118824 0.0275465 0.06
       vertex 0.0102606 0.0281908 0.06
    endloop
  endfacet
  facet normal 0 -0 1
    outer loop
       vertex -0.0275465 -0.0118824 0.06
       vertex 0.0102606 0.0281908 0.06
       vertex -0.0281908 -0.0102606 0.06
    endloop
  endfacet
  facet normal 0 0 1
    outer loop
       vertex 0.0102606 0.0281908 0.06
       vertex 0.0086041 0.0287397 0.06
       vertex 0.00691848 0.0291913 0.06
    endloop
  endfacet
  facet normal 0 -0 1
    outer loop
       vertex -0.0281908 -0.0102606 0.06
       vertex 0.0102606 0.0281908 0.06
       vertex -0.0291913 -0.00691848 0.06
    endloop
  endfacet
  facet normal -0 -0 1
    outer loop
       vertex -0.0287397 -0.0086041 0.06
       vertex -0.0281908 -0.0102606 0.06
       vertex -0.0291913 -0.00691848 0.06
    endloop
  endfacet
  facet normal 0 -0 1
    outer loop
       vertex -0.0291913 -0.00691848 0.06
       vertex 0.0102606 0.0281908 0.06
       vertex -0.0295442 -0.00520945 0.06
    endloop
  endfacet
  facet normal 0 0 1
    outer loop
       vertex 0.00691848 0.0291913 0.06
       vertex 0.00520945 0.0295442 0.06
       vertex 0.00348279 0.0297972 0.06
    endloop
  endfacet
  facet normal -0 -0 1
    outer loop
       vertex -0.0297972 -0.00348279 0.06
       vertex -0.0295442 -0.00520945 0.06
       vertex -0.0299492 -0.00174434 0.06
    endloop
  endfacet
  facet normal 0 -0 1
    outer loop
       vertex -0.0295442 -0.00520945 0.06
       vertex 0.0102606 0.0281908 0.06
       vertex -0.0299492 -0.00174434 0.06
    endloop
  endfacet
  facet normal 0 0 1
    outer loop
       vertex 0.0102606 0.0281908 0.06
       vertex 0.00691848 0.0291913 0.06
       vertex 0.00174434 0.0299492 0.06
    endloop
  endfacet
  facet normal 0 0 1
    outer loop
       vertex 0.00691848 0.0291913 0.06
       vertex 0.00348279 0.0297972 0.06
       vertex 0.00174434 0.0299492 0.06
    endloop
  endfacet
  facet normal 0 0 1
    outer loop
       vertex 0.00174434 0.0299492 0.06
       vertex 1.83697e-18 0.03 0.06
       vertex -0.00174434 0.0299492 0.06
    endloop
  endfacet
  facet normal 0 0 1
    outer loop
       vertex 0.0102606 0.0281908 0.06
       vertex 0.00174434 0.0299492 0.06
       vertex -0.00174434 0.0299492 0.06
    endloop
  endfacet
  facet normal 0 0 1
    outer loop
       vertex -0.0299492 -0.00174434 0.06
       vertex 0.0102606 0.0281908 0.06
       vertex -0.00174434 0.0299492 0.06
    endloop
  endfacet
  facet normal -0 0 1
    outer loop
       vertex -0.03 3.67394e-18 0.06
       vertex -0.0299492 -0.00174434 0.06
       vertex -0.0299492 0.00174434 0.06
    endloop
  endfacet
  facet normal 0 0 1
    outer loop
       vertex -0.00348279 0.0297972 0.06
       vertex -0.00520945 0.0295442 0.06
       vertex -0.00691848 0.0291913 0.06
    endloop
  endfacet
  facet normal 0 0 1
    outer loop
       vertex -0.00174434 0.0299492 0.06
       vertex -0.00348279 0.0297972 0.06
       vertex -0.0281908 0.0102606 0.06
    endloop
  endfacet
  facet normal 0 0 1
    outer loop
       vertex -0.00691848 0.0291913 0.06
       vertex -0.0086041 0.0287397 0.06
       vertex -0.0281908 0.0102606 0.06
    endloop
  endfacet
  facet normal -0 0 1
    outer loop
       vertex -0.0287397 0.0086041 0.06
       vertex -0.0291913 0.00691848 0.06
       vertex -0.0281908 0.0102606 0.06
    endloop
  endfacet
  facet normal -0 0 1
    outer loop
       vertex -0.0291913 0.00691848 0.06
       vertex -0.0295442 0.00520945 0.06
       vertex -0.0281908 0.0102606 0.06
    endloop
  endfacet
  facet normal -0 0 1
    outer loop
       vertex -0.0295442 0.00520945 0.06
       vertex -0.0297972 0.00348279 0.06
       vertex -0.0281908 0.0102606 0.06
    endloop
  endfacet
  facet normal -0 0 1
    outer loop
       vertex -0.0297972 0.00348279 0.06
       vertex -0.0299492 0.00174434 0.06
       vertex -0.0281908 0.0102606 0.06
    endloop
  endfacet
  facet normal 0 0 1
    outer loop
       vertex -0.0299492 -0.00174434 0.06
       vertex -0.00174434 0.0299492 0.06
       vertex -0.0281908 0.0102606 0.06
    endloop
  endfacet
  facet normal -0 0 1
    outer loop
       vertex -0.0299492 0.00174434 0.06
       vertex -0.0299492 -0.00174434 0.06
       vertex -0.0281908 0.0102606 0.06
    endloop
  endfacet
  facet normal 0 0 1
    outer loop
       vertex -0.00348279 0.0297972 0.06
       vertex -0.00691848 0.0291913 0.06
       vertex -0.0281908 0.0102606 0.06
    endloop
  endfacet
  facet normal 0 0 1
    outer loop
       vertex -0.0086041 0.0287397 0.06
       vertex -0.0102606 0.0281908 0.06
       vertex -0.0118824 0.0275465 0.06
    endloop
  endfacet
  facet normal 0 0 1
    outer loop
       vertex -0.0118824 0.0275465 0.06
       vertex -0.013464 0.026809 0.06
       vertex -0.015 0.0259808 0.06
    endloop
  endfacet
  facet normal 0 0 1
    outer loop
       vertex -0.0086041 0.0287397 0.06
       vertex -0.0118824 0.0275465 0.06
       vertex -0.015 0.0259808 0.06
    endloop
  endfacet
  facet normal -0 0 1
    outer loop
       vertex -0.0259808 0.015 0.06
       vertex -0.026809 0.013464 0.06
       vertex -0.0250646 0.0164853 0.06
    endloop
  endfacet
  facet normal -0 0 1
    outer loop
       vertex -0.026809 0.013464 0.06
       vertex -0.0275465 0.0118824 0.06
       vertex -0.0250646 0.0164853 0.06
    endloop
  endfacet
  facet normal -0 0 1
    outer loop
       vertex -0.0275465 0.0118824 0.06
       vertex -0.0281908 0.0102606 0.06
       vertex -0.0250646 0.0164853 0.06
    endloop
  endfacet
  facet normal 0 0 1
    outer loop
       vertex -0.015 0.0259808 0.06
       vertex -0.0164853 0.0250646 0.06
       vertex -0.0179148 0.0240637 0.06
    endloop
  endfacet
  facet normal 0 0 1
    outer loop
       vertex -0.015 0.0259808 0.06
       vertex -0.0179148 0.0240637 0.06
       vertex -0.0192836 0.0229813 0.06
    endloop
  endfacet
  facet normal -0 0 1
    outer loop
       vertex -0.0240637 0.0179148 0.06
       vertex -0.0250646 0.0164853 0.06
       vertex -0.0229813 0.0192836 0.06
    endloop
  endfacet
  facet normal -0 0 1
    outer loop
       vertex -0.0250646 0.0164853 0.06
       vertex -0.0281908 0.0102606 0.06
       vertex -0.0218212 0.0205872 0.06
    endloop
  endfacet
  facet normal 0 0 1
    outer loop
       vertex -0.0086041 0.0287397 0.06
       vertex -0.015 0.0259808 0.06
       vertex -0.0218212 0.0205872 0.06
    endloop
  endfacet
  facet normal 0 0 1
    outer loop
       vertex -0.015 0.0259808 0.06
       vertex -0.0192836 0.0229813 0.06
       vertex -0.0218212 0.0205872 0.06
    endloop
  endfacet
  facet normal -0 0 1
    outer loop
       vertex -0.0229813 0.0192836 0.06
       vertex -0.0250646 0.0164853 0.06
       vertex -0.0218212 0.0205872 0.06
    endloop
  endfacet
  facet normal 0 0 1
    outer loop
       vertex -0.0281908 0.0102606 0.06
       vertex -0.0086041 0.0287397 0.06
       vertex -0.0218212 0.0205872 0.06
    endloop
  endfacet
  facet normal 0 0 1
    outer loop
       vertex -0.0218212 0.0205872 0.06
       vertex -0.0192836 0.0229813 0.06
       vertex -0.0205872 0.0218212 0.06
    endloop
  endfacet
endsolid patch0
